<?xml version="1.0" encoding="utf-8"?>
<!-- Generator: Adobe Illustrator 22.0.1, SVG Export Plug-In . SVG Version: 6.00 Build 0)  -->
<svg version="1.1" id="lni_lni-ballon" xmlns="http://www.w3.org/2000/svg" xmlns:xlink="http://www.w3.org/1999/xlink" x="0px"
	 y="0px" viewBox="0 0 64 64" style="enable-background:new 0 0 64 64;" xml:space="preserve">
<path d="M41.4,1.3c-4.9,0-9.2,3.1-11.6,7.9c-1.9-1-3.9-1.6-6.1-1.6c-8,0-14.5,7.8-14.5,17.3c0,8.9,5.6,18.7,13.3,19.6
	c-0.4,1.3-0.9,2.7-1.1,3.5c-0.7,2.3,0,4.6,0.5,6.6c0.7,2.5,1.1,4,0.1,5.5c-0.5,0.8-0.3,1.9,0.5,2.4c0.3,0.2,0.6,0.3,1,0.3
	c0.6,0,1.1-0.3,1.5-0.8c1.9-2.9,1.1-5.8,0.3-8.4c-0.5-1.7-0.9-3.3-0.5-4.7c0.3-0.9,1.1-3.4,1.5-4.7c4.3-1.2,7.8-5.2,9.9-10
	c0.8,0.5,1.7,0.9,2.6,1.2c0,0,0.1,0,0.1,0c-0.1,0.2-0.2,0.5-0.3,0.8c-0.5,1.4-1.1,3-1.3,3.8c-0.7,2.3,0,4.6,0.5,6.6
	c0.7,2.5,1.1,4,0.1,5.5c-0.5,0.8-0.3,1.9,0.5,2.4c0.3,0.2,0.6,0.3,1,0.3c0.6,0,1.1-0.3,1.5-0.8c1.9-2.9,1.1-5.8,0.3-8.4
	c-0.5-1.7-0.9-3.3-0.5-4.7c0.2-0.7,0.8-2.3,1.3-3.6c0.3-0.7,0.5-1.3,0.6-1.7c0.5-0.1,1.1-0.2,1.6-0.3c5.9-1.8,10.8-9.9,10.8-18.1
	C54.8,8.5,48.8,1.3,41.4,1.3z M23.6,41.1c-5.5,0-11-8-11-16.2c0-7.6,4.9-13.8,11-13.8s11,6.2,11,13.8C34.6,33,29.2,41.1,23.6,41.1z
	 M43,32.1c-1.1,0.3-2.2,0.3-3.3,0c-0.8-0.3-1.6-0.7-2.4-1.3c0.5-1.9,0.8-3.9,0.8-5.9c0-5.5-2.1-10.4-5.5-13.5c1.7-4,5.1-6.6,8.7-6.6
	c5.5,0,10,5.6,10,12.6C51.3,23.8,47.4,30.7,43,32.1z"/>
</svg>
