<?xml version="1.0" encoding="utf-8"?>
<!-- Generator: Adobe Illustrator 22.0.1, SVG Export Plug-In . SVG Version: 6.00 Build 0)  -->
<svg version="1.1" id="lni_lni-cake" xmlns="http://www.w3.org/2000/svg" xmlns:xlink="http://www.w3.org/1999/xlink" x="0px"
	 y="0px" viewBox="0 0 64 64" style="enable-background:new 0 0 64 64;" xml:space="preserve">
<path d="M59,30.2h-1.6V10.7c0-3.8-3.1-7-7-7h-37c-3.8,0-7,3.1-7,7v19.5H5c-2,0-3.7,1.6-3.7,3.7v19.3c0,3.8,3.1,7,7,7l47.6,0.1
	c0,0,0,0,0,0c1.9,0,3.6-0.7,4.9-2c1.3-1.3,2-3.1,2-4.9V33.9C62.8,31.9,61.1,30.2,59,30.2z M13.5,7.2h37c1.9,0,3.5,1.6,3.5,3.5v4.9
	c-2.4,0.3-3.8,1.2-5.1,2c-1.4,0.9-2.5,1.6-5,1.6s-3.6-0.7-5-1.6c-1.6-1-3.4-2.1-6.9-2.1c-3.5,0-5.3,1.1-6.9,2.1
	c-1.4,0.9-2.5,1.6-5,1.6c-2.5,0-3.6-0.7-5-1.6c-1.3-0.8-2.7-1.7-5.1-2v-4.9C10,8.8,11.6,7.2,13.5,7.2z M10,19.1
	c1.3,0.3,2.2,0.8,3.3,1.4c1.6,1,3.4,2.1,6.9,2.1c3.5,0,5.3-1.1,6.9-2.1c1.4-0.9,2.5-1.6,5-1.6c2.5,0,3.6,0.7,5,1.6
	c1.6,1,3.4,2.1,6.9,2.1s5.3-1.1,6.9-2.1c1-0.6,1.9-1.2,3.3-1.4v11.1H10V19.1z M5,33.7h1.6h51H59c0.1,0,0.2,0.1,0.2,0.2v7.1
	c-3,0.3-4.8,1.4-6.4,2.4c-1.7,1.1-3.2,2-6.3,2c-3.1,0-4.6-0.9-6.3-2c-1.9-1.2-4.1-2.5-8.2-2.5s-6.3,1.3-8.2,2.5
	c-1.7,1.1-3.2,2-6.3,2s-4.6-0.9-6.3-2c-1.6-1-3.4-2.1-6.4-2.4v-7.1C4.8,33.8,4.8,33.7,5,33.7z M58.2,55.7c-0.7,0.7-1.5,1-2.4,1
	c0,0,0,0,0,0L8.2,56.7c-1.9,0-3.5-1.6-3.5-3.5v-8.8c2,0.3,3.2,1,4.6,1.9c1.9,1.2,4.1,2.5,8.2,2.5s6.3-1.3,8.2-2.5
	c1.7-1.1,3.2-2,6.3-2s4.6,0.9,6.3,2c1.9,1.2,4.1,2.5,8.2,2.5c4.1,0,6.3-1.3,8.2-2.5c1.4-0.9,2.6-1.6,4.6-1.9v8.8
	C59.3,54.2,58.9,55.1,58.2,55.7z"/>
</svg>
