<?xml version="1.0" encoding="utf-8"?>
<!-- Generator: Adobe Illustrator 22.0.1, SVG Export Plug-In . SVG Version: 6.00 Build 0)  -->
<svg version="1.1" id="lni_lni-candy-cane" xmlns="http://www.w3.org/2000/svg" xmlns:xlink="http://www.w3.org/1999/xlink" x="0px"
	 y="0px" viewBox="0 0 64 64" style="enable-background:new 0 0 64 64;" xml:space="preserve">
<path d="M56.8,14.8c-7.6-7.4-19.7-7.7-27-0.6L3.2,40.1c-1.3,1.3-2,2.9-2,4.8c0,1.9,0.8,3.7,2.2,5.1c2.8,2.7,7.3,2.8,10,0.2
	l26.2-25.6c1.8-1.8,4.9-1.9,6.9-0.2c1.1,1,1.8,2.3,1.8,3.7c0,1.2-0.4,2.4-1.3,3.3L35.1,43c-1.3,1.3-2,2.9-2,4.8
	c0,1.9,0.8,3.7,2.2,5.1c1.4,1.4,3.3,2.1,5.2,2.1c1.8,0,3.5-0.6,4.8-1.9l12.2-11.9c3.5-3.5,5.4-8.1,5.3-13.1
	C62.6,23.1,60.5,18.4,56.8,14.8z M11,47.7c-1.4,1.3-3.6,1.2-5.1-0.2c-0.7-0.7-1.1-1.6-1.1-2.6c0-0.9,0.3-1.7,0.9-2.3l6.8-6.7
	l7.1,3.3L11,47.7z M22.3,36.6l-7.1-3.3l7.1-6.9l7.1,3.3L22.3,36.6z M42.8,50.5c-1.4,1.3-3.6,1.2-5.1-0.2c-0.7-0.7-1.1-1.6-1.1-2.6
	c0-0.9,0.3-1.7,0.9-2.3l3.1-3l7.1,3.3L42.8,50.5z M55,38.7l-4.5,4.4l-7.1-3.3l6.1-6c1.6-1.5,2.4-3.6,2.4-5.8c-0.1-2.4-1.2-4.7-3-6.3
	c-3.4-2.9-8.4-2.7-11.6,0.3l-5.1,5L25,23.8l7.3-7.1c5.9-5.8,15.8-5.5,22.1,0.6c3,3,4.8,6.8,4.9,10.9C59.4,32.2,57.8,35.9,55,38.7z"
	/>
</svg>
