<?xml version="1.0" encoding="utf-8"?>
<!-- Generator: Adobe Illustrator 22.0.1, SVG Export Plug-In . SVG Version: 6.00 Build 0)  -->
<svg version="1.1" id="lni_lni-candy" xmlns="http://www.w3.org/2000/svg" xmlns:xlink="http://www.w3.org/1999/xlink" x="0px"
	 y="0px" viewBox="0 0 64 64" style="enable-background:new 0 0 64 64;" xml:space="preserve">
<path d="M60.4,6.5l-3-3c-1.7-1.7-4-2.5-6.3-2.2c-2.4,0.3-4.4,1.5-5.7,3.5l-3.7,5.6C35.3,8.4,27.9,9.9,22.9,15l-7.9,7.9
	c-3.5,3.5-5.4,8.1-5.4,13.1c0,2,0.3,4,1,5.9l-5.5,3.5c-2,1.3-3.3,3.4-3.6,5.8c-0.3,2.4,0.6,4.7,2.3,6.4l3,3c1.5,1.5,3.5,2.3,5.5,2.3
	c0.3,0,0.5,0,0.8,0c2.3-0.2,4.4-1.5,5.7-3.5l3.7-5.7c1.8,0.6,3.7,0.9,5.7,0.9c4.8,0,9.5-1.8,13.1-5.4l2.9-2.9c0,0,0,0,0,0
	c0,0,0,0,0,0l4.9-4.9c3.5-3.5,5.4-8.1,5.4-13.1c0-2-0.3-4-1-5.9l5.5-3.5c2-1.3,3.4-3.4,3.6-5.8S62.1,8.2,60.4,6.5z M15.7,57.3
	c-0.7,1.1-1.9,1.8-3.2,1.9c-1.3,0.1-2.6-0.3-3.5-1.2l-3-3c-0.9-0.9-1.4-2.2-1.2-3.5c0.1-1.3,0.9-2.5,2-3.2l5.1-3.2
	c0.8,1.4,1.8,2.8,3,4c1.3,1.3,2.7,2.3,4.2,3.1L15.7,57.3z M17.4,46.5c-2.8-2.8-4.4-6.6-4.4-10.6c0-4,1.6-7.8,4.4-10.6l1.8-1.8
	c1.3,0.9,2.5,1.1,3.5,1.3c1.1,0.2,2,0.4,3.1,1.5c1.1,1.1,1.3,1.9,1.5,3.1c0.3,1.3,0.6,3,2.5,4.9c1.9,1.9,3.5,2.2,4.9,2.4
	c1.1,0.2,2,0.4,3.1,1.5c1.1,1.1,1.3,1.9,1.5,3.1c0.2,1,0.4,2.2,1.3,3.5l-1.8,1.8C32.8,52.4,23.3,52.4,17.4,46.5z M46.6,38.6
	l-3.5,3.5c-0.2-0.5-0.3-1-0.4-1.6c-0.3-1.3-0.6-3-2.4-4.9c-1.9-1.9-3.5-2.2-4.9-2.4c-1.1-0.2-2-0.4-3.1-1.5
	c-1.1-1.1-1.3-1.9-1.5-3.1c-0.3-1.3-0.6-3-2.5-4.9c-1.9-1.9-3.5-2.2-4.9-2.4c-0.6-0.1-1.1-0.2-1.6-0.4l3.5-3.5
	C28.3,14.5,32.1,13,36,13c3.9,0,7.7,1.5,10.7,4.4C49.5,20.3,51,24,51,28C51,32,49.5,35.8,46.6,38.6z M57.2,15.7l-5.1,3.2
	c-0.8-1.4-1.8-2.8-3-3.9c-1.3-1.3-2.7-2.3-4.1-3.1l3.3-5.1c0.7-1.1,1.9-1.8,3.2-1.9C52.8,4.6,54.1,5.1,55,6l3,3
	c0.9,0.9,1.4,2.2,1.2,3.5C59.1,13.8,58.3,15,57.2,15.7z"/>
</svg>
