<?xml version="1.0" encoding="utf-8"?>
<!-- Generator: Adobe Illustrator 22.0.1, SVG Export Plug-In . SVG Version: 6.00 Build 0)  -->
<svg version="1.1" id="lni_lni-fireworks" xmlns="http://www.w3.org/2000/svg" xmlns:xlink="http://www.w3.org/1999/xlink" x="0px"
	 y="0px" viewBox="0 0 64 64" style="enable-background:new 0 0 64 64;" xml:space="preserve">
<g>
	<path d="M47.8,36.4c0-1.6-0.6-3-1.7-4.2L21.8,8l1.4-1.4c0.9-0.9,1.2-2.2,0.7-3.4c-0.5-1.2-1.6-1.9-2.9-1.9H4.4
		c-1.7,0-3.1,1.4-3.1,3.1v16.7c0,1.3,0.8,2.4,1.9,2.9c0.4,0.2,0.8,0.2,1.2,0.2c0.8,0,1.6-0.3,2.2-0.9L8,21.8L32.2,46
		c1.1,1.1,2.6,1.7,4.2,1.7c1.6,0,3-0.6,4.2-1.7l5.5-5.5C47.1,39.4,47.8,37.9,47.8,36.4z M33.9,25l-5.3,12.4l-7.1-7.1l5.2-12.5
		L33.9,25z M4.7,20.2V4.8h15.4L4.7,20.2z M19.4,10.5l4.6,4.6l-5.2,12.5l-8.2-8.2L19.4,10.5z M43.6,38L38,43.6
		c-0.9,0.9-2.4,0.9-3.4,0l-3.5-3.5l5.3-12.4l7,7c0.4,0.4,0.7,1,0.7,1.7C44.3,37,44,37.6,43.6,38z"/>
	<path d="M45.2,54.1c-0.7-0.7-1.8-0.7-2.5,0s-0.7,1.8,0,2.5l5.7,5.7c0.3,0.3,0.8,0.5,1.2,0.5s0.9-0.2,1.2-0.5c0.7-0.7,0.7-1.8,0-2.5
		L45.2,54.1z"/>
	<path d="M50.9,48.4c-0.7-0.7-1.8-0.7-2.5,0s-0.7,1.8,0,2.5l9.5,9.5c0.3,0.3,0.8,0.5,1.2,0.5s0.9-0.2,1.2-0.5c0.7-0.7,0.7-1.8,0-2.5
		L50.9,48.4z"/>
	<path d="M62.2,48.4l-5.7-5.7c-0.7-0.7-1.8-0.7-2.5,0s-0.7,1.8,0,2.5l5.7,5.7c0.3,0.3,0.8,0.5,1.2,0.5s0.9-0.2,1.2-0.5
		C62.9,50.2,62.9,49.1,62.2,48.4z"/>
</g>
</svg>
