<?xml version="1.0" encoding="utf-8"?>
<!-- Generator: Adobe Illustrator 22.0.1, SVG Export Plug-In . SVG Version: 6.00 Build 0)  -->
<svg version="1.1" id="lni_lni-flags" xmlns="http://www.w3.org/2000/svg" xmlns:xlink="http://www.w3.org/1999/xlink" x="0px"
	 y="0px" viewBox="0 0 64 64" style="enable-background:new 0 0 64 64;" xml:space="preserve">
<path d="M62.7,23.8c-0.3-0.9-1.2-1.5-2.2-1.2c-6,1.7-16.8,2.7-28.2,2.7c-12,0-23-1.1-28.8-2.9c-0.9-0.3-1.9,0.2-2.2,1.2
	c-0.2,0.8,0.1,1.5,0.7,2l4.7,12.9c0.3,0.9,1.1,1.5,2,1.6c0.1,0,0.2,0,0.3,0c0.8,0,1.5-0.4,2-1l7.7-10.7c1.6,0.1,3.2,0.2,4.9,0.3
	l6.2,11.8c0.4,0.8,1.3,1.3,2.1,1.3c0,0,0,0,0,0c0.9,0,1.7-0.5,2.1-1.3l6.3-11.7c1.7-0.1,3.4-0.2,5-0.3L53,39c0.5,0.6,1.2,1,2,1
	c0.1,0,0.2,0,0.3,0c0.9-0.1,1.6-0.7,1.9-1.6l4.6-12.6C62.5,25.4,62.9,24.6,62.7,23.8z M9.3,35.3l-3.2-8.6c2.4,0.5,5.3,0.9,8.5,1.3
	L9.3,35.3z M31.9,37l-4.3-8.2c1.5,0,3.1,0.1,4.7,0.1c1.3,0,2.7,0,4,0L31.9,37z M54.7,35.3L49.4,28c3.1-0.3,5.9-0.7,8.4-1.2
	L54.7,35.3z"/>
</svg>
