<?xml version="1.0" encoding="utf-8"?>
<!-- Generator: Adobe Illustrator 22.0.1, SVG Export Plug-In . SVG Version: 6.00 Build 0)  -->
<svg version="1.1" id="lni_lni-spray" xmlns="http://www.w3.org/2000/svg" xmlns:xlink="http://www.w3.org/1999/xlink" x="0px"
	 y="0px" viewBox="0 0 64 64" style="enable-background:new 0 0 64 64;" xml:space="preserve">
<g>
	<path d="M20.6,23h-0.9v-2.4h0.6c1.1,0,2-0.9,2-2v-1.8c0-1.1-0.9-2-2-2h-4.7c-1.1,0-2,0.9-2,2v1.8c0,1.1,0.9,2,2,2h0.6V23h-0.9
		C8.6,23,3.1,28.5,3.1,35.2v24.2c0,1.8,1.5,3.3,3.3,3.3h23.1c1.8,0,3.3-1.5,3.3-3.3V35.2C32.8,28.5,27.3,23,20.6,23z M6.6,59.3V39
		h22.7v20.2H6.6z M29.3,35.5H6.6v-0.3c0-4.8,3.9-8.7,8.7-8.7h5.3c4.8,0,8.7,3.9,8.7,8.7V35.5z"/>
	<path d="M37.3,15.2h-1.9c-0.6,0-1,0.4-1,1V18c0,0.6,0.4,1,1,1h1.9c0.6,0,1-0.4,1-1v-1.9C38.3,15.6,37.8,15.2,37.3,15.2z"/>
	<path d="M58.2,15.2h-1.9c-0.6,0-1,0.4-1,1V18c0,0.6,0.4,1,1,1h1.9c0.6,0,1-0.4,1-1v-1.9C59.2,15.6,58.7,15.2,58.2,15.2z"/>
	<path d="M58.2,27.2h-1.9c-0.6,0-1,0.4-1,1v1.9c0,0.6,0.4,1,1,1h1.9c0.6,0,1-0.4,1-1v-1.9C59.2,27.7,58.7,27.2,58.2,27.2z"/>
	<path d="M58.2,3h-1.9c-0.6,0-1,0.4-1,1v1.9c0,0.6,0.4,1,1,1h1.9c0.6,0,1-0.4,1-1V4C59.2,3.4,58.7,3,58.2,3z"/>
	<path d="M46.3,23.4h-1.9c-0.6,0-1,0.4-1,1v1.9c0,0.6,0.4,1,1,1h1.9c0.6,0,1-0.4,1-1v-1.9C47.3,23.8,46.8,23.4,46.3,23.4z"/>
	<path d="M46.3,6.9h-1.9c-0.6,0-1,0.4-1,1v1.9c0,0.6,0.4,1,1,1h1.9c0.6,0,1-0.4,1-1V7.9C47.3,7.3,46.8,6.9,46.3,6.9z"/>
</g>
</svg>
