<?xml version="1.0" encoding="utf-8"?>
<!-- Generator: Adobe Illustrator 22.0.1, SVG Export Plug-In . SVG Version: 6.00 Build 0)  -->
<svg version="1.1" id="lni_lni-indent-decrease" xmlns="http://www.w3.org/2000/svg" xmlns:xlink="http://www.w3.org/1999/xlink"
	 x="0px" y="0px" viewBox="0 0 64 64" style="enable-background:new 0 0 64 64;" xml:space="preserve">
<g>
	<path d="M8.9,4.8h47.4c1,0,1.8-0.8,1.8-1.8s-0.8-1.8-1.8-1.8H8.9C7.9,1.3,7.1,2,7.1,3S7.9,4.8,8.9,4.8z"/>
	<path d="M56.3,59.3H8.9c-1,0-1.8,0.8-1.8,1.8s0.8,1.8,1.8,1.8h47.4c1,0,1.8-0.8,1.8-1.8S57.3,59.3,56.3,59.3z"/>
	<path d="M18.8,43.4c0.3,0,0.7-0.1,1-0.2c0.9-0.4,1.5-1.2,1.6-2.1l0-18c0-1-0.6-2-1.5-2.4c-0.9-0.4-1.9-0.3-2.6,0.4L6.9,29.8
		c-0.6,0.5-1,1.2-1,2.1c0,0.8,0.4,1.6,0.9,2l10.4,9C17.7,43.2,18.3,43.4,18.8,43.4z M18,25v13.8l-8.1-6.9L18,25z"/>
	<path d="M56.3,15.7H33.7c-1,0-1.8,0.8-1.8,1.8s0.8,1.8,1.8,1.8h22.6c1,0,1.8-0.8,1.8-1.8S57.3,15.7,56.3,15.7z"/>
	<path d="M56.3,30.3H33.7c-1,0-1.8,0.8-1.8,1.8s0.8,1.8,1.8,1.8h22.6c1,0,1.8-0.8,1.8-1.8S57.3,30.3,56.3,30.3z"/>
	<path d="M56.3,44.8H33.7c-1,0-1.8,0.8-1.8,1.8s0.8,1.8,1.8,1.8h22.6c1,0,1.8-0.8,1.8-1.8S57.3,44.8,56.3,44.8z"/>
</g>
</svg>
