<?xml version="1.0" encoding="utf-8"?>
<!-- Generator: Adobe Illustrator 22.0.1, SVG Export Plug-In . SVG Version: 6.00 Build 0)  -->
<svg version="1.1" id="lni_lni-indent-increase" xmlns="http://www.w3.org/2000/svg" xmlns:xlink="http://www.w3.org/1999/xlink"
	 x="0px" y="0px" viewBox="0 0 64 64" style="enable-background:new 0 0 64 64;" xml:space="preserve">
<g>
	<path d="M7.7,4.8h47.4c1,0,1.8-0.8,1.8-1.8s-0.8-1.8-1.8-1.8H7.7C6.7,1.3,5.9,2,5.9,3S6.7,4.8,7.7,4.8z"/>
	<path d="M55.1,59.3H7.7c-1,0-1.8,0.8-1.8,1.8s0.8,1.8,1.8,1.8h47.4c1,0,1.8-0.8,1.8-1.8S56.1,59.3,55.1,59.3z"/>
	<path d="M57.1,29.8L46.7,21c-0.8-0.6-1.8-0.8-2.6-0.4C43.1,21,42.5,22,42.5,23v17.9l0,0.2c0.1,0.9,0.7,1.7,1.6,2.1
		c0.3,0.1,0.7,0.2,1,0.2c0.6,0,1.1-0.2,1.6-0.6l10.3-8.9c0.6-0.5,1-1.2,1-2.1C58.1,31,57.7,30.3,57.1,29.8z M46,38.8V25l8.1,6.9
		L46,38.8z"/>
	<path d="M7.7,19.2h22.6c1,0,1.8-0.8,1.8-1.8s-0.8-1.8-1.8-1.8H7.7c-1,0-1.8,0.8-1.8,1.8S6.7,19.2,7.7,19.2z"/>
	<path d="M7.7,33.8h22.6c1,0,1.8-0.8,1.8-1.8c0-1-0.8-1.8-1.8-1.8H7.7c-1,0-1.8,0.8-1.8,1.8C5.9,33,6.7,33.8,7.7,33.8z"/>
	<path d="M7.7,48.3h22.6c1,0,1.8-0.8,1.8-1.8s-0.8-1.8-1.8-1.8H7.7c-1,0-1.8,0.8-1.8,1.8S6.7,48.3,7.7,48.3z"/>
</g>
</svg>
