<?xml version="1.0" encoding="utf-8"?>
<!-- Generator: Adobe Illustrator 22.0.1, SVG Export Plug-In . SVG Version: 6.00 Build 0)  -->
<svg version="1.1" id="lni_lni-line-dotted" xmlns="http://www.w3.org/2000/svg" xmlns:xlink="http://www.w3.org/1999/xlink"
	 x="0px" y="0px" viewBox="0 0 64 64" style="enable-background:new 0 0 64 64;" xml:space="preserve">
<g>
	<path d="M7.8,30.3H3c-1,0-1.8,0.8-1.8,1.8c0,1,0.8,1.8,1.8,1.8h4.8c1,0,1.8-0.8,1.8-1.8C9.6,31,8.8,30.3,7.8,30.3z"/>
	<path d="M34.4,30.3h-4.8c-1,0-1.8,0.8-1.8,1.8c0,1,0.8,1.8,1.8,1.8h4.8c1,0,1.8-0.8,1.8-1.8C36.2,31,35.4,30.3,34.4,30.3z"/>
	<path d="M61,30.3h-4.8c-1,0-1.8,0.8-1.8,1.8c0,1,0.8,1.8,1.8,1.8H61c1,0,1.8-0.8,1.8-1.8C62.8,31,62,30.3,61,30.3z"/>
</g>
</svg>
