<?xml version="1.0" encoding="utf-8"?>
<!-- Generator: Adobe Illustrator 22.0.1, SVG Export Plug-In . SVG Version: 6.00 Build 0)  -->
<svg version="1.1" id="lni_lni-line-spacing" xmlns="http://www.w3.org/2000/svg" xmlns:xlink="http://www.w3.org/1999/xlink"
	 x="0px" y="0px" viewBox="0 0 64 64" style="enable-background:new 0 0 64 64;" xml:space="preserve">
<g>
	<path d="M37.4,6.4h23.3c1,0,1.8-0.8,1.8-1.8s-0.8-1.8-1.8-1.8H37.4c-1,0-1.8,0.8-1.8,1.8S36.4,6.4,37.4,6.4z"/>
	<path d="M60.7,21.1H37.4c-1,0-1.8,0.8-1.8,1.8s0.8,1.8,1.8,1.8h23.3c1,0,1.8-0.8,1.8-1.8S61.6,21.1,60.7,21.1z"/>
	<path d="M60.7,39.4H37.4c-1,0-1.8,0.8-1.8,1.8s0.8,1.8,1.8,1.8h23.3c1,0,1.8-0.8,1.8-1.8S61.6,39.4,60.7,39.4z"/>
	<path d="M60.7,57.6H37.4c-1,0-1.8,0.8-1.8,1.8s0.8,1.8,1.8,1.8h23.3c1,0,1.8-0.8,1.8-1.8S61.6,57.6,60.7,57.6z"/>
	<path d="M22.9,13.5c0.3,0.3,0.8,0.5,1.2,0.5c0.4,0,0.9-0.2,1.2-0.5c0.7-0.7,0.7-1.8,0-2.5L17,2.6c-1.8-1.8-4.6-1.8-6.4,0L2.1,11
		c-0.7,0.7-0.7,1.8,0,2.5c0.7,0.7,1.8,0.7,2.5,0L12,6.1V58l-7.4-7.5c-0.7-0.7-1.8-0.7-2.5,0c-0.7,0.7-0.7,1.8,0,2.5l8.4,8.5
		c0.9,0.9,2,1.3,3.2,1.3c0,0,0,0,0,0c1.2,0,2.3-0.5,3.2-1.3l8.5-8.5c0.7-0.7,0.7-1.8,0-2.5c-0.7-0.7-1.8-0.7-2.5,0l-7.4,7.4V6.1
		L22.9,13.5z"/>
</g>
</svg>
