<?xml version="1.0" encoding="utf-8"?>
<!-- Generator: Adobe Illustrator 22.0.1, SVG Export Plug-In . SVG Version: 6.00 Build 0)  -->
<svg version="1.1" id="lni_lni-line-dashed" xmlns="http://www.w3.org/2000/svg" xmlns:xlink="http://www.w3.org/1999/xlink"
	 x="0px" y="0px" viewBox="0 0 64 64" style="enable-background:new 0 0 64 64;" xml:space="preserve">
<g>
	<path d="M61,30.3H50.5c-1,0-1.8,0.8-1.8,1.8c0,1,0.8,1.8,1.8,1.8H61c1,0,1.8-0.8,1.8-1.8C62.8,31,62,30.3,61,30.3z"/>
	<path d="M37.3,30.3H26.7c-1,0-1.8,0.8-1.8,1.8c0,1,0.8,1.8,1.8,1.8h10.5c1,0,1.8-0.8,1.8-1.8C39,31,38.2,30.3,37.3,30.3z"/>
	<path d="M13.5,30.3H3c-1,0-1.8,0.8-1.8,1.8c0,1,0.8,1.8,1.8,1.8h10.5c1,0,1.8-0.8,1.8-1.8C15.3,31,14.5,30.3,13.5,30.3z"/>
</g>
</svg>
