<?xml version="1.0" encoding="utf-8"?>
<!-- Generator: Adobe Illustrator 22.0.1, SVG Export Plug-In . SVG Version: 6.00 Build 0)  -->
<svg version="1.1" id="lni_lni-page-break" xmlns="http://www.w3.org/2000/svg" xmlns:xlink="http://www.w3.org/1999/xlink" x="0px"
	 y="0px" viewBox="0 0 64 64" style="enable-background:new 0 0 64 64;" xml:space="preserve">
<g>
	<path d="M47.5,1.3H16.5c-2.6,0-4.8,2.1-4.8,4.8v15.1c0,2.6,2.1,4.8,4.8,4.8h30.9c2.6,0,4.8-2.1,4.8-4.8V6
		C52.2,3.4,50.1,1.3,47.5,1.3z M48.7,21.1c0,0.7-0.6,1.3-1.3,1.3H16.5c-0.7,0-1.3-0.6-1.3-1.3V6c0-0.7,0.6-1.3,1.3-1.3h30.9
		c0.7,0,1.3,0.6,1.3,1.3V21.1z"/>
	<path d="M47.5,38.2H16.5c-2.6,0-4.8,2.1-4.8,4.8V58c0,2.6,2.1,4.8,4.8,4.8h30.9c2.6,0,4.8-2.1,4.8-4.8V42.9
		C52.2,40.3,50.1,38.2,47.5,38.2z M48.7,58c0,0.7-0.6,1.3-1.3,1.3H16.5c-0.7,0-1.3-0.6-1.3-1.3V42.9c0-0.7,0.6-1.3,1.3-1.3h30.9
		c0.7,0,1.3,0.6,1.3,1.3V58z"/>
	<path d="M17.2,33.8h3.3h1c1,0,1.8-0.8,1.8-1.8c0-1-0.8-1.8-1.8-1.8h-1h-3.3h-1c-1,0-1.8,0.8-1.8,1.8c0,1,0.8,1.8,1.8,1.8H17.2z"/>
	<path d="M30.4,33.8h3.3h1c1,0,1.8-0.8,1.8-1.8c0-1-0.8-1.8-1.8-1.8h-1h-3.3h-1c-1,0-1.8,0.8-1.8,1.8c0,1,0.8,1.8,1.8,1.8H30.4z"/>
	<path d="M43.6,33.8h3.3h1c1,0,1.8-0.8,1.8-1.8c0-1-0.8-1.8-1.8-1.8h-1h-3.3h-1c-1,0-1.8,0.8-1.8,1.8c0,1,0.8,1.8,1.8,1.8H43.6z"/>
</g>
</svg>
