<?xml version="1.0" encoding="utf-8"?>
<!-- Generator: Adobe Illustrator 22.0.1, SVG Export Plug-In . SVG Version: 6.00 Build 0)  -->
<svg version="1.1" id="lni_lni-pagination" xmlns="http://www.w3.org/2000/svg" xmlns:xlink="http://www.w3.org/1999/xlink" x="0px"
	 y="0px" viewBox="0 0 64 64" style="enable-background:new 0 0 64 64;" xml:space="preserve">
<g>
	<path d="M62,30.3L51.2,19.4c-0.7-0.7-1.8-0.7-2.5,0c-0.7,0.7-0.7,1.8,0,2.5L58.8,32L48.7,42.1c-0.7,0.7-0.7,1.8,0,2.5
		c0.3,0.3,0.8,0.5,1.2,0.5c0.4,0,0.9-0.2,1.2-0.5l10.8-10.9C63,32.8,63,31.2,62,30.3z"/>
	<path d="M15.3,19.4c-0.7-0.7-1.8-0.7-2.5,0L2,30.3C1,31.2,1,32.8,2,33.7l10.8,10.9c0.3,0.3,0.8,0.5,1.2,0.5c0.4,0,0.9-0.2,1.2-0.5
		c0.7-0.7,0.7-1.8,0-2.5L5.2,32l10.1-10.1C15.9,21.2,15.9,20.1,15.3,19.4z"/>
	<path d="M21.5,29.2c-1.6,0-2.8,1.3-2.8,2.8s1.3,2.8,2.8,2.8c1.6,0,2.8-1.3,2.8-2.8S23.1,29.2,21.5,29.2z"/>
	<circle cx="32.3" cy="32" r="2.8"/>
	<circle cx="43.3" cy="32" r="2.8"/>
</g>
</svg>
