<?xml version="1.0" encoding="utf-8"?>
<!-- Generator: Adobe Illustrator 22.0.1, SVG Export Plug-In . SVG Version: 6.00 Build 0)  -->
<svg version="1.1" id="lni_lni-pilcrow" xmlns="http://www.w3.org/2000/svg" xmlns:xlink="http://www.w3.org/1999/xlink" x="0px"
	 y="0px" viewBox="0 0 64 64" style="enable-background:new 0 0 64 64;" xml:space="preserve">
<path d="M50.4,1.3H28.2c-9,0-16.3,7.3-16.3,16.3c0,8.7,6.9,15.9,15.6,16.2V61c0,1,0.8,1.8,1.8,1.8s1.8-0.8,1.8-1.8V4.8h9.9V61
	c0,1,0.8,1.8,1.8,1.8s1.8-0.8,1.8-1.8V4.8h6.1c1,0,1.8-0.8,1.8-1.8S51.4,1.3,50.4,1.3z M15.4,17.5c0-6.8,5.4-12.4,12.1-12.7v25.5
	C20.7,29.9,15.4,24.3,15.4,17.5z"/>
</svg>
