<?xml version="1.0" encoding="utf-8"?>
<!-- Generator: Adobe Illustrator 22.0.1, SVG Export Plug-In . SVG Version: 6.00 Build 0)  -->
<svg version="1.1" id="lni_lni-sort-amount-dsc" xmlns="http://www.w3.org/2000/svg" xmlns:xlink="http://www.w3.org/1999/xlink"
	 x="0px" y="0px" viewBox="0 0 64 64" style="enable-background:new 0 0 64 64;" xml:space="preserve">
<g>
	<path d="M22.8,44l-7.5,7.5V8.3c0-1-0.8-1.8-1.8-1.8s-1.8,0.8-1.8,1.8v43.3L4.2,44c-0.7-0.7-1.8-0.7-2.5,0c-0.7,0.7-0.7,1.8,0,2.5
		L12.3,57c0.3,0.3,0.8,0.5,1.2,0.5c0.4,0,0.9-0.2,1.2-0.5l10.5-10.5c0.7-0.7,0.7-1.8,0-2.5C24.6,43.4,23.5,43.4,22.8,44z"/>
	<path d="M39.9,54l-5-0.1c-1,0-1.8,0.8-1.8,1.7s0.8,1.8,1.7,1.8l5,0.1c0,0,0,0,0,0c1,0,1.7-0.8,1.8-1.7C41.7,54.8,40.9,54,39.9,54z"
		/>
	<path d="M47.8,38.2l-13-0.1c0,0,0,0,0,0c-1,0-1.7,0.8-1.8,1.7c0,1,0.8,1.8,1.7,1.8l13,0.1c0,0,0,0,0,0c1,0,1.7-0.8,1.8-1.7
		C49.6,39,48.8,38.2,47.8,38.2z"/>
	<path d="M53.1,22.3l-18.2-0.1c0,0,0,0,0,0c-1,0-1.7,0.8-1.8,1.7c0,1,0.8,1.8,1.7,1.8l18.2,0.1c0,0,0,0,0,0c1,0,1.7-0.8,1.8-1.7
		C54.8,23.1,54.1,22.3,53.1,22.3z"/>
	<path d="M61,6.5L34.9,6.5c0,0,0,0,0,0c-1,0-1.7,0.8-1.8,1.7c0,1,0.8,1.8,1.7,1.8L61,10c0,0,0,0,0,0c1,0,1.7-0.8,1.8-1.7
		C62.8,7.3,62,6.5,61,6.5z"/>
</g>
</svg>
