<?xml version="1.0" encoding="utf-8"?>
<!-- Generator: Adobe Illustrator 22.0.1, SVG Export Plug-In . SVG Version: 6.00 Build 0)  -->
<svg version="1.1" id="lni_lni-sort-alpha-asc" xmlns="http://www.w3.org/2000/svg" xmlns:xlink="http://www.w3.org/1999/xlink"
	 x="0px" y="0px" viewBox="0 0 64 64" style="enable-background:new 0 0 64 64;" xml:space="preserve">
<g>
	<path d="M29.4,49.2l-7.6,7.5V3c0-1-0.8-1.8-1.8-1.8S18.4,2,18.4,3v53.8l-7.6-7.5c-0.7-0.7-1.8-0.7-2.5,0c-0.7,0.7-0.7,1.8,0,2.5
		l10.6,10.5c0.3,0.3,0.8,0.5,1.2,0.5s0.9-0.2,1.2-0.5l10.6-10.5c0.7-0.7,0.7-1.8,0-2.5C31.2,48.5,30.1,48.5,29.4,49.2z"/>
	<path d="M54.4,59.3h-5.3l5.6-7.6c0.4-0.5,0.4-1.2,0.1-1.8c-0.3-0.6-0.9-1-1.6-1h-8.1c-1,0-1.8,0.8-1.8,1.8s0.8,1.8,1.8,1.8h4.6
		L44.3,60c-0.4,0.5-0.4,1.2-0.1,1.8c0.3,0.6,0.9,1,1.6,1h8.7c1,0,1.8-0.8,1.8-1.8S55.4,59.3,54.4,59.3z"/>
	<path d="M43.9,15.3h7.9c0.1,0,0.1,0,0.2,0l0.8,1.7c0.3,0.6,0.9,1,1.6,1c0.3,0,0.5-0.1,0.8-0.2c0.9-0.4,1.2-1.5,0.8-2.3L49.4,2.2
		c-0.3-0.6-0.9-1-1.6-1s-1.3,0.4-1.6,1l-6.6,13.2c-0.4,0.9-0.1,1.9,0.8,2.3c0.9,0.4,1.9,0.1,2.3-0.8l0.8-1.7
		C43.7,15.3,43.8,15.3,43.9,15.3z M47.8,6.9l2.5,4.9h-4.9L47.8,6.9z"/>
</g>
</svg>
