<?xml version="1.0" encoding="utf-8"?>
<!-- Generator: Adobe Illustrator 22.0.1, SVG Export Plug-In . SVG Version: 6.00 Build 0)  -->
<svg version="1.1" id="lni_lni-sort-amount-asc" xmlns="http://www.w3.org/2000/svg" xmlns:xlink="http://www.w3.org/1999/xlink"
	 x="0px" y="0px" viewBox="0 0 64 64" style="enable-background:new 0 0 64 64;" xml:space="preserve">
<g>
	<path d="M22.8,44l-7.5,7.5V8.3c0-1-0.8-1.8-1.8-1.8s-1.8,0.8-1.8,1.8v43.3L4.2,44c-0.7-0.7-1.8-0.7-2.5,0c-0.7,0.7-0.7,1.8,0,2.5
		L12.3,57c0.3,0.3,0.8,0.5,1.2,0.5c0.4,0,0.9-0.2,1.2-0.5l10.5-10.5c0.7-0.7,0.7-1.8,0-2.5C24.6,43.4,23.5,43.4,22.8,44z"/>
	<path d="M34.9,10C34.9,10,34.9,10,34.9,10l5.1-0.1c1,0,1.7-0.8,1.7-1.8c0-1-0.8-1.7-1.8-1.7l-5,0.1c-1,0-1.7,0.8-1.7,1.8
		C33.1,9.3,33.9,10,34.9,10z"/>
	<path d="M34.9,25.8C34.9,25.8,34.9,25.8,34.9,25.8l13-0.1c1,0,1.7-0.8,1.7-1.8c0-1-0.8-1.7-1.8-1.7c0,0,0,0,0,0l-13,0.1
		c-1,0-1.7,0.8-1.7,1.8C33.1,25.1,33.9,25.8,34.9,25.8z"/>
	<path d="M34.9,41.7C34.9,41.7,34.9,41.7,34.9,41.7l18.2-0.1c1,0,1.7-0.8,1.7-1.8c0-1-0.8-1.7-1.8-1.7c0,0,0,0,0,0l-18.2,0.1
		c-1,0-1.7,0.8-1.7,1.8C33.1,40.9,33.9,41.7,34.9,41.7z"/>
	<path d="M61,53.9C61,53.9,61,53.9,61,53.9L34.9,54c-1,0-1.7,0.8-1.7,1.8s0.8,1.7,1.8,1.7c0,0,0,0,0,0L61,57.4c1,0,1.7-0.8,1.7-1.8
		S62,53.9,61,53.9z"/>
</g>
</svg>
