<?xml version="1.0" encoding="utf-8"?>
<!-- Generator: Adobe Illustrator 22.0.1, SVG Export Plug-In . SVG Version: 6.00 Build 0)  -->
<svg version="1.1" id="lni_lni-spellcheck" xmlns="http://www.w3.org/2000/svg" xmlns:xlink="http://www.w3.org/1999/xlink" x="0px"
	 y="0px" viewBox="0 0 64 64" style="enable-background:new 0 0 64 64;" xml:space="preserve">
<g>
	<path d="M24,29.2c-0.3-0.7-0.8-0.9-1.4-0.9h-6.2c-0.7,0-1.3,0.3-1.4,0.9L3.1,56.3c-0.5,1.1,0.3,2.2,1.4,2.2h5.1
		c0.7,0,1.2-0.5,1.4-0.9l1.7-4.1h12.8l1.6,4.1c0.1,0.6,0.8,0.9,1.4,0.9h5.4c1.4-0.1,2.2-1.2,1.7-2.2L24,29.2z M15.1,45.9L19.3,35
		l4.2,10.9H15.1z"/>
	<path d="M62.2,4.3c-0.7-0.7-1.8-0.7-2.5,0l-22,21.8L32,20.3c-0.7-0.7-1.8-0.7-2.5,0c-0.7,0.7-0.7,1.8,0,2.5l6.5,6.4
		c0.5,0.5,1.1,0.7,1.8,0.7s1.3-0.2,1.8-0.7L62.2,6.7C62.9,6.1,62.9,5,62.2,4.3z"/>
</g>
</svg>
