<?xml version="1.0" encoding="utf-8"?>
<!-- Generator: Adobe Illustrator 22.0.1, SVG Export Plug-In . SVG Version: 6.00 Build 0)  -->
<svg version="1.1" id="lni_lni-strikethrough" xmlns="http://www.w3.org/2000/svg" xmlns:xlink="http://www.w3.org/1999/xlink"
	 x="0px" y="0px" viewBox="0 0 64 64" style="enable-background:new 0 0 64 64;" xml:space="preserve">
<path d="M61,19.7H33.8v-15h15.7c1,0,1.8-0.8,1.8-1.8s-0.8-1.8-1.8-1.8H14.6c-1,0-1.8,0.8-1.8,1.8s0.8,1.8,1.8,1.8h15.6v15H3
	c-1,0-1.8,0.8-1.8,1.8S2,23.2,3,23.2h27.3V61c0,1,0.8,1.8,1.8,1.8s1.8-0.8,1.8-1.8V23.2H61c1,0,1.8-0.8,1.8-1.8S62,19.7,61,19.7z"/>
</svg>
