<?xml version="1.0" encoding="utf-8"?>
<!-- Generator: Adobe Illustrator 22.0.1, SVG Export Plug-In . SVG Version: 6.00 Build 0)  -->
<svg version="1.1" id="lni_lni-text-align-justify" xmlns="http://www.w3.org/2000/svg" xmlns:xlink="http://www.w3.org/1999/xlink"
	 x="0px" y="0px" viewBox="0 0 64 64" style="enable-background:new 0 0 64 64;" xml:space="preserve">
<g>
	<path d="M3,7.5h58c1,0,1.8-0.8,1.8-1.8S62,4,61,4H3C2,4,1.3,4.8,1.3,5.7S2,7.5,3,7.5z"/>
	<path d="M61,21.5H3c-1,0-1.8,0.8-1.8,1.8S2,25,3,25h58c1,0,1.8-0.8,1.8-1.8S62,21.5,61,21.5z"/>
	<path d="M61,39H3c-1,0-1.8,0.8-1.8,1.8S2,42.5,3,42.5h58c1,0,1.8-0.8,1.8-1.8S62,39,61,39z"/>
	<path d="M42.9,56.5H3c-1,0-1.8,0.8-1.8,1.8S2,60,3,60h39.9c1,0,1.8-0.8,1.8-1.8S43.8,56.5,42.9,56.5z"/>
</g>
</svg>
