<?xml version="1.0" encoding="utf-8"?>
<!-- Generator: Adobe Illustrator 22.0.1, SVG Export Plug-In . SVG Version: 6.00 Build 0)  -->
<svg version="1.1" id="lni_lni-text-format" xmlns="http://www.w3.org/2000/svg" xmlns:xlink="http://www.w3.org/1999/xlink"
	 x="0px" y="0px" viewBox="0 0 64 64" style="enable-background:new 0 0 64 64;" xml:space="preserve">
<g>
	<path d="M5.2,46.5h5.5c0.9,0,2-0.7,2.2-1.4l2.6-6.5H35l2.3,6.5c0.2,0.9,1.3,1.4,2.2,1.4h5.9c1.8-0.2,2.9-1.8,2.2-3.2L31.7,5.6
		c-0.4-1-1.1-1.3-2-1.3h-8.3c-0.9,0-1.8,0.4-2,1.3L3.2,43.5C2.5,45,3.6,46.5,5.2,46.5z M25.3,15.8l5.6,14.9H19.6L25.3,15.8z"/>
	<path d="M47.8,57.9H3c-1,0-1.8,0.8-1.8,1.8S2,61.4,3,61.4h44.8c1,0,1.8-0.8,1.8-1.8S48.8,57.9,47.8,57.9z"/>
	<path d="M61,2.6c-1,0-1.8,0.8-1.8,1.8v42.2c0,1,0.8,1.8,1.8,1.8s1.8-0.8,1.8-1.8V4.3C62.8,3.3,62,2.6,61,2.6z"/>
</g>
</svg>
