<?xml version="1.0" encoding="utf-8"?>
<!-- Generator: Adobe Illustrator 22.0.1, SVG Export Plug-In . SVG Version: 6.00 Build 0)  -->
<svg version="1.1" id="lni_lni-text-format-remove" xmlns="http://www.w3.org/2000/svg" xmlns:xlink="http://www.w3.org/1999/xlink"
	 x="0px" y="0px" viewBox="0 0 64 64" style="enable-background:new 0 0 64 64;" xml:space="preserve">
<g>
	<path d="M43.3,54.2H5.5c-1,0-1.8,0.8-1.8,1.8s0.8,1.8,1.8,1.8h37.8c1,0,1.8-0.8,1.8-1.8S44.3,54.2,43.3,54.2z"/>
	<path d="M59.5,41.3l2.8-2.8c0.7-0.7,0.7-1.8,0-2.5c-0.7-0.7-1.8-0.7-2.5,0L57,38.9l-2.8-2.8c-0.7-0.7-1.8-0.7-2.5,0
		c-0.7,0.7-0.7,1.8,0,2.5l2.8,2.8l-2.8,2.8c-0.7,0.7-0.7,1.8,0,2.5c0.3,0.3,0.8,0.5,1.2,0.5c0.4,0,0.9-0.2,1.2-0.5l2.8-2.8l2.8,2.8
		c0.3,0.3,0.8,0.5,1.2,0.5c0.4,0,0.9-0.2,1.2-0.5c0.7-0.7,0.7-1.8,0-2.5L59.5,41.3z"/>
	<path d="M30.4,9.3c-0.3-0.9-1-1.3-2-1.3h-8c-0.8,0-1.7,0.4-2,1.3L3.2,45.5c-0.6,1.4,0.3,2.9,1.9,2.9h5.3c0.9,0,1.9-0.7,2.1-1.4
		l2.5-6.2h18.6l2.2,6.2c0.2,0.9,1.2,1.4,2.1,1.4h5.6c1.7-0.2,2.8-1.8,2.1-3L30.4,9.3z M18.9,33.3L24.3,19l5.4,14.2H18.9z"/>
</g>
</svg>
