<?xml version="1.0" encoding="utf-8"?>
<!-- Generator: Adobe Illustrator 22.0.1, SVG Export Plug-In . SVG Version: 6.00 Build 0)  -->
<svg version="1.1" id="lni_lni-text-align-center" xmlns="http://www.w3.org/2000/svg" xmlns:xlink="http://www.w3.org/1999/xlink"
	 x="0px" y="0px" viewBox="0 0 64 64" style="enable-background:new 0 0 64 64;" xml:space="preserve">
<g>
	<path d="M10.9,7.5h42.2c1,0,1.8-0.8,1.8-1.8S54.1,4,53.1,4H10.9c-1,0-1.8,0.8-1.8,1.8S9.9,7.5,10.9,7.5z"/>
	<path d="M7,25H57c1,0,1.8-0.8,1.8-1.8S58,21.5,57,21.5H7c-1,0-1.8,0.8-1.8,1.8S6,25,7,25z"/>
	<path d="M14.9,39c-1,0-1.8,0.8-1.8,1.8s0.8,1.8,1.8,1.8h34.3c1,0,1.8-0.8,1.8-1.8S50.1,39,49.1,39H14.9z"/>
	<path d="M61,56.5H3c-1,0-1.8,0.8-1.8,1.8S2,60,3,60h58c1,0,1.8-0.8,1.8-1.8S62,56.5,61,56.5z"/>
</g>
</svg>
