<?xml version="1.0" encoding="utf-8"?>
<!-- Generator: Adobe Illustrator 22.0.1, SVG Export Plug-In . SVG Version: 6.00 Build 0)  -->
<svg version="1.1" id="lni_lni-underline" xmlns="http://www.w3.org/2000/svg" xmlns:xlink="http://www.w3.org/1999/xlink" x="0px"
	 y="0px" viewBox="0 0 64 64" style="enable-background:new 0 0 64 64;" xml:space="preserve">
<g>
	<path d="M32,49.6c11.9,0,21.5-9.4,21.5-21V3c0-1-0.8-1.8-1.8-1.8S50,2,50,3v25.5c0,9.7-8.1,17.5-18,17.5s-18-7.9-18-17.5V3
		c0-1-0.8-1.8-1.8-1.8S10.5,2,10.5,3v25.5C10.5,40.1,20.1,49.6,32,49.6z"/>
	<path d="M57.1,59.3H6.9c-1,0-1.8,0.8-1.8,1.8s0.8,1.8,1.8,1.8h50.1c1,0,1.8-0.8,1.8-1.8S58,59.3,57.1,59.3z"/>
</g>
</svg>
