<svg width="48" height="48" viewBox="0 0 48 48" fill="none" xmlns="http://www.w3.org/2000/svg">
<path d="M0 24C0 10.7452 10.7452 0 24 0V0C37.2548 0 48 10.7452 48 24V24C48 37.2548 37.2548 48 24 48V48C10.7452 48 0 37.2548 0 24V24Z" fill="#FAFAFA"/>
<path d="M14.4001 20.4C16.9351 20.4 18.4501 21.675 20.2501 24C20.6701 23.46 21.1051 22.875 21.5701 22.23C22.3051 21.225 23.0851 20.145 23.9851 19.11C21.7951 16.59 18.9001 14.4 14.4001 14.4C9.10505 14.4 4.80005 18.705 4.80005 24H10.8C10.8 22.02 12.42 20.4 14.4001 20.4Z" fill="url(#paint0_linear)"/>
<path d="M37.2 24C37.2 25.98 35.58 27.6 33.6 27.6C31.065 27.6 29.55 26.325 27.75 24C27.33 24.525 26.895 25.125 26.43 25.755C25.695 26.76 24.9 27.855 24 28.875C26.205 31.395 29.1 33.585 33.6 33.585C38.895 33.585 43.2 29.28 43.2 23.985H37.2V24Z" fill="url(#paint1_linear)"/>
<path d="M14.4 33.6C9.10505 33.6 4.80005 29.295 4.80005 24H10.8C10.8 25.98 12.42 27.6 14.4 27.6C17.52 27.6 19.08 25.665 21.57 22.23C24.105 18.735 27.27 14.4 33.585 14.4C38.88 14.4 43.185 18.705 43.185 24H37.185C37.185 22.02 35.565 20.4 33.585 20.4C30.465 20.4 28.905 22.335 26.415 25.755C23.88 29.25 20.73 33.6 14.4 33.6Z" fill="url(#paint2_linear)"/>
<defs>
<linearGradient id="paint0_linear" x1="4.80005" y1="19.2" x2="23.9998" y2="19.2" gradientUnits="userSpaceOnUse">
<stop offset="0.2862" stop-color="#003FFF" stop-opacity="0.84"/>
<stop offset="1" stop-color="#003FFF" stop-opacity="0.72"/>
</linearGradient>
<linearGradient id="paint1_linear" x1="23.9997" y1="28.8" x2="43.2" y2="28.8" gradientUnits="userSpaceOnUse">
<stop stop-color="#003FFF" stop-opacity="0.72"/>
<stop offset="0.6883" stop-color="#003FFF"/>
</linearGradient>
<linearGradient id="paint2_linear" x1="4.80005" y1="24" x2="43.2" y2="24" gradientUnits="userSpaceOnUse">
<stop offset="0.16" stop-color="#003FFF" stop-opacity="0.84"/>
<stop offset="0.84" stop-color="#003FFF"/>
</linearGradient>
</defs>
</svg>
