<?xml version="1.0" encoding="utf-8"?>
<!-- Generator: Adobe Illustrator 22.0.1, SVG Export Plug-In . SVG Version: 6.00 Build 0)  -->
<svg version="1.1" id="lni_lni-cloud" xmlns="http://www.w3.org/2000/svg" xmlns:xlink="http://www.w3.org/1999/xlink" x="0px"
	 y="0px" viewBox="0 0 64 64" style="enable-background:new 0 0 64 64;" xml:space="preserve">
<g>
	<path d="M44.1,54.3H15.3c0,0,0,0,0,0c-7.8,0-14.1-6.3-14.1-13.9c0-7.3,5.7-13.2,12.9-13.9C14.5,17.2,22.4,9.7,32,9.7
		c2.1,0,4.1,0.3,5.8,1c3.8,1.3,7.1,3.9,9.3,7.5c4.1,0.6,7.9,2.6,10.6,5.6c3.2,3.4,5,7.8,5,12.4C62.8,46.2,54.4,54.3,44.1,54.3z
		 M15.4,50.8h28.7c8.3,0,15.1-6.6,15.1-14.8c0-3.7-1.4-7.3-4-10c-2.4-2.6-5.8-4.2-9.3-4.6c-0.6-0.1-1.1-0.4-1.3-0.9
		c-1.8-3.2-4.6-5.5-7.9-6.6c-1.4-0.5-2.9-0.8-4.6-0.8c-7.9,0-14.4,6.3-14.4,14.1v1.1c0,1-0.8,1.8-1.8,1.8h-0.5
		c-6,0-10.6,4.6-10.6,10.4S9.4,50.8,15.4,50.8z"/>
</g>
</svg>
