<?xml version="1.0" encoding="utf-8"?>
<!-- Generator: Adobe Illustrator 22.0.1, SVG Export Plug-In . SVG Version: 6.00 Build 0)  -->
<svg version="1.1" id="lni_lni-cloudy-sun" xmlns="http://www.w3.org/2000/svg" xmlns:xlink="http://www.w3.org/1999/xlink" x="0px"
	 y="0px" viewBox="0 0 64 64" style="enable-background:new 0 0 64 64;" xml:space="preserve">
<g>
	<path d="M39.7,12.4c1,0,1.8-0.8,1.8-1.8V6.4c0-1-0.8-1.8-1.8-1.8s-1.8,0.8-1.8,1.8v4.2C37.9,11.6,38.7,12.4,39.7,12.4z"/>
	<path d="M55.8,11.5c-0.7-0.7-1.8-0.7-2.5,0l-2.7,2.6c-0.7,0.7-0.7,1.8,0,2.5c0.3,0.3,0.8,0.5,1.2,0.5c0.4,0,0.9-0.2,1.2-0.5
		l2.7-2.6C56.4,13.3,56.4,12.2,55.8,11.5z"/>
	<path d="M61,27.1h-4.3c-1,0-1.8,0.8-1.8,1.8s0.8,1.8,1.8,1.8H61c1,0,1.8-0.8,1.8-1.8S62,27.1,61,27.1z"/>
	<path d="M25.4,17c0.3,0.3,0.8,0.5,1.2,0.5c0.5,0,0.9-0.2,1.2-0.5c0.7-0.7,0.7-1.8,0-2.5l-3-3c-0.7-0.7-1.8-0.7-2.5,0
		c-0.7,0.7-0.7,1.8,0,2.5L25.4,17z"/>
	<path d="M49.4,28.1c0-6-4.9-10.9-10.9-10.9c-4.9,0-9.2,3.3-10.5,7.9c-0.8-0.1-1.7-0.2-2.6-0.2c-7.5,0-13.7,5.6-14.2,12.7
		c-5.6,0.6-10,5.2-10,10.8c0,6,5.1,10.8,11.3,10.9c0,0,0,0,0,0h22.2c8.2,0,14.8-6.3,14.8-14.1c0-3.4-1.3-6.6-3.6-9.2
		C48.1,33.9,49.4,31.1,49.4,28.1z M38.5,20.7c4.1,0,7.4,3.3,7.4,7.4c0,2.2-0.9,4.2-2.5,5.5c-1.8-1.2-3.8-2-6-2.4
		c-1.5-2.2-3.6-4-6-5.1C32.2,23,35.2,20.7,38.5,20.7z M34.8,55.8H12.6c-4.4,0-7.8-3.2-7.8-7.4s3.4-7.4,7.8-7.4H13
		c1,0,1.8-0.8,1.8-1.8v-0.8c0-5.6,4.8-10.1,10.7-10.1c1.3,0,2.4,0.2,3.5,0.6c2.5,0.8,4.6,2.5,5.9,4.8c0.3,0.5,0.8,0.8,1.3,0.9
		c2.2,0.2,4.3,1.1,6,2.5c0,0,0,0,0,0c0.3,0.3,0.7,0.6,1,0.9c1.9,2,3,4.6,3,7.2C46.1,51.1,41,55.8,34.8,55.8z"/>
</g>
</svg>
