<?xml version="1.0" encoding="utf-8"?>
<!-- Generator: Adobe Illustrator 22.0.1, SVG Export Plug-In . SVG Version: 6.00 Build 0)  -->
<svg version="1.1" id="lni_lni-drop" xmlns="http://www.w3.org/2000/svg" xmlns:xlink="http://www.w3.org/1999/xlink" x="0px"
	 y="0px" viewBox="0 0 64 64" style="enable-background:new 0 0 64 64;" xml:space="preserve">
<g>
	<path d="M32.1,62.8c-11,0-20.1-8.5-20.4-19l0-2.1c0-5.1,1.3-10.7,3.9-16.7c3.1-7.2,8.1-15.4,13.7-22.4c0.7-0.9,1.7-1.4,2.8-1.4
		c1.1,0,2.1,0.5,2.8,1.3l0,0C40.8,9.9,45.7,18,48.6,25.3c2.5,6.1,3.7,11.5,3.7,16.5v2C52.2,54.3,43.1,62.8,32.1,62.8z M32.1,4.8
		C32.1,4.8,32.1,4.8,32.1,4.8c-5.5,6.8-10.3,14.7-13.3,21.6c-2.4,5.5-3.6,10.7-3.6,15.3v2c0.2,8.6,7.8,15.5,16.9,15.5
		c9.2,0,16.7-6.9,16.7-15.4v-2c0-4.5-1.1-9.5-3.5-15.2C42.6,19.7,37.8,11.8,32.1,4.8L32.1,4.8C32.2,4.8,32.1,4.8,32.1,4.8z"/>
</g>
</svg>
