<?xml version="1.0" encoding="utf-8"?>
<!-- Generator: Adobe Illustrator 22.0.1, SVG Export Plug-In . SVG Version: 6.00 Build 0)  -->
<svg version="1.1" id="lni_lni-night" xmlns="http://www.w3.org/2000/svg" xmlns:xlink="http://www.w3.org/1999/xlink" x="0px"
	 y="0px" viewBox="0 0 64 64" style="enable-background:new 0 0 64 64;" xml:space="preserve">
<path d="M29.7,5c0,0,0.1,0,0.1,0c1.6,0.3,3.3,0.6,4.9,1.1c13.9,4.6,21.8,19.2,17.9,32.9C49.2,51.2,38,59,25.9,59
	c-2.7,0-5.5-0.4-8.2-1.2c-2.5-0.8-4.9-1.9-7-3.2c-0.6-0.4-0.4-1.4,0.4-1.4c11.5-0.4,22-7.8,25.6-19.1c3.2-10.2,0-20.8-7.5-27.7
	C28.7,5.9,29.1,5,29.7,5 M29.7,1.5L29.7,1.5c-1.8,0-3.4,1.1-4,2.8c-0.6,1.7-0.2,3.5,1.1,4.6c6.7,6.2,9.2,15.5,6.5,24.1
	c-3,9.6-12,16.3-22.3,16.7c-1.9,0-3.5,1.3-4,3.1c-0.5,1.8,0.3,3.8,1.9,4.7c2.6,1.6,5.2,2.8,7.8,3.6c3,0.9,6.1,1.4,9.2,1.4
	c14,0,26.4-9.2,30.2-22.5c4.4-15.6-4.4-31.9-20.1-37.2l0,0l0,0c-1.7-0.5-3.5-1-5.4-1.3C30.2,1.5,30,1.5,29.7,1.5L29.7,1.5z"/>
</svg>
