<?xml version="1.0" encoding="utf-8"?>
<!-- Generator: Adobe Illustrator 22.0.1, SVG Export Plug-In . SVG Version: 6.00 Build 0)  -->
<svg version="1.1" id="lni_lni-rain" xmlns="http://www.w3.org/2000/svg" xmlns:xlink="http://www.w3.org/1999/xlink" x="0px"
	 y="0px" viewBox="0 0 64 64" style="enable-background:new 0 0 64 64;" xml:space="preserve">
<g>
	<path d="M57.8,18.5c-2.8-3-6.6-5-10.6-5.7c-2.2-3.6-5.5-6.3-9.3-7.6c-1.7-0.7-3.7-1-5.8-1c-9.7,0-17.5,7.7-17.9,17.2
		C6.9,22.1,1.3,28.1,1.3,35.5c0,5.1,2.6,9.7,7,12.2C8.5,47.9,8.8,48,9.1,48c0.6,0,1.2-0.3,1.5-0.9c0.5-0.8,0.2-1.9-0.6-2.4
		c-3.3-1.9-5.2-5.4-5.2-9.2c0-6,4.7-10.6,10.7-10.6h0.5c1,0,1.8-0.8,1.8-1.8v-1.1c0-7.9,6.5-14.4,14.4-14.4c1.7,0,3.2,0.3,4.6,0.8
		c3.4,1.2,6.2,3.6,7.9,6.8c0.3,0.5,0.8,0.9,1.4,0.9c3.5,0.4,6.9,2.1,9.3,4.7c2.6,2.8,4,6.5,4,10.3c0,5.2-2.7,10-7.1,12.8
		c-0.8,0.5-1.1,1.6-0.6,2.4c0.5,0.8,1.6,1.1,2.4,0.6c5.5-3.4,8.8-9.3,8.8-15.8C62.8,26.4,61,21.9,57.8,18.5z"/>
	<path d="M21.6,41.1c-1,0-1.8,0.8-1.8,1.8V58c0,1,0.8,1.8,1.8,1.8s1.8-0.8,1.8-1.8V42.8C23.3,41.9,22.6,41.1,21.6,41.1z"/>
	<path d="M32,36c-1,0-1.8,0.8-1.8,1.8V53c0,1,0.8,1.8,1.8,1.8c1,0,1.8-0.8,1.8-1.8V37.8C33.8,36.8,33,36,32,36z"/>
	<path d="M42.4,41.1c-1,0-1.8,0.8-1.8,1.8V58c0,1,0.8,1.8,1.8,1.8s1.8-0.8,1.8-1.8V42.8C44.2,41.9,43.4,41.1,42.4,41.1z"/>
</g>
</svg>
