<?xml version="1.0" encoding="utf-8"?>
<!-- Generator: Adobe Illustrator 22.0.1, SVG Export Plug-In . SVG Version: 6.00 Build 0)  -->
<svg version="1.1" id="lni_lni-sun" xmlns="http://www.w3.org/2000/svg" xmlns:xlink="http://www.w3.org/1999/xlink" x="0px"
	 y="0px" viewBox="0 0 64 64" style="enable-background:new 0 0 64 64;" xml:space="preserve">
<g>
	<path d="M32,18.5c-7.5,0-13.5,6.1-13.5,13.5S24.5,45.5,32,45.5S45.5,39.5,45.5,32S39.5,18.5,32,18.5z M32,42c-5.5,0-10-4.5-10-10
		s4.5-10,10-10s10,4.5,10,10S37.5,42,32,42z"/>
	<path d="M32,10c1,0,1.8-0.8,1.8-1.8V3c0-1-0.8-1.8-1.8-1.8S30.3,2,30.3,3v5.3C30.3,9.2,31,10,32,10z"/>
	<path d="M32,54c-1,0-1.8,0.8-1.8,1.8V61c0,1,0.8,1.8,1.8,1.8s1.8-0.8,1.8-1.8v-5.3C33.8,54.8,33,54,32,54z"/>
	<path d="M50.9,10.6l-3.3,3.3c-0.7,0.7-0.7,1.8,0,2.5c0.3,0.3,0.8,0.5,1.2,0.5s0.9-0.2,1.2-0.5l3.3-3.3c0.7-0.7,0.7-1.8,0-2.5
		C52.7,9.9,51.6,9.9,50.9,10.6z"/>
	<path d="M13.9,47.6l-3.3,3.3c-0.7,0.7-0.7,1.8,0,2.5c0.3,0.3,0.8,0.5,1.2,0.5c0.4,0,0.9-0.2,1.2-0.5l3.3-3.3c0.7-0.7,0.7-1.8,0-2.5
		C15.7,46.9,14.6,46.9,13.9,47.6z"/>
	<path d="M61,30.3h-5.3c-1,0-1.8,0.8-1.8,1.8s0.8,1.8,1.8,1.8H61c1,0,1.8-0.8,1.8-1.8S62,30.3,61,30.3z"/>
	<path d="M8.3,30.3H3c-1,0-1.8,0.8-1.8,1.8S2,33.8,3,33.8h5.3c1,0,1.8-0.8,1.8-1.8S9.2,30.3,8.3,30.3z"/>
	<path d="M50.1,47.6c-0.7-0.7-1.8-0.7-2.5,0c-0.7,0.7-0.7,1.8,0,2.5l3.3,3.3c0.3,0.3,0.8,0.5,1.2,0.5c0.4,0,0.9-0.2,1.2-0.5
		c0.7-0.7,0.7-1.8,0-2.5L50.1,47.6z"/>
	<path d="M13.1,10.6c-0.7-0.7-1.8-0.7-2.5,0c-0.7,0.7-0.7,1.8,0,2.5l3.3,3.3c0.3,0.3,0.8,0.5,1.2,0.5c0.4,0,0.9-0.2,1.2-0.5
		c0.7-0.7,0.7-1.8,0-2.5L13.1,10.6z"/>
</g>
</svg>
