<?xml version="1.0" encoding="utf-8"?>
<!-- Generator: Adobe Illustrator 22.0.1, SVG Export Plug-In . SVG Version: 6.00 Build 0)  -->
<svg version="1.1" id="lni_lni-thunder-alt" xmlns="http://www.w3.org/2000/svg" xmlns:xlink="http://www.w3.org/1999/xlink"
	 x="0px" y="0px" viewBox="0 0 64 64" style="enable-background:new 0 0 64 64;" xml:space="preserve">
<g>
	<path d="M57.8,23.5c-2.8-3-6.6-5-10.6-5.7c-2.2-3.6-5.5-6.3-9.3-7.6c-1.7-0.7-3.7-1-5.8-1c-9.7,0-17.5,7.7-17.9,17.3
		C6.9,27.2,1.3,33.2,1.3,40.6c0,7.9,6.2,14.1,14.1,14.2h28.8c10.3,0,18.6-8.3,18.6-18.6C62.8,31.5,61,27,57.8,23.5z M44.1,51.3H15.4
		c-5.9,0-10.6-4.7-10.6-10.7c0-6,4.7-10.6,10.7-10.6h0.5c1,0,1.8-0.8,1.8-1.8v-1.1c0-7.9,6.5-14.4,14.4-14.4c1.7,0,3.2,0.3,4.6,0.8
		c3.4,1.2,6.2,3.6,7.9,6.8c0.3,0.5,0.8,0.9,1.4,0.9c3.5,0.4,6.9,2.1,9.3,4.7c2.6,2.8,4,6.5,4,10.3C59.3,44.5,52.5,51.3,44.1,51.3z"
		/>
	<path d="M36.9,32h-5.2l5.7-7.4c0.6-0.8,0.5-1.9-0.3-2.5c-0.8-0.6-1.9-0.5-2.5,0.3l-7.5,9.6c-0.5,0.6-0.6,1.5-0.2,2.2
		c0.4,0.7,1.1,1.2,1.9,1.2h5.1l-6.1,7.3c-0.6,0.7-0.5,1.8,0.2,2.5c0.3,0.3,0.7,0.4,1.1,0.4c0.5,0,1-0.2,1.3-0.6l8-9.6
		c0.5-0.6,0.6-1.5,0.3-2.2C38.4,32.4,37.7,32,36.9,32z"/>
</g>
</svg>
