<?xml version="1.0" encoding="utf-8"?>
<!-- Generator: Adobe Illustrator 22.0.1, SVG Export Plug-In . SVG Version: 6.00 Build 0)  -->
<svg version="1.1" id="lni_lni-thunder" xmlns="http://www.w3.org/2000/svg" xmlns:xlink="http://www.w3.org/1999/xlink" x="0px"
	 y="0px" viewBox="0 0 64 64" style="enable-background:new 0 0 64 64;" xml:space="preserve">
<g>
	<path d="M57.8,19.6c-2.8-3-6.6-5-10.6-5.7c-2.2-3.6-5.5-6.3-9.3-7.6c-1.7-0.7-3.7-1-5.8-1c-9.7,0-17.5,7.7-17.9,17.2
		C6.9,23.2,1.3,29.3,1.3,36.6c0,7.9,6.2,14.1,14.1,14.1c0,0,0,0,0,0c1,0,1.7-0.8,1.8-1.7c0-1-0.8-1.8-1.7-1.8
		c-5.9,0-10.6-4.7-10.6-10.6c0-6,4.7-10.6,10.7-10.6h0.5c1,0,1.8-0.8,1.8-1.8v-1.1c0-7.9,6.5-14.4,14.4-14.4c1.7,0,3.2,0.3,4.6,0.8
		c3.4,1.2,6.2,3.6,7.9,6.8c0.3,0.5,0.8,0.9,1.4,0.9c3.5,0.4,6.9,2.1,9.3,4.7c2.6,2.8,4,6.5,4,10.3c0,6.3-4,12-9.9,14.1
		c-0.9,0.3-1.4,1.3-1,2.2c0.3,0.9,1.3,1.4,2.2,1C57.9,47,62.8,40,62.8,32.2C62.8,27.5,61,23.1,57.8,19.6z"/>
	<path d="M49,32.6c-0.5-1.1-1.6-1.8-2.8-1.8h-4.3l0.9-1.6c0.8-1.4,0.7-3.1-0.1-4.5c-0.8-1.4-2.3-2.2-3.9-2.2h-8
		c-1.8,0-3.4,1-4.1,2.7l-5.8,12.9c-0.4,1-0.4,2.1,0.2,3c0.6,0.9,1.6,1.4,2.6,1.4h5.5l-3.6,12.1c-0.4,1.5,0.2,3,1.5,3.7
		c0.5,0.3,1,0.4,1.5,0.4c0.9,0,1.8-0.4,2.4-1.2l17.6-21.6C49.3,34.9,49.5,33.7,49,32.6z M29.5,53.8l3.8-12.6
		c0.2-0.5,0.1-1.1-0.3-1.5c-0.3-0.4-0.9-0.7-1.4-0.7h-7.3l5.6-12.4c0.2-0.4,0.5-0.6,0.9-0.6h8c0.5,0,0.8,0.3,0.9,0.5
		c0.1,0.1,0.3,0.5,0,1l-2.3,4.2c-0.3,0.5-0.3,1.2,0,1.7c0.3,0.5,0.9,0.9,1.5,0.9h6.4L29.5,53.8z"/>
</g>
</svg>
