<?xml version="1.0" encoding="utf-8"?>
<!-- Generator: Adobe Illustrator 22.0.1, SVG Export Plug-In . SVG Version: 6.00 Build 0)  -->
<svg version="1.1" id="lni_lni-bricks" xmlns="http://www.w3.org/2000/svg" xmlns:xlink="http://www.w3.org/1999/xlink" x="0px"
	 y="0px" viewBox="0 0 64 64" style="enable-background:new 0 0 64 64;" xml:space="preserve">
<path d="M58,30.5h-4.1v-7.3c0-3-2.5-5.5-5.5-5.5H15.6c-3,0-5.5,2.5-5.5,5.5v7.3H6c-2.5,0-4.5,2-4.5,4.5v6.8c0,2.5,2,4.5,4.5,4.5h52
	c2.5,0,4.5-2,4.5-4.5V35C62.5,32.5,60.5,30.5,58,30.5z M50.9,23.2v7.3H33.5v-9.8h14.9C49.8,20.7,50.9,21.9,50.9,23.2z M41,33.5v9.8
	H23v-9.8H41z M13.1,23.2c0-1.4,1.1-2.5,2.5-2.5h14.9v9.8H13.1V23.2z M4.5,41.8V35c0-0.8,0.7-1.5,1.5-1.5h4.1H20v9.8H6
	C5.2,43.3,4.5,42.6,4.5,41.8z M59.5,41.8c0,0.8-0.7,1.5-1.5,1.5H44v-9.8h9.9H58c0.8,0,1.5,0.7,1.5,1.5V41.8z"/>
</svg>
