<?xml version="1.0" encoding="utf-8"?>
<!-- Generator: Adobe Illustrator 22.0.1, SVG Export Plug-In . SVG Version: 6.00 Build 0)  -->
<svg version="1.1" id="lni_lni-construction" xmlns="http://www.w3.org/2000/svg" xmlns:xlink="http://www.w3.org/1999/xlink"
	 x="0px" y="0px" viewBox="0 0 64 64" style="enable-background:new 0 0 64 64;" xml:space="preserve">
<path d="M58.4,23.2c2.4,0,4.4-2,4.4-4.4v-3.3c0-1.9-1.2-3.6-3.1-4.2l-32-9.9c-0.4-0.1-0.9-0.2-1.3-0.2H13.5c-2.4,0-4.4,2-4.4,4.4
	v13.2c0,2.4,2,4.4,4.4,4.4h3.5v20.2H6c-2.6,0-4.8,2.1-4.8,4.8V58c0,2.6,2.1,4.8,4.8,4.8h25.6c2.6,0,4.8-2.1,4.8-4.8v-9.8
	c0-2.6-2.1-4.8-4.8-4.8H20.6V23.2h30.8v11.9c0,1.9,1.3,3.6,3.3,4.1c3.1,0.8,5.1,3.9,4.5,7.1c-0.4,2.5-2.5,4.5-4.9,4.9
	c-1.9,0.3-3.7-0.1-5.1-1.3c-1.4-1.2-2.2-2.9-2.2-4.7c0-0.7,0.1-1.4,0.4-2.1c0.3-0.9-0.2-1.9-1.1-2.2c-0.9-0.3-1.9,0.2-2.2,1.1
	c-0.4,1-0.5,2.1-0.5,3.2c0,2.9,1.3,5.6,3.5,7.4c1.8,1.5,4,2.3,6.2,2.3c0.6,0,1.1,0,1.7-0.2c3.9-0.7,7.1-3.9,7.8-7.8
	c0.9-5-2.2-9.8-7.1-11.1c-0.3-0.1-0.7-0.3-0.7-0.7V23.2H58.4z M32.9,48.2V58c0,0.7-0.6,1.3-1.3,1.3H6c-0.7,0-1.3-0.6-1.3-1.3v-9.8
	c0-0.7,0.6-1.3,1.3-1.3h25.6C32.3,46.9,32.9,47.5,32.9,48.2z M59.3,15.5v3.3c0,0.5-0.4,0.9-0.9,0.9H28.5V5.4l30.1,9.3
	C59,14.8,59.3,15.1,59.3,15.5z M12.7,18.8V5.6c0-0.5,0.4-0.9,0.9-0.9H25v15H13.5C13.1,19.7,12.7,19.3,12.7,18.8z"/>
</svg>
