<?xml version="1.0" encoding="utf-8"?>
<!-- Generator: Adobe Illustrator 22.0.1, SVG Export Plug-In . SVG Version: 6.00 Build 0)  -->
<svg version="1.1" id="lni_lni-construction-hammer"
	 xmlns="http://www.w3.org/2000/svg" xmlns:xlink="http://www.w3.org/1999/xlink" x="0px" y="0px" viewBox="0 0 64 64"
	 style="enable-background:new 0 0 64 64;" xml:space="preserve">
<path d="M54.7,1.3H16.1c-2.8,0-5.2,1.5-6.5,4l-7,14.1c-0.7,1.4-0.6,3,0.2,4.4C3.6,25,5,25.8,6.6,25.8h15.7V57c0,3.2,2.6,5.8,5.8,5.8
	h7.8c3.2,0,5.8-2.6,5.8-5.8V25.8h13c4,0,7.2-3.3,7.2-7.2V8.5C61.9,4.5,58.7,1.3,54.7,1.3z M38.1,57c0,1.2-1,2.3-2.3,2.3h-7.8
	c-1.2,0-2.3-1-2.3-2.3V25.8h12.3V57z M58.4,18.6c0,2.1-1.7,3.7-3.7,3.7h-13H22.3H6.6c-0.5,0-0.8-0.3-0.8-0.5c-0.1-0.1-0.3-0.5,0-1
	l7-14.1c0.6-1.3,1.9-2.1,3.3-2.1h38.6c2.1,0,3.7,1.7,3.7,3.7V18.6z"/>
</svg>
