<?xml version="1.0" encoding="utf-8"?>
<!-- Generator: Adobe Illustrator 22.0.1, SVG Export Plug-In . SVG Version: 6.00 Build 0)  -->
<svg version="1.1" id="lni_lni-hammer" xmlns="http://www.w3.org/2000/svg" xmlns:xlink="http://www.w3.org/1999/xlink" x="0px"
	 y="0px" viewBox="0 0 64 64" style="enable-background:new 0 0 64 64;" xml:space="preserve">
<path d="M48.2,9.2H39V5.6c0-2.4-2-4.4-4.4-4.4h-5.3c-2.4,0-4.4,2-4.4,4.4v3.5h-9.2c-5.1,0-9.3,4.2-9.3,9.3v6c0,5.1,4.2,9.3,9.3,9.3
	H25v23.1c0,3.3,2.7,5.9,5.9,5.9h2.2c3.3,0,5.9-2.7,5.9-5.9V33.8h9.2c5.1,0,9.3-4.2,9.3-9.3v-6C57.5,13.3,53.3,9.2,48.2,9.2z
	 M28.5,5.6c0-0.5,0.4-0.9,0.9-0.9h5.3c0.5,0,0.9,0.4,0.9,0.9v3.5h-7V5.6z M35.5,56.8c0,1.3-1.1,2.4-2.4,2.4h-2.2
	c-1.3,0-2.4-1.1-2.4-2.4V33.8h7V56.8z M54,24.4c0,3.2-2.6,5.8-5.8,5.8H15.8c-3.2,0-5.8-2.6-5.8-5.8v-6c0-3.2,2.6-5.8,5.8-5.8h32.3
	c3.2,0,5.8,2.6,5.8,5.8V24.4z"/>
</svg>
