<?xml version="1.0" encoding="utf-8"?>
<!-- Generator: Adobe Illustrator 22.0.1, SVG Export Plug-In . SVG Version: 6.00 Build 0)  -->
<svg version="1.1" id="lni_lni-helmet" xmlns="http://www.w3.org/2000/svg" xmlns:xlink="http://www.w3.org/1999/xlink" x="0px"
	 y="0px" viewBox="0 0 64 64" style="enable-background:new 0 0 64 64;" xml:space="preserve">
<path d="M58,38.9h-0.3c0-0.2,0-0.4,0-0.6c0-14.6-11.5-26.5-25.7-26.5S6.3,23.6,6.3,38.3c0,0.2,0,0.4,0,0.6H6c-2.6,0-4.8,2.1-4.8,4.8
	v3.9c0,2.6,2.1,4.8,4.8,4.8h52c2.6,0,4.8-2.1,4.8-4.8v-3.9C62.8,41,60.6,38.9,58,38.9z M9.8,38.3c0-8.4,4.4-15.8,10.9-19.8v5
	c0,1,0.8,1.8,1.8,1.8s1.8-0.8,1.8-1.8v-6.7c1.9-0.7,3.9-1.2,6-1.4v10.5c0,1,0.8,1.8,1.8,1.8s1.8-0.8,1.8-1.8V15.3
	c2.1,0.2,4.1,0.6,6,1.4v6.7c0,1,0.8,1.8,1.8,1.8s1.8-0.8,1.8-1.8v-5c6.5,4,10.9,11.4,10.9,19.8c0,0.2,0,0.4,0,0.6H9.8
	C9.8,38.7,9.8,38.5,9.8,38.3z M59.3,47.5c0,0.7-0.6,1.3-1.3,1.3H6c-0.7,0-1.3-0.6-1.3-1.3v-3.9c0-0.7,0.6-1.3,1.3-1.3h52
	c0.7,0,1.3,0.6,1.3,1.3V47.5z"/>
</svg>
