<?xml version="1.0" encoding="utf-8"?>
<!-- Generator: Adobe Illustrator 22.0.1, SVG Export Plug-In . SVG Version: 6.00 Build 0)  -->
<svg version="1.1" id="lni_lni-paint-roller" xmlns="http://www.w3.org/2000/svg" xmlns:xlink="http://www.w3.org/1999/xlink"
	 x="0px" y="0px" viewBox="0 0 64 64" style="enable-background:new 0 0 64 64;" xml:space="preserve">
<path d="M55.7,9.2h-0.9V4.9c0-2-1.5-3.7-3.4-3.7H17.8c-1.9,0-3.4,1.7-3.4,3.7v4.2H9.9c-1.9,0-3.4,1.5-3.4,3.4v15.2
	c0,1.9,1.5,3.4,3.4,3.4h28.3v4.4h-2.2c-1.7,0-3,1.4-3,3.2v20.8c0,1.8,1.4,3.2,3,3.2h8c1.7,0,3-1.4,3-3.2V38.7c0-1.8-1.4-3.2-3-3.2
	h-2.2V31c0-1.9-1.5-3.4-3.4-3.4H10v-15h4.4v4.2c0,2,1.5,3.7,3.4,3.7h33.7c1.9,0,3.4-1.7,3.4-3.7v-4.2h0.9c1,0,1.8-0.8,1.8-1.8
	S56.7,9.2,55.7,9.2z M43.4,59.3h-7V39h7V59.3z M51.3,16.9c0,0.1,0,0.1,0,0.2H18c0,0,0-0.1,0-0.2v-12c0-0.1,0-0.1,0-0.2h33.3
	c0,0,0,0.1,0,0.2V16.9z"/>
</svg>
