<?xml version="1.0" encoding="utf-8"?>
<!-- Generator: Adobe Illustrator 22.0.1, SVG Export Plug-In . SVG Version: 6.00 Build 0)  -->
<svg version="1.1" id="lni_lni-paint-bucket" xmlns="http://www.w3.org/2000/svg" xmlns:xlink="http://www.w3.org/1999/xlink"
	 x="0px" y="0px" viewBox="0 0 64 64" style="enable-background:new 0 0 64 64;" xml:space="preserve">
<path d="M59.4,37.7L33.8,12.6V8.8c0-4.2-3.8-7.5-8.4-7.5c-4.6,0-8.4,3.4-8.4,7.5l0.1,15.3c0,0.1,0,0.1,0,0.2l-12.2,12
	c-0.6,0.5-0.9,1.3-1,2.1c0,0.8,0.3,1.7,0.9,2.3l21.7,21.2h0c0.6,0.6,1.4,0.9,2.2,0.9c0.8,0,1.5-0.3,2.2-0.8l19.9-19.5l7.3-0.6
	c0.9-0.1,1.7-0.8,2-1.6C60.3,39.3,60.1,38.4,59.4,37.7z M20.5,8.8c0-2.2,2.2-4,4.9-4s4.9,1.9,4.9,4v2.6l-9.7,9.5L20.5,8.8z
	 M49.2,39.1L28.7,59.1L7.6,38.5l23.8-23.3l8,7.8L33,29.3c-0.7,0.7-0.7,1.8,0,2.5c0.3,0.3,0.8,0.5,1.2,0.5c0.4,0,0.9-0.2,1.2-0.5
	l6.4-6.3l4.3,4.3l-4,4c-0.7,0.7-0.7,1.8,0,2.5c0.3,0.3,0.8,0.5,1.2,0.5c0.4,0,0.9-0.2,1.2-0.5l4.1-4l6.5,6.4L49.2,39.1z"/>
</svg>
