<?xml version="1.0" encoding="utf-8"?>
<!-- Generator: Adobe Illustrator 22.0.1, SVG Export Plug-In . SVG Version: 6.00 Build 0)  -->
<svg version="1.1" id="lni_lni-ruler-alt" xmlns="http://www.w3.org/2000/svg" xmlns:xlink="http://www.w3.org/1999/xlink" x="0px"
	 y="0px" viewBox="0 0 64 64" style="enable-background:new 0 0 64 64;" xml:space="preserve">
<path d="M61.8,16.5L47.5,2.2c-2.2-2.2-5.9-2.2-8.1,0L2.2,39.3c-2.2,2.2-2.2,5.9,0,8.1l14.4,14.4l0,0c1.1,1.1,2.6,1.7,4.1,1.7
	c1.5,0,2.9-0.6,4.1-1.7l37.2-37.1C64.1,22.4,64.1,18.8,61.8,16.5z M59.4,22.2L22.2,59.4c-0.9,0.9-2.3,0.9-3.2,0l0,0L4.6,45
	c-0.9-0.9-0.9-2.3,0-3.2l3.4-3.4l10,10c0.3,0.3,0.8,0.5,1.2,0.5s0.9-0.2,1.2-0.5c0.7-0.7,0.7-1.8,0-2.5l-10-10l4.7-4.7l6.2,6.2
	c0.3,0.3,0.8,0.5,1.2,0.5s0.9-0.2,1.2-0.5c0.7-0.7,0.7-1.8,0-2.5l-6.2-6.2l4.7-4.7l10,10c0.3,0.3,0.8,0.5,1.2,0.5s0.9-0.2,1.2-0.5
	c0.7-0.7,0.7-1.8,0-2.5l-10-10l4.7-4.7l6.2,6.2c0.3,0.3,0.8,0.5,1.2,0.5s0.9-0.2,1.2-0.5c0.7-0.7,0.7-1.8,0-2.5l-6.2-6.2l4.7-4.7
	l10,10c0.3,0.3,0.8,0.5,1.2,0.5s0.9-0.2,1.2-0.5c0.7-0.7,0.7-1.8,0-2.5l-10-10l2.4-2.4c0.9-0.9,2.3-0.9,3.2,0L59.4,19
	C60.2,19.9,60.2,21.3,59.4,22.2z"/>
</svg>
