<?xml version="1.0" encoding="utf-8"?>
<!-- Generator: Adobe Illustrator 22.0.1, SVG Export Plug-In . SVG Version: 6.00 Build 0)  -->
<svg version="1.1" id="lni_lni-ruler-pencil" xmlns="http://www.w3.org/2000/svg" xmlns:xlink="http://www.w3.org/1999/xlink"
	 x="0px" y="0px" viewBox="0 0 64 64" style="enable-background:new 0 0 64 64;" xml:space="preserve">
<g>
	<path d="M53.5,1.2h-5.1c-4,0-7.3,3.3-7.3,7.3v40.1c0,0.3,0.1,0.6,0.3,0.9l7.3,12c0.5,0.8,1.4,1.3,2.4,1.3s1.9-0.5,2.4-1.3l7.3-12
		c0.2-0.3,0.3-0.6,0.3-0.9V8.5C60.8,4.5,57.5,1.2,53.5,1.2z M48.4,4.7h5.1c2.1,0,3.8,1.7,3.8,3.8v3.4H44.6V8.5
		C44.6,6.4,46.3,4.7,48.4,4.7z M50.9,58.6l-6.4-10.5V15.4h12.7v32.7L50.9,58.6z"/>
	<path d="M22.5,1.3H9c-3.2,0-5.8,2.6-5.8,5.8v49.9c0,3.2,2.6,5.8,5.8,5.8h13.5c3.2,0,5.8-2.6,5.8-5.8V7.1
		C28.2,3.9,25.6,1.3,22.5,1.3z M24.7,56.9c0,1.2-1,2.3-2.3,2.3H9c-1.2,0-2.3-1-2.3-2.3v-4.4c0.1,0,0.3,0.1,0.5,0.1h7.4
		c1,0,1.8-0.8,1.8-1.8s-0.8-1.8-1.8-1.8H7.2c-0.2,0-0.3,0-0.5,0.1v-6.4c0.1,0,0.3,0.1,0.5,0.1h2.2c1,0,1.8-0.8,1.8-1.8
		s-0.8-1.8-1.8-1.8H7.2c-0.2,0-0.3,0-0.5,0.1V33c0.1,0,0.3,0.1,0.5,0.1h7.4c1,0,1.8-0.8,1.8-1.8s-0.8-1.8-1.8-1.8H7.2
		c-0.2,0-0.3,0-0.5,0.1v-6.4c0.1,0,0.3,0.1,0.5,0.1h2.2c1,0,1.8-0.8,1.8-1.8s-0.8-1.8-1.8-1.8H7.2c-0.2,0-0.3,0-0.5,0.1v-6.4
		c0.1,0,0.3,0.1,0.5,0.1h7.4c1,0,1.8-0.8,1.8-1.8S15.6,10,14.6,10H7.2c-0.2,0-0.3,0-0.5,0.1v-3c0-1.2,1-2.3,2.3-2.3h13.5
		c1.2,0,2.3,1,2.3,2.3V56.9z"/>
</g>
</svg>
