<?xml version="1.0" encoding="utf-8"?>
<!-- Generator: Adobe Illustrator 22.0.1, SVG Export Plug-In . SVG Version: 6.00 Build 0)  -->
<svg version="1.1" id="lni_lni-ruler" xmlns="http://www.w3.org/2000/svg" xmlns:xlink="http://www.w3.org/1999/xlink" x="0px"
	 y="0px" viewBox="0 0 64 64" style="enable-background:new 0 0 64 64;" xml:space="preserve">
<path d="M41.6,1.3H22.4c-3.2,0-5.8,2.6-5.8,5.8v50c0,3.2,2.6,5.8,5.8,5.8h19.1c3.2,0,5.8-2.6,5.8-5.8V7C47.3,3.8,44.7,1.3,41.6,1.3z
	 M43.8,57c0,1.2-1,2.3-2.3,2.3H22.4c-1.2,0-2.3-1-2.3-2.3v-4.4h13.5c1,0,1.8-0.8,1.8-1.8s-0.8-1.8-1.8-1.8H20.2v-6.3h8.3
	c1,0,1.8-0.8,1.8-1.8s-0.8-1.8-1.8-1.8h-8.3v-6.3h13.5c1,0,1.8-0.8,1.8-1.8s-0.8-1.8-1.8-1.8H20.2v-6.3h8.3c1,0,1.8-0.8,1.8-1.8
	s-0.8-1.8-1.8-1.8h-8.3v-6.3h13.5c1,0,1.8-0.8,1.8-1.8S34.7,10,33.7,10H20.2V7c0-1.2,1-2.3,2.3-2.3h19.1c1.2,0,2.3,1,2.3,2.3V57z"/>
</svg>
