<?xml version="1.0" encoding="utf-8"?>
<!-- Generator: Adobe Illustrator 22.0.1, SVG Export Plug-In . SVG Version: 6.00 Build 0)  -->
<svg version="1.1" id="lni_lni-shovel" xmlns="http://www.w3.org/2000/svg" xmlns:xlink="http://www.w3.org/1999/xlink" x="0px"
	 y="0px" viewBox="0 0 64 64" style="enable-background:new 0 0 64 64;" xml:space="preserve">
<path d="M62.2,14.9L49,1.5c-0.7-0.7-1.8-0.7-2.5,0c-0.7,0.7-0.7,1.8,0,2.5l5.4,5.5l-3.7,3.7l-1-1c-0.7-0.7-1.8-0.7-2.5,0
	c-0.7,0.7-0.7,1.8,0,2.5l1,1L27.8,33.7l-5.2-5.2c-0.8-0.8-2.1-0.8-2.9,0L4.5,43.9c-4.3,4.4-4.3,11.5,0,15.8c2.1,2.1,4.9,3.3,7.9,3.3
	c0,0,0,0,0,0c3,0,5.8-1.2,7.9-3.3l15.3-15.4c0.8-0.8,0.8-2.1,0-2.9l-5.2-5.3l17.9-18.1l0.9,1c0.7,0.7,1.8,0.7,2.5,0
	c0.7-0.7,0.7-1.8,0-2.5l-1-1l3.7-3.7l5.4,5.4c0.7,0.7,1.8,0.7,2.5,0C62.9,16.7,62.9,15.6,62.2,14.9z M32,42.9L17.8,57.3
	c-1.4,1.5-3.4,2.3-5.4,2.3c-2,0-3.9-0.8-5.4-2.3c-3-3-3-7.9,0-10.9L21.2,32l4.2,4.2l-1,1c-0.7,0.7-0.7,1.8,0,2.5
	c0.3,0.3,0.8,0.5,1.2,0.5c0.5,0,0.9-0.2,1.2-0.5l1-1L32,42.9z"/>
</svg>
