<?xml version="1.0" encoding="utf-8"?>
<!-- Generator: Adobe Illustrator 22.0.1, SVG Export Plug-In . SVG Version: 6.00 Build 0)  -->
<svg version="1.1" id="lni_lni-trowel" xmlns="http://www.w3.org/2000/svg" xmlns:xlink="http://www.w3.org/1999/xlink" x="0px"
	 y="0px" viewBox="0 0 64 64" style="enable-background:new 0 0 64 64;" xml:space="preserve">
<path d="M60.9,49.8L48.6,37.4c-1.2-1.2-2.7-1.8-4.4-1.8c0,0,0,0,0,0c-1.6,0-3.2,0.6-4.4,1.8l0,0L31.3,29l8.3-8.3
	c0.8-0.8,1.1-1.8,0.9-2.9c-0.2-1-0.9-1.9-1.9-2.3L5.8,1.5C4.6,1,3.2,1.3,2.3,2.2C1.3,3.1,1.1,4.5,1.6,5.7l14,32.8
	c0.4,1,1.3,1.7,2.3,1.9c0.2,0,0.4,0.1,0.6,0.1c0.8,0,1.6-0.3,2.3-0.9l8-8l8.5,8.5c-2.4,2.4-2.4,6.3,0,8.7l12.3,12.3
	c1.2,1.2,2.7,1.8,4.4,1.8s3.2-0.6,4.4-1.8l2.5-2.5C63.3,56,63.3,52.2,60.9,49.8z M18.7,36.7L5.1,5l31.8,13.5L18.7,36.7z M58.4,56
	l-2.5,2.5c-1,1-2.7,1-3.8,0L39.9,46.2c-1-1-1-2.7,0-3.7l2.5-2.5c0.5-0.5,1.2-0.8,1.9-0.8c0.7,0,1.4,0.3,1.9,0.8l12.3,12.3
	C59.4,53.3,59.4,54.9,58.4,56z"/>
</svg>
