<?xml version="1.0" encoding="utf-8"?>
<!-- Generator: Adobe Illustrator 22.0.1, SVG Export Plug-In . SVG Version: 6.00 Build 0)  -->
<svg version="1.1" id="lni_lni-wheelbarrow" xmlns="http://www.w3.org/2000/svg" xmlns:xlink="http://www.w3.org/1999/xlink"
	 x="0px" y="0px" viewBox="0 0 64 64" style="enable-background:new 0 0 64 64;" xml:space="preserve">
<path d="M55.8,43.7c-1.1,0-2.1,0.3-3,0.7l-2.6-3c4-2.2,7.1-5.8,8.7-10.4l1.9-5.7c0.3-0.9,1-2.8-0.2-4.4c-0.8-1.1-2.1-1.6-4.1-1.6
	H17.2l-3.1-9.9c-0.6-1.8-2.2-3-4.1-3H3c-1,0-1.8,0.8-1.8,1.8S2,9.9,3,9.9h7c0.4,0,0.7,0.2,0.8,0.6l3.4,10.9v20.5v1.8V54
	c0,1,0.6,1.9,1.6,2.3c0.3,0.1,0.6,0.2,0.8,0.2c0.6,0,1.2-0.2,1.7-0.7l16.4-12.2h7.1c1.7,0,3.4-0.3,5-0.7l3.3,3.9
	c-0.8,1.1-1.3,2.5-1.3,4c0,3.8,3.1,6.9,6.9,6.9c3.8,0,6.9-3.1,6.9-6.9S59.6,43.7,55.8,43.7z M17.7,51.9v-8.3h11.1L17.7,51.9z
	 M17.7,40.1V22.8h38.9c0.7,0,1.1,0.1,1.2,0.2c0,0.1,0,0.5-0.3,1.3l-1.9,5.7c-2,6.1-7.6,10.1-13.8,10.1H17.7z M55.8,54.1
	c-1.9,0-3.4-1.5-3.4-3.4s1.5-3.4,3.4-3.4s3.4,1.5,3.4,3.4S57.7,54.1,55.8,54.1z"/>
</svg>
