<?xml version="1.0" encoding="utf-8"?>
<!-- Generator: Adobe Illustrator 22.0.1, SVG Export Plug-In . SVG Version: 6.00 Build 0)  -->
<svg version="1.1" id="lni_lni-ambulance" xmlns="http://www.w3.org/2000/svg" xmlns:xlink="http://www.w3.org/1999/xlink" x="0px"
	 y="0px" viewBox="0 0 64 64" style="enable-background:new 0 0 64 64;" xml:space="preserve">
<g>
	<path d="M58,9.5H25.6c-2.6,0-4.7,2.2-4.7,4.9v3.3h-4.7v-2.6c0-1-0.8-1.8-1.8-1.8s-1.8,0.8-1.8,1.8v2.6H8.8c-1.3,0-2.4,0.8-2.8,2
		L1.4,32.5L1,33.4l0.8,1.1v11c0,1.7,1.4,3.2,3.2,3.2h1c0.8,3.4,3.8,5.9,7.4,5.9s6.6-2.5,7.4-5.9h22.6c0.8,3.4,3.8,5.9,7.4,5.9
		c3.6,0,6.6-2.5,7.4-5.9h2.2c1.4,0,2.5-1.1,2.5-2.5V14.5C62.8,11.8,60.6,9.5,58,9.5z M9.2,21.2H21v10.2H5.5L9.2,21.2z M13.4,51
		c-2.3,0-4.1-1.9-4.1-4.2c0-2.3,1.8-4.2,4.1-4.2s4.1,1.9,4.1,4.2C17.5,49.1,15.6,51,13.4,51z M13.4,39.1c-3.6,0-6.7,2.6-7.4,6H5.3
		V34.9H21v10.2h-0.2C20,41.7,17,39.1,13.4,39.1z M50.7,51c-2.3,0-4.1-1.9-4.1-4.2c0-2.3,1.8-4.2,4.1-4.2c2.3,0,4.1,1.9,4.1,4.2
		C54.8,49.1,53,51,50.7,51z M59.3,45.1h-1.1c-0.8-3.4-3.8-6-7.4-6c-3.6,0-6.7,2.6-7.4,6H24.5V34.9V17.7v-3.3c0-0.8,0.5-1.4,1.2-1.4
		H58c0.7,0,1.2,0.7,1.2,1.5V45.1z"/>
	<path d="M47.3,26h-3.7v-3.7c0-1-0.8-1.8-1.8-1.8s-1.8,0.8-1.8,1.8V26h-3.7c-1,0-1.8,0.8-1.8,1.8s0.8,1.8,1.8,1.8h3.7v3.7
		c0,1,0.8,1.8,1.8,1.8s1.8-0.8,1.8-1.8v-3.7h3.7c1,0,1.8-0.8,1.8-1.8S48.3,26,47.3,26z"/>
</g>
</svg>
