<?xml version="1.0" encoding="utf-8"?>
<!-- Generator: Adobe Illustrator 22.0.1, SVG Export Plug-In . SVG Version: 6.00 Build 0)  -->
<svg version="1.1" id="lni_lni-basketball" xmlns="http://www.w3.org/2000/svg" xmlns:xlink="http://www.w3.org/1999/xlink" x="0px"
	 y="0px" viewBox="0 0 64 64" style="enable-background:new 0 0 64 64;" xml:space="preserve">
<path d="M57,14.2L57,14.2c-3.8-5.4-9.4-9.5-15.7-11.5C37.1,1.4,32.8,1,28.2,1.4C22.9,2.1,18.2,4,14.1,6.9c-4.2,3.1-7.5,7-9.8,11.6
	c-2,4.1-3,8.5-3.1,12.7C1.1,37.9,3.1,44.4,7,49.9c3.9,5.5,9.4,9.5,15.7,11.5c3,0.9,6.2,1.4,9.3,1.4c1.3,0,2.5-0.1,3.8-0.2
	c5.3-0.7,10.1-2.6,14.1-5.5c4.3-3.1,7.5-7,9.8-11.6c2-4.1,3-8.5,3.1-12.7C62.9,26.1,60.9,19.7,57,14.2z M59.2,32.7
	c0,1.5-0.2,3-0.5,4.6c-5.9,0.6-11.6,2.6-16.7,5.8l-7.6-10.6l20.7-14.7C57.9,22.3,59.4,27.4,59.2,32.7z M53.1,14.9L32.5,29.6L24.9,19
	c4.7-3.7,8.5-8.5,11-14c1.4,0.2,2.9,0.5,4.3,1C45.3,7.6,49.8,10.7,53.1,14.9z M28.6,4.9c1.1-0.1,2.1-0.2,3.2-0.2c0.2,0,0.3,0,0.5,0
	c-2.3,4.4-5.5,8.3-9.3,11.4l-5.3-7.4C20.9,6.8,24.6,5.5,28.6,4.9z M14.8,10.8l5.3,7.4c-4.2,2.7-9,4.5-13.9,5.1
	C6.5,22.2,7,21.1,7.5,20C9.2,16.4,11.7,13.4,14.8,10.8z M4.8,31.3c0-1.4,0.2-2.8,0.4-4.3c6-0.6,11.8-2.6,16.9-5.9l7.5,10.6L8.9,46.4
	C6.1,41.9,4.6,36.7,4.8,31.3z M11,49.3l20.7-14.8l7.6,10.6c-4.7,3.7-8.5,8.4-11,13.8c-1.5-0.2-3-0.5-4.5-1
	C18.7,56.4,14.3,53.4,11,49.3z M35.3,59c-1.1,0.1-2.2,0.2-3.4,0.2c2.3-4.3,5.4-8.2,9.3-11.2l5.1,7.2C43.1,57.2,39.4,58.5,35.3,59z
	 M49.2,53.1L44.1,46c4.1-2.6,8.8-4.4,13.6-5.1c-0.4,1-0.8,2.1-1.2,3.1C54.8,47.5,52.3,50.6,49.2,53.1z"/>
</svg>
