<?xml version="1.0" encoding="utf-8"?>
<!-- Generator: Adobe Illustrator 22.0.1, SVG Export Plug-In . SVG Version: 6.00 Build 0)  -->
<svg version="1.1" id="lni_lni-capsule" xmlns="http://www.w3.org/2000/svg" xmlns:xlink="http://www.w3.org/1999/xlink" x="0px"
	 y="0px" viewBox="0 0 64 64" style="enable-background:new 0 0 64 64;" xml:space="preserve">
<g>
	<g>
		<path d="M20.5,62.7c-4.9,0-9.9-1.9-13.6-5.6l0,0c-7.5-7.5-7.5-19.7,0-27.2l23-23c7.5-7.5,19.7-7.5,27.2,0s7.5,19.7,0,27.2l-23,23
			C30.4,60.9,25.4,62.7,20.5,62.7z M9.4,54.6c6.1,6.1,16.1,6.1,22.3,0l10.3-10.3L19.6,22.1L9.4,32.4C3.2,38.5,3.2,48.5,9.4,54.6
			L9.4,54.6z M22.1,19.6l22.3,22.3l10.3-10.3c6.1-6.1,6.1-16.1,0-22.3c-6.1-6.1-16.1-6.1-22.3,0L22.1,19.6z"/>
	</g>
</g>
</svg>
