<?xml version="1.0" encoding="utf-8"?>
<!-- Generator: Adobe Illustrator 22.0.1, SVG Export Plug-In . SVG Version: 6.00 Build 0)  -->
<svg version="1.1" id="lni_lni-dumbbell" xmlns="http://www.w3.org/2000/svg" xmlns:xlink="http://www.w3.org/1999/xlink" x="0px"
	 y="0px" viewBox="0 0 64 64" style="enable-background:new 0 0 64 64;" xml:space="preserve">
<path d="M61,30.3h-2.7v-4.6c0-1.5-1.2-2.8-2.8-2.8h-7.8c-1.5,0-2.8,1.2-2.8,2.8v4.6H19.1v-4.6c0-1.5-1.2-2.8-2.8-2.8H8.5
	c-1.5,0-2.8,1.2-2.8,2.8v4.6H3c-1,0-1.8,0.8-1.8,1.8c0,1,0.8,1.8,1.8,1.8h2.8v4.6c0,1.5,1.2,2.8,2.8,2.8h7.8c1.5,0,2.8-1.2,2.8-2.8
	v-4.6H45v4.6c0,1.5,1.2,2.8,2.8,2.8h7.8c1.5,0,2.8-1.2,2.8-2.8v-4.6H61c1,0,1.8-0.8,1.8-1.8C62.8,31,62,30.3,61,30.3z M15.6,37.6
	H9.3V26.4h6.3V37.6z M54.8,37.6h-6.3V26.4h6.3V37.6z"/>
</svg>
