<?xml version="1.0" encoding="utf-8"?>
<!-- Generator: Adobe Illustrator 22.0.1, SVG Export Plug-In . SVG Version: 6.00 Build 0)  -->
<svg version="1.1" id="lni_lni-first-aid" xmlns="http://www.w3.org/2000/svg" xmlns:xlink="http://www.w3.org/1999/xlink" x="0px"
	 y="0px" viewBox="0 0 64 64" style="enable-background:new 0 0 64 64;" xml:space="preserve">
<g>
	<path d="M26.7,31.1h3.5v3.5c0,1,0.8,1.8,1.8,1.8s1.8-0.8,1.8-1.8v-3.5h3.5c1,0,1.8-0.8,1.8-1.8s-0.8-1.8-1.8-1.8h-3.5v-3.5
		c0-1-0.8-1.8-1.8-1.8s-1.8,0.8-1.8,1.8v3.5h-3.5c-1,0-1.8,0.8-1.8,1.8S25.8,31.1,26.7,31.1z"/>
	<path d="M57.1,14.4H41.7v-3.5c0-3.9-3.2-7-7-7h-5.3c-3.9,0-7,3.2-7,7v3.5H6.9c-3.1,0-5.6,2.5-5.6,5.6v12.6c0,2,1,3.7,2.6,4.7v17.4
		c0,2.9,2.3,5.3,5.2,5.3h45.9c2.9,0,5.2-2.4,5.2-5.3V37.4c1.6-1,2.6-2.8,2.6-4.7V20.1C62.8,17,60.2,14.4,57.1,14.4z M25.8,10.9
		c0-1.9,1.6-3.5,3.5-3.5h5.3c1.9,0,3.5,1.6,3.5,3.5v3.5H25.8V10.9z M4.8,20.1c0-1.2,1-2.1,2.1-2.1h15.5h19.3h15.5
		c1.2,0,2.1,1,2.1,2.1v12.6c0,1-0.7,1.9-1.6,2c-1.1,0.2-1.8,0.3-2.5,0.5l-15.3,4.3c-5.2,1.4-10.7,1.4-15.9,0L8.7,35.2
		c-0.7-0.2-1.4-0.3-2-0.4l-0.2,0c-1-0.2-1.7-1-1.7-2V20.1z M54.9,56.6H9.1c-0.9,0-1.7-0.8-1.7-1.8V38.5c0.1,0,0.3,0.1,0.4,0.1
		l15.3,4.3c2.9,0.8,5.9,1.2,8.9,1.2c3,0,6-0.4,8.9-1.2l15.3-4.3c0.2,0,0.3-0.1,0.5-0.1v16.4C56.6,55.8,55.9,56.6,54.9,56.6z"/>
</g>
</svg>
