<?xml version="1.0" encoding="utf-8"?>
<!-- Generator: Adobe Illustrator 22.0.1, SVG Export Plug-In . SVG Version: 6.00 Build 0)  -->
<svg version="1.1" id="lni_lni-heart-monitor" xmlns="http://www.w3.org/2000/svg" xmlns:xlink="http://www.w3.org/1999/xlink"
	 x="0px" y="0px" viewBox="0 0 64 64" style="enable-background:new 0 0 64 64;" xml:space="preserve">
<path d="M42.5,17.1h-0.3L39.5,4.8c-0.5-2.1-2.3-3.5-4.4-3.5h-6.2c-2.1,0-3.9,1.4-4.4,3.5l-2.8,12.3h-0.2c-3.2,0-5.8,2.6-5.8,5.8
	v18.4c0,3.2,2.6,5.8,5.8,5.8h0.2l2.8,12.3c0.5,2.1,2.3,3.5,4.4,3.5h6.2c2.1,0,3.9-1.4,4.4-3.5l2.8-12.3h0.3c3.2,0,5.8-2.6,5.8-5.8
	V22.8C48.3,19.6,45.7,17.1,42.5,17.1z M27.9,5.5c0.1-0.5,0.5-0.8,1-0.8h6.2c0.5,0,0.9,0.3,1,0.8l2.6,11.5H25.3L27.9,5.5z M21.5,20.6
	h1.6h17.7h1.7c1.2,0,2.3,1,2.3,2.3v9.8l-8.2-4.7c-0.5-0.3-1.2-0.3-1.7,0l-8.1,4.7l-7.5-4.3v-5.5C19.3,21.6,20.3,20.6,21.5,20.6z
	 M36.1,58.5c-0.1,0.5-0.5,0.8-1,0.8h-6.2c-0.5,0-0.9-0.3-1-0.8l-2.6-11.5h13.3L36.1,58.5z M42.5,43.4h-1.7H23.1h-1.6
	c-1.2,0-2.3-1-2.3-2.3v-8.9l6.6,3.8c0.5,0.3,1.2,0.3,1.7,0l8.1-4.7l9,5.2v4.5C44.8,42.4,43.7,43.4,42.5,43.4z"/>
</svg>
