<?xml version="1.0" encoding="utf-8"?>
<!-- Generator: Adobe Illustrator 22.0.1, SVG Export Plug-In . SVG Version: 6.00 Build 0)  -->
<svg version="1.1" id="lni_lni-hospital" xmlns="http://www.w3.org/2000/svg" xmlns:xlink="http://www.w3.org/1999/xlink" x="0px"
	 y="0px" viewBox="0 0 64 64" style="enable-background:new 0 0 64 64;" xml:space="preserve">
<g>
	<path d="M55.7,20.3L35.4,2.5c-2-1.7-4.9-1.7-6.9,0L8.3,20.3c-1.1,1-1.8,2.4-1.8,3.9v33.3c0,2.9,2.3,5.2,5.2,5.2h8.9
		c2.9,0,5.2-2.3,5.2-5.2V46c0-0.9,0.8-1.7,1.7-1.7h8.9c0.9,0,1.7,0.8,1.7,1.7v11.5c0,2.9,2.3,5.2,5.2,5.2h8.9c2.9,0,5.2-2.3,5.2-5.2
		V24.2C57.5,22.7,56.8,21.3,55.7,20.3z M54,57.5c0,0.9-0.8,1.7-1.7,1.7h-8.9c-0.9,0-1.7-0.8-1.7-1.7V46c0-2.9-2.3-5.2-5.2-5.2h-8.9
		c-2.9,0-5.2,2.3-5.2,5.2v11.5c0,0.9-0.8,1.7-1.7,1.7h-8.9c-0.9,0-1.7-0.8-1.7-1.7V24.2c0-0.5,0.2-1,0.6-1.3L30.9,5.2
		c0.6-0.6,1.6-0.6,2.3,0l20.3,17.7c0.4,0.3,0.6,0.8,0.6,1.3V57.5z"/>
	<path d="M37.3,19.7c-1,0-1.8,0.8-1.8,1.8v3.5h-7.1v-3.5c0-1-0.8-1.8-1.8-1.8S25,20.5,25,21.4V32c0,1,0.8,1.8,1.8,1.8
		s1.8-0.8,1.8-1.8v-3.5h7.1V32c0,1,0.8,1.8,1.8,1.8S39,32.9,39,32V21.4C39,20.5,38.2,19.7,37.3,19.7z"/>
</g>
</svg>
