<?xml version="1.0" encoding="utf-8"?>
<!-- Generator: Adobe Illustrator 22.0.1, SVG Export Plug-In . SVG Version: 6.00 Build 0)  -->
<svg version="1.1" id="lni_lni-microscope" xmlns="http://www.w3.org/2000/svg" xmlns:xlink="http://www.w3.org/1999/xlink" x="0px"
	 y="0px" viewBox="0 0 64 64" style="enable-background:new 0 0 64 64;" xml:space="preserve">
<path d="M47.9,59.3H36.4v-6.9c0.4,0,0.9-0.1,1.3-0.1c9.7-1.2,17.1-10,17.1-20.5c0-5.9-2.3-11.4-6.4-15.3c-0.6-0.6-1.3-1.2-2.1-1.7
	l2.9-4.5l0.1-0.2c0.9-1.8,0.2-4.1-1.4-5l-5.8-3.4c-0.9-0.5-1.9-0.6-2.8-0.3c-0.9,0.3-1.6,0.9-2.1,1.8L23.8,24l-0.1,0.2
	c-0.9,1.8-0.2,4.1,1.4,5l5.8,3.4l0.1,0c0.6,0.3,1.1,0.4,1.7,0.4c0.4,0,0.7-0.1,1.1-0.2c0.9-0.3,1.6-0.9,2-1.8l8.6-13.4
	c0.5,0.4,1.1,0.8,1.5,1.3c3.4,3.3,5.3,7.8,5.3,12.8c0,8.7-6,16.1-14,17c-0.6,0.1-1.2,0.1-1.9,0.1c-0.8,0-1.6-0.1-2.4-0.2
	c-4.4-0.7-8.2-3.3-10.7-7.1h8.2c1,0,1.8-0.8,1.8-1.8s-0.8-1.8-1.8-1.8H10.9c-1,0-1.8,0.8-1.8,1.8s0.8,1.8,1.8,1.8h7.4
	c2.9,5.7,8.1,9.6,14.2,10.6c0.1,0,0.3,0,0.4,0v7H21.5c-1,0-1.8,0.8-1.8,1.8s0.8,1.8,1.8,1.8h26.4c1,0,1.8-0.8,1.8-1.8
	S48.8,59.3,47.9,59.3z M32.8,29.3l-0.1,0.3c0,0,0,0-0.1,0l-5.8-3.4c0,0-0.1-0.2,0-0.3L40.2,5l0.2-0.3l5.8,3.4c0,0,0.1,0.2,0,0.3
	L32.8,29.3z"/>
</svg>
