<?xml version="1.0" encoding="utf-8"?>
<!-- Generator: Adobe Illustrator 22.0.1, SVG Export Plug-In . SVG Version: 6.00 Build 0)  -->
<svg version="1.1" id="lni_lni-pulse" xmlns="http://www.w3.org/2000/svg" xmlns:xlink="http://www.w3.org/1999/xlink" x="0px"
	 y="0px" viewBox="0 0 64 64" style="enable-background:new 0 0 64 64;" xml:space="preserve">
<g>
	<path d="M35.8,49.6C35.7,49.6,35.7,49.6,35.8,49.6c-2,0-3.6-1.2-4.2-3l-9.1-28.2c-0.1-0.2-0.3-0.3-0.5-0.3l-0.1,0
		c-0.2,0-0.4,0.1-0.4,0.2l-0.1,0.1L11.1,41.8c-0.7,1.6-2.3,2.6-4,2.6H3c-1,0-1.8-0.8-1.8-1.8S2,40.9,3,40.9h4c0.4,0,0.7-0.2,0.8-0.5
		l10.3-23.4c0.5-1.5,2.2-2.6,3.9-2.5c1.7,0,3.3,1.1,3.8,2.7l9.1,28.3c0.2,0.5,0.6,0.6,0.8,0.6c0.2,0,0.7,0,0.9-0.6l3.7-10.2
		c0.6-1.4,1.9-2.4,3.4-2.6l0.1,0c1.5-0.1,2.9,0.7,3.8,2.1l0.1,0.1l4.2,8.1c0.2,0.3,0.5,0.5,0.8,0.5H61c1,0,1.8,0.8,1.8,1.8
		S62,47,61,47h-8.3c-1.6,0-3.1-0.9-3.9-2.4l-4.2-8c-0.1-0.2-0.3-0.4-0.5-0.4c-0.2,0-0.5,0.2-0.6,0.5l-3.6,10
		C39.2,48.4,37.6,49.6,35.8,49.6z"/>
</g>
</svg>
