<?xml version="1.0" encoding="utf-8"?>
<!-- Generator: Adobe Illustrator 22.0.1, SVG Export Plug-In . SVG Version: 6.00 Build 0)  -->
<svg version="1.1" id="lni_lni-slim" xmlns="http://www.w3.org/2000/svg" xmlns:xlink="http://www.w3.org/1999/xlink" x="0px"
	 y="0px" viewBox="0 0 64 64" style="enable-background:new 0 0 64 64;" xml:space="preserve">
<g>
	<path d="M9.5,28c-0.7-0.7-1.8-0.7-2.5,0c-0.7,0.7-0.7,1.8,0,2.5l2.3,2.3H3c-1,0-1.8,0.8-1.8,1.8S2,36.2,3,36.2h6.3L7,38.5
		c-0.7,0.7-0.7,1.8,0,2.5c0.3,0.3,0.8,0.5,1.2,0.5c0.4,0,0.9-0.2,1.2-0.5l5.2-5.2c0.7-0.7,0.7-1.8,0-2.5L9.5,28z"/>
	<path d="M32,29.2c1.5,0,2.6-1.2,2.6-2.6s-1.2-2.6-2.6-2.6s-2.6,1.2-2.6,2.6S30.6,29.2,32,29.2z"/>
	<path d="M61,32.7h-6.3l2.2-2.2c0.7-0.7,0.7-1.8,0-2.5s-1.8-0.7-2.5,0l-5.2,5.2c-0.7,0.7-0.7,1.8,0,2.5l5.2,5.2
		c0.3,0.3,0.8,0.5,1.2,0.5c0.4,0,0.9-0.2,1.2-0.5c0.7-0.7,0.7-1.8,0-2.5l-2.3-2.3H61c1,0,1.8-0.8,1.8-1.8S62,32.7,61,32.7z"/>
	<path d="M47.4,40.2c0-1.9-0.6-3.8-1.4-6.4c-0.6-1.9-1.2-4-1.8-6.6C42.9,21.7,46,12.8,46,12.7c0.3-0.9-0.2-1.9-1.1-2.2
		c-0.9-0.3-1.9,0.2-2.2,1.1c-0.1,0.4-3.4,10-2,16.5c0.2,1,0.5,2,0.7,2.9c-1,0.1-2,0.2-3,0.4c-2.1,0.3-4.2,0.6-6.4,0.6
		c-2.2,0-4.4-0.3-6.5-0.7c-1.1-0.2-2.2-0.3-3.3-0.4c0.2-0.9,0.5-1.8,0.7-2.8c1.4-6.5-1.8-16.1-2-16.5c-0.3-0.9-1.3-1.4-2.2-1.1
		c-0.9,0.3-1.4,1.3-1.1,2.2c0,0.1,3.1,9,1.8,14.6c-0.6,2.6-1.2,4.7-1.8,6.6c-0.8,2.5-1.4,4.5-1.4,6.4c0,0.9,0.2,2.2,0.6,3.6
		c0,0,0,0.1,0,0.1c0.9,3.6,2.4,7.8,2.6,8.5c0.3,0.7,0.9,1.2,1.6,1.2c0.2,0,0.4,0,0.6-0.1c0.9-0.3,1.4-1.3,1.1-2.2
		c-0.7-2-1.7-5.1-2.4-7.5c0.5-0.3,1.9-0.6,4.7-0.6c2.5,0,4.7,1.4,5.1,2v5.1c0,1,0.8,1.8,1.8,1.8s1.8-0.8,1.8-1.8v-5.1
		c0,0,0-0.1,0-0.1c0,0,0,0,0,0c0-0.5,1.4-1.9,3.9-1.9c3,0,4.8,0.4,5.5,0.7c-0.7,2.4-1.6,5.4-2.4,7.5c-0.3,0.9,0.1,1.9,1.1,2.2
		c0.2,0.1,0.4,0.1,0.6,0.1c0.7,0,1.4-0.4,1.6-1.2c0.2-0.7,1.8-5,2.7-8.5c0,0,0-0.1,0-0.1C47.1,42.4,47.4,41.1,47.4,40.2z M37.7,39.7
		c-2.3,0-4.5,0.9-5.8,2.2c-1.7-1.3-4.3-2.2-6.7-2.2c-2.2,0-4,0.2-5.4,0.7c0,0,0-0.1,0-0.1c0-1.3,0.5-3.1,1.2-5.3
		c0.1-0.2,0.1-0.5,0.2-0.7c1.2,0.1,2.4,0.3,3.7,0.5c2.1,0.3,4.6,0.7,7.1,0.7c2.5,0,4.8-0.4,6.9-0.7c1.2-0.2,2.4-0.4,3.5-0.5
		c0.1,0.2,0.1,0.4,0.2,0.6c0.7,2.2,1.2,4,1.2,5.3c0,0,0,0.1,0,0.1C42.4,39.9,40.3,39.7,37.7,39.7z"/>
</g>
</svg>
