<?xml version="1.0" encoding="utf-8"?>
<!-- Generator: Adobe Illustrator 22.0.1, SVG Export Plug-In . SVG Version: 6.00 Build 0)  -->
<svg version="1.1" id="lni_lni-sthethoscope" xmlns="http://www.w3.org/2000/svg" xmlns:xlink="http://www.w3.org/1999/xlink"
	 x="0px" y="0px" viewBox="0 0 64 64" style="enable-background:new 0 0 64 64;" xml:space="preserve">
<path d="M56.2,1.3h-6.6c-1,0-1.8,0.8-1.8,1.8v2.6c0,1,0.8,1.8,1.8,1.8s1.8-0.8,1.8-1.8V4.8h4.4v18.6c0,6.7-5.5,12.2-12.2,12.2h-1.1
	c-6.7,0-12.2-5.5-12.2-12.2V4.8h4.4v0.9c0,1,0.8,1.8,1.8,1.8s1.8-0.8,1.8-1.8V3c0-1-0.8-1.8-1.8-1.8h-6.6c-1.7,0-3.1,1.4-3.1,3.1v19
	c0,8.6,7,15.7,15.7,15.7h0.1v13.6c0,3.6-2.8,6.6-6.2,6.6H21.1c-3.6,0-6.6-3-6.6-6.6v-9c3.7-0.8,6.5-4,6.5-8c0-4.5-3.6-8.1-8.1-8.1
	s-8.1,3.6-8.1,8.1c0,3.8,2.7,7.1,6.3,7.9v9c0,5.6,4.5,10.1,10.1,10.1h15.3c5.4,0,9.7-4.5,9.7-10.1V38.8c7.5-1.2,13.2-7.7,13.2-15.5
	v-19C59.3,2.6,57.9,1.3,56.2,1.3z M8.2,35.7c0-2.6,2.1-4.6,4.6-4.6s4.6,2.1,4.6,4.6s-2.1,4.6-4.6,4.6S8.2,38.3,8.2,35.7z"/>
</svg>
