<?xml version="1.0" encoding="utf-8"?>
<!-- Generator: Adobe Illustrator 22.0.1, SVG Export Plug-In . SVG Version: 6.00 Build 0)  -->
<svg version="1.1" id="lni_lni-syringe" xmlns="http://www.w3.org/2000/svg" xmlns:xlink="http://www.w3.org/1999/xlink" x="0px"
	 y="0px" viewBox="0 0 64 64" style="enable-background:new 0 0 64 64;" xml:space="preserve">
<path d="M62.2,15.1L48.9,1.8c-0.7-0.7-1.8-0.7-2.5,0s-0.7,1.8,0,2.5l5.4,5.4L46,15.5l-1.4-1.4c-2.9-2.9-7.6-2.9-10.5,0L15.4,32.8
	c-1.4,1.4-2.2,3.3-2.2,5.2c0,0.5,0.1,1,0.2,1.5l-2.7,2.7c-2.6,2.6-2.8,6.5-0.9,9.4l-8.1,8.1c-0.7,0.7-0.7,1.8,0,2.5
	c0.3,0.3,0.8,0.5,1.2,0.5c0.4,0,0.9-0.2,1.2-0.5l8.1-8.1c1.2,0.8,2.7,1.3,4.2,1.3c2,0,3.8-0.8,5.2-2.2l2.7-2.7
	c0.5,0.1,1,0.2,1.5,0.2c1.9,0,3.8-0.7,5.2-2.2l18.7-18.7c1.4-1.4,2.2-3.3,2.2-5.2c0-2-0.8-3.8-2.2-5.2L48.5,18l5.9-5.9l5.4,5.4
	c0.3,0.3,0.8,0.5,1.2,0.5s0.9-0.2,1.2-0.5C62.9,16.9,62.9,15.8,62.2,15.1z M19.3,50.8c-1.5,1.5-4,1.5-5.5,0l-0.6-0.6
	c-1.5-1.5-1.5-4,0-5.5l1.9-1.9c0.1,0.1,0.2,0.3,0.4,0.4l5.3,5.3c0.1,0.1,0.3,0.3,0.4,0.4L19.3,50.8z M47.4,27.4L28.7,46.1
	c-1.5,1.5-4,1.5-5.5,0l-5.3-5.3c-1.5-1.5-1.5-4,0-5.5l18.7-18.7c1.5-1.5,4-1.5,5.5,0l5.3,5.3c0.7,0.7,1.1,1.7,1.1,2.8
	S48.2,26.7,47.4,27.4z"/>
</svg>
