<?xml version="1.0" encoding="utf-8"?>
<!-- Generator: Adobe Illustrator 22.0.1, SVG Export Plug-In . SVG Version: 6.00 Build 0)  -->
<svg version="1.1" id="lni_lni-weight" xmlns="http://www.w3.org/2000/svg" xmlns:xlink="http://www.w3.org/1999/xlink" x="0px"
	 y="0px" viewBox="0 0 64 64" style="enable-background:new 0 0 64 64;" xml:space="preserve">
<g>
	<path d="M54.4,1.3H9.6C6.5,1.3,3.9,3.8,3.9,7v50c0,3.2,2.6,5.8,5.8,5.8h44.7c3.2,0,5.8-2.6,5.8-5.8V7C60.1,3.8,57.5,1.3,54.4,1.3z
		 M56.6,57c0,1.2-1,2.3-2.3,2.3H9.6c-1.2,0-2.3-1-2.3-2.3V7c0-1.2,1-2.3,2.3-2.3h44.7c1.2,0,2.3,1,2.3,2.3V57z"/>
	<path d="M31.9,13.9c-7.6,0-14,6.3-15,14.6c-0.1,0.7,0.1,1.4,0.6,1.9c0.4,0.5,1,0.7,1.7,0.7H32c0,0,0,0,0,0c0,0,0,0,0,0h12.7
		c0.6,0,1.2-0.3,1.7-0.7c0.4-0.5,0.6-1.2,0.6-1.8C45.9,20.2,39.5,13.9,31.9,13.9z M33.3,27.6L32,23.8c-0.3-0.9-1.3-1.4-2.2-1.1
		c-0.9,0.3-1.4,1.3-1.1,2.2l0.9,2.7h-9c1.2-5.9,5.9-10.2,11.3-10.2S42,21.7,43.2,27.6H33.3z"/>
</g>
</svg>
