<?xml version="1.0" encoding="utf-8"?>
<!-- Generator: Adobe Illustrator 22.0.1, SVG Export Plug-In . SVG Version: 6.00 Build 0)  -->
<svg version="1.1" id="lni_lni-wheelchair" xmlns="http://www.w3.org/2000/svg" xmlns:xlink="http://www.w3.org/1999/xlink" x="0px"
	 y="0px" viewBox="0 0 64 64" style="enable-background:new 0 0 64 64;" xml:space="preserve">
<g>
	<path d="M40.9,53.4c-3.3,3.7-8.1,5.8-13.2,5.8c-9.8,0-17.8-8-17.8-17.8c0-5.7,2.6-11,7.3-14.3c0.8-0.6,1-1.7,0.4-2.4
		c-0.6-0.8-1.7-1-2.4-0.4c-5.4,4-8.7,10.4-8.7,17.2c0,11.8,9.6,21.3,21.3,21.3c6.1,0,11.8-2.5,15.8-7c0.6-0.7,0.6-1.8-0.1-2.5
		C42.7,52.7,41.6,52.7,40.9,53.4z"/>
	<path d="M55.7,50.1L51,50.5l-1.3-15.3c-0.1-1.3-1.1-2.3-2.4-2.3H26.1l-0.6-9.7h14.4c1,0,1.8-0.8,1.8-1.8s-0.8-1.8-1.8-1.8H25.3
		l-0.2-4.1c3.7-0.3,6.6-3.4,6.6-7.2c0-4-3.2-7.2-7.2-7.2s-7.2,3.2-7.2,7.2c0,2.9,1.7,5.4,4.2,6.6l1.1,19.1c0,1.2,1.1,2.3,2.4,2.3
		h21.2l1.3,15.5l0,0.2c0.2,1.1,1.3,2,2.4,2h0.1l5.9-0.5c1-0.1,1.7-0.9,1.6-1.9C57.5,50.7,56.7,50,55.7,50.1z M24.5,4.8
		c2,0,3.7,1.7,3.7,3.7s-1.7,3.7-3.7,3.7s-3.7-1.7-3.7-3.7S22.4,4.8,24.5,4.8z"/>
</g>
</svg>
