<?xml version="1.0" encoding="utf-8"?>
<!-- Generator: Adobe Illustrator 22.0.1, SVG Export Plug-In . SVG Version: 6.00 Build 0)  -->
<svg version="1.1" id="lni_lni-briefcase" xmlns="http://www.w3.org/2000/svg" xmlns:xlink="http://www.w3.org/1999/xlink" x="0px"
	 y="0px" viewBox="0 0 64 64" style="enable-background:new 0 0 64 64;" xml:space="preserve">
<path d="M56.7,17.3H44c-1-4.4-5.4-7.8-10.6-7.8h-3c-5.3,0-9.7,3.4-10.6,7.8H7c-3.2,0-5.8,2.6-5.8,5.8v25.7c0,3.2,2.6,5.8,5.8,5.8
	h49.7c3.2,0,5.8-2.6,5.8-5.8V23C62.5,19.9,59.9,17.3,56.7,17.3z M30.4,13h3c3.3,0,6.1,1.8,7,4.3h-17C24.3,14.8,27.1,13,30.4,13z
	 M7,20.8h49.7c1.2,0,2.3,1,2.3,2.3v7.9l-25.1,4.6c-0.4,0.1-0.9,0.1-1.3,0L4.8,30.4V23C4.8,21.8,5.8,20.8,7,20.8z M56.7,51H7
	c-1.2,0-2.3-1-2.3-2.3V34l27.2,5c0.4,0.1,0.9,0.1,1.3,0.1c0.4,0,0.9,0,1.3-0.1L59,34.5v14.2C59,50,58,51,56.7,51z"/>
</svg>
