<?xml version="1.0" encoding="utf-8"?>
<!-- Generator: Adobe Illustrator 22.0.1, SVG Export Plug-In . SVG Version: 6.00 Build 0)  -->
<svg version="1.1" id="lni_lni-cart-full" xmlns="http://www.w3.org/2000/svg" xmlns:xlink="http://www.w3.org/1999/xlink" x="0px"
	 y="0px" viewBox="0 0 64 64" style="enable-background:new 0 0 64 64;" xml:space="preserve">
<g>
	<path d="M37.1,48.2c-4,0-7.2,3.3-7.2,7.3s3.2,7.3,7.2,7.3c4,0,7.2-3.3,7.2-7.3S41.1,48.2,37.1,48.2z M37.1,59.3
		c-2.1,0-3.7-1.7-3.7-3.8s1.7-3.8,3.7-3.8c2.1,0,3.7,1.7,3.7,3.8S39.2,59.3,37.1,59.3z"/>
	<path d="M17.9,48.2c-4,0-7.2,3.3-7.2,7.3s3.2,7.3,7.2,7.3s7.2-3.3,7.2-7.3S21.9,48.2,17.9,48.2z M17.9,59.3c-2.1,0-3.7-1.7-3.7-3.8
		s1.7-3.8,3.7-3.8c2.1,0,3.7,1.7,3.7,3.8S20,59.3,17.9,59.3z"/>
	<path d="M58.4,1.3H53c-2.2,0-4.1,1.6-4.4,3.8l-1.7,12.1h-5.2V9.2c0-1.5-1.2-2.7-2.7-2.7h-7.9C31,5,29.9,3.9,28.5,3.9h-8.7
		c-1.5,0-2.7,1.3-2.7,2.9v2.4H9.2c-1.5,0-2.7,1.1-2.7,2.6v5.4c-0.8,0.1-1.6,0.4-2.1,1.1c-0.5,0.7-0.7,1.6-0.5,2.4c0,0,0,0.1,0,0.1
		l6.2,18.9c0.3,1.2,1.5,2.1,2.8,2.1h27.9c3.5,0,6.5-2.6,7-6.1l4.3-30.1c0.1-0.4,0.4-0.8,0.9-0.8h5.4c1,0,1.8-0.8,1.8-1.8
		S59.4,1.3,58.4,1.3z M38.2,17.1h-7.1V10h7.1V17.1z M20.6,7.4h7.1v1.8v7.9h-7.1v-5.3V7.4z M10,12.7h7.1v4.4H10V12.7z M44.3,35.2
		c-0.2,1.7-1.8,3.1-3.5,3.1H13.4L7.6,20.6h9.5h3.5h7.1h3.5h10.6h4.7L44.3,35.2z"/>
</g>
</svg>
