<?xml version="1.0" encoding="utf-8"?>
<!-- Generator: Adobe Illustrator 22.0.1, SVG Export Plug-In . SVG Version: 6.00 Build 0)  -->
<svg version="1.1" id="lni_lni-seo-consulting" xmlns="http://www.w3.org/2000/svg" xmlns:xlink="http://www.w3.org/1999/xlink"
	 x="0px" y="0px" viewBox="0 0 64 64" style="enable-background:new 0 0 64 64;" xml:space="preserve">
<g>
	<path d="M25.1,22.4c0,3.9,3.2,7.1,7.1,7.1c3.9,0,7.1-3.2,7.1-7.1s-3.2-7.1-7.1-7.1C28.3,15.4,25.1,18.6,25.1,22.4z M35.7,22.4
		c0,2-1.6,3.6-3.6,3.6s-3.6-1.6-3.6-3.6s1.6-3.6,3.6-3.6S35.7,20.5,35.7,22.4z"/>
	<path d="M62.2,41l-4.7-4.7c-0.5-0.5-1.3-0.7-2-0.4l-5.2,2.3c-0.9,0.4-1.3,1.4-0.9,2.3c0.4,0.9,1.4,1.3,2.3,0.9l2.1-0.9
		c-1.9,4.9-5.4,8.9-9.8,11.5v-10c0-5.1-3.7-9.2-8.4-9.2H28c-4.6,0-8.4,4.1-8.4,9.2v9.7c-4.5-2.8-8-7.2-9.7-12.5
		c-0.3-0.9-1.3-1.4-2.2-1.1c-0.9,0.3-1.4,1.3-1.1,2.2c3.6,11.1,13.9,18.5,25.5,18.5c11.4,0,21.4-7.1,25.3-17.8l2.3,2.3
		c0.3,0.3,0.8,0.5,1.2,0.5s0.9-0.2,1.2-0.5C62.9,42.8,62.9,41.7,62.2,41z M23.2,53.6V42.1c0-3.1,2.2-5.7,4.9-5.7h3.3l-1.7,4.8
		c-0.2,0.6-0.2,1.2,0,1.7l1.4,4.6c0.3,0.9,1.5,0.9,1.8,0l1.4-4.6c0.2-0.6,0.2-1.2,0-1.7l-1.7-4.8h3.3c2.7,0,4.9,2.5,4.9,5.7v11.7
		c-2.7,1-5.6,1.6-8.6,1.6C29,55.4,26,54.8,23.2,53.6z"/>
	<path d="M8.5,30.6l5.6-3c0.9-0.5,1.2-1.5,0.7-2.4c-0.5-0.8-1.5-1.2-2.4-0.7L9.6,26C12.3,15.8,21.5,8.6,32.2,8.6
		c10.8,0,20.1,7.3,22.8,17.8c0.2,0.9,1.2,1.5,2.1,1.3c0.9-0.2,1.5-1.2,1.3-2.1c-3-12-13.8-20.4-26.2-20.4c-12.2,0-22.8,8.2-26,20
		l-2-2c-0.7-0.7-1.8-0.7-2.5,0c-0.7,0.7-0.7,1.8,0,2.5l4.7,4.7c0.3,0.3,0.8,0.5,1.2,0.5C8,30.8,8.2,30.7,8.5,30.6z"/>
</g>
</svg>
