<?xml version="1.0" encoding="utf-8"?>
<!-- Generator: Adobe Illustrator 22.0.1, SVG Export Plug-In . SVG Version: 6.00 Build 0)  -->
<svg version="1.1" id="lni_lni-customer" xmlns="http://www.w3.org/2000/svg" xmlns:xlink="http://www.w3.org/1999/xlink" x="0px"
	 y="0px" viewBox="0 0 64 64" style="enable-background:new 0 0 64 64;" xml:space="preserve">
<g>
	<path d="M60,47L60,47c-1.2-3.9-5.1-6.2-8.9-5.1c-3.6,1.1-8.5,2.5-12.1,3.6c0.5-1.4,0.3-2.5,0-3.4C38.2,40,35.8,39,33.8,39H24
		c-0.9,0-1.8-0.4-2.7-1.3c-1-0.9-2.3-1.4-3.7-1.4H9.7c-3.3,0-6,2.8-6,6.2v12.6c0,3.5,2.7,6.3,6.1,6.3h9.5c1.2,0,2.4-0.4,3.4-1.1
		l0.2,0.1c2.7,1.5,5.8,2.3,8.9,2.3c1.9,0,3.8-0.3,5.5-0.8L55,56.5l0.1,0C60.1,54.6,60.9,50.2,60,47z M9.8,57.9
		c-1.4,0-2.6-1.3-2.6-2.8V42.5c0-1.5,1.1-2.7,2.5-2.7h7.9c0.6,0,1.1,0.3,1.3,0.5c0.3,0.3,0.7,0.6,1,0.8v16.7
		c-0.2,0.1-0.4,0.1-0.6,0.1H9.8z M53.9,53.2l-17.6,5.4c-1.4,0.4-2.9,0.7-4.4,0.7c-2.5,0-5-0.6-7.3-1.9l-1.2-0.6V42.5
		c0.2,0,0.4,0,0.6,0h9.8c0.9,0,1.8,0.4,2,0.9c0.2,0.6-0.2,1.9-2.2,3.8l0,0c-0.6,0.6-0.7,1.4-0.3,2.1l0,0c0.7,1.3,0.7,1.3,10.4-1.6
		c4.2-1.2,8.4-2.5,8.4-2.5c1.9-0.5,3.9,0.6,4.5,2.7C57,49.4,57.2,52,53.9,53.2z"/>
	<path d="M50.5,15.4c3.9,0,7.1-3.2,7.1-7.1s-3.2-7.1-7.1-7.1c-3.9,0-7.1,3.2-7.1,7.1S46.7,15.4,50.5,15.4z M50.5,4.8
		c2,0,3.6,1.6,3.6,3.6c0,2-1.6,3.6-3.6,3.6c-2,0-3.6-1.6-3.6-3.6C47,6.3,48.6,4.8,50.5,4.8z"/>
	<path d="M48.2,37.1h3.3c3.9,0,7-3.1,7-7v-5.7c0-3.9-3.1-7-7-7h-3c-3.9,0-7,3.1-7,7v5.7C41.6,34,44.6,37.1,48.2,37.1z M45,24.4
		c0-1.9,1.6-3.5,3.5-3.5h3c1.9,0,3.5,1.6,3.5,3.5v5.7c0,1.9-1.6,3.5-3.5,3.5h-3.3c-1.7,0-3.2-1.6-3.2-3.6V24.4z"/>
</g>
</svg>
