<?xml version="1.0" encoding="utf-8"?>
<!-- Generator: Adobe Illustrator 22.0.1, SVG Export Plug-In . SVG Version: 6.00 Build 0)  -->
<svg version="1.1" id="lni_lni-delivery" xmlns="http://www.w3.org/2000/svg" xmlns:xlink="http://www.w3.org/1999/xlink" x="0px"
	 y="0px" viewBox="0 0 64 64" style="enable-background:new 0 0 64 64;" xml:space="preserve">
<path d="M58.2,11.5H26.9c-2.5,0-4.6,2.1-4.6,4.6v0.7H8.6c-0.9,0-1.7,0.5-2.1,1.3l-5,10.1c-0.2,0.3-0.2,0.7-0.2,1.1v15.6
	c0,1,0.8,1.8,1.8,1.8h2.9c0.5,3.6,3.6,6.3,7.3,6.3s6.8-2.8,7.3-6.3h3.5H42c0.5,3.6,3.6,6.3,7.3,6.3s6.8-2.8,7.3-6.3h3.7
	c1.4,0,2.5-1.1,2.5-2.5V16C62.8,13.5,60.7,11.5,58.2,11.5z M9.3,20.2h13.1v7H5.8L9.3,20.2z M13.2,49.4c-2.2,0-3.9-1.8-3.9-3.9
	s1.8-3.9,3.9-3.9s3.9,1.8,3.9,3.9S15.4,49.4,13.2,49.4z M13.2,38.1c-3.2,0-6,2.1-7,5H4.8V30.8h17.6v12.3h-2.1
	C19.2,40.2,16.5,38.1,13.2,38.1z M49.3,49.4c-2.2,0-3.9-1.8-3.9-3.9s1.8-3.9,3.9-3.9s3.9,1.8,3.9,3.9S51.4,49.4,49.3,49.4z
	 M59.3,43.1h-3c-1-2.9-3.8-5-7-5s-6,2.1-7,5H25.8V16c0-0.6,0.5-1.1,1.1-1.1h31.3c0.6,0,1.1,0.5,1.1,1.1V43.1z"/>
</svg>
