<?xml version="1.0" encoding="utf-8"?>
<!-- Generator: Adobe Illustrator 22.0.1, SVG Export Plug-In . SVG Version: 6.00 Build 0)  -->
<svg version="1.1" id="lni_lni-grow" xmlns="http://www.w3.org/2000/svg" xmlns:xlink="http://www.w3.org/1999/xlink" x="0px"
	 y="0px" viewBox="0 0 64 64" style="enable-background:new 0 0 64 64;" xml:space="preserve">
<g>
	<path d="M58.8,46c-1.2-4-5.2-6.2-9-5.1c-3.7,1.1-8.8,2.6-12.4,3.7c0.5-1.5,0.4-2.6,0-3.5c-0.9-2.2-3.3-3.2-5.4-3.2H22
		c-0.9,0-1.9-0.4-2.8-1.3c-1-0.9-2.4-1.5-3.7-1.5H7.3c-3.3,0-6.1,2.8-6.1,6.3v12.9c0,3.6,2.8,6.4,6.2,6.4h9.7c1.2,0,2.4-0.4,3.5-1.1
		l0.3,0.1c2.8,1.5,5.9,2.4,9.1,2.4c2,0,3.8-0.3,5.6-0.8l18.1-5.5l0.1,0C59,53.8,59.7,49.3,58.8,46L58.8,46z M7.4,57.2
		c-1.5,0-2.7-1.3-2.7-2.9V41.4c0-1.6,1.1-2.8,2.6-2.8h8.1c0.6,0,1.1,0.3,1.4,0.5c0.3,0.3,0.7,0.6,1.1,0.8v17.1
		c-0.2,0.1-0.4,0.1-0.7,0.1H7.4z M52.7,52.4l-18.1,5.5c-1.4,0.5-3,0.7-4.6,0.7c-2.6,0-5.2-0.7-7.5-1.9L21.3,56V41.3
		c0.2,0,0.4,0,0.6,0h10c1,0,1.9,0.4,2.1,1c0.2,0.6-0.2,1.9-2.3,3.9l0,0c-0.6,0.6-0.7,1.4-0.3,2.1l0,0c0.7,1.3,0.7,1.3,10.6-1.6
		c4.3-1.3,8.6-2.5,8.6-2.5c1.9-0.6,4,0.7,4.7,2.8C55.9,48.5,56,51.1,52.7,52.4z"/>
	<path d="M62.7,10.3c-0.1-1.5-1.3-2.6-2.7-2.7c-2.4-0.2-7,0-10.2,3.1c-0.7,0.7-1.3,1.5-1.8,2.4C47.7,10.7,47,8,45.1,5.8v0
		c-3-3.3-7.8-3.9-10.5-3.9c0,0,0,0,0,0c-1.5,0-2.8,1.2-2.9,2.8c-0.2,2.8-0.1,8,2.8,11.3c2.4,2.7,6.1,3.3,8.8,3.3
		c0.9,0,1.6-0.1,2.2-0.1v14.9c0,1,0.8,1.8,1.8,1.8s1.8-0.8,1.8-1.8v-9.2c2.8,0,7.6-0.5,10.6-3.5C62.8,18.2,62.9,13,62.7,10.3z
		 M44.5,15.7c-1.9,0.1-5.5,0.1-7.4-2c-2-2.2-2.1-6.2-2-8.3c1.9,0.1,5.4,0.6,7.3,2.7C44.5,10.4,44.6,13.9,44.5,15.7z M57.1,18.9
		c-2.1,2.1-5.9,2.4-8,2.5c0.2-2.1,1-6.1,3.1-8.2c1.8-1.8,4.6-2.2,6.4-2.2c0.2,0,0.4,0,0.6,0C59.3,13,59.3,16.8,57.1,18.9z"/>
</g>
</svg>
