<?xml version="1.0" encoding="utf-8"?>
<!-- Generator: Adobe Illustrator 22.0.1, SVG Export Plug-In . SVG Version: 6.00 Build 0)  -->
<svg version="1.1" id="lni_lni-handshake" xmlns="http://www.w3.org/2000/svg" xmlns:xlink="http://www.w3.org/1999/xlink" x="0px"
	 y="0px" viewBox="0 0 64 64" style="enable-background:new 0 0 64 64;" xml:space="preserve">
<path d="M61,35.6h-2.3c-0.9,0-1.7-1-1.7-2.2V18.2c0-1.3,0.8-2.3,1.8-2.3H61c1,0,1.8-0.8,1.8-1.8S62,12.4,61,12.4h-2.3
	c-1.9,0-3.6,1.2-4.6,2.9H40.8l-1.3-1.1c-5.3-4.6-13.2-5.1-18.7-1.1c-2.4,1.8-4.1,3.9-4.9,5c0,0.1-0.1,0.1-0.1,0.1h-2.3v-0.1
	c0-3.2-2.3-5.7-5.2-5.7H3c-1,0-1.8,0.8-1.8,1.8S2,15.9,3,15.9h5.2c0.9,0,1.7,1,1.7,2.2v15.1c0,1.3-0.8,2.3-1.8,2.3H3
	c-1,0-1.8,0.8-1.8,1.8S2,39.1,3,39.1h5.2c1.9,0,3.6-1.2,4.6-2.9h0.8c0.9,0,1.7,0.3,2.5,0.7c-0.1,0.5-0.1,1.1,0.3,1.5l2.3,3.1
	c0.2,0.3,0.6,0.5,0.9,0.6l3.2,0.9l1.4,3c0.2,0.5,0.6,0.8,1.1,0.9l3.3,0.9l2.1,3.4c0.2,0.4,0.6,0.6,1,0.8l5.6,1.6
	c0.2,0,0.3,0.1,0.5,0.1c0.6,0,1.1-0.3,1.5-0.8l11.2-16.6c0.1,0,0.1-0.1,0.3-0.1h3.5c0.9,1.7,2.6,2.9,4.5,2.9H61c1,0,1.8-0.8,1.8-1.8
	S62,35.6,61,35.6z M18.3,34.2c-1.4-1-3-1.5-4.7-1.5h-0.1v-11h2.3c1.2,0,2.3-0.6,3-1.5c0.7-0.9,2.1-2.7,4.1-4.2
	c4.2-3.1,10.2-2.7,14.4,0.9l3.4,3c0.6,0.5,1,1.2,1,1.7c0,0.4-0.1,0.7-0.4,1l-1.7,1.8c-1,1.1-2.6,1.2-3.8,0.3l-0.4-0.3
	c-2.5-1.9-5.9-1.6-8.1,0.6L18.3,34.2z M47.9,33.8c-0.1,0.1-0.2,0.2-0.2,0.3L37,49.9l-3.7-1l-2.1-3.4c-0.2-0.4-0.6-0.6-1-0.8L27,43.8
	l-1.4-3c-0.2-0.5-0.6-0.8-1.1-0.9l-3.4-0.9L20,37.5l9.8-10.1c1-0.9,2.4-1,3.5-0.2l0.4,0.3c2.6,1.9,6.2,1.6,8.4-0.7l1.7-1.8
	c0.9-1,1.4-2.3,1.3-3.6c0-0.9-0.3-1.7-0.8-2.5h9.1v13.9h-2.8C49.6,32.7,48.6,33.1,47.9,33.8z"/>
</svg>
