<?xml version="1.0" encoding="utf-8"?>
<!-- Generator: Adobe Illustrator 22.0.1, SVG Export Plug-In . SVG Version: 6.00 Build 0)  -->
<svg version="1.1" id="lni_lni-invest-monitor" xmlns="http://www.w3.org/2000/svg" xmlns:xlink="http://www.w3.org/1999/xlink"
	 x="0px" y="0px" viewBox="0 0 64 64" style="enable-background:new 0 0 64 64;" xml:space="preserve">
<g>
	<path d="M12.5,37.3H4.1c-1.6,0-2.8,1.4-2.8,3.1v18.4c0,1.7,1.3,3.1,2.8,3.1h8.4c1.6,0,2.8-1.4,2.8-3.1V40.4
		C15.3,38.6,14,37.3,12.5,37.3z M11.8,58.3h-7V40.8h7V58.3z"/>
	<path d="M36.2,32h-8.4c-1.6,0-2.8,1.3-2.8,3v23.9c0,1.6,1.3,3,2.8,3h8.4c1.6,0,2.8-1.3,2.8-3V35C39,33.3,37.7,32,36.2,32z
		 M35.5,58.3h-7V35.5h7V58.3z"/>
	<path d="M59.9,39.9h-8.4c-1.6,0-2.8,1.4-2.8,3.1v15.7c0,1.7,1.3,3.1,2.8,3.1h8.4c1.6,0,2.8-1.4,2.8-3.1V43
		C62.8,41.3,61.5,39.9,59.9,39.9z M59.3,58.3h-7v-15h7V58.3z"/>
	<path d="M34.7,12.1h-5.3c-1.2,0-2.2-0.9-2.2-2.1c0-1.1,1-2.1,2.2-2.1h7.9c1,0,1.8-0.8,1.8-1.8s-0.8-1.8-1.8-1.8h-2.7V3.9
		c0-1-0.8-1.8-1.8-1.8c-1,0-1.8,0.8-1.8,1.8v0.6h-1.6c-3.2,0-5.7,2.5-5.7,5.6s2.6,5.6,5.7,5.6h5.3c1.2,0,2.2,0.9,2.2,2.1
		c0,1.1-1,2.1-2.2,2.1h-9c-1,0-1.8,0.8-1.8,1.8s0.8,1.8,1.8,1.8H31v0.6c0,1,0.8,1.8,1.8,1.8c1,0,1.8-0.8,1.8-1.8v-0.6h0.2
		c3.2,0,5.7-2.5,5.7-5.6S37.8,12.1,34.7,12.1z"/>
</g>
</svg>
