<?xml version="1.0" encoding="utf-8"?>
<!-- Generator: Adobe Illustrator 22.0.1, SVG Export Plug-In . SVG Version: 6.00 Build 0)  -->
<svg version="1.1" id="lni_lni-investment" xmlns="http://www.w3.org/2000/svg" xmlns:xlink="http://www.w3.org/1999/xlink" x="0px"
	 y="0px" viewBox="0 0 64 64" style="enable-background:new 0 0 64 64;" xml:space="preserve">
<g>
	<path d="M62.3,41.4l-4.7-4.9c-0.5-0.5-1.3-0.7-2-0.4l-5.1,2.4c-0.9,0.4-1.3,1.5-0.8,2.3c0.4,0.9,1.5,1.2,2.3,0.8l1.8-0.8
		C50.2,50.2,41.7,56.4,32,56.4c-10.1,0-18.9-6.7-22.1-16.7c-0.3-0.9-1.3-1.4-2.2-1.1c-0.9,0.3-1.4,1.3-1.1,2.2
		C10.2,52.2,20.4,59.9,32,59.9c11.4,0,21.5-7.4,25.3-18.6l2.4,2.5c0.3,0.4,0.8,0.5,1.3,0.5c0.4,0,0.9-0.2,1.2-0.5
		C62.9,43.2,62.9,42.1,62.3,41.4z"/>
	<path d="M8.5,30.5l5.5-3.1c0.8-0.5,1.1-1.5,0.7-2.4c-0.5-0.8-1.5-1.1-2.4-0.7l-2.8,1.6C12.2,15.1,21.4,7.6,32,7.6
		c10.7,0,20,7.6,22.7,18.5c0.2,0.9,1.2,1.5,2.1,1.3c0.9-0.2,1.5-1.2,1.3-2.1C55.1,12.9,44.3,4.1,32,4.1c-12.2,0-22.7,8.5-25.9,20.7
		l-1.9-2c-0.7-0.7-1.8-0.7-2.5-0.1c-0.7,0.7-0.7,1.8-0.1,2.5l4.7,4.9c0.3,0.4,0.8,0.5,1.3,0.5C7.9,30.7,8.2,30.6,8.5,30.5z"/>
	<path d="M31.9,44.8c1,0,1.8-0.8,1.8-1.8v-1.3h1c3.2,0,5.8-2.6,5.8-5.8c0-3.2-2.6-5.8-5.8-5.8h-5.2c-1.3,0-2.3-1-2.3-2.3
		s1-2.3,2.3-2.3h8.3c1,0,1.8-0.8,1.8-1.8s-0.8-1.8-1.8-1.8h-4.1v-1.3c0-1-0.8-1.8-1.8-1.8s-1.8,0.8-1.8,1.8v1.3h-0.7
		c-3.2,0-5.8,2.6-5.8,5.8s2.6,5.8,5.8,5.8h5.2c1.3,0,2.3,1,2.3,2.3c0,1.3-1,2.3-2.3,2.3H26c-1,0-1.8,0.8-1.8,1.8s0.8,1.8,1.8,1.8
		h4.1v1.3C30.1,44.1,30.9,44.8,31.9,44.8z"/>
</g>
</svg>
