<?xml version="1.0" encoding="utf-8"?>
<!-- Generator: Adobe Illustrator 22.0.1, SVG Export Plug-In . SVG Version: 6.00 Build 0)  -->
<svg version="1.1" id="lni_lni-license" xmlns="http://www.w3.org/2000/svg" xmlns:xlink="http://www.w3.org/1999/xlink" x="0px"
	 y="0px" viewBox="0 0 64 64" style="enable-background:new 0 0 64 64;" xml:space="preserve">
<g>
	<path d="M17.4,35.2c3.6,0,6.6-3,6.6-6.6S21,22,17.4,22s-6.6,3-6.6,6.6S13.8,35.2,17.4,35.2z M17.4,25.5c1.7,0,3.1,1.4,3.1,3.1
		s-1.4,3.1-3.1,3.1s-3.1-1.4-3.1-3.1S15.7,25.5,17.4,25.5z"/>
	<path d="M49,41.5H13.7c-1,0-1.8,0.8-1.8,1.8s0.8,1.8,1.8,1.8H49c1,0,1.8-0.8,1.8-1.8S50,41.5,49,41.5z"/>
	<path d="M49,22.1h-9.7c-1,0-1.8,0.8-1.8,1.8s0.8,1.8,1.8,1.8H49c1,0,1.8-0.8,1.8-1.8S50,22.1,49,22.1z"/>
	<path d="M49,31.8h-9.7c-1,0-1.8,0.8-1.8,1.8c0,1,0.8,1.8,1.8,1.8H49c1,0,1.8-0.8,1.8-1.8C50.8,32.6,50,31.8,49,31.8z"/>
	<path d="M57,10.8H7c-3.2,0-5.8,2.6-5.8,5.8v30.8c0,3.2,2.6,5.8,5.8,5.8h50c3.2,0,5.8-2.6,5.8-5.8V16.6C62.8,13.4,60.2,10.8,57,10.8
		z M59.3,47.4c0,1.2-1,2.3-2.3,2.3H7c-1.2,0-2.3-1-2.3-2.3V16.6c0-1.2,1-2.3,2.3-2.3h50c1.2,0,2.3,1,2.3,2.3V47.4z"/>
</g>
</svg>
