<?xml version="1.0" encoding="utf-8"?>
<!-- Generator: Adobe Illustrator 22.0.1, SVG Export Plug-In . SVG Version: 6.00 Build 0)  -->
<svg version="1.1" id="lni_lni-notepad" xmlns="http://www.w3.org/2000/svg" xmlns:xlink="http://www.w3.org/1999/xlink" x="0px"
	 y="0px" viewBox="0 0 64 64" style="enable-background:new 0 0 64 64;" xml:space="preserve">
<path d="M51.8,3.4c-1.4-1.4-3.3-2.2-5.3-2.2H20.3c-2.8,0-5,2.2-5,5v5.5h-3.5c-1,0-1.8,0.8-1.8,1.8s0.8,1.8,1.8,1.8h3.5v15h-3.5
	c-1,0-1.8,0.8-1.8,1.8s0.8,1.8,1.8,1.8h3.5v15h-3.5c-1,0-1.8,0.8-1.8,1.8s0.8,1.8,1.8,1.8h3.5v5.5c0,2.8,2.2,5,5,5h26.3
	c4.1,0,7.4-3.3,7.4-7.4l0-46.6C54,6.7,53.2,4.8,51.8,3.4z M50.5,55.3c0,2.2-1.8,3.9-3.9,3.9H20.3c-0.8,0-1.5-0.7-1.5-1.5v-5.5h6.2
	c1,0,1.8-0.8,1.8-1.8s-0.8-1.8-1.8-1.8h-6.2v-15h6.2c1,0,1.8-0.8,1.8-1.8s-0.8-1.8-1.8-1.8h-6.2v-15h6.2c1,0,1.8-0.8,1.8-1.8
	s-0.8-1.8-1.8-1.8h-6.2V6.3c0-0.8,0.7-1.5,1.5-1.5h26.3c1,0,2,0.4,2.8,1.2c0.7,0.7,1.1,1.7,1.1,2.8L50.5,55.3z"/>
</svg>
