<?xml version="1.0" encoding="utf-8"?>
<!-- Generator: Adobe Illustrator 22.0.1, SVG Export Plug-In . SVG Version: 6.00 Build 0)  -->
<svg version="1.1" id="lni_lni-offer" xmlns="http://www.w3.org/2000/svg" xmlns:xlink="http://www.w3.org/1999/xlink" x="0px"
	 y="0px" viewBox="0 0 64 64" style="enable-background:new 0 0 64 64;" xml:space="preserve">
<g>
	<path d="M60.4,27.3L58,25.4c-0.8-0.6-1.1-1.6-0.9-2.5l0.8-3c0.5-1.7,0.1-3.5-0.9-5c-1.1-1.5-2.8-2.5-4.8-2.6L49,12.1
		c-1.1-0.1-2-0.7-2.4-1.6l-1.2-2.8c-0.7-1.6-2.1-2.9-3.8-3.5c-1.8-0.6-3.8-0.4-5.4,0.6l-2.7,1.6c-0.9,0.6-2.1,0.6-3,0l-2.7-1.6
		c-1.6-1-3.6-1.2-5.4-0.6c-1.7,0.6-3.1,1.8-3.8,3.5l-1.2,2.8c-0.4,0.9-1.3,1.6-2.4,1.6l-3.2,0.2c-1.9,0.1-3.7,1.1-4.8,2.6
		c-1,1.5-1.4,3.3-0.9,5l0.8,3c0.3,0.9-0.1,1.9-0.9,2.5l-2.5,1.9c-1.5,1.2-2.3,2.9-2.3,4.7c0,1.8,0.8,3.5,2.3,4.7L6,38.6
		c0.8,0.6,1.1,1.6,0.9,2.5l-0.8,3c-0.5,1.7-0.1,3.5,0.9,5c1.1,1.5,2.8,2.5,4.8,2.6l3.2,0.2c1.1,0.1,2,0.7,2.4,1.6l1.2,2.8
		c0.7,1.6,2.1,2.9,3.8,3.5c0.7,0.2,1.3,0.3,2,0.3c1.2,0,2.3-0.3,3.3-0.9l2.7-1.6c0.9-0.6,2.1-0.6,3,0l2.7,1.6c1.6,1,3.6,1.2,5.4,0.6
		c1.7-0.6,3.1-1.8,3.8-3.5l1.2-2.8c0.4-0.9,1.3-1.6,2.4-1.6l3.2-0.2c1.9-0.1,3.7-1.1,4.8-2.6c1-1.5,1.4-3.3,0.9-5l-0.8-3
		c-0.3-0.9,0.1-1.9,0.9-2.5l2.5-1.9c1.5-1.2,2.3-2.9,2.3-4.7S61.9,28.5,60.4,27.3z M58.3,33.9l-2.5,1.9c-1.9,1.5-2.7,3.9-2.1,6.2
		l0.8,3c0.2,0.7,0.1,1.4-0.4,2c-0.5,0.7-1.3,1.1-2.1,1.1l-3.2,0.2c-2.4,0.1-4.5,1.6-5.4,3.8L42.2,55c-0.3,0.7-0.9,1.2-1.7,1.5
		c-0.8,0.3-1.7,0.2-2.5-0.3l-2.7-1.6c-2-1.2-4.6-1.2-6.7,0L26,56.2c-0.7,0.4-1.6,0.5-2.5,0.3c-0.8-0.3-1.4-0.8-1.7-1.5l-1.2-2.8
		c-0.9-2.2-3-3.6-5.4-3.8L12,48.2c-0.9-0.1-1.7-0.5-2.1-1.1c-0.4-0.6-0.6-1.3-0.4-2l0.8-3c0.6-2.3-0.2-4.7-2.1-6.2l-2.5-1.9
		c-0.6-0.5-1-1.2-1-1.9c0-0.8,0.3-1.4,1-1.9l2.5-1.9c1.9-1.5,2.7-3.9,2.1-6.2l-0.8-3c-0.2-0.7-0.1-1.4,0.4-2
		c0.5-0.7,1.3-1.1,2.1-1.1l3.2-0.2c2.4-0.1,4.5-1.6,5.4-3.8L21.8,9c0.3-0.7,0.9-1.2,1.7-1.5c0.3-0.1,0.6-0.2,0.9-0.2
		c0.5,0,1.1,0.1,1.5,0.4l2.7,1.6c2,1.2,4.6,1.2,6.7,0L38,7.8c0.7-0.4,1.6-0.5,2.5-0.3c0.8,0.3,1.4,0.8,1.7,1.5l1.2,2.8
		c0.9,2.2,3,3.6,5.4,3.8l3.2,0.2c0.9,0.1,1.7,0.5,2.1,1.1c0.4,0.6,0.6,1.3,0.4,2l-0.8,3c-0.6,2.3,0.2,4.7,2.1,6.2l2.5,1.9
		c0.6,0.5,1,1.2,1,1.9C59.3,32.8,58.9,33.4,58.3,33.9z"/>
	<path d="M41.1,22.8c-0.7-0.7-1.8-0.7-2.5,0L22.9,38.6c-0.7,0.7-0.7,1.8,0,2.5c0.3,0.3,0.8,0.5,1.2,0.5s0.9-0.2,1.2-0.5l15.8-15.8
		C41.8,24.6,41.8,23.5,41.1,22.8z"/>
	<circle cx="25.4" cy="25.4" r="3.9"/>
	<circle cx="38.6" cy="38.5" r="3.9"/>
</g>
</svg>
