<?xml version="1.0" encoding="utf-8"?>
<!-- Generator: Adobe Illustrator 22.0.1, SVG Export Plug-In . SVG Version: 6.00 Build 0)  -->
<svg version="1.1" id="lni_lni-paperclip" xmlns="http://www.w3.org/2000/svg" xmlns:xlink="http://www.w3.org/1999/xlink" x="0px"
	 y="0px" viewBox="0 0 64 64" style="enable-background:new 0 0 64 64;" xml:space="preserve">
<g>
	<path d="M32.9,62.8c-0.2,0-0.3,0-0.5,0c0,0,0,0,0,0c-4.7,0-9.7-1.9-12.8-4.8c-3.3-3.1-5.1-7.3-5.1-11.6V14.2
		c0-4.3,2.1-8.2,5.8-10.6c3.6-2.5,8-3.1,12.2-1.6l0.3,0.1c0.5,0.2,1.1,0.3,1.7,0.7c4.6,2.4,7.3,6.7,7.3,11.5v27.4
		c0,2.7-0.9,5.2-2.6,7.1c-0.3,0.4-0.5,0.6-0.7,0.7c-1.8,1.7-4,2.6-6.4,2.6c-2.7,0-5.4-1.2-7.1-3.3c-1.7-2-2.6-4.5-2.6-7.2v-23
		c0-1,0.8-1.8,1.8-1.8s1.8,0.8,1.8,1.8v23c0,1.8,0.6,3.6,1.8,4.9c1.1,1.3,2.7,2.1,4.4,2.1c1.5,0,2.8-0.6,3.9-1.6
		c0.1-0.1,0.2-0.2,0.4-0.5c1.1-1.3,1.8-3,1.8-4.9V14.3c0-3.6-2-6.6-5.5-8.4l-0.1-0.1c-0.2-0.1-0.5-0.2-0.9-0.4l-0.3-0.1
		c-3.2-1.1-6.5-0.6-9.2,1.2c-2.7,1.8-4.2,4.5-4.2,7.7v32.1c0,3.3,1.5,6.6,4,9.1c2.5,2.4,6.6,3.9,10.4,3.9c3.6,0.1,7.2-1.3,9.8-3.8
		c2.6-2.5,4-5.7,3.9-9.2v-25c0-1,0.8-1.8,1.8-1.8s1.8,0.8,1.8,1.8v24.9c0.1,4.3-1.7,8.5-5,11.7C41.4,61,37.2,62.8,32.9,62.8z"/>
</g>
</svg>
