<?xml version="1.0" encoding="utf-8"?>
<!-- Generator: Adobe Illustrator 22.0.1, SVG Export Plug-In . SVG Version: 6.00 Build 0)  -->
<svg version="1.1" id="lni_lni-pie-chart" xmlns="http://www.w3.org/2000/svg" xmlns:xlink="http://www.w3.org/1999/xlink" x="0px"
	 y="0px" viewBox="0 0 64 64" style="enable-background:new 0 0 64 64;" xml:space="preserve">
<path d="M37.5,1.8C20.8-1.3,4.9,9.8,1.8,26.5c-1.5,8.1,0.3,16.2,4.9,23c4.7,6.8,11.7,11.3,19.7,12.8c1.9,0.3,3.7,0.5,5.5,0.5
	c14.5,0,27.5-10.4,30.2-25.3l0,0C65.2,20.8,54.1,4.8,37.5,1.8z M58.8,36.9c-0.2,1-0.4,2.1-0.7,3l-24.3-9.1v-26
	c1,0.1,2.1,0.2,3.1,0.4C51.6,7.9,61.4,22.1,58.8,36.9z M30.2,4.8v25.4H4.9c0.1-1,0.2-2.1,0.4-3.1C7.5,14.6,18.1,5.6,30.2,4.8z
	 M27.1,58.8C20,57.5,13.8,53.5,9.6,47.5c-2.9-4.1-4.5-8.9-4.8-13.7h26.8l25.1,9.4C51.8,54.3,39.6,61.1,27.1,58.8z"/>
</svg>
