<?xml version="1.0" encoding="utf-8"?>
<!-- Generator: Adobe Illustrator 22.0.1, SVG Export Plug-In . SVG Version: 6.00 Build 0)  -->
<svg version="1.1" id="lni_lni-pin" xmlns="http://www.w3.org/2000/svg" xmlns:xlink="http://www.w3.org/1999/xlink" x="0px"
	 y="0px" viewBox="0 0 64 64" style="enable-background:new 0 0 64 64;" xml:space="preserve">
<g>
	<path d="M46.9,16.2c0-8.2-6.7-14.9-14.9-14.9c-8.2,0-14.9,6.7-14.9,14.9c0,7.6,5.8,13.9,13.2,14.8v30c0,1,0.8,1.8,1.8,1.8
		s1.8-0.8,1.8-1.8V31C41.2,30.1,46.9,23.8,46.9,16.2z M32,27.6C32,27.6,32,27.6,32,27.6C32,27.6,32,27.6,32,27.6
		c-6.3,0-11.4-5.1-11.4-11.4c0-6.3,5.1-11.4,11.4-11.4s11.4,5.1,11.4,11.4C43.4,22.5,38.3,27.6,32,27.6z"/>
	<path d="M34.6,10c-2,0-3.5,1.6-3.5,3.5s1.6,3.5,3.5,3.5c2,0,3.5-1.6,3.5-3.5S36.6,10,34.6,10z"/>
</g>
</svg>
