<?xml version="1.0" encoding="utf-8"?>
<!-- Generator: Adobe Illustrator 22.0.1, SVG Export Plug-In . SVG Version: 6.00 Build 0)  -->
<svg version="1.1" id="lni_lni-quotation" xmlns="http://www.w3.org/2000/svg" xmlns:xlink="http://www.w3.org/1999/xlink" x="0px"
	 y="0px" viewBox="0 0 64 64" style="enable-background:new 0 0 64 64;" xml:space="preserve">
<g>
	<path d="M15.3,14.4c-6.5-0.1-12.4,4.1-13.8,9.8c-0.8,3.5-0.1,7,2,9.8c2.2,3,5.6,4.9,9.4,5.4l3.5,8.6c0.4,0.9,1.3,1.5,2.3,1.5
		c0,0,0,0,0,0c1,0,1.9-0.6,2.3-1.5c0.6-1.5,1.3-3.1,2-4.6c1.7-3.8,3.4-7.7,4.7-11.7c1.4-4.2,0.8-8.7-1.6-12.1
		C23.7,16.3,19.9,14.5,15.3,14.4z M24.4,30.7c-1.3,3.8-3,7.7-4.6,11.4c-0.3,0.8-0.7,1.5-1,2.3l-3.4-8.2l-1.1-0.1
		c-3.2-0.2-6.2-1.8-7.9-4.1c-1.5-2-2-4.5-1.4-6.9c1-4.1,5.3-7.1,10.2-7.1c0,0,0.1,0,0.1,0c3.4,0,6.2,1.4,8,3.8
		C25,24.2,25.4,27.6,24.4,30.7z"/>
	<path d="M60.4,19.7c-2.4-3.4-6.2-5.3-10.8-5.3c-0.1,0-0.1,0-0.2,0c-6.4,0-12.2,4.2-13.6,9.8c-0.8,3.5-0.1,7,2,9.9
		c2.2,3,5.6,4.9,9.4,5.4l3.5,8.6c0.4,0.9,1.3,1.5,2.3,1.5c0,0,0,0,0,0c1,0,1.9-0.6,2.3-1.5c0.6-1.5,1.3-3.1,2-4.6
		c1.7-3.8,3.4-7.7,4.7-11.7C63.4,27.7,62.8,23.1,60.4,19.7z M58.7,30.7c-1.3,3.8-3,7.7-4.6,11.4c-0.3,0.8-0.7,1.5-1,2.3l-3.4-8.2
		l-1.1-0.1c-3.2-0.2-6.2-1.8-7.9-4.1c-1.5-2-2-4.5-1.4-7c1-4.1,5.3-7.1,10.2-7.1c0,0,0.1,0,0.1,0c3.4,0,6.2,1.4,8,3.8
		C59.3,24.2,59.7,27.6,58.7,30.7z"/>
</g>
</svg>
