<?xml version="1.0" encoding="utf-8"?>
<!-- Generator: Adobe Illustrator 22.0.1, SVG Export Plug-In . SVG Version: 6.00 Build 0)  -->
<svg version="1.1" id="lni_lni-revenue" xmlns="http://www.w3.org/2000/svg" xmlns:xlink="http://www.w3.org/1999/xlink" x="0px"
	 y="0px" viewBox="0 0 64 64" style="enable-background:new 0 0 64 64;" xml:space="preserve">
<g>
	<path d="M62.5,45.4c-1-3.2-4.4-5-7.7-4.2l-13.2,3.1v-0.2c0-3-2.3-5.5-5.5-6l-13.5,0c-0.8-1.6-2.5-2.6-4.4-2.6h-12c-2.7,0-5,2.2-5,5
		v14.6c0,2.8,2.2,5,5,5h11.8c1.4,0,2.8-0.6,3.8-1.6c0.3-0.3,0.5-0.6,0.7-0.9l0.4,0.2c2.9,1.5,6.1,2.2,9.3,2.2c1.9,0,3.8-0.3,5.7-0.8
		l15.7-4.4l0,0c0,0,0,0,0,0l4.5-1.3c1.7-0.4,3-1.5,3.8-3C62.8,48.9,63,47.1,62.5,45.4z M19.3,56.1c-0.3,0.3-0.8,0.5-1.2,0.5H6.3
		c-0.8,0-1.5-0.7-1.5-1.5V40.5c0-0.8,0.7-1.5,1.5-1.5h12c0.8,0,1.5,0.7,1.5,1.5l0,14.5C19.7,55.5,19.5,55.9,19.3,56.1z M58.9,48.7
		c-0.4,0.7-1,1.1-1.7,1.3l-4.5,1.3l0,0l-15.7,4.4c-4.2,1.2-8.6,0.8-12.4-1.2L23.2,54V41.7h12.5c1.4,0.3,2.4,1.3,2.4,2.5v1l-3.9,0.9
		c-0.9,0.2-1.5,1.2-1.3,2.1c0.2,0.9,1.2,1.5,2.1,1.3l20.6-4.9c1.5-0.4,3,0.4,3.5,1.9C59.4,47.2,59.3,48,58.9,48.7z"/>
	<path d="M47.8,20.6h5.3c1.9,0,3.5,1.6,3.5,3.5s-1.6,3.5-3.5,3.5h-7.9c-1,0-1.8,0.8-1.8,1.8s0.8,1.8,1.8,1.8h3.5V32
		c0,1,0.8,1.8,1.8,1.8s1.8-0.8,1.8-1.8v-0.9h0.9c3.8,0,7-3.2,7-7s-3.1-7-7-7h-5.3c-1.9,0-3.5-1.6-3.5-3.5s1.6-3.5,3.5-3.5h7.9
		c1,0,1.8-0.8,1.8-1.8s-0.8-1.8-1.8-1.8h-3.5V5.6c0-1-0.8-1.8-1.8-1.8s-1.8,0.8-1.8,1.8v0.9h-0.9c-3.8,0-7,3.2-7,7
		S44,20.6,47.8,20.6z"/>
</g>
</svg>
