<?xml version="1.0" encoding="utf-8"?>
<!-- Generator: Adobe Illustrator 22.0.1, SVG Export Plug-In . SVG Version: 6.00 Build 0)  -->
<svg version="1.1" id="lni_lni-stamp" xmlns="http://www.w3.org/2000/svg" xmlns:xlink="http://www.w3.org/1999/xlink" x="0px"
	 y="0px" viewBox="0 0 64 64" style="enable-background:new 0 0 64 64;" xml:space="preserve">
<path d="M46.5,35.7h-8.2l1.3-25.9c0.1-2.3-0.7-4.5-2.3-6.2C35.9,2.1,34,1.3,32,1.3c-2,0-3.9,0.8-5.3,2.3c-1.6,1.6-2.4,3.9-2.3,6.2
	l1.3,25.9h-8.1c-6.1,0-11,5.4-11,12v4.8c0,1.3,1,2.4,2.3,2.4h0.3v3.5c0,2.4,2,4.4,4.4,4.4h36.9c2.4,0,4.4-2,4.4-4.4v-3.5h0.3
	c1.3,0,2.3-1.1,2.3-2.4v-4.8C57.5,41.1,52.5,35.7,46.5,35.7z M27.8,9.7c-0.1-1.4,0.4-2.7,1.3-3.7c1.5-1.6,4.1-1.6,5.6,0
	c0.9,0.9,1.4,2.2,1.3,3.6l-1.3,26.1h-5.6L27.8,9.7z M10,47.7c0-4.7,3.4-8.5,7.5-8.5h8.3h12.3h8.3c4.1,0,7.5,3.8,7.5,8.5v3.7H10V47.7
	z M51.3,58.4c0,0.5-0.4,0.9-0.9,0.9H13.6c-0.5,0-0.9-0.4-0.9-0.9v-3.5h38.7V58.4z"/>
</svg>
