<?xml version="1.0" encoding="utf-8"?>
<!-- Generator: Adobe Illustrator 22.0.1, SVG Export Plug-In . SVG Version: 6.00 Build 0)  -->
<svg version="1.1" id="lni_lni-stats-up" xmlns="http://www.w3.org/2000/svg" xmlns:xlink="http://www.w3.org/1999/xlink" x="0px"
	 y="0px" viewBox="0 0 64 64" style="enable-background:new 0 0 64 64;" xml:space="preserve">
<g>
	<path d="M61,59.3H6.2c-0.8,0-1.4-0.6-1.4-1.4V3C4.8,2,4,1.3,3,1.3S1.3,2,1.3,3v54.8c0,2.7,2.2,4.9,4.9,4.9H61c1,0,1.8-0.8,1.8-1.8
		S62,59.3,61,59.3z"/>
	<path d="M59.7,22.3H47.8c-1,0-1.8,0.8-1.8,1.8s0.8,1.8,1.8,1.8h8.9l-7.1,5.9H35.8c-0.5,0-1.1,0.3-1.4,0.7l-7.5,9.9H14.7
		c-1,0-1.8,0.8-1.8,1.8s0.8,1.8,1.8,1.8h13c0.5,0,1.1-0.3,1.4-0.7l7.5-9.9h13.6c0.4,0,0.8-0.1,1.1-0.4l7.9-6.5v9
		c0,1,0.8,1.8,1.8,1.8s1.8-0.8,1.8-1.8V25.4C62.8,23.7,61.4,22.3,59.7,22.3z"/>
</g>
</svg>
