<?xml version="1.0" encoding="utf-8"?>
<!-- Generator: Adobe Illustrator 22.0.1, SVG Export Plug-In . SVG Version: 6.00 Build 0)  -->
<svg version="1.1" id="lni_lni-stats-down" xmlns="http://www.w3.org/2000/svg" xmlns:xlink="http://www.w3.org/1999/xlink" x="0px"
	 y="0px" viewBox="0 0 64 64" style="enable-background:new 0 0 64 64;" xml:space="preserve">
<g>
	<path d="M61,59.3H6.2c-0.8,0-1.4-0.6-1.4-1.4V3C4.8,2,4,1.3,3,1.3S1.3,2,1.3,3v54.8c0,2.7,2.2,4.9,4.9,4.9H61c1,0,1.8-0.8,1.8-1.8
		S62,59.3,61,59.3z"/>
	<path d="M61,29.1c-1,0-1.8,0.8-1.8,1.8v9l-7.9-6.5c-0.3-0.3-0.7-0.4-1.1-0.4H36.7L29.1,23c-0.3-0.4-0.8-0.7-1.4-0.7h-13
		c-1,0-1.8,0.8-1.8,1.8s0.8,1.8,1.8,1.8h12.2l7.5,9.9c0.3,0.4,0.8,0.7,1.4,0.7h13.8l7.1,5.9h-8.9c-1,0-1.8,0.8-1.8,1.8
		s0.8,1.8,1.8,1.8h11.9c1.7,0,3-1.4,3-3V30.8C62.8,29.9,62,29.1,61,29.1z"/>
</g>
</svg>
