<?xml version="1.0" encoding="utf-8"?>
<!-- Generator: Adobe Illustrator 22.0.1, SVG Export Plug-In . SVG Version: 6.00 Build 0)  -->
<svg version="1.1" id="lni_lni-tag" xmlns="http://www.w3.org/2000/svg" xmlns:xlink="http://www.w3.org/1999/xlink" x="0px"
	 y="0px" viewBox="0 0 64 64" style="enable-background:new 0 0 64 64;" xml:space="preserve">
<path d="M58,12.1c-1-1-2.5-1.5-3.9-1.3l-10.8,1.5c-4-5.9-11.1-12.5-22.8-10.7c-1,0.1-1.6,1-1.5,2c0.1,1,1,1.6,2,1.5
	c9.1-1.4,14.9,3.1,18.5,7.8l-7.1,1c-1,0.1-1.8,0.6-2.5,1.2L6.1,37.4c-0.9,0.9-1.4,2.1-1.4,3.3c0,1.3,0.5,2.5,1.4,3.3l18.4,17.4
	c0.9,0.8,2,1.3,3.2,1.3s2.3-0.4,3.2-1.3l23.9-22.6c0.7-0.7,1.2-1.6,1.4-2.6L59.3,16C59.5,14.5,59,13.1,58,12.1z M55.8,15.5
	l-3.2,20.3c0,0.2-0.2,0.5-0.3,0.6v0L28.4,59c-0.4,0.4-1.1,0.4-1.5,0L8.5,41.5c-0.2-0.2-0.3-0.5-0.3-0.8c0-0.3,0.1-0.6,0.3-0.8
	l23.7-22.4c0.2-0.2,0.4-0.3,0.6-0.3l8.8-1.2c1.6,2.8,2.3,5,2.4,5.3c0.2,0.8,0.9,1.2,1.7,1.2c0.2,0,0.3,0,0.5-0.1
	c0.9-0.3,1.4-1.3,1.2-2.2c0-0.1-0.7-2.1-2.1-4.8l9.3-1.3c0.1,0,0.1,0,0.2,0c0.4,0,0.6,0.2,0.8,0.3C55.7,14.7,55.9,15,55.8,15.5z"/>
</svg>
