<?xml version="1.0" encoding="utf-8"?>
<!-- Generator: Adobe Illustrator 22.0.1, SVG Export Plug-In . SVG Version: 6.00 Build 0)  -->
<svg version="1.1" id="lni_lni-target" xmlns="http://www.w3.org/2000/svg" xmlns:xlink="http://www.w3.org/1999/xlink" x="0px"
	 y="0px" viewBox="0 0 64 64" style="enable-background:new 0 0 64 64;" xml:space="preserve">
<path d="M61,30.3h-6.6C53.6,18.9,44.8,9.8,33.8,8.9V3c0-1-0.8-1.8-1.8-1.8c-1,0-1.8,0.8-1.8,1.8v5.9c-11,0.9-19.8,10-20.6,21.4H3
	c-1,0-1.8,0.8-1.8,1.8c0,1,0.8,1.8,1.8,1.8h6.6c0.8,11.4,9.6,20.5,20.6,21.4V61c0,1,0.8,1.8,1.8,1.8c1,0,1.8-0.8,1.8-1.8v-5.9
	c11-0.9,19.8-10,20.6-21.4H61c1,0,1.8-0.8,1.8-1.8C62.8,31,62,30.3,61,30.3z M50.9,30.3h-7.5c-0.7-5.1-4.6-9.1-9.6-9.9v-7.9
	C42.8,13.3,50.1,20.8,50.9,30.3z M32,40.3C32,40.3,32,40.3,32,40.3C32,40.3,32,40.3,32,40.3c-4.4,0-8-3.7-8-8.3c0,0,0,0,0,0s0,0,0,0
	c0-4.6,3.6-8.3,7.9-8.3c0,0,0,0,0,0s0,0,0,0c4.4,0,7.9,3.7,7.9,8.3c0,0,0,0,0,0s0,0,0,0C40,36.6,36.4,40.3,32,40.3z M30.3,12.4v7.9
	c-4.9,0.8-8.8,4.8-9.6,9.9h-7.5C13.9,20.8,21.2,13.3,30.3,12.4z M13.1,33.8h7.5c0.7,5.1,4.6,9.1,9.6,9.9v7.9
	C21.2,50.7,13.9,43.2,13.1,33.8z M33.8,51.6v-7.9c4.9-0.8,8.8-4.8,9.6-9.9h7.5C50.1,43.2,42.8,50.7,33.8,51.6z"/>
</svg>
