<?xml version="1.0" encoding="utf-8"?>
<!-- Generator: Adobe Illustrator 22.0.1, SVG Export Plug-In . SVG Version: 6.00 Build 0)  -->
<svg version="1.1" id="lni_lni-target-revenue" xmlns="http://www.w3.org/2000/svg" xmlns:xlink="http://www.w3.org/1999/xlink"
	 x="0px" y="0px" viewBox="0 0 64 64" style="enable-background:new 0 0 64 64;" xml:space="preserve">
<g>
	<path d="M61,30.3h-5.7C54.5,18.7,45.3,9.5,33.8,8.7V3c0-1-0.8-1.8-1.8-1.8c-1,0-1.8,0.8-1.8,1.8v5.7C18.7,9.5,9.5,18.7,8.7,30.3H3
		c-1,0-1.8,0.8-1.8,1.8c0,1,0.8,1.8,1.8,1.8h5.7c0.9,11.5,10.1,20.7,21.6,21.6V61c0,1,0.8,1.8,1.8,1.8c1,0,1.8-0.8,1.8-1.8v-5.7
		c11.5-0.9,20.7-10.1,21.6-21.6H61c1,0,1.8-0.8,1.8-1.8C62.8,31,62,30.3,61,30.3z M33.8,51.8v-1.4c0-1-0.8-1.8-1.8-1.8
		c-1,0-1.8,0.8-1.8,1.8v1.4C20.7,51,13,43.3,12.2,33.8h1.4c1,0,1.8-0.8,1.8-1.8c0-1-0.8-1.8-1.8-1.8h-1.4C13,20.7,20.7,13,30.3,12.2
		v1.4c0,1,0.8,1.8,1.8,1.8c1,0,1.8-0.8,1.8-1.8v-1.4C43.3,13,51,20.7,51.8,30.3h-1.4c-1,0-1.8,0.8-1.8,1.8c0,1,0.8,1.8,1.8,1.8h1.4
		C51,43.3,43.3,51,33.8,51.8z"/>
	<path d="M34.5,30.3h-5c-1.1,0-2-0.8-2-1.8c0-1,0.9-1.8,2-1.8h7.4c1,0,1.8-0.8,1.8-1.8s-0.8-1.8-1.8-1.8h-2.5v-0.4
		c0-1-0.8-1.8-1.8-1.8c-1,0-1.8,0.8-1.8,1.8v0.4h-1.4c-3,0-5.5,2.4-5.5,5.3s2.5,5.3,5.5,5.3h5c1.1,0,2,0.8,2,1.8s-0.9,1.8-2,1.8
		h-8.4c-1,0-1.8,0.8-1.8,1.8s0.8,1.8,1.8,1.8h4.9v0.4c0,1,0.8,1.8,1.8,1.8c1,0,1.8-0.8,1.8-1.8v-0.4h0.1c3,0,5.5-2.4,5.5-5.3
		C40,32.6,37.5,30.3,34.5,30.3z"/>
</g>
</svg>
