<?xml version="1.0" encoding="utf-8"?>
<!-- Generator: Adobe Illustrator 22.0.1, SVG Export Plug-In . SVG Version: 6.00 Build 0)  -->
<svg version="1.1" id="lni_lni-alarm" xmlns="http://www.w3.org/2000/svg" xmlns:xlink="http://www.w3.org/1999/xlink" x="0px"
	 y="0px" viewBox="0 0 64 64" style="enable-background:new 0 0 64 64;" xml:space="preserve">
<path d="M58.1,54.2L56,50.9c-0.5-0.7-0.7-1.4-0.7-2.2V27.2c0-5.9-2.5-11.5-7.1-15.6c-3.9-3.5-9-5.6-14.4-6V3c0-1-0.8-1.8-1.8-1.8
	c-1,0-1.8,0.8-1.8,1.8v2.5c-0.4,0-0.8,0.1-1.2,0.1C17.4,6.9,8.5,16.4,8.5,27.5v21.2c-0.1,0.9-0.3,1.6-0.6,2.1l-2,3.4
	c-0.5,0.9-0.5,1.9,0,2.7c0.5,0.8,1.3,1.3,2.3,1.3h22V61c0,1,0.8,1.8,1.8,1.8c1,0,1.8-0.8,1.8-1.8v-2.8h22c1,0,1.8-0.5,2.3-1.3
	C58.6,56,58.6,55,58.1,54.2z M9.7,54.7l1.3-2.1c0.5-1,0.9-2.1,1-3.5l0-21.5c0-9.4,7.5-17.3,17.4-18.4c6.1-0.7,12,1.2,16.4,5.1
	c3.9,3.5,6,8.1,6,13v21.6c0,1.4,0.4,2.8,1.2,4.1l1.2,1.9H9.7z"/>
</svg>
