<?xml version="1.0" encoding="utf-8"?>
<!-- Generator: Adobe Illustrator 22.0.1, SVG Export Plug-In . SVG Version: 6.00 Build 0)  -->
<svg version="1.1" id="lni_lni-alarmclock" xmlns="http://www.w3.org/2000/svg" xmlns:xlink="http://www.w3.org/1999/xlink" x="0px"
	 y="0px" viewBox="0 0 64 64" style="enable-background:new 0 0 64 64;" xml:space="preserve">
<g>
	<path d="M43.8,35.5h-10V25.3c0-1-0.8-1.8-1.8-1.8c-1,0-1.8,0.8-1.8,1.8v10.2h-0.9c-1,0-1.8,0.8-1.8,1.8s0.8,1.8,1.8,1.8h0.9v0.9
		c0,1,0.8,1.8,1.8,1.8c1,0,1.8-0.8,1.8-1.8V39h10c1,0,1.8-0.8,1.8-1.8S44.7,35.5,43.8,35.5z"/>
	<path d="M59.9,18.6c0-5.3-4.3-9.7-9.7-9.7c-2.7,0-5.2,1.1-6.9,3c-2.9-1.4-6.2-2.2-9.6-2.5V4.8h3.5C38.2,4.8,39,4,39,3
		s-0.8-1.8-1.8-1.8H26.7C25.8,1.3,25,2,25,3s0.8,1.8,1.8,1.8h3.5v4.7c-3.4,0.2-6.6,1.1-9.6,2.5c-1.8-1.9-4.3-3-6.9-3
		c-5.3,0-9.7,4.3-9.7,9.7c0,2.8,1.2,5.4,3.3,7.2c-1.3,3.2-2,6.6-2,10.2c0,14.7,12,26.7,26.7,26.7s26.7-12,26.7-26.7
		c0-3.6-0.7-7.1-2-10.2C58.7,24,59.9,21.4,59.9,18.6z M50.3,12.5c3.4,0,6.2,2.8,6.2,6.2c0,1.5-0.5,2.8-1.4,3.9
		c-2.1-3.6-5-6.6-8.4-8.8C47.6,12.9,48.9,12.5,50.3,12.5z M7.6,18.6c0-3.4,2.8-6.2,6.2-6.2c1.4,0,2.7,0.5,3.7,1.3
		C14,16,11.1,19,9,22.6C8.1,21.5,7.6,20.1,7.6,18.6z M32,59.3c-12.8,0-23.2-10.4-23.2-23.2c0-12.8,10.4-23.2,23.2-23.2
		c12.8,0,23.2,10.4,23.2,23.2C55.2,48.8,44.8,59.3,32,59.3z"/>
</g>
</svg>
