<?xml version="1.0" encoding="utf-8"?>
<!-- Generator: Adobe Illustrator 22.0.1, SVG Export Plug-In . SVG Version: 6.00 Build 0)  -->
<svg version="1.1" id="lni_lni-ban" xmlns="http://www.w3.org/2000/svg" xmlns:xlink="http://www.w3.org/1999/xlink" x="0px"
	 y="0px" viewBox="0 0 64 64" style="enable-background:new 0 0 64 64;" xml:space="preserve">
<path d="M32,1.3C15,1.3,1.3,15,1.3,32C1.3,49,15,62.8,32,62.8C49,62.8,62.8,49,62.8,32C62.8,15,49,1.3,32,1.3z M4.8,32
	C4.8,17,17,4.8,32,4.8c5.8,0,11.2,1.8,15.6,4.9l-34,42.4C8.2,47.1,4.8,39.9,4.8,32z M32,59.3c-5.8,0-11.2-1.8-15.7-5l34-42.5
	c5.5,5,8.9,12.2,8.9,20.2C59.3,47,47,59.3,32,59.3z"/>
</svg>
