<?xml version="1.0" encoding="utf-8"?>
<!-- Generator: Adobe Illustrator 22.0.1, SVG Export Plug-In . SVG Version: 6.00 Build 0)  -->
<svg version="1.1" id="lni_lni-bluetooth" xmlns="http://www.w3.org/2000/svg" xmlns:xlink="http://www.w3.org/1999/xlink" x="0px"
	 y="0px" viewBox="0 0 64 64" style="enable-background:new 0 0 64 64;" xml:space="preserve">
<path d="M49.1,42.9L32.9,32l16.3-10.9c1.5-1,2.4-2.7,2.4-4.5s-0.9-3.5-2.4-4.5L33.7,1.8c-1-0.7-2.4-0.8-3.5-0.2
	c-1.1,0.6-1.9,1.8-1.9,3.1v24.1L15.2,20c-0.8-0.5-1.9-0.3-2.4,0.5c-0.5,0.8-0.3,1.9,0.5,2.4l13.5,9l-13.4,8.9
	c-0.8,0.5-1,1.6-0.5,2.4c0.3,0.5,0.9,0.8,1.5,0.8c0.3,0,0.7-0.1,1-0.3l13.1-8.7v24.1c0,1.3,0.7,2.5,1.9,3.1c0.5,0.3,1.1,0.4,1.6,0.4
	c0.7,0,1.3-0.2,1.9-0.6l15.4-10.3c1.5-1,2.4-2.7,2.4-4.5S50.6,43.9,49.1,42.9z M31.9,4.8L47.2,15c0.5,0.4,0.9,0.9,0.9,1.6
	s-0.3,1.2-0.9,1.6L31.9,28.5L31.9,4.8z M47.2,49L31.9,59.2V35.5l15.3,10.2c0.5,0.4,0.9,0.9,0.9,1.6S47.7,48.6,47.2,49z"/>
</svg>
