<?xml version="1.0" encoding="utf-8"?>
<!-- Generator: Adobe Illustrator 22.0.1, SVG Export Plug-In . SVG Version: 6.00 Build 0)  -->
<svg version="1.1" id="lni_lni-bookmark" xmlns="http://www.w3.org/2000/svg" xmlns:xlink="http://www.w3.org/1999/xlink" x="0px"
	 y="0px" viewBox="0 0 64 64" style="enable-background:new 0 0 64 64;" xml:space="preserve">
<g>
	<path d="M16.2,62.8c-0.6,0-1.2-0.1-1.8-0.4c-1.6-0.7-2.6-2.3-2.6-4v-51c0-3.3,2.7-6.1,6.1-6.1h28.3c3.3,0,6.1,2.7,6.1,6.1v50.9
		c0,1.7-1,3.3-2.6,4c-1.6,0.7-3.4,0.4-4.7-0.7l-11.4-10c-0.9-0.6-2.1-0.6-3,0L19.1,61.6C18.3,62.4,17.2,62.8,16.2,62.8z M17.9,4.8
		c-1.4,0-2.6,1.1-2.6,2.6v51c0,0.5,0.4,0.7,0.5,0.8c0.2,0.1,0.6,0.2,1-0.1l11.6-10.2c2.2-1.7,5.2-1.7,7.4,0L36,49l11.2,9.9
		c0.4,0.3,0.8,0.2,1,0.1c0.2-0.1,0.5-0.3,0.5-0.8V7.3c0-1.4-1.1-2.6-2.6-2.6H17.9z"/>
</g>
</svg>
