<?xml version="1.0" encoding="utf-8"?>
<!-- Generator: Adobe Illustrator 22.0.1, SVG Export Plug-In . SVG Version: 6.00 Build 0)  -->
<svg version="1.1" id="lni_lni-bookmark-alt" xmlns="http://www.w3.org/2000/svg" xmlns:xlink="http://www.w3.org/1999/xlink"
	 x="0px" y="0px" viewBox="0 0 64 64" style="enable-background:new 0 0 64 64;" xml:space="preserve">
<path d="M57.3,22.3H28.5v-7.8c0-3-2.4-5.4-5.4-5.4h-8.5c-3,0-5.4,2.4-5.4,5.4v7.8H6.7c-3,0-5.4,2.4-5.4,5.4v21.7
	c0,3,2.4,5.4,5.4,5.4h50.7c3,0,5.4-2.4,5.4-5.4V27.7C62.8,24.8,60.3,22.3,57.3,22.3z M12.7,14.6c0-1,0.9-1.9,1.9-1.9h8.5
	c1,0,1.9,0.9,1.9,1.9v16.4l-3.8-3.1L21,27.8c-1.3-0.9-3-0.9-4.3,0L12.7,31V14.6z M59.3,49.4c0,1-0.9,1.9-1.9,1.9H6.7
	c-1,0-1.9-0.9-1.9-1.9V27.7c0-1,0.9-1.9,1.9-1.9h2.5v6c0,1.2,0.7,2.2,1.7,2.8c0.4,0.2,0.9,0.3,1.3,0.3c0.7,0,1.3-0.2,1.9-0.7
	l4.6-3.7c0.1,0,0.1,0,0.2,0l4.6,3.6c0.9,0.7,2.2,0.9,3.2,0.4c1.1-0.5,1.7-1.6,1.7-2.8v-6h28.9c1,0,1.9,0.9,1.9,1.9V49.4z"/>
</svg>
