<?xml version="1.0" encoding="utf-8"?>
<!-- Generator: Adobe Illustrator 22.0.1, SVG Export Plug-In . SVG Version: 6.00 Build 0)  -->
<svg version="1.1" id="lni_lni-calendar" xmlns="http://www.w3.org/2000/svg" xmlns:xlink="http://www.w3.org/1999/xlink" x="0px"
	 y="0px" viewBox="0 0 64 64" style="enable-background:new 0 0 64 64;" xml:space="preserve">
<g>
	<path d="M17.8,37.8h-3.3c-0.6,0-1,0.4-1,1V42c0,0.6,0.4,1,1,1h3.3c0.6,0,1-0.4,1-1v-3.2C18.8,38.2,18.4,37.8,17.8,37.8z"/>
	<path d="M28.4,37.8h-3.3c-0.6,0-1,0.4-1,1V42c0,0.6,0.4,1,1,1h3.3c0.6,0,1-0.4,1-1v-3.2C29.4,38.2,28.9,37.8,28.4,37.8z"/>
	<path d="M38.9,37.8h-3.3c-0.6,0-1,0.4-1,1V42c0,0.6,0.4,1,1,1h3.3c0.6,0,1-0.4,1-1v-3.2C39.9,38.2,39.5,37.8,38.9,37.8z"/>
	<path d="M49.5,37.8h-3.3c-0.6,0-1,0.4-1,1V42c0,0.6,0.4,1,1,1h3.3c0.6,0,1-0.4,1-1v-3.2C50.5,38.2,50,37.8,49.5,37.8z"/>
	<path d="M17.8,48.2h-3.3c-0.6,0-1,0.4-1,1v3.2c0,0.6,0.4,1,1,1h3.3c0.6,0,1-0.4,1-1v-3.2C18.8,48.6,18.4,48.2,17.8,48.2z"/>
	<path d="M28.4,48.2h-3.3c-0.6,0-1,0.4-1,1v3.2c0,0.6,0.4,1,1,1h3.3c0.6,0,1-0.4,1-1v-3.2C29.4,48.6,28.9,48.2,28.4,48.2z"/>
	<path d="M38.9,48.2h-3.3c-0.6,0-1,0.4-1,1v3.2c0,0.6,0.4,1,1,1h3.3c0.6,0,1-0.4,1-1v-3.2C39.9,48.6,39.5,48.2,38.9,48.2z"/>
	<path d="M49.5,48.2h-3.3c-0.6,0-1,0.4-1,1v3.2c0,0.6,0.4,1,1,1h3.3c0.6,0,1-0.4,1-1v-3.2C50.5,48.6,50,48.2,49.5,48.2z"/>
	<path d="M57,15.6H33.5v-3.3c2.3-0.6,4.1-2.8,4.1-5.3c0-3-2.5-5.5-5.6-5.5c-3.1,0-5.6,2.5-5.6,5.5c0,2.5,1.7,4.6,4.1,5.3v3.3H7
		c-3,0-5.5,2.5-5.5,5.5V57c0,3,2.5,5.5,5.5,5.5h50c3,0,5.5-2.5,5.5-5.5V21.1C62.5,18.1,60,15.6,57,15.6z M29.4,7
		c0-1.4,1.1-2.5,2.6-2.5c1.4,0,2.6,1.1,2.6,2.5c0,1.4-1.1,2.5-2.6,2.5C30.6,9.5,29.4,8.3,29.4,7z M7,18.6h50c1.4,0,2.5,1.1,2.5,2.5
		v7.4h-55v-7.4C4.5,19.7,5.6,18.6,7,18.6z M57,59.5H7c-1.4,0-2.5-1.1-2.5-2.5V31.5h55V57C59.5,58.4,58.4,59.5,57,59.5z"/>
</g>
</svg>
