<?xml version="1.0" encoding="utf-8"?>
<!-- Generator: Adobe Illustrator 22.0.1, SVG Export Plug-In . SVG Version: 6.00 Build 0)  -->
<svg version="1.1" id="lni_lni-camera" xmlns="http://www.w3.org/2000/svg" xmlns:xlink="http://www.w3.org/1999/xlink" x="0px"
	 y="0px" viewBox="0 0 64 64" style="enable-background:new 0 0 64 64;" xml:space="preserve">
<g>
	<path d="M61,20.2c-1.1-1.1-2.7-1.8-4.3-1.8h-7c-0.7,0-1.2-0.5-1.2-1.2v-4.4c0-1.5-0.7-3.3-3.8-3.3H18.9c-2.9,0-3.5,1.8-3.5,3.3v4.4
		c0,0.7-0.5,1.2-1.2,1.2H7.3c-3.3,0-6,2.7-6,6v24.1c0,3.3,2.7,6,6,6h49.4c3.3,0,6-2.7,6-6l0-24.1C62.8,22.8,62.1,21.3,61,20.2z
		 M59.2,48.5c0,1.4-1.1,2.5-2.5,2.5H7.3c-1.4,0-2.5-1.1-2.5-2.5V24.4c0-1.4,1.1-2.5,2.5-2.5h6.9c2.6,0,4.7-2.1,4.7-4.7V13
		c0,0,0,0,0,0h25.8c0.1,0,0.2,0,0.3,0v4.2c0,2.6,2.1,4.7,4.7,4.7h7c0.7,0,1.3,0.3,1.8,0.7c0.5,0.5,0.7,1.1,0.7,1.8L59.2,48.5z"/>
	<path d="M31.6,24.3c-5.1,0-9.2,4.1-9.2,9.2c0,5.1,4,9.1,9.2,9.1c5.1,0,9.2-4.1,9.2-9.1C40.7,28.5,36.5,24.3,31.6,24.3z M31.6,39.1
		c-3.2,0-5.7-2.4-5.7-5.6c0-3.2,2.5-5.7,5.7-5.7c3.1,0,5.7,2.6,5.7,5.7C37.2,36.6,34.7,39.1,31.6,39.1z"/>
	<path d="M12.5,26.1c-1.6,0-3,1.3-3,3c0,1.6,1.3,3,3,3s3-1.3,3-3C15.5,27.4,14.2,26.1,12.5,26.1z"/>
</g>
</svg>
