<?xml version="1.0" encoding="utf-8"?>
<!-- Generator: Adobe Illustrator 22.0.1, SVG Export Plug-In . SVG Version: 6.00 Build 0)  -->
<svg version="1.1" id="lni_lni-cloud-upload" xmlns="http://www.w3.org/2000/svg" xmlns:xlink="http://www.w3.org/1999/xlink"
	 x="0px" y="0px" viewBox="0 0 64 64" style="enable-background:new 0 0 64 64;" xml:space="preserve">
<g>
	<path d="M34.3,27.3c-0.5-0.5-1.1-0.8-1.8-0.8c-0.7,0-1.3,0.3-1.8,0.8l-4.9,5.1c-0.7,0.7-0.7,1.8,0,2.5c0.7,0.7,1.8,0.7,2.5,0
		l2.5-2.6v9.5c0,1,0.8,1.8,1.8,1.8c1,0,1.8-0.8,1.8-1.8v-9.5l2.5,2.6c0.3,0.4,0.8,0.5,1.3,0.5c0.4,0,0.9-0.2,1.2-0.5
		c0.7-0.7,0.7-1.8,0-2.5L34.3,27.3z"/>
	<path d="M57.8,23.7c-2.7-2.9-6.6-4.9-10.6-5.6c-2.2-3.5-5.5-6.1-9.3-7.4c-1.7-0.6-3.7-1-5.8-1c-9.6,0-17.5,7.5-17.9,16.9
		C6.9,27.2,1.3,33.2,1.3,40.4c0,7.6,6.3,13.8,14.1,13.9c0,0,0,0,0,0h28.8c10.3,0,18.6-8.2,18.6-18.2C62.8,31.5,61,27.1,57.8,23.7z
		 M44.1,50.8H15.4c-6,0-10.6-4.6-10.6-10.4S9.4,30,15.4,30h0.5c1,0,1.8-0.8,1.8-1.8v-1.1c0-7.7,6.5-14,14.4-14
		c1.7,0,3.2,0.3,4.6,0.8c3.3,1.1,6.1,3.5,7.9,6.6c0.3,0.5,0.8,0.8,1.3,0.9c3.6,0.4,7,2,9.3,4.6c2.6,2.8,4,6.3,4,10
		C59.3,44.2,52.5,50.8,44.1,50.8z"/>
</g>
</svg>
