<?xml version="1.0" encoding="utf-8"?>
<!-- Generator: Adobe Illustrator 22.0.1, SVG Export Plug-In . SVG Version: 6.00 Build 0)  -->
<svg version="1.1" id="lni_lni-cloud-network" xmlns="http://www.w3.org/2000/svg" xmlns:xlink="http://www.w3.org/1999/xlink"
	 x="0px" y="0px" viewBox="0 0 64 64" style="enable-background:new 0 0 64 64;" xml:space="preserve">
<path d="M55.8,42.5c-3.2,0-6,2.2-6.8,5.1h-2.1v-7.7c5.5-1.9,9.5-7.1,9.5-13.3c0-3.5-1.3-6.9-3.8-9.6c-2-2.2-4.9-3.7-7.9-4.3
	c-1.7-2.6-4.1-4.6-7-5.6c-1.3-0.5-2.8-0.8-4.5-0.8c-7.2,0-13.2,5.6-13.6,12.7c-5.4,0.7-9.6,5.2-9.6,10.7c0,4.6,2.9,8.5,6.9,10v7.6
	H15c-0.8-3-3.5-5.1-6.8-5.1c-3.9,0-7,3.1-7,6.9s3.1,6.9,7,6.9c3.2,0,6-2.2,6.7-5.1h3.2c1.3,0,2.4-1.1,2.4-2.4v-8c0.2,0,0.3,0,0.5,0
	c0,0,0,0,0,0h9.2v3.2c-3,0.8-5.2,3.5-5.2,6.7c0,3.8,3.1,6.9,7,6.9c3.9,0,7-3.1,7-6.9c0-3.2-2.2-5.9-5.2-6.7v-3.2h8.5
	c0.4,0,0.8,0,1.2-0.1v8.1c0,1.3,1.1,2.4,2.4,2.4H49c0.8,2.9,3.5,5.1,6.7,5.1c3.9,0,7-3.1,7-6.9S59.6,42.5,55.8,42.5z M8.2,52.7
	c-1.9,0-3.5-1.5-3.5-3.4S6.3,46,8.2,46s3.5,1.5,3.5,3.4S10.2,52.7,8.2,52.7z M35.5,50.6c0,1.9-1.6,3.4-3.5,3.4s-3.5-1.5-3.5-3.4
	s1.6-3.4,3.5-3.4S35.5,48.7,35.5,50.6z M21.1,37.2c-4.2,0-7.4-3.2-7.4-7.3s3.3-7.3,7.4-7.3h0.4c1,0,1.8-0.8,1.8-1.8v-0.8
	c0-5.5,4.6-10,10.2-10c1.2,0,2.3,0.2,3.3,0.6c2.3,0.8,4.3,2.5,5.6,4.7c0.3,0.5,0.8,0.8,1.3,0.9c2.5,0.3,4.9,1.5,6.6,3.3
	c1.8,2,2.8,4.5,2.8,7.2c0,5.8-4.8,10.6-10.7,10.6H21.1z M55.8,52.7c-1.9,0-3.5-1.5-3.5-3.4s1.6-3.4,3.5-3.4s3.5,1.5,3.5,3.4
	S57.7,52.7,55.8,52.7z"/>
</svg>
