<?xml version="1.0" encoding="utf-8"?>
<!-- Generator: Adobe Illustrator 22.0.1, SVG Export Plug-In . SVG Version: 6.00 Build 0)  -->
<svg version="1.1" id="lni_lni-cloud-sync" xmlns="http://www.w3.org/2000/svg" xmlns:xlink="http://www.w3.org/1999/xlink" x="0px"
	 y="0px" viewBox="0 0 64 64" style="enable-background:new 0 0 64 64;" xml:space="preserve">
<g>
	<path d="M40.6,46.2c-0.8-0.5-1.9-0.3-2.4,0.5c-1.2,1.7-3.1,2.8-5.3,2.8c-1.4,0-2.7-0.4-3.7-1.2h1.8c1,0,1.7-0.8,1.7-1.8
		s-0.8-1.8-1.7-1.8h-6.3c-1.2,0-2.2,1-2.2,2.2V52c0,1,0.8,1.8,1.8,1.8s1.8-0.8,1.8-1.8v-1.9c1.8,1.8,4.3,2.9,7,2.9
		c3.3,0,6.4-1.6,8.2-4.3C41.6,47.9,41.4,46.8,40.6,46.2z"/>
	<path d="M42.4,31.5c0-1-0.8-1.8-1.8-1.8s-1.8,0.8-1.8,1.8V33c-2-1.6-4.6-3-6.9-3c-3.7,0-7.1,2.1-8.8,5.4c-0.4,0.9-0.1,1.9,0.7,2.4
		c0.9,0.4,1.9,0.1,2.4-0.7c1.1-2.1,3.3-3.5,5.7-3.5c1.6,0,4.1,1.6,5.5,3h-2.4c-1,0-1.8,0.8-1.8,1.8s0.8,1.8,1.8,1.8h5
		c1.2,0,2.2-1,2.2-2.2V31.5z"/>
	<path d="M57.8,23.5c-2.7-3-6.6-5-10.6-5.7c-2.2-3.6-5.5-6.3-9.3-7.6c-1.7-0.7-3.7-1-5.8-1c-9.7,0-17.5,7.7-17.9,17.3
		C6.9,27.1,1.3,33.2,1.3,40.6c0,7.8,6.3,14.2,14.1,14.2c1,0,1.8-0.8,1.8-1.8s-0.8-1.8-1.8-1.8c-6,0-10.6-4.7-10.6-10.7
		c0-6,4.7-10.7,10.6-10.7h0.5c1,0,1.8-0.8,1.8-1.8v-1.1c0-7.9,6.5-14.4,14.4-14.4c1.7,0,3.2,0.3,4.6,0.8c3.3,1.1,6.1,3.6,7.9,6.8
		c0.3,0.5,0.8,0.8,1.3,0.9c3.6,0.4,7,2.1,9.3,4.7c2.6,2.8,4,6.5,4,10.3c0,8.3-6.8,15.1-15.1,15.1c-1,0-1.8,0.8-1.8,1.8
		s0.8,1.8,1.8,1.8c10.3,0,18.6-8.3,18.6-18.6C62.8,31.5,61,27,57.8,23.5z"/>
</g>
</svg>
