<?xml version="1.0" encoding="utf-8"?>
<!-- Generator: Adobe Illustrator 22.0.1, SVG Export Plug-In . SVG Version: 6.00 Build 0)  -->
<svg version="1.1" id="lni_lni-code-alt" xmlns="http://www.w3.org/2000/svg" xmlns:xlink="http://www.w3.org/1999/xlink" x="0px"
	 y="0px" viewBox="0 0 64 64" style="enable-background:new 0 0 64 64;" xml:space="preserve">
<g>
	<path d="M57,7.1H7c-3.2,0-5.8,2.6-5.8,5.8v23.7c0,3.2,2.6,5.8,5.8,5.8h23.2v11h-7.5c-1,0-1.8,0.8-1.8,1.8s0.8,1.8,1.8,1.8h18.4
		c1,0,1.8-0.8,1.8-1.8s-0.8-1.8-1.8-1.8h-7.5v-11H57c3.2,0,5.8-2.6,5.8-5.8V12.9C62.8,9.7,60.2,7.1,57,7.1z M59.3,36.6
		c0,1.3-1,2.3-2.3,2.3H7c-1.3,0-2.3-1-2.3-2.3V12.9c0-1.3,1-2.3,2.3-2.3h50c1.3,0,2.3,1,2.3,2.3V36.6z"/>
	<path d="M45.2,17.5c-0.7-0.7-1.8-0.7-2.5,0c-0.7,0.7-0.7,1.8,0,2.5l4.3,4.3l-4.2,4.2c-0.7,0.7-0.7,1.8,0,2.5
		c0.3,0.3,0.8,0.5,1.2,0.5c0.4,0,0.9-0.2,1.2-0.5l5.2-5.2c0.8-0.8,0.8-2.1,0-3L45.2,17.5z"/>
	<path d="M17,24.7l4.2-4.2c0.7-0.7,0.7-1.8,0-2.5c-0.7-0.7-1.8-0.7-2.5,0l-5.2,5.2c-0.8,0.8-0.8,2.1,0,3l5.3,5.3
		c0.3,0.3,0.8,0.5,1.2,0.5c0.4,0,0.9-0.2,1.2-0.5c0.7-0.7,0.7-1.8,0-2.5L17,24.7z"/>
	<path d="M35,17.1c-0.9-0.4-1.9,0.1-2.3,1l-4.7,12c-0.4,0.9,0.1,1.9,1,2.3c0.2,0.1,0.4,0.1,0.6,0.1c0.7,0,1.4-0.4,1.6-1.1l4.7-12
		C36.3,18.5,35.9,17.5,35,17.1z"/>
</g>
</svg>
