<?xml version="1.0" encoding="utf-8"?>
<!-- Generator: Adobe Illustrator 22.0.1, SVG Export Plug-In . SVG Version: 6.00 Build 0)  -->
<svg version="1.1" id="lni_lni-code" xmlns="http://www.w3.org/2000/svg" xmlns:xlink="http://www.w3.org/1999/xlink" x="0px"
	 y="0px" viewBox="0 0 64 64" style="enable-background:new 0 0 64 64;" xml:space="preserve">
<g>
	<path d="M18.6,16c0.6-0.7,0.6-1.8-0.1-2.5c-0.7-0.6-1.8-0.6-2.5,0.1L2.4,28.9c-1.5,1.7-1.5,4.4,0,6.1L16,50.4
		c0.3,0.4,0.8,0.6,1.3,0.6c0.4,0,0.8-0.1,1.2-0.4c0.7-0.6,0.8-1.8,0.1-2.5L5,32.7c-0.3-0.4-0.3-1.1,0-1.5L18.6,16z"/>
	<path d="M61.6,28.9L48,13.6c-0.6-0.7-1.7-0.8-2.5-0.1c-0.7,0.6-0.8,1.7-0.1,2.5L59,31.3c0.3,0.4,0.3,1.1,0,1.5L45.4,48
		c-0.6,0.7-0.6,1.8,0.1,2.5c0.3,0.3,0.8,0.4,1.2,0.4c0.5,0,1-0.2,1.3-0.6l13.6-15.3C63.1,33.3,63.1,30.7,61.6,28.9z"/>
	<path d="M38,14c-0.9-0.3-1.9,0.2-2.2,1.1l-11,32.7C24.6,48.7,25,49.7,26,50c0.2,0.1,0.4,0.1,0.6,0.1c0.7,0,1.4-0.5,1.7-1.2l11-32.7
		C39.4,15.3,39,14.3,38,14z"/>
</g>
</svg>
