<?xml version="1.0" encoding="utf-8"?>
<!-- Generator: Adobe Illustrator 22.0.1, SVG Export Plug-In . SVG Version: 6.00 Build 0)  -->
<svg version="1.1" id="lni_lni-cog" xmlns="http://www.w3.org/2000/svg" xmlns:xlink="http://www.w3.org/1999/xlink" x="0px"
	 y="0px" viewBox="0 0 64 64" style="enable-background:new 0 0 64 64;" xml:space="preserve">
<g>
	<path d="M32.1,19.7c-6.8,0-12.3,5.5-12.3,12.3c0,6.8,5.5,12.3,12.3,12.3c6.8,0,12.3-5.5,12.3-12.3C44.3,25.3,38.8,19.7,32.1,19.7z
		 M32.1,40.8c-4.8,0-8.8-3.9-8.8-8.8c0-4.9,3.9-8.8,8.8-8.8s8.8,3.9,8.8,8.8C40.8,36.9,36.9,40.8,32.1,40.8z"/>
	<path d="M61.5,38.9l-6.2-3.4c0.2-1.3,0.3-2.5,0.3-3.7c0-1.4-0.1-2.6-0.3-3.8l6.3-3.5c1.1-0.6,1.5-1.9,1-3.1l-6-10.1
		c-0.6-1-1.9-1.4-3.1-1L47,13.9c-0.4-0.3-0.8-0.7-1.2-1c-1.1-1-2.2-1.9-3.7-2.6c-0.3-0.1-0.5-0.5-0.5-0.8V5.6c0-2.4-2-4.4-4.4-4.4
		H26.8c-2.4,0-4.4,2-4.4,4.4l0,4c0,0.3-0.2,0.6-0.5,0.8c-1.5,0.7-2.6,1.6-3.8,2.7c-0.3,0.3-0.7,0.6-1.1,0.9l-5.8-3.3
		c-1.9-1-3.2-0.3-3.8,0.7l-5.7,9.8c-0.3,0.6-0.4,1.3-0.2,1.9c0.2,0.6,0.6,1.2,1.2,1.5l6.2,3.5c-0.2,1.1-0.3,2.3-0.3,3.7
		c0,1.3,0.1,2.5,0.2,3.7l0,0L2.4,39c-1.1,0.6-1.5,1.9-1,3.1l5.9,10.1c0.6,1,1.9,1.4,3.1,1l6.5-3.6c0.4,0.3,0.8,0.6,1.1,0.9
		c1.2,1,2.2,1.9,3.8,2.6c0.3,0.1,0.5,0.5,0.5,0.8v4.4c0,2.4,2,4.4,4.4,4.4h10.5c2.4,0,4.4-2,4.4-4.4v-4.6c0-0.3,0.2-0.6,0.5-0.8
		c1.5-0.7,2.5-1.6,3.7-2.6c0.4-0.3,0.7-0.6,1.1-1l5.8,3.3c1.9,1,3.2,0.3,3.7-0.6l5.8-9.8c0.3-0.6,0.4-1.2,0.3-1.9
		C62.5,39.7,62,39.2,61.5,38.9z M54.1,49.4l-5.5-3.1c-1.2-0.7-2.7-0.5-3.7,0.3c-0.5,0.4-0.9,0.8-1.3,1.1c-1.1,0.9-1.8,1.6-2.9,2.1
		c-1.5,0.7-2.5,2.3-2.5,3.9v4.6c0,0.5-0.4,0.9-0.9,0.9H26.8c-0.5,0-0.9-0.4-0.9-0.9v-4.4c0-1.7-1-3.2-2.5-3.9c-1.1-0.5-2-1.2-3-2.1
		c-0.4-0.3-0.8-0.7-1.3-1.1C18.5,46.3,17.7,46,17,46c-0.6,0-1.1,0.1-1.6,0.4l-5.5,3.1l-4.7-8l5.3-3c1.3-0.7,1.9-2.1,1.8-3.5
		c-0.1-1-0.2-2.1-0.2-3.2c0-1.2,0.1-2.2,0.2-3.1c0.3-1.5-0.4-3-1.7-3.7l-5.3-2.9l4.7-8l5.5,3.1c1.2,0.7,2.7,0.5,3.7-0.3
		c0.4-0.4,0.8-0.7,1.2-1c1.1-0.9,1.9-1.6,3-2.2c1.5-0.7,2.5-2.3,2.5-3.9l0-4c0-0.5,0.4-0.9,0.9-0.9h10.5c0.5,0,0.9,0.4,0.9,0.9v3.9
		c0,1.7,1,3.2,2.5,3.9c1.1,0.5,1.9,1.2,2.9,2.1c0.4,0.4,0.9,0.7,1.4,1.1c1,0.8,2.5,1,3.7,0.3l5.5-3.1l4.7,8l-5.3,2.9
		c-1.3,0.7-2,2.2-1.7,3.7c0.2,0.9,0.2,2,0.2,3.1c0,1-0.1,2.1-0.3,3.2c-0.3,1.5,0.5,3,1.8,3.7l5.2,2.8L54.1,49.4z"/>
</g>
</svg>
