<?xml version="1.0" encoding="utf-8"?>
<!-- Generator: Adobe Illustrator 22.0.1, SVG Export Plug-In . SVG Version: 6.00 Build 0)  -->
<svg version="1.1" id="lni_lni-cogs" xmlns="http://www.w3.org/2000/svg" xmlns:xlink="http://www.w3.org/1999/xlink" x="0px"
	 y="0px" viewBox="0 0 64 64" style="enable-background:new 0 0 64 64;" xml:space="preserve">
<g>
	<path d="M43,34.6c-4.6,0-8.3,3.7-8.3,8.3s3.7,8.3,8.3,8.3s8.3-3.7,8.3-8.3S47.6,34.6,43,34.6z M43,47.8c-2.6,0-4.8-2.2-4.8-4.8
		c0-2.7,2.1-4.8,4.8-4.8s4.8,2.2,4.8,4.8C47.8,45.6,45.6,47.8,43,47.8z"/>
	<path d="M61.6,46.6l-3.4-1.9c0.1-0.7,0.1-1.3,0.1-2c0-0.7,0-1.4-0.1-2l3.5-2c0.9-0.6,1.3-1.7,0.9-2.7l-3.8-6.4
		c-0.6-0.9-1.7-1.3-2.7-0.9l-3.7,2.1c-0.1-0.1-0.3-0.2-0.4-0.3c-0.7-0.6-1.4-1.2-2.4-1.7v-2.4c0-1.9-1.5-3.4-3.4-3.4h-6.5
		c-1.9,0-3.4,1.5-3.4,3.4v2.4c-1,0.5-1.7,1.1-2.4,1.7c-0.1,0.1-0.2,0.2-0.3,0.3l-3.2-1.8c-1.5-0.8-2.7-0.2-3.2,0.7l-3.6,6.1
		c-0.3,0.5-0.4,1.1-0.2,1.7c0.2,0.6,0.5,1,1,1.3l3.5,1.9c-0.1,0.6-0.1,1.3-0.1,2c0,0.7,0,1.3,0.1,1.9l-3.6,2
		c-0.9,0.6-1.3,1.7-0.9,2.7l3.8,6.4c0.6,0.9,1.7,1.3,2.7,0.9l3.7-2.1c0.1,0.1,0.2,0.2,0.3,0.3c0.7,0.6,1.4,1.2,2.4,1.7v2.7
		c0,1.9,1.5,3.4,3.4,3.4h6.5c1.9,0,3.4-1.5,3.4-3.4v-2.8c1-0.5,1.6-1.1,2.4-1.7c0.1-0.1,0.2-0.2,0.4-0.3l3.2,1.8
		c1.5,0.8,2.7,0.2,3.2-0.6l3.6-6.1c0.3-0.5,0.4-1.1,0.2-1.7C62.5,47.4,62.1,46.9,61.6,46.6z M56.4,52.9l-2.8-1.6
		c-1-0.6-2.2-0.4-3.1,0.3c-0.3,0.2-0.6,0.5-0.8,0.7c-0.6,0.5-1.1,0.9-1.7,1.2c-1.2,0.6-1.9,1.8-1.9,3v2.8h-6.3v-2.7
		c0-1.3-0.8-2.5-1.9-3.1c-0.6-0.3-1.1-0.7-1.7-1.2c-0.3-0.2-0.5-0.4-0.8-0.7c-0.9-0.7-2.1-0.8-3.1-0.2L29.4,53l-2.3-3.8l2.7-1.5
		c1-0.6,1.6-1.7,1.4-2.9c-0.1-0.6-0.1-1.3-0.1-1.9c0-0.7,0-1.3,0.1-1.8c0.2-1.2-0.4-2.4-1.4-3l-2.7-1.5l2.2-3.8l2.8,1.6
		c1,0.6,2.2,0.4,3.1-0.3c0.3-0.2,0.5-0.4,0.8-0.6c0.7-0.6,1.1-1,1.7-1.3c1.2-0.6,1.9-1.8,1.9-3.1v-2.4h6.3v2.3
		c0,1.3,0.8,2.5,1.9,3.1c0.6,0.3,1,0.7,1.7,1.2c0.3,0.2,0.5,0.5,0.9,0.7c0.9,0.7,2.1,0.8,3.1,0.2l2.8-1.6l2.3,3.8l-2.7,1.5
		c-1,0.6-1.6,1.8-1.4,3c0.1,0.5,0.1,1.2,0.1,1.8c0,0.6-0.1,1.2-0.2,1.9c-0.2,1.2,0.4,2.4,1.4,3l2.6,1.4L56.4,52.9z"/>
	<path d="M15.3,9.9c-3,0-5.4,2.5-5.4,5.5c0,3,2.4,5.5,5.4,5.5s5.4-2.5,5.4-5.5C20.8,12.3,18.3,9.9,15.3,9.9z M15.3,17.3
		c-1.1,0-1.9-0.9-1.9-2c0-1.1,0.9-2,1.9-2s1.9,0.9,1.9,2C17.3,16.4,16.4,17.3,15.3,17.3z"/>
	<path d="M26.6,24.4l2.5-4.2c0.3-0.5,0.4-1,0.2-1.6s-0.5-1-1-1.2l-2-1.1c0-0.4,0.1-0.7,0.1-1.1c0-0.4,0-0.7,0-1.1l2.1-1.2
		c0.9-0.5,1.2-1.6,0.8-2.6L26.6,6c-0.5-0.8-1.6-1.2-2.5-0.8l-2.3,1.3c-0.4-0.3-0.8-0.7-1.4-1l0-1.3c0-1.6-1.3-2.9-2.9-2.9h-4.5
		c-1.6,0-2.9,1.3-2.9,2.9v1.3c-0.5,0.3-1,0.7-1.4,1L7,5.4C5.7,4.7,4.5,5.2,4,6.1l-2.4,4.2c-0.3,0.5-0.4,1-0.2,1.6s0.5,1,1,1.2l2,1.1
		c0,0.3,0,0.7,0,1.1c0,0.3,0,0.7,0,1l-2.1,1.2C1.4,18,1,19,1.4,20L4,24.4c0.5,0.9,1.6,1.2,2.5,0.8L8.8,24c0.4,0.4,0.8,0.7,1.4,1
		l0,1.5c0,1.6,1.3,2.9,2.9,2.9h4.5c1.6,0,2.9-1.3,2.9-2.9V25c0.5-0.3,1-0.7,1.4-1l1.9,1C24.9,25.7,26.1,25.2,26.6,24.4z M20.1,20.8
		c-0.2,0.2-0.4,0.3-0.6,0.5c-0.4,0.4-0.7,0.6-1,0.7c-1,0.5-1.6,1.5-1.6,2.6v1.3h-3.2l0-1.3c0-1.1-0.6-2.1-1.6-2.6
		c-0.4-0.2-0.6-0.4-1.1-0.8c-0.2-0.2-0.4-0.3-0.6-0.5c-0.8-0.6-1.8-0.7-2.7-0.2l-1.5,0.8l-1-1.7L6.7,19c0.9-0.5,1.4-1.5,1.2-2.5
		c-0.1-0.4-0.1-0.8-0.1-1.2c0-0.4,0-0.8,0.1-1.2C8.1,13,7.6,12,6.7,11.4l-1.3-0.7l1-1.6l1.5,0.8c0.9,0.5,1.9,0.4,2.7-0.2
		c0.2-0.2,0.4-0.3,0.5-0.5c0.4-0.4,0.7-0.6,1.1-0.8c1-0.5,1.6-1.5,1.6-2.6V4.8h3.2l0,1c0,1.1,0.6,2.1,1.6,2.6c0.3,0.2,0.6,0.4,1,0.7
		c0.2,0.2,0.4,0.3,0.6,0.5c0.8,0.6,1.8,0.7,2.7,0.2L24.3,9l1,1.7L24,11.4C23,11.9,22.5,13,22.7,14c0.1,0.3,0.1,0.7,0.1,1.2
		c0,0.4,0,0.8-0.1,1.2C22.5,17.4,23,18.5,24,19l1.3,0.7l-1,1.6l-1.5-0.8C22,20,20.9,20.1,20.1,20.8z"/>
</g>
</svg>
