<?xml version="1.0" encoding="utf-8"?>
<!-- Generator: Adobe Illustrator 22.0.1, SVG Export Plug-In . SVG Version: 6.00 Build 0)  -->
<svg version="1.1" id="lni_lni-control-panel" xmlns="http://www.w3.org/2000/svg" xmlns:xlink="http://www.w3.org/1999/xlink"
	 x="0px" y="0px" viewBox="0 0 64 64" style="enable-background:new 0 0 64 64;" xml:space="preserve">
<g>
	<path d="M49.1,1.3H14.9c-3.2,0-5.8,2.6-5.8,5.8v50c0,3.2,2.6,5.8,5.8,5.8h34.2c3.2,0,5.8-2.6,5.8-5.8V7C54.9,3.8,52.3,1.3,49.1,1.3
		z M51.4,57c0,1.2-1,2.3-2.3,2.3H14.9c-1.2,0-2.3-1-2.3-2.3V7c0-1.2,1-2.3,2.3-2.3h34.2c1.2,0,2.3,1,2.3,2.3V57z"/>
	<path d="M42.6,14.4H25.8v-0.9c0-1-0.8-1.8-1.8-1.8s-1.8,0.8-1.8,1.8v0.9h-0.9c-1,0-1.8,0.8-1.8,1.8s0.8,1.8,1.8,1.8h0.9v0.9
		c0,1,0.8,1.8,1.8,1.8s1.8-0.8,1.8-1.8v-0.9h16.7c1,0,1.8-0.8,1.8-1.8S43.5,14.4,42.6,14.4z"/>
	<path d="M42.6,30.3h-0.9v-0.9c0-1-0.8-1.8-1.8-1.8s-1.8,0.8-1.8,1.8v0.9H21.4c-1,0-1.8,0.8-1.8,1.8s0.8,1.8,1.8,1.8h16.7v0.9
		c0,1,0.8,1.8,1.8,1.8s1.8-0.8,1.8-1.8v-0.9h0.9c1,0,1.8-0.8,1.8-1.8S43.5,30.3,42.6,30.3z"/>
	<path d="M42.6,46.1H25.8v-0.9c0-1-0.8-1.8-1.8-1.8s-1.8,0.8-1.8,1.8v0.9h-0.9c-1,0-1.8,0.8-1.8,1.8s0.8,1.8,1.8,1.8h0.9v0.9
		c0,1,0.8,1.8,1.8,1.8s1.8-0.8,1.8-1.8v-0.9h16.7c1,0,1.8-0.8,1.8-1.8S43.5,46.1,42.6,46.1z"/>
</g>
</svg>
