<?xml version="1.0" encoding="utf-8"?>
<!-- Generator: Adobe Illustrator 22.0.1, SVG Export Plug-In . SVG Version: 6.00 Build 0)  -->
<svg version="1.1" id="lni_lni-cut" xmlns="http://www.w3.org/2000/svg" xmlns:xlink="http://www.w3.org/1999/xlink" x="0px"
	 y="0px" viewBox="0 0 64 64" style="enable-background:new 0 0 64 64;" xml:space="preserve">
<path d="M47.1,43c-1.4,0-2.8,0.3-4,0.9l-8.9-13L52.5,4C53,3.2,52.8,2.1,52,1.6C51.2,1,50.1,1.2,49.6,2L32,27.7L14.4,2
	c-0.5-0.8-1.6-1-2.4-0.5c-0.8,0.5-1,1.6-0.5,2.4l18.4,26.9l-8.9,13c-1.2-0.6-2.6-0.9-4-0.9C11.5,43,7,47.4,7,52.9s4.4,9.9,9.9,9.9
	s9.9-4.4,9.9-9.9c0-2.7-1.1-5.2-2.9-7L32,33.9l8.2,11.9c-1.8,1.8-2.9,4.3-2.9,7c0,5.4,4.4,9.9,9.9,9.9s9.9-4.4,9.9-9.9
	S52.5,43,47.1,43z M16.9,59.3c-3.5,0-6.4-2.9-6.4-6.4s2.9-6.4,6.4-6.4s6.4,2.9,6.4,6.4S20.4,59.3,16.9,59.3z M47.1,59.3
	c-3.5,0-6.4-2.9-6.4-6.4s2.9-6.4,6.4-6.4s6.4,2.9,6.4,6.4S50.6,59.3,47.1,59.3z"/>
</svg>
