<?xml version="1.0" encoding="utf-8"?>
<!-- Generator: Adobe Illustrator 22.0.1, SVG Export Plug-In . SVG Version: 6.00 Build 0)  -->
<svg version="1.1" id="lni_lni-dashboard" xmlns="http://www.w3.org/2000/svg" xmlns:xlink="http://www.w3.org/1999/xlink" x="0px"
	 y="0px" viewBox="0 0 64 64" style="enable-background:new 0 0 64 64;" xml:space="preserve">
<g>
	<path d="M32,14.4c-17,0-30.8,15-30.8,33.4c0,1,0.8,1.8,1.8,1.8h58c1,0,1.8-0.8,1.8-1.8C62.8,29.4,49,14.4,32,14.4z M35.6,46.1
		l-2.7-8.6c-0.3-0.9-1.5-0.9-1.8,0l-2.7,8.6H4.8C5.6,30.4,17.5,17.9,32,17.9s26.4,12.5,27.2,28.2H35.6z"/>
	<path d="M32,25.2c-1,0-1.8,0.8-1.8,1.8v2.6c0,1,0.8,1.8,1.8,1.8c1,0,1.8-0.8,1.8-1.8V27C33.8,26,33,25.2,32,25.2z"/>
	<path d="M47.3,32.7l-1.6,1.7c-0.7,0.7-0.7,1.8,0,2.5c0.3,0.3,0.8,0.5,1.2,0.5c0.5,0,0.9-0.2,1.3-0.5l1.6-1.7c0.7-0.7,0.7-1.8,0-2.5
		C49.1,32,48,32,47.3,32.7z"/>
	<path d="M16.7,32.7c-0.6-0.7-1.8-0.8-2.5-0.1c-0.7,0.6-0.8,1.8-0.1,2.5l1.5,1.7c0.3,0.4,0.8,0.6,1.3,0.6c0.4,0,0.8-0.1,1.2-0.4
		c0.7-0.6,0.8-1.8,0.1-2.5L16.7,32.7z"/>
</g>
</svg>
