<?xml version="1.0" encoding="utf-8"?>
<!-- Generator: Adobe Illustrator 22.0.1, SVG Export Plug-In . SVG Version: 6.00 Build 0)  -->
<svg version="1.1" id="lni_lni-database" xmlns="http://www.w3.org/2000/svg" xmlns:xlink="http://www.w3.org/1999/xlink" x="0px"
	 y="0px" viewBox="0 0 64 64" style="enable-background:new 0 0 64 64;" xml:space="preserve">
<path d="M53.1,38.6L53.1,38.6l0-12.3c0-0.1,0-0.2,0-0.3h0V13.5c0-6.9-9.2-12.3-21-12.3S11,6.7,11,13.5v12.4h0c0,0.1,0,0.3,0,0.4
	v12.3h0c0,0.1,0,0.2,0,0.3v11.6c0,6.8,9.4,12.3,21,12.3c11.6,0,21-5.5,21-12.3V38.9C53,38.8,53.1,38.7,53.1,38.6z M15.3,33.3
	c3.9,2.9,10.2,4.6,16.7,4.6c6.7,0,12.8-1.7,16.7-4.6c0.3-0.2,0.6-0.4,0.8-0.7v6.2c-0.3,4-7.3,8.2-17.5,8.2
	c-10.3,0-17.3-4.2-17.5-8.3v-6.2C14.7,32.9,15,33.1,15.3,33.3z M14.5,26.2v-5.8c3.7,3.3,10.1,5.4,17.5,5.4c7.4,0,13.8-2.1,17.5-5.4
	v5.7c-0.1,1.9-1.6,3.4-2.9,4.3c-3.3,2.5-8.7,3.9-14.6,3.9c-5.8,0-11.3-1.5-14.6-3.9C16.1,29.6,14.6,28.1,14.5,26.2z M32,4.8
	c9.5,0,17.5,4,17.5,8.8s-8,8.8-17.5,8.8s-17.5-4-17.5-8.8S22.5,4.8,32,4.8z M32,59.3c-10.3,0-17.5-4.6-17.5-8.8v-5.1
	c3.7,3.2,10.1,5.3,17.5,5.3c7.4,0,13.8-2.1,17.5-5.3v5.1C49.5,54.6,42.3,59.3,32,59.3z"/>
</svg>
