<?xml version="1.0" encoding="utf-8"?>
<!-- Generator: Adobe Illustrator 22.0.1, SVG Export Plug-In . SVG Version: 6.00 Build 0)  -->
<svg version="1.1" id="lni_lni-display-alt" xmlns="http://www.w3.org/2000/svg" xmlns:xlink="http://www.w3.org/1999/xlink"
	 x="0px" y="0px" viewBox="0 0 64 64" style="enable-background:new 0 0 64 64;" xml:space="preserve">
<path d="M57,3.4H7C3.8,3.4,1.3,6,1.3,9.1v31.6c0,3.2,2.6,5.8,5.8,5.8h17.1l-2.9,10.7h-5.1c-1,0-1.8,0.8-1.8,1.8s0.8,1.8,1.8,1.8
	h31.6c1,0,1.8-0.8,1.8-1.8s-0.8-1.8-1.8-1.8h-5.1l-2.9-10.7H57c3.2,0,5.8-2.6,5.8-5.8V9.1C62.8,6,60.2,3.4,57,3.4z M39.1,57.1H24.9
	l2.9-10.7h8.5L39.1,57.1z M59.3,40.7c0,1.2-1,2.3-2.3,2.3H7c-1.2,0-2.3-1-2.3-2.3V9.1c0-1.2,1-2.3,2.3-2.3h50c1.2,0,2.3,1,2.3,2.3
	V40.7z"/>
</svg>
