<?xml version="1.0" encoding="utf-8"?>
<!-- Generator: Adobe Illustrator 22.0.1, SVG Export Plug-In . SVG Version: 6.00 Build 0)  -->
<svg version="1.1" id="lni_lni-display" xmlns="http://www.w3.org/2000/svg" xmlns:xlink="http://www.w3.org/1999/xlink" x="0px"
	 y="0px" viewBox="0 0 64 64" style="enable-background:new 0 0 64 64;" xml:space="preserve">
<path d="M55.5,9.4h-47c-3.9,0-7,3.2-7,7V37c0,3.9,3.2,7,7,7h22v7.5h-9c-0.8,0-1.5,0.7-1.5,1.5s0.7,1.5,1.5,1.5h21.1
	c0.8,0,1.5-0.7,1.5-1.5s-0.7-1.5-1.5-1.5h-9V44h22c3.9,0,7-3.2,7-7V16.4C62.5,12.6,59.3,9.4,55.5,9.4z M59.5,37c0,2.2-1.8,4-4,4h-47
	c-2.2,0-4-1.8-4-4V16.4c0-2.2,1.8-4,4-4h47c2.2,0,4,1.8,4,4V37z"/>
</svg>
