<?xml version="1.0" encoding="utf-8"?>
<!-- Generator: Adobe Illustrator 22.0.1, SVG Export Plug-In . SVG Version: 6.00 Build 0)  -->
<svg version="1.1" id="lni_lni-domain" xmlns="http://www.w3.org/2000/svg" xmlns:xlink="http://www.w3.org/1999/xlink" x="0px"
	 y="0px" viewBox="0 0 64 64" style="enable-background:new 0 0 64 64;" xml:space="preserve">
<g>
	<path d="M19.3,27.9c-0.8-0.5-1.9-0.3-2.4,0.5l-2.4,3.5l-2.1-3c-0.4-0.6-1.1-0.9-1.8-0.9c0,0,0,0,0,0c-0.7,0-1.4,0.3-1.8,0.9l-2.1,3
		l-2.4-3.5c-0.5-0.8-1.6-1-2.4-0.5c-0.8,0.5-1,1.6-0.5,2.4l3.5,5.1c0.4,0.6,1.1,0.9,1.8,0.9c0.7,0,1.4-0.3,1.8-0.9l2.1-3l2.1,3
		c0.4,0.6,1.1,0.9,1.8,0.9s1.4-0.3,1.8-0.9l3.5-5.1C20.3,29.6,20.1,28.5,19.3,27.9z"/>
	<path d="M40.7,27.9c-0.8-0.5-1.9-0.3-2.4,0.5l-2.4,3.5l-2.1-3c-0.4-0.6-1.1-0.9-1.8-0.9c-0.7,0-1.4,0.3-1.8,0.9l-2.1,3l-2.4-3.5
		c-0.5-0.8-1.6-1-2.4-0.5c-0.8,0.5-1,1.6-0.5,2.4l3.5,5.1c0.4,0.6,1.1,0.9,1.8,0.9c0.7,0,1.4-0.3,1.8-0.9l2.1-3l2.1,3
		c0.4,0.6,1.1,0.9,1.8,0.9c0.7,0,1.4-0.3,1.8-0.9l3.5-5.1C41.7,29.6,41.4,28.5,40.7,27.9z"/>
	<path d="M62,27.9c-0.8-0.5-1.9-0.3-2.4,0.5l-2.4,3.5l-2.1-3c-0.4-0.6-1.1-0.9-1.8-0.9c-0.7,0-1.4,0.3-1.8,0.9l-2.1,3l-2.4-3.5
		c-0.5-0.8-1.6-1-2.4-0.5c-0.8,0.5-1,1.6-0.5,2.4l3.5,5.1c0.4,0.6,1.1,0.9,1.8,0.9c0.7,0,1.4-0.3,1.8-0.9l2.1-3l2.1,3
		c0.4,0.6,1.1,0.9,1.8,0.9c0.7,0,1.4-0.3,1.8-0.9l3.5-5.1C63,29.6,62.8,28.5,62,27.9z"/>
</g>
</svg>
