<?xml version="1.0" encoding="utf-8"?>
<!-- Generator: Adobe Illustrator 22.0.1, SVG Export Plug-In . SVG Version: 6.00 Build 0)  -->
<svg version="1.1" id="lni_lni-download" xmlns="http://www.w3.org/2000/svg" xmlns:xlink="http://www.w3.org/1999/xlink" x="0px"
	 y="0px" viewBox="0 0 64 64" style="enable-background:new 0 0 64 64;" xml:space="preserve">
<g>
	<path d="M61,46.1c-1,0-1.8,0.8-1.8,1.8v11.4l-54.5,0V47.8c0-1-0.8-1.8-1.8-1.8s-1.8,0.8-1.8,1.8v12.4c0,1.4,1.4,2.6,3.1,2.6h55.3
		c1.7,0,3.1-1.1,3.1-2.6V47.8C62.8,46.9,62,46.1,61,46.1z"/>
	<path d="M28.9,43.2c0.9,0.8,2,1.3,3.1,1.3c1.1,0,2.2-0.4,3-1.2l7.7-7.4c0.7-0.7,0.7-1.8,0-2.5c-0.7-0.7-1.8-0.7-2.5,0l-6.5,6.3V3
		c0-1-0.8-1.8-1.8-1.8c-1,0-1.8,0.8-1.8,1.8v36.6l-6.5-6.4c-0.7-0.7-1.8-0.7-2.5,0c-0.7,0.7-0.7,1.8,0,2.5L28.9,43.2z"/>
</g>
</svg>
