<?xml version="1.0" encoding="utf-8"?>
<!-- Generator: Adobe Illustrator 22.0.1, SVG Export Plug-In . SVG Version: 6.00 Build 0)  -->
<svg version="1.1" id="lni_lni-empty-file" xmlns="http://www.w3.org/2000/svg" xmlns:xlink="http://www.w3.org/1999/xlink" x="0px"
	 y="0px" viewBox="0 0 64 64" style="enable-background:new 0 0 64 64;" xml:space="preserve">
<path d="M47.5,1.3h-31c-4.1,0-7.4,3.3-7.4,7.4v31.6c0,1.4,0.6,2.7,1.6,3.6l18.7,17.6c0.9,0.9,2.2,1.4,3.5,1.4h14.6
	c4.1,0,7.4-3.3,7.4-7.4V8.6C54.8,4.6,51.5,1.3,47.5,1.3z M15.2,43.2h13.5c0.8,0,1.5,0.6,1.5,1.4v12.7L15.2,43.2z M51.3,55.4
	c0,2.1-1.7,3.9-3.9,3.9H33.8V44.6c0-2.7-2.3-4.9-5-4.9H12.7V8.6c0-2.1,1.7-3.9,3.9-3.9h31c2.1,0,3.9,1.7,3.9,3.9V55.4z"/>
</svg>
