<?xml version="1.0" encoding="utf-8"?>
<!-- Generator: Adobe Illustrator 22.0.1, SVG Export Plug-In . SVG Version: 6.00 Build 0)  -->
<svg version="1.1" id="lni_lni-files" xmlns="http://www.w3.org/2000/svg" xmlns:xlink="http://www.w3.org/1999/xlink" x="0px"
	 y="0px" viewBox="0 0 64 64" style="enable-background:new 0 0 64 64;" xml:space="preserve">
<path d="M57.5,1.3H34.1c-3.2,0-5.9,2.6-5.9,5.9v9.3H6.5c-3.2,0-5.9,2.6-5.9,5.9v22.3c0,1.2,0.5,2.3,1.3,3.2l13.6,13.6
	c0.9,0.9,2,1.3,3.2,1.3h11.3c3.2,0,5.9-2.6,5.9-5.9V39l7.3,7.3c0.9,0.9,2,1.3,3.2,1.3h11.3c3.2,0,5.9-2.6,5.9-5.9V7.1
	C63.4,3.9,60.8,1.3,57.5,1.3z M6.5,47.6h8.2c0.6,0,1,0.5,1,1v8.2L6.5,47.6z M32.3,56.9c0,1.3-1.1,2.4-2.4,2.4H19.3V48.6
	c0-2.5-2-4.5-4.5-4.5H4.1V22.3c0-1.3,1.1-2.4,2.4-2.4h24.9c0.6,0,1,0.5,1,1V56.9z M35.8,34v-1.7h6.5c0.6,0,1,0.5,1,1v8.2L35.8,34z
	 M59.9,41.7c0,1.3-1.1,2.4-2.4,2.4H46.9V33.4c0-2.5-2-4.5-4.5-4.5h-6.5V21c0-2.4-1.8-4.3-4.1-4.5V7.1c0-1.3,1.1-2.4,2.4-2.4h23.5
	c1.3,0,2.4,1.1,2.4,2.4V41.7z"/>
</svg>
