<?xml version="1.0" encoding="utf-8"?>
<!-- Generator: Adobe Illustrator 22.0.1, SVG Export Plug-In . SVG Version: 6.00 Build 0)  -->
<svg version="1.1" id="lni_lni-folder" xmlns="http://www.w3.org/2000/svg" xmlns:xlink="http://www.w3.org/1999/xlink" x="0px"
	 y="0px" viewBox="0 0 64 64" style="enable-background:new 0 0 64 64;" xml:space="preserve">
<path d="M60.5,20.8C60.5,20.8,60.5,20.8,60.5,20.8l0-5.8c0-2.3-1.9-4.2-4.2-4.2H30.8l-0.6-1.6c-0.4-0.9-1.3-1.5-2.2-1.5H8.2
	C5.3,7.8,3,10.2,3,13V51c0,2.9,2.3,5.2,5.2,5.2h47.6c2.9,0,5.2-2.3,5.2-5.2V22.3C61,21.8,60.8,21.3,60.5,20.8z M56.3,14.4
	c0.4,0,0.7,0.3,0.7,0.7v4.8H34.4l-2.2-5.5H56.3z M57.5,51c0,0.9-0.8,1.7-1.7,1.7H8.2c-0.9,0-1.7-0.8-1.7-1.7V13
	c0-0.9,0.8-1.7,1.7-1.7h19l4,9.9c0.5,1.3,1.8,2.2,3.2,2.2h23.1V51z"/>
</svg>
