<?xml version="1.0" encoding="utf-8"?>
<!-- Generator: Adobe Illustrator 22.0.1, SVG Export Plug-In . SVG Version: 6.00 Build 0)  -->
<svg version="1.1" id="lni_lni-game" xmlns="http://www.w3.org/2000/svg" xmlns:xlink="http://www.w3.org/1999/xlink" x="0px"
	 y="0px" viewBox="0 0 64 64" style="enable-background:new 0 0 64 64;" xml:space="preserve">
<g>
	<path d="M42.5,34.6c-1.5,0-2.6,1.2-2.6,2.6c0,1.5,1.2,2.6,2.6,2.6c1.5,0,2.6-1.2,2.6-2.6C45.2,35.8,44,34.6,42.5,34.6z"/>
	<path d="M60,25.3c-1.9-1.9-4.5-3-7.1-3H33.7V5.6c0-1-0.8-1.8-1.8-1.8s-1.8,0.8-1.8,1.8v16.7h-19c-5.5,0-10,4.4-10,9.9v18
		c0,5.4,4.5,9.9,10,9.9c5.1,0,9.4-3.8,9.9-8.7h21.7c0.5,4.9,4.8,8.8,9.9,8.8c5.5,0,9.9-4.4,9.9-9.9V32.2
		C62.8,29.6,61.8,27.2,60,25.3z M59.2,50.3c0,3.5-2.9,6.4-6.4,6.4c-3.6,0-6.5-2.9-6.5-6.4c0-1.4-1.1-2.4-2.5-2.4H20.2
		c-1.4,0-2.5,1.1-2.5,2.4c0,3.5-2.9,6.3-6.5,6.3s-6.5-2.9-6.5-6.4v-18c0-3.5,2.9-6.4,6.5-6.4h41.6c1.7,0,3.4,0.7,4.6,2
		c1.2,1.2,1.8,2.8,1.8,4.4V50.3z"/>
	<path d="M20.7,35.5h-2.8v-2.8c0-1-0.8-1.8-1.8-1.8s-1.8,0.8-1.8,1.8v2.8h-2.8c-1,0-1.8,0.8-1.8,1.8s0.8,1.8,1.8,1.8h2.8v2.8
		c0,1,0.8,1.8,1.8,1.8s1.8-0.8,1.8-1.8V39h2.8c1,0,1.8-0.8,1.8-1.8S21.7,35.5,20.7,35.5z"/>
	<path d="M53.1,34.6c-1.5,0-2.6,1.2-2.6,2.6c0,1.5,1.2,2.6,2.6,2.6c1.5,0,2.6-1.2,2.6-2.6C55.7,35.8,54.6,34.6,53.1,34.6z"/>
	<path d="M47.8,34.6c1.5,0,2.6-1.2,2.6-2.6c0-1.5-1.2-2.6-2.6-2.6c-1.5,0-2.6,1.2-2.6,2.6C45.2,33.5,46.4,34.6,47.8,34.6z"/>
	<path d="M47.8,39.9c-1.5,0-2.6,1.2-2.6,2.6s1.2,2.6,2.6,2.6c1.5,0,2.6-1.2,2.6-2.6S49.3,39.9,47.8,39.9z"/>
</g>
</svg>
