<?xml version="1.0" encoding="utf-8"?>
<!-- Generator: Adobe Illustrator 22.0.1, SVG Export Plug-In . SVG Version: 6.00 Build 0)  -->
<svg version="1.1" id="lni_lni-harddrive" xmlns="http://www.w3.org/2000/svg" xmlns:xlink="http://www.w3.org/1999/xlink" x="0px"
	 y="0px" viewBox="0 0 64 64" style="enable-background:new 0 0 64 64;" xml:space="preserve">
<g>
	<path d="M47.5,1.3H16.5c-4,0-7.3,3.3-7.3,7.3v46.8c0,4,3.3,7.3,7.3,7.3h31.1c4,0,7.3-3.3,7.3-7.3V8.6C54.9,4.5,51.6,1.3,47.5,1.3z
		 M51.4,55.4c0,2.1-1.7,3.8-3.8,3.8H16.5c-2.1,0-3.8-1.7-3.8-3.8V8.6c0-2.1,1.7-3.8,3.8-3.8h31.1c2.1,0,3.8,1.7,3.8,3.8V55.4z"/>
	<path d="M32.1,20.5c-6.4,0-11.5,5.2-11.5,11.5c0,2.5,0.8,4.9,2.3,6.9c-2.2,1.4-4.2,3-5,4.3c-1,1.7-1.3,3.7-0.8,5.6
		c0.5,1.9,1.7,3.5,3.4,4.5c1.1,0.7,2.4,1,3.7,1c0.6,0,1.3-0.1,1.9-0.2c1.9-0.5,3.5-1.7,4.5-3.4c0.8-1.4,1.2-4.3,1.3-7
		c0.1,0,0.1,0,0.2,0c6.4,0,11.5-5.2,11.5-11.5S38.4,20.5,32.1,20.5z M27.5,48.8c-0.5,0.9-1.3,1.5-2.3,1.8c-1,0.3-2,0.1-2.9-0.4
		c-0.9-0.5-1.5-1.3-1.8-2.3c-0.3-1-0.1-2,0.4-2.9c0,0,0,0,0,0c0.7-1.2,4.3-3.5,7.6-5.4C28.5,43.6,28.1,47.7,27.5,48.8z M32.1,40
		c0,0-0.1,0-0.1,0c0-1.6,0-2.9-0.1-3.4c0-0.6-0.4-1.1-0.9-1.4c-0.5-0.3-1.2-0.3-1.7,0c-0.6,0.3-1.9,1-3.5,1.9
		c-1.1-1.4-1.8-3.2-1.8-5c0-4.4,3.6-8,8-8c4.4,0,8,3.6,8,8S36.5,40,32.1,40z"/>
	<path d="M44,48.8c-1.5,0-2.7,1.2-2.7,2.7c0,1.5,1.2,2.7,2.7,2.7c1.5,0,2.7-1.2,2.7-2.7C46.7,50,45.5,48.8,44,48.8z"/>
</g>
</svg>
