<?xml version="1.0" encoding="utf-8"?>
<!-- Generator: Adobe Illustrator 22.0.1, SVG Export Plug-In . SVG Version: 6.00 Build 0)  -->
<svg version="1.1" id="lni_lni-headphone-alt" xmlns="http://www.w3.org/2000/svg" xmlns:xlink="http://www.w3.org/1999/xlink"
	 x="0px" y="0px" viewBox="0 0 64 64" style="enable-background:new 0 0 64 64;" xml:space="preserve">
<path d="M62.7,32.9c-0.1-7.6-3.3-14.8-8.8-20.3c-6-5.9-14-9-22.5-8.9C15.1,4.1,1.8,17,1.3,32.9h0V34v6v6.9c0,1.4,1.1,2.6,2.4,2.7
	l22.2,10.6H32c1,0,1.8-0.8,1.8-1.8S33,56.7,32,56.7h-5.3l-15.5-7.4c0.9-0.5,1.5-1.4,1.5-2.4V35.7c0-1.5-1.2-2.8-2.8-2.8H4.8
	c0.6-14,12.3-25.4,26.7-25.6c7.5-0.1,14.6,2.6,20,7.9c4.9,4.8,7.6,11.1,7.8,17.8h-5.1c-1.5,0-2.8,1.2-2.8,2.8v11.2
	c0,1.5,1.2,2.8,2.8,2.8H60c1.5,0,2.8-1.2,2.8-2.8V40v-6.5L62.7,32.9L62.7,32.9z M9.2,46.1H4.8V40v-3.5h4.4V46.1z M59.3,46.1h-4.4
	v-9.7h4.4V40V46.1z"/>
</svg>
