<?xml version="1.0" encoding="utf-8"?>
<!-- Generator: Adobe Illustrator 22.0.1, SVG Export Plug-In . SVG Version: 6.00 Build 0)  -->
<svg version="1.1" id="lni_lni-headphone" xmlns="http://www.w3.org/2000/svg" xmlns:xlink="http://www.w3.org/1999/xlink" x="0px"
	 y="0px" viewBox="0 0 64 64" style="enable-background:new 0 0 64 64;" xml:space="preserve">
<path d="M53.9,17.9c-6-5.9-14-9-22.5-8.9C14.8,9.3,1.3,22.8,1.3,39.2V42v3.3v5.9C1.3,53.3,2.9,55,5,55h6.5c2.1,0,3.8-1.7,3.8-3.8V42
	c0-2.1-1.7-3.8-3.8-3.8H5c-0.1,0-0.1,0-0.2,0c0.5-14,12.3-25.5,26.7-25.7c7.6-0.1,14.7,2.6,20,7.9c4.9,4.8,7.7,11.1,7.8,17.8
	c-0.1,0-0.2,0-0.2,0h-6.5c-2.1,0-3.8,1.7-3.8,3.8v9.2c0,2.1,1.7,3.8,3.8,3.8H59c2.1,0,3.8-1.7,3.8-3.8v-5.9V42v-3.3
	C62.8,30.9,59.6,23.5,53.9,17.9z M5,41.7h6.5c0.1,0,0.3,0.1,0.3,0.3v9.2c0,0.1-0.1,0.3-0.3,0.3H5c-0.1,0-0.3-0.1-0.3-0.3v-5.9V42
	C4.8,41.8,4.9,41.7,5,41.7z M59.3,51.2c0,0.1-0.1,0.3-0.3,0.3h-6.5c-0.1,0-0.3-0.1-0.3-0.3V42c0-0.1,0.1-0.3,0.3-0.3H59
	c0.1,0,0.3,0.1,0.3,0.3v3.3V51.2z"/>
</svg>
