<?xml version="1.0" encoding="utf-8"?>
<!-- Generator: Adobe Illustrator 22.0.1, SVG Export Plug-In . SVG Version: 6.00 Build 0)  -->
<svg version="1.1" id="lni_lni-image" xmlns="http://www.w3.org/2000/svg" xmlns:xlink="http://www.w3.org/1999/xlink" x="0px"
	 y="0px" viewBox="0 0 64 64" style="enable-background:new 0 0 64 64;" xml:space="preserve">
<style type="text/css">
	.st0{display:none;fill:none;stroke:#000000;stroke-width:3.5;stroke-miterlimit:10;}
</style>
<g>
	<path d="M39.8,31.1c4.6,0,8.3-3.7,8.3-8.3s-3.7-8.3-8.3-8.3s-8.3,3.7-8.3,8.3S35.3,31.1,39.8,31.1z M39.8,18.1
		c2.6,0,4.8,2.1,4.8,4.8s-2.1,4.8-4.8,4.8s-4.8-2.1-4.8-4.8S37.2,18.1,39.8,18.1z"/>
	<path d="M53.5,1.3H10.5C7.3,1.3,4.7,3.8,4.7,7v50c0,3.2,2.6,5.8,5.8,5.8h43.1c3.2,0,5.8-2.6,5.8-5.8V7C59.3,3.8,56.7,1.3,53.5,1.3z
		 M10.5,4.8h43.1c1.2,0,2.3,1,2.3,2.3v27.4c-1,0.6-2.1,1.4-3,2c-1.4,1-2.8,2.2-4.2,3.4c-3.7,3.3-7.2,6.4-11.9,4.6
		c-0.9-0.3-1.8-1.1-2.7-1.9l-0.4-0.4c-2.3-1.9-5-4-8.2-5c-5.4-1.7-10.3,1.4-14.6,4.1c-0.9,0.6-1.8,1.1-2.6,1.6V7
		C8.2,5.8,9.2,4.8,10.5,4.8z M53.5,59.3H10.5c-1.2,0-2.3-1-2.3-2.3V47c0.4-0.1,0.7-0.3,0.9-0.5c1.2-0.7,2.4-1.4,3.6-2.2
		c3.8-2.4,7.8-5,11.7-3.7c2.5,0.7,4.8,2.6,7,4.3l0.3,0.3c1.1,0.9,2.3,2,3.8,2.5c1.4,0.5,2.7,0.7,3.9,0.7c4.7,0,8.4-3.3,11.5-6
		c1.3-1.2,2.6-2.2,3.8-3.1c0.3-0.2,0.6-0.4,1-0.7V57C55.8,58.2,54.8,59.3,53.5,59.3z"/>
</g>
<rect x="15.7" y="15.7" class="st0" width="32.6" height="32.6"/>
</svg>
