<?xml version="1.0" encoding="utf-8"?>
<!-- Generator: Adobe Illustrator 22.0.1, SVG Export Plug-In . SVG Version: 6.00 Build 0)  -->
<svg version="1.1" id="lni_lni-keyboard" xmlns="http://www.w3.org/2000/svg" xmlns:xlink="http://www.w3.org/1999/xlink" x="0px"
	 y="0px" viewBox="0 0 64 64" style="enable-background:new 0 0 64 64;" xml:space="preserve">
<g>
	<path d="M57,11.8H7c-3.2,0-5.8,2.6-5.8,5.8v28.9c0,3.2,2.6,5.8,5.8,5.8h50c3.2,0,5.8-2.6,5.8-5.8V17.5C62.8,14.4,60.2,11.8,57,11.8
		z M59.3,46.5c0,1.2-1,2.3-2.3,2.3H7c-1.2,0-2.3-1-2.3-2.3V17.5c0-1.2,1-2.3,2.3-2.3h50c1.2,0,2.3,1,2.3,2.3V46.5z"/>
	<path d="M23.1,26.7c0.6,0,1-0.4,1-1v-3.3c0-0.6-0.4-1-1-1h-3.3c-0.6,0-1,0.4-1,1v3.3c0,0.6,0.4,1,1,1H23.1z"/>
	<path d="M24.1,33.6c0,0.6,0.4,1,1,1h3.3c0.6,0,1-0.4,1-1v-3.3c0-0.6-0.4-1-1-1h-3.3c-0.6,0-1,0.4-1,1V33.6z"/>
	<path d="M34.6,33.6c0,0.6,0.4,1,1,1h3.3c0.6,0,1-0.4,1-1v-3.3c0-0.6-0.4-1-1-1h-3.3c-0.6,0-1,0.4-1,1V33.6z"/>
	<path d="M30.4,26.7h3.3c0.6,0,1-0.4,1-1v-3.3c0-0.6-0.4-1-1-1h-3.3c-0.6,0-1,0.4-1,1v3.3C29.4,26.3,29.8,26.7,30.4,26.7z"/>
	<path d="M44.2,21.5h-3.3c-0.6,0-1,0.4-1,1v3.3c0,0.6,0.4,1,1,1h3.3c0.6,0,1-0.4,1-1v-3.3C45.2,21.9,44.7,21.5,44.2,21.5z"/>
	<path d="M42.5,39.7H21.5c-1,0-1.8,0.8-1.8,1.8s0.8,1.8,1.8,1.8h21.1c1,0,1.8-0.8,1.8-1.8S43.5,39.7,42.5,39.7z"/>
</g>
</svg>
