<?xml version="1.0" encoding="utf-8"?>
<!-- Generator: Adobe Illustrator 22.0.1, SVG Export Plug-In . SVG Version: 6.00 Build 0)  -->
<svg version="1.1" id="lni_lni-laptop-phone" xmlns="http://www.w3.org/2000/svg" xmlns:xlink="http://www.w3.org/1999/xlink"
	 x="0px" y="0px" viewBox="0 0 64 64" style="enable-background:new 0 0 64 64;" xml:space="preserve">
<g>
	<path d="M60.2,22.3h-8V6.8c0-1.6-1.3-3-3-3H9.4c-1.6,0-2.9,1.3-2.9,3V28c-0.7,0.4-1.2,1.1-1.4,2L1.3,48.7c-0.2,0.9,0.1,1.8,0.7,2.5
		c0.6,0.7,1.4,1.1,2.3,1.1h33.9v5.4c0,1.4,1.1,2.5,2.5,2.5h19.6c1.4,0,2.5-1.1,2.5-2.5V24.8C62.8,23.5,61.6,22.3,60.2,22.3z
		 M4.9,48.7l3.6-17.6h1h28.7v17.6H4.9z M38.2,24.8v2.8H10V7.4h38.7v15h-8C39.3,22.3,38.2,23.5,38.2,24.8z M59.3,56.6H41.7V25.8h17.6
		V56.6z"/>
	<path d="M50.5,50.1c-1.3,0-2.3,1-2.3,2.3c0,1.3,1,2.3,2.3,2.3s2.3-1,2.3-2.3C52.8,51.1,51.7,50.1,50.5,50.1z"/>
	<path d="M48.2,33.5h5.7c1,0,1.8-0.8,1.8-1.8S54.8,30,53.9,30h-5.7c-1,0-1.8,0.8-1.8,1.8S47.2,33.5,48.2,33.5z"/>
</g>
</svg>
