<?xml version="1.0" encoding="utf-8"?>
<!-- Generator: Adobe Illustrator 22.0.1, SVG Export Plug-In . SVG Version: 6.00 Build 0)  -->
<svg version="1.1" id="lni_lni-laptop" xmlns="http://www.w3.org/2000/svg" xmlns:xlink="http://www.w3.org/1999/xlink" x="0px"
	 y="0px" viewBox="0 0 64 64" style="enable-background:new 0 0 64 64;" xml:space="preserve">
<path d="M62.7,54.6l-4-17.4h0.1V11.5c0-3.2-2.6-5.8-5.8-5.8H11c-3.2,0-5.8,2.6-5.8,5.8v25.7h0.1l-4,17.4c-0.2,0.9,0.1,1.7,0.7,2.4
	c0.6,0.7,1.5,1.1,2.4,1.1h55.3c1,0,1.9-0.4,2.5-1.2C62.7,56.3,62.9,55.4,62.7,54.6z M8.7,11.5c0-1.2,1-2.3,2.3-2.3H53
	c1.2,0,2.3,1,2.3,2.3v22.2H8.7V11.5z M4.9,54.7l4-17.4h46.2l4,17.4H4.9z"/>
</svg>
