<?xml version="1.0" encoding="utf-8"?>
<!-- Generator: Adobe Illustrator 22.0.1, SVG Export Plug-In . SVG Version: 6.00 Build 0)  -->
<svg version="1.1" id="lni_lni-link" xmlns="http://www.w3.org/2000/svg" xmlns:xlink="http://www.w3.org/1999/xlink" x="0px"
	 y="0px" viewBox="0 0 64 64" style="enable-background:new 0 0 64 64;" xml:space="preserve">
<path d="M59.4,43.1l-8.4-8.3c-4.2-4.2-10.7-4.4-15.2-0.9l-5.7-5.7c1.6-2,2.4-4.4,2.5-7c0-3.1-1.2-6-3.3-8.2l-8.4-8.3
	c-4.5-4.5-11.8-4.5-16.3,0c-2.2,2.2-3.4,5.1-3.4,8.1s1.2,6,3.4,8.1l8.3,8.4c2.2,2.2,5.2,3.4,8.1,3.4c2.3,0,4.6-0.7,6.5-2l5.9,5.9
	c-1.3,1.9-2,4.1-2,6.5c0,3.1,1.2,6,3.4,8.1l8.3,8.4c2.2,2.2,5.2,3.4,8.1,3.4c2.9,0,5.9-1.1,8.1-3.4c2.2-2.1,3.4-5,3.4-8
	C62.8,48.2,61.6,45.3,59.4,43.1z M15.4,26.8l-8.3-8.4c-1.5-1.5-2.4-3.5-2.4-5.7c0-2.1,0.8-4.1,2.4-5.7c1.6-1.6,3.6-2.3,5.7-2.3
	c2,0,4.1,0.8,5.7,2.3l8.3,8.3c1.5,1.5,2.3,3.5,2.3,5.7c0,1.7-0.5,3.3-1.5,4.6l-3.1-3.1c-0.7-0.7-1.8-0.7-2.5,0
	c-0.7,0.7-0.7,1.8,0,2.5l3,2.9C22,29.8,18,29.4,15.4,26.8z M56.9,56.9L56.9,56.9c-3.1,3.1-8.2,3.1-11.3,0l-8.3-8.4
	c-1.5-1.5-2.4-3.5-2.4-5.7c0-1.4,0.4-2.8,1.1-3.9l2.9,2.9c0.3,0.3,0.8,0.5,1.2,0.5c0.4,0,0.9-0.2,1.2-0.5c0.7-0.7,0.7-1.8,0-2.5
	l-3-3c1.4-1,3-1.5,4.6-1.5c2,0,4.1,0.8,5.7,2.3l8.3,8.3c1.5,1.5,2.3,3.6,2.3,5.7C59.2,53.4,58.4,55.4,56.9,56.9z"/>
</svg>
