<?xml version="1.0" encoding="utf-8"?>
<!-- Generator: Adobe Illustrator 22.0.1, SVG Export Plug-In . SVG Version: 6.00 Build 0)  -->
<svg version="1.1" id="lni_lni-magnet" xmlns="http://www.w3.org/2000/svg" xmlns:xlink="http://www.w3.org/1999/xlink" x="0px"
	 y="0px" viewBox="0 0 64 64" style="enable-background:new 0 0 64 64;" xml:space="preserve">
<path d="M54.9,9.1c-5-5.1-11.6-7.9-18.5-7.9c-6.6,0-12.8,2.5-17.4,7L3,24.4c-2.4,2.4-2.3,6.2,0,8.6l6.1,6.1c2.4,2.4,6.2,2.4,8.6,0
	l15-14.9c2.1-2.1,5.3-2.4,7.3-0.8c1.1,0.9,1.7,2.1,1.8,3.6c0.1,1.6-0.5,3.1-1.7,4.3L25,46.3c-2.4,2.4-2.4,6.2,0,8.6l6.1,6.1
	c1.2,1.2,2.7,1.8,4.3,1.8c1.6,0,3.1-0.6,4.3-1.8L55.8,45C65.4,35.4,65,19.3,54.9,9.1z M15.2,36.6c-1,1-2.6,1-3.6,0l-6.1-6.1
	c-1-1-1-2.6,0-3.6l5.7-5.7l9.8,9.8L15.2,36.6z M37.2,58.5c-1,1-2.6,1-3.6,0l-6.1-6.1c-1-1-1-2.6,0-3.6l5.7-5.7l9.7,9.7L37.2,58.5z
	 M53.3,42.5l-7.9,7.9l-9.8-9.7l6.9-6.9c1.8-1.8,2.8-4.4,2.7-6.9c-0.1-2.4-1.2-4.6-3.1-6.1c-1.5-1.2-3.4-1.8-5.3-1.8
	c-2.4,0-4.8,1-6.7,2.9l-6.8,6.8l-9.8-9.8l7.8-7.9c3.9-3.9,9.3-6.1,14.9-6c6,0,11.7,2.5,16,6.9C61.1,20.4,61.5,34.3,53.3,42.5z"/>
</svg>
