<?xml version="1.0" encoding="utf-8"?>
<!-- Generator: Adobe Illustrator 22.0.1, SVG Export Plug-In . SVG Version: 6.00 Build 0)  -->
<svg version="1.1" id="lni_lni-magnifier" xmlns="http://www.w3.org/2000/svg" xmlns:xlink="http://www.w3.org/1999/xlink" x="0px"
	 y="0px" viewBox="0 0 64 64" style="enable-background:new 0 0 64 64;" xml:space="preserve">
<g>
	<path d="M61,51.4l-12-12c-2.1-2.1-5.4-2.3-7.8-0.6l-6.1-6.1c2.9-3.4,4.4-7.7,4.4-12.2c0-5.1-2-9.9-5.6-13.5
		c-7.5-7.5-19.6-7.5-27.1,0c-7.5,7.5-7.5,19.6,0,27.1c3.6,3.6,8.4,5.6,13.5,5.6c4.5,0,8.8-1.6,12.2-4.4l6.1,6.1
		c-1.7,2.4-1.5,5.7,0.6,7.8l12,12c1.1,1.1,2.7,1.8,4.3,1.8c1.6,0,3.1-0.6,4.3-1.8l1.1-1.1c1.1-1.1,1.8-2.7,1.8-4.3
		C62.8,54,62.1,52.5,61,51.4z M9.3,31.4c-6.1-6.1-6.1-16,0-22.1c3-3,7.1-4.6,11.1-4.6c4,0,8,1.5,11.1,4.6c3,3,4.6,6.9,4.6,11.1
		c0,4.2-1.6,8.1-4.6,11.1S24.6,36,20.4,36C16.2,36,12.3,34.4,9.3,31.4z M58.5,57.4l-1.1,1.1c-1,1-2.6,1-3.6,0l-12-12
		c-1-1-1-2.6,0-3.6l1.1-1.1c0.5-0.5,1.1-0.7,1.8-0.7c0.6,0,1.3,0.2,1.8,0.7l12,12C59.5,54.8,59.5,56.4,58.5,57.4z"/>
	<path d="M24.8,12.4c-0.7,0.7-0.7,1.8,0,2.5c2.7,2.7,2.7,7.2,0,9.9c-0.7,0.7-0.7,1.8,0,2.5c0.3,0.3,0.8,0.5,1.2,0.5s0.9-0.2,1.2-0.5
		c4.1-4.1,4.1-10.8,0-14.9C26.6,11.7,25.5,11.7,24.8,12.4z"/>
</g>
</svg>
