<?xml version="1.0" encoding="utf-8"?>
<!-- Generator: Adobe Illustrator 22.0.1, SVG Export Plug-In . SVG Version: 6.00 Build 0)  -->
<svg version="1.1" id="lni_lni-map-marker" xmlns="http://www.w3.org/2000/svg" xmlns:xlink="http://www.w3.org/1999/xlink" x="0px"
	 y="0px" viewBox="0 0 64 64" style="enable-background:new 0 0 64 64;" xml:space="preserve">
<g>
	<path d="M32,1.3c-13.9,0-25.3,11-25.3,24.4c0,10.7,15.3,28.4,21.9,35.6c0.9,1,2.1,1.5,3.4,1.5c1.3,0,2.5-0.5,3.4-1.5
		c6.6-7.1,21.9-24.9,21.9-35.6C57.3,12.2,45.9,1.3,32,1.3z M32.8,58.9c-0.5,0.5-1.2,0.5-1.6,0c-4.9-5.3-21-23.5-21-33.2
		C10.2,14.1,20,4.8,32,4.8s21.8,9.4,21.8,20.9C53.8,35.4,37.7,53.5,32.8,58.9z"/>
	<path d="M32,15.7c-5.9,0-10.8,4.8-10.8,10.8c0,5.9,4.8,10.8,10.8,10.8s10.8-4.8,10.8-10.8C42.8,20.5,37.9,15.7,32,15.7z M32,33.7
		c-4,0-7.3-3.3-7.3-7.3c0-4,3.3-7.3,7.3-7.3c4,0,7.3,3.3,7.3,7.3C39.3,30.4,36,33.7,32,33.7z"/>
</g>
</svg>
