<?xml version="1.0" encoding="utf-8"?>
<!-- Generator: Adobe Illustrator 22.0.1, SVG Export Plug-In . SVG Version: 6.00 Build 0)  -->
<svg version="1.1" id="lni_lni-menu" xmlns="http://www.w3.org/2000/svg" xmlns:xlink="http://www.w3.org/1999/xlink" x="0px"
	 y="0px" viewBox="0 0 64 64" style="enable-background:new 0 0 64 64;" xml:space="preserve">
<g>
	<path d="M61,30.3H3c-1,0-1.8,0.8-1.8,1.8S2,33.8,3,33.8h58c1,0,1.8-0.8,1.8-1.8S62,30.3,61,30.3z"/>
	<path d="M61,47.9H3c-1,0-1.8,0.8-1.8,1.8S2,51.4,3,51.4h58c1,0,1.8-0.8,1.8-1.8S62,47.9,61,47.9z"/>
	<path d="M3,16.1h58c1,0,1.8-0.8,1.8-1.8S62,12.6,61,12.6H3c-1,0-1.8,0.8-1.8,1.8S2,16.1,3,16.1z"/>
</g>
</svg>
