<?xml version="1.0" encoding="utf-8"?>
<!-- Generator: Adobe Illustrator 22.0.1, SVG Export Plug-In . SVG Version: 6.00 Build 0)  -->
<svg version="1.1" id="lni_lni-mic" xmlns="http://www.w3.org/2000/svg" xmlns:xlink="http://www.w3.org/1999/xlink" x="0px"
	 y="0px" viewBox="0 0 64 64" style="enable-background:new 0 0 64 64;" xml:space="preserve">
<g>
	<path d="M32,43.8c3.2,0,6.2-1.2,8.4-3.5c2.2-2.2,3.4-5.1,3.3-8.2V13c0-6.5-5.3-11.7-11.7-11.7c-6.5,0-11.7,5.3-11.7,11.7V32
		C20.2,38.5,25.5,43.8,32,43.8z M23.7,13c0-4.5,3.7-8.2,8.2-8.2c4.5,0,8.2,3.7,8.2,8.2v19.1c0,2.2-0.8,4.2-2.3,5.8
		c-1.6,1.6-3.7,2.5-5.9,2.5c-4.5,0-8.2-3.7-8.2-8.2V13z"/>
	<path d="M52.7,31.5c0-1-0.8-1.8-1.8-1.8s-1.8,0.8-1.8,1.8c0,9.5-7.7,17.2-17.3,17.2c-9.5,0-17.2-7.7-17.2-17.2c0-1-0.8-1.8-1.8-1.8
		s-1.8,0.8-1.8,1.8c0,10.8,8.3,19.7,18.9,20.6v7.1h-7c-1,0-1.8,0.8-1.8,1.8s0.8,1.8,1.8,1.8h17.5c1,0,1.8-0.8,1.8-1.8
		s-0.8-1.8-1.8-1.8h-7v-7.1C44.3,51.3,52.7,42.4,52.7,31.5z"/>
</g>
</svg>
