<?xml version="1.0" encoding="utf-8"?>
<!-- Generator: Adobe Illustrator 22.0.1, SVG Export Plug-In . SVG Version: 6.00 Build 0)  -->
<svg version="1.1" id="lni_lni-microphone" xmlns="http://www.w3.org/2000/svg" xmlns:xlink="http://www.w3.org/1999/xlink" x="0px"
	 y="0px" viewBox="0 0 64 64" style="enable-background:new 0 0 64 64;" xml:space="preserve">
<path d="M44.6,1.3c-10,0-18.1,8.1-18.1,18.1c0,1.9,0.3,3.7,0.8,5.3L3.7,48.3c-1.6,1.6-2.5,3.7-2.5,6s0.9,4.4,2.5,6
	c1.7,1.6,3.8,2.4,6,2.4c2.2,0,4.4-0.8,6-2.4l23.5-23.5c1.7,0.5,3.5,0.8,5.3,0.8c10,0,18.1-8.1,18.1-18.1S54.6,1.3,44.6,1.3z
	 M6.2,57.8c-0.9-0.9-1.4-2.2-1.4-3.5s0.5-2.6,1.4-3.5l0.7-0.7l7.1,7.1l-0.6,0.6C11.3,59.7,8.1,59.7,6.2,57.8z M16.4,54.7l-7.1-7.1
	l19.4-19.4c1.7,3,4.1,5.4,7.1,7.1L16.4,54.7z M30,19.4c0-1.6,0.3-3.2,0.8-4.6l18.4,18.5c-1.4,0.5-2.9,0.7-4.5,0.7
	C36.5,34,30,27.5,30,19.4z M52.5,31.7L32.3,11.4c2.6-4,7.1-6.7,12.3-6.7c8.1,0,14.6,6.6,14.6,14.6C59.3,24.6,56.5,29.1,52.5,31.7z"
	/>
</svg>
