<?xml version="1.0" encoding="utf-8"?>
<!-- Generator: Adobe Illustrator 22.0.1, SVG Export Plug-In . SVG Version: 6.00 Build 0)  -->
<svg version="1.1" id="lni_lni-mobile" xmlns="http://www.w3.org/2000/svg" xmlns:xlink="http://www.w3.org/1999/xlink" x="0px"
	 y="0px" viewBox="0 0 64 64" style="enable-background:new 0 0 64 64;" xml:space="preserve">
<g>
	<path d="M32,48.3c-2,0-3.5,1.6-3.5,3.5c0,2,1.6,3.5,3.5,3.5s3.5-1.6,3.5-3.5C35.5,49.9,34,48.3,32,48.3z"/>
	<path d="M35,9.3h-6c-1,0-1.8,0.8-1.8,1.8s0.8,1.8,1.8,1.8h6c1,0,1.8-0.8,1.8-1.8S36,9.3,35,9.3z"/>
	<path d="M45,1.3H19c-3.2,0-5.8,2.6-5.8,5.8v50c0,3.2,2.6,5.8,5.8,5.8h26c3.2,0,5.8-2.6,5.8-5.8V7C50.8,3.8,48.2,1.3,45,1.3z
		 M47.3,57c0,1.2-1,2.3-2.3,2.3H19c-1.2,0-2.3-1-2.3-2.3V7c0-1.2,1-2.3,2.3-2.3h26c1.2,0,2.3,1,2.3,2.3V57z"/>
</g>
</svg>
