<?xml version="1.0" encoding="utf-8"?>
<!-- Generator: Adobe Illustrator 22.0.1, SVG Export Plug-In . SVG Version: 6.00 Build 0)  -->
<svg version="1.1" id="lni_lni-mouse" xmlns="http://www.w3.org/2000/svg" xmlns:xlink="http://www.w3.org/1999/xlink" x="0px"
	 y="0px" viewBox="0 0 64 64" style="enable-background:new 0 0 64 64;" xml:space="preserve">
<path d="M32,1.3c-11.2,0-20.4,10-20.4,22.4v16.8c0,12.3,9.1,22.4,20.4,22.4c5.2,0,10.1-2.1,13.9-5.9c4.2-4.2,6.6-10.3,6.5-16.5V23.6
	C52.4,11.3,43.2,1.3,32,1.3z M48.9,23.6v1.7H34V4.9C42.3,6,48.9,14,48.9,23.6z M30.5,4.8v20.5H15.1v-1.7
	C15.1,13.8,21.9,5.7,30.5,4.8z M43.4,54.4c-3.1,3.1-7.2,4.9-11.4,4.9c-9.3,0-16.9-8.5-16.9-18.9V28.8h33.8v11.5
	C48.9,45.7,46.9,50.8,43.4,54.4z"/>
</svg>
