<?xml version="1.0" encoding="utf-8"?>
<!-- Generator: Adobe Illustrator 22.0.1, SVG Export Plug-In . SVG Version: 6.00 Build 0)  -->
<svg version="1.1" id="lni_lni-plug" xmlns="http://www.w3.org/2000/svg" xmlns:xlink="http://www.w3.org/1999/xlink" x="0px"
	 y="0px" viewBox="0 0 64 64" style="enable-background:new 0 0 64 64;" xml:space="preserve">
<path d="M45.8,11.8h-4.2V3c0-1-0.8-1.8-1.8-1.8S38.2,2,38.2,3v8.8H25.8V3c0-1-0.8-1.8-1.8-1.8S22.3,2,22.3,3v8.8h-4.2
	c-2.1,0-3.8,1.7-3.8,3.8v13.3c0,7.1,5.8,12.8,12.8,12.8h3V61c0,1,0.8,1.8,1.8,1.8s1.8-0.8,1.8-1.8V41.7h3c7.1,0,12.8-5.8,12.8-12.8
	V15.5C49.6,13.5,47.9,11.8,45.8,11.8z M46.1,28.8c0,5.1-4.2,9.3-9.3,9.3h-9.5c-5.1,0-9.3-4.2-9.3-9.3V15.5c0-0.1,0.1-0.3,0.3-0.3
	h27.6c0.1,0,0.3,0.1,0.3,0.3V28.8z"/>
</svg>
