<?xml version="1.0" encoding="utf-8"?>
<!-- Generator: Adobe Illustrator 22.0.1, SVG Export Plug-In . SVG Version: 6.00 Build 0)  -->
<svg version="1.1" id="lni_lni-printer" xmlns="http://www.w3.org/2000/svg" xmlns:xlink="http://www.w3.org/1999/xlink" x="0px"
	 y="0px" viewBox="0 0 64 64" style="enable-background:new 0 0 64 64;" xml:space="preserve">
<g>
	<path d="M55.4,14.4h-0.5V6c0-2.6-2.1-4.8-4.8-4.8H13.9c-2.6,0-4.8,2.1-4.8,4.8v8.4H8.6c-2.6,0-4.8,2.1-4.8,4.8v15.1
		C3.9,36.9,6,39,8.6,39h0.5v19c0,2.6,2.1,4.8,4.8,4.8h36.2c2.6,0,4.8-2.1,4.8-4.8V39h0.5c2.6,0,4.8-2.1,4.8-4.8V19.2
		C60.1,16.6,58,14.4,55.4,14.4z M12.6,6c0-0.7,0.6-1.3,1.3-1.3h36.2c0.7,0,1.3,0.6,1.3,1.3v8.4H12.6V6z M51.4,58
		c0,0.7-0.6,1.3-1.3,1.3H13.9c-0.7,0-1.3-0.6-1.3-1.3V39h38.7V58z M56.6,34.3c0,0.7-0.6,1.3-1.3,1.3h-2.3H10.9H8.6
		c-0.7,0-1.3-0.6-1.3-1.3V19.2c0-0.7,0.6-1.3,1.3-1.3h2.3h42.2h2.3c0.7,0,1.3,0.6,1.3,1.3V34.3z"/>
	<path d="M24.2,46.9h15.5c1,0,1.8-0.8,1.8-1.8s-0.8-1.8-1.8-1.8H24.2c-1,0-1.8,0.8-1.8,1.8S23.3,46.9,24.2,46.9z"/>
	<path d="M24.2,54.8h15.5c1,0,1.8-0.8,1.8-1.8s-0.8-1.8-1.8-1.8H24.2c-1,0-1.8,0.8-1.8,1.8S23.3,54.8,24.2,54.8z"/>
	<circle cx="50.5" cy="24.1" r="2.6"/>
</g>
</svg>
