<?xml version="1.0" encoding="utf-8"?>
<!-- Generator: Adobe Illustrator 22.0.1, SVG Export Plug-In . SVG Version: 6.00 Build 0)  -->
<svg version="1.1" id="lni_lni-rocket" xmlns="http://www.w3.org/2000/svg" xmlns:xlink="http://www.w3.org/1999/xlink" x="0px"
	 y="0px" viewBox="0 0 64 64" style="enable-background:new 0 0 64 64;" xml:space="preserve">
<g>
	<path d="M62,19.5L53.5,11l-0.3-0.2c-0.5-0.3-1-0.5-1.6-0.5l-13.6,1.1C28.3,3,15.8-0.6,5.3,2.2c-1.5,0.4-2.7,1.6-3.1,3
		C-0.6,15.7,3,28.3,11.5,38.2l-1.2,13.4l0,0.2c0,0.5,0.2,1.1,0.5,1.6l8.7,8.8c0.5,0.5,1.1,0.7,1.7,0.7c0.2,0,0.5,0,0.7-0.1
		c0.9-0.3,1.6-1,1.8-1.9L25,48.9c1.7,0.8,3.3,1.6,5.1,2.2c0.5,0.2,0.9,0.2,1.4,0.2c1.1,0,2.3-0.5,3.1-1.3L50,34.6
		c1.2-1.2,1.6-3,1.1-4.5c-0.6-1.7-1.4-3.4-2.2-5.1l11.7-1.3l0.2,0c0.9-0.2,1.6-0.9,1.9-1.8C62.9,21.1,62.7,20.1,62,19.5z M20.5,58.1
		l-6.7-6.7l0.9-9.9c2.2,2.1,4.5,3.9,7,5.5L20.5,58.1z M47.6,32.2L32.2,47.6c-0.2,0.2-0.6,0.3-0.9,0.2c-5.5-1.9-10.7-5.3-15-9.6
		C7,28.9,2.8,16.3,5.6,6.2c0.1-0.3,0.3-0.5,0.6-0.6c2.1-0.6,4.3-0.8,6.5-0.8c8.7,0,18.2,4.1,25.5,11.5c4.4,4.4,7.7,9.6,9.6,15.1
		C47.9,31.6,47.8,31.9,47.6,32.2z M47,21.7c-1.6-2.5-3.4-4.9-5.5-7.1l9.9-0.8l6.7,6.7L47,21.7z"/>
	<path d="M55.8,41c-0.3-0.2-1.1-0.5-2,0.2c-1,0.8-6.2,6-6.8,6.6c-6.4,6.4-6.4,6.4-6.1,7.6c0.1,0.3,0.2,0.6,0.5,0.8
		c3.2,3.2,8.1,3.9,11.8,3.9c2.8,0,5-0.4,5.2-0.5c0.7-0.1,1.2-0.7,1.4-1.4c0.1-0.5,2.2-11.3-3.5-17C56.1,41.2,56,41.1,55.8,41z
		 M56.4,56.4c-2.9,0.4-8,0.4-11.3-1.7c2.3-2.4,7.3-7.4,9.7-9.7C57,48.6,56.7,54,56.4,56.4z"/>
	<path d="M25.9,17.9c-4.4,0-8,3.6-8,8s3.6,8,8,8s8-3.6,8-8S30.4,17.9,25.9,17.9z M25.9,30.5c-2.5,0-4.5-2-4.5-4.5
		c0-2.5,2-4.5,4.5-4.5s4.5,2,4.5,4.5C30.5,28.4,28.4,30.5,25.9,30.5z"/>
</g>
</svg>
