<?xml version="1.0" encoding="utf-8"?>
<!-- Generator: Adobe Illustrator 22.0.1, SVG Export Plug-In . SVG Version: 6.00 Build 0)  -->
<svg version="1.1" id="lni_lni-rss-feed" xmlns="http://www.w3.org/2000/svg" xmlns:xlink="http://www.w3.org/1999/xlink" x="0px"
	 y="0px" viewBox="0 0 64 64" style="enable-background:new 0 0 64 64;" xml:space="preserve">
<g>
	<path d="M5,1.3C4,1.3,3.2,2,3.2,3S4,4.8,5,4.8c29.9,0,54.3,24.1,54.3,53.6c0,1,0.8,1.8,1.8,1.8s1.8-0.8,1.8-1.8
		C62.8,26.9,36.8,1.3,5,1.3z"/>
	<path d="M5,15.1c-1,0-1.8,0.8-1.8,1.8S4,18.6,5,18.6c22.4,0,40.7,17.8,40.7,39.7c0,1,0.8,1.8,1.8,1.8s1.8-0.8,1.8-1.8
		C49.2,34.5,29.4,15.1,5,15.1z"/>
	<path d="M5,27.4c-1,0-1.8,0.8-1.8,1.8S4,30.9,5,30.9c15.5,0,28,12.3,28,27.5c0,1,0.8,1.8,1.8,1.8s1.8-0.8,1.8-1.8
		C36.5,41.3,22.4,27.4,5,27.4z"/>
	<path d="M5,40c-1,0-1.8,0.8-1.8,1.8S4,43.5,5,43.5c8.3,0,15,6.7,15,14.9c0,1,0.8,1.8,1.8,1.8s1.8-0.8,1.8-1.8
		C23.5,48.2,15.2,40,5,40z"/>
	<path d="M7.5,50.3c-3.4,0-6.2,2.8-6.2,6.2s2.8,6.2,6.2,6.2c3.4,0,6.2-2.8,6.2-6.2S10.9,50.3,7.5,50.3z M7.5,59.3
		c-1.5,0-2.7-1.2-2.7-2.7s1.2-2.7,2.7-2.7s2.7,1.2,2.7,2.7S9,59.3,7.5,59.3z"/>
</g>
</svg>
