<?xml version="1.0" encoding="utf-8"?>
<!-- Generator: Adobe Illustrator 22.0.1, SVG Export Plug-In . SVG Version: 6.00 Build 0)  -->
<svg version="1.1" id="lni_lni-save" xmlns="http://www.w3.org/2000/svg" xmlns:xlink="http://www.w3.org/1999/xlink" x="0px"
	 y="0px" viewBox="0 0 64 64" style="enable-background:new 0 0 64 64;" xml:space="preserve">
<g>
	<path d="M59.2,11.2L49.2,2L49,1.9c-0.6-0.4-1.3-0.7-2-0.7h-2.7H14.4h-3.2c-4,0-7.3,3.3-7.3,7.3v46.8c0,4,3.3,7.3,7.3,7.3h5.9h29.9
		h5.9c4,0,7.3-3.3,7.3-7.3V13.5C60.1,12.6,59.8,11.9,59.2,11.2z M40.8,4.8v7H17.9v-7H40.8z M20.6,59.3V39h22.9v20.2H20.6z
		 M56.6,55.4c0,2.1-1.7,3.8-3.8,3.8h-5.9V38.6c0-1.7-1.4-3.1-3.1-3.1H20.1c-1.7,0-3.1,1.4-3.1,3.1v20.7h-5.9c-2.1,0-3.8-1.7-3.8-3.8
		V8.6c0-2.1,1.7-3.8,3.8-3.8h3.2v7.5c0,1.7,1.4,3.1,3.1,3.1h23.8c1.7,0,3.1-1.4,3.1-3.1V4.8h2.6l9.7,8.9V55.4z"/>
	<path d="M37.3,43.4H26.7c-1,0-1.8,0.8-1.8,1.8s0.8,1.8,1.8,1.8h10.6c1,0,1.8-0.8,1.8-1.8S38.2,43.4,37.3,43.4z"/>
	<path d="M37.3,51.3H26.7c-1,0-1.8,0.8-1.8,1.8s0.8,1.8,1.8,1.8h10.6c1,0,1.8-0.8,1.8-1.8S38.2,51.3,37.3,51.3z"/>
</g>
</svg>
