<?xml version="1.0" encoding="utf-8"?>
<!-- Generator: Adobe Illustrator 22.0.1, SVG Export Plug-In . SVG Version: 6.00 Build 0)  -->
<svg version="1.1" id="lni_lni-scroll-down" xmlns="http://www.w3.org/2000/svg" xmlns:xlink="http://www.w3.org/1999/xlink"
	 x="0px" y="0px" viewBox="0 0 64 64" style="enable-background:new 0 0 64 64;" xml:space="preserve">
<g>
	<circle cx="32" cy="13.5" r="2.6"/>
	<circle cx="32" cy="24.1" r="2.6"/>
	<circle cx="32" cy="34.6" r="2.6"/>
	<path d="M38.7,41.3L32,48l-6.7-6.6c-0.7-0.7-1.8-0.7-2.5,0c-0.7,0.7-0.7,1.8,0,2.5l7.9,7.8c0.3,0.3,0.8,0.5,1.2,0.5
		s0.9-0.2,1.2-0.5l7.9-7.8c0.7-0.7,0.7-1.8,0-2.5C40.5,40.7,39.4,40.7,38.7,41.3z"/>
	<path d="M42.5,1.3H21.5c-5.4,0-9.8,4.4-9.8,9.8v42c0,5.4,4.4,9.8,9.8,9.8h20.9c5.4,0,9.8-4.4,9.8-9.8V11
		C52.2,5.6,47.8,1.3,42.5,1.3z M48.7,53c0,3.4-2.8,6.3-6.3,6.3H21.5c-3.4,0-6.3-2.8-6.3-6.3V11c0-3.4,2.8-6.3,6.3-6.3h20.9
		c3.4,0,6.3,2.8,6.3,6.3V53z"/>
</g>
</svg>
