<?xml version="1.0" encoding="utf-8"?>
<!-- Generator: Adobe Illustrator 22.0.1, SVG Export Plug-In . SVG Version: 6.00 Build 0)  -->
<svg version="1.1" id="lni_lni-search" xmlns="http://www.w3.org/2000/svg" xmlns:xlink="http://www.w3.org/1999/xlink" x="0px"
	 y="0px" viewBox="0 0 64 64" style="enable-background:new 0 0 64 64;" xml:space="preserve">
<path d="M60.7,50.6L50,39.9c-1.3-1.3-3.1-2.1-5-2.1c-1.3,0-2.6,0.4-3.6,1l-6-6c6.3-7.6,5.9-18.8-1.2-25.9c-7.5-7.5-19.7-7.5-27.2,0
	c-7.5,7.5-7.5,19.7,0,27.2c3.8,3.8,8.7,5.6,13.6,5.6c4.4,0,8.8-1.5,12.3-4.5l6,6c-0.7,1.1-1,2.3-1,3.6c0,1.9,0.7,3.7,2.1,5
	l10.7,10.7c1.3,1.3,3.1,2.1,5,2.1c1.9,0,3.7-0.7,5-2.1s2.1-3.1,2.1-5C62.8,53.7,62,51.9,60.7,50.6z M9.4,31.6
	c-6.1-6.1-6.1-16.1,0-22.3c3.1-3.1,7.1-4.6,11.1-4.6c4,0,8.1,1.5,11.1,4.6c6.1,6.1,6.1,16.1,0,22.3C25.5,37.8,15.5,37.8,9.4,31.6z
	 M58.2,58.2c-1.4,1.4-3.7,1.4-5.1,0L42.4,47.5c-0.7-0.7-1.1-1.6-1.1-2.6c0-1,0.4-1.9,1.1-2.6c0.7-0.7,1.6-1.1,2.6-1.1
	c0.9,0,1.9,0.4,2.6,1.1l10.7,10.7C59.6,54.5,59.6,56.8,58.2,58.2z"/>
</svg>
