<?xml version="1.0" encoding="utf-8"?>
<!-- Generator: Adobe Illustrator 22.0.1, SVG Export Plug-In . SVG Version: 6.00 Build 0)  -->
<svg version="1.1" id="lni_lni-share-alt" xmlns="http://www.w3.org/2000/svg" xmlns:xlink="http://www.w3.org/1999/xlink" x="0px"
	 y="0px" viewBox="0 0 64 64" style="enable-background:new 0 0 64 64;" xml:space="preserve">
<g>
	<path d="M2.8,13.8l8.6,6.5c0.3,0.2,0.7,0.3,1,0.3c0.5,0,1.1-0.2,1.4-0.7c0.6-0.8,0.4-1.9-0.4-2.4l-6.4-4.8h14.6
		c6.1,0,11.1,5,11.1,11.1v16.1c0,1,0.8,1.8,1.8,1.8s1.8-0.8,1.8-1.8V23.8c0-8.1-6.6-14.6-14.6-14.6H7l6.5-4.7
		c0.8-0.6,0.9-1.7,0.4-2.4c-0.6-0.8-1.7-0.9-2.4-0.4L2.8,7.9c-1,0.7-1.6,1.8-1.6,2.9C1.2,12,1.8,13,2.8,13.8z"/>
	<path d="M61,38.2c-1,0-1.8,0.8-1.8,1.8v15.5c0,2.1-1.7,3.8-3.8,3.8H8.6c-2.1,0-3.8-1.7-3.8-3.8V39.9c0-1-0.8-1.8-1.8-1.8
		s-1.8,0.8-1.8,1.8v15.5c0,4,3.3,7.3,7.3,7.3h46.8c4,0,7.3-3.3,7.3-7.3V39.9C62.8,38.9,62,38.2,61,38.2z"/>
</g>
</svg>
