<?xml version="1.0" encoding="utf-8"?>
<!-- Generator: Adobe Illustrator 22.0.1, SVG Export Plug-In . SVG Version: 6.00 Build 0)  -->
<svg version="1.1" id="lni_lni-share-alt-1" xmlns="http://www.w3.org/2000/svg" xmlns:xlink="http://www.w3.org/1999/xlink"
	 x="0px" y="0px" viewBox="0 0 64 64" style="enable-background:new 0 0 64 64;" xml:space="preserve">
<path d="M49.6,21.5c-3.8,0-7.1,2-9,4.9l-17-9.4c0.8-1.5,1.3-3.3,1.3-5.1C25,6,20.2,1.3,14.4,1.3S3.7,6,3.7,11.9s4.8,10.6,10.6,10.6
	c2.7,0,5.2-1,7.1-2.7l17.9,9.8c-0.2,0.8-0.3,1.6-0.3,2.5c0,2.2,0.6,4.2,1.8,5.8L24.6,49.1c-1.3-4.4-5.4-7.6-10.2-7.6
	c-5.9,0-10.6,4.8-10.6,10.6s4.8,10.6,10.6,10.6c5.5,0,10.1-4.3,10.6-9.7l18.2-12.6c1.8,1.4,4,2.2,6.5,2.2c5.9,0,10.6-4.8,10.6-10.6
	S55.5,21.5,49.6,21.5z M14.4,19c-3.9,0-7.1-3.2-7.1-7.1s3.2-7.1,7.1-7.1c3.9,0,7.1,3.2,7.1,7.1S18.3,19,14.4,19z M14.4,59.3
	c-3.9,0-7.1-3.2-7.1-7.1c0-3.9,3.2-7.1,7.1-7.1c3.9,0,7.1,3.2,7.1,7.1C21.5,56.1,18.3,59.3,14.4,59.3z M49.6,39.2
	c-3.9,0-7.1-3.2-7.1-7.1c0-3.9,3.2-7.1,7.1-7.1c3.9,0,7.1,3.2,7.1,7.1C56.8,36,53.6,39.2,49.6,39.2z"/>
</svg>
