<?xml version="1.0" encoding="utf-8"?>
<!-- Generator: Adobe Illustrator 22.0.1, SVG Export Plug-In . SVG Version: 6.00 Build 0)  -->
<svg version="1.1" id="lni_lni-shopping-basket" xmlns="http://www.w3.org/2000/svg" xmlns:xlink="http://www.w3.org/1999/xlink"
	 x="0px" y="0px" viewBox="0 0 64 64" style="enable-background:new 0 0 64 64;" xml:space="preserve">
<g>
	<path d="M57.3,19.7h-3L47.5,2.4c-0.4-0.9-1.4-1.3-2.3-1c-0.9,0.4-1.3,1.4-1,2.3l6.3,16.1H13.4l6.3-16.1c0.4-0.9-0.1-1.9-1-2.3
		c-0.9-0.4-1.9,0.1-2.3,1L9.6,19.7h-3c-1.5,0-2.8,1.2-2.8,2.8V31c0,1.5,1.2,2.8,2.8,2.8h0.1l2.6,22.8c0.4,3.5,3.4,6.2,7,6.2h31.2
		c3.6,0,6.6-2.7,7-6.2l2.6-22.8h0.1c1.5,0,2.8-1.2,2.8-2.8v-8.5C60.1,21,58.9,19.7,57.3,19.7z M7.4,23.2h49.2v7H7.4V23.2z
		 M51.1,56.1c-0.2,1.8-1.7,3.1-3.5,3.1H16.4c-1.8,0-3.3-1.3-3.5-3.1l-2.6-22.4h43.4L51.1,56.1z"/>
	<path d="M21.5,50.8c1,0,1.8-0.8,1.8-1.8v-7.7c0-1-0.8-1.8-1.8-1.8s-1.8,0.8-1.8,1.8v7.7C19.7,50,20.5,50.8,21.5,50.8z"/>
	<path d="M42.5,50.8c1,0,1.8-0.8,1.8-1.8v-7.7c0-1-0.8-1.8-1.8-1.8s-1.8,0.8-1.8,1.8v7.7C40.8,50,41.6,50.8,42.5,50.8z"/>
</g>
</svg>
