<?xml version="1.0" encoding="utf-8"?>
<!-- Generator: Adobe Illustrator 22.0.1, SVG Export Plug-In . SVG Version: 6.00 Build 0)  -->
<svg version="1.1" id="lni_lni-shortcode" xmlns="http://www.w3.org/2000/svg" xmlns:xlink="http://www.w3.org/1999/xlink" x="0px"
	 y="0px" viewBox="0 0 64 64" style="enable-background:new 0 0 64 64;" xml:space="preserve">
<g>
	<path d="M30.7,23.1h8.4c1,0,1.8-0.8,1.8-1.8s-0.8-1.8-1.8-1.8h-8.4c-3.5,0-6.3,2.8-6.3,6.3v1.8c0,3.5,2.8,6.3,6.3,6.3h3.9
		c1.5,0,2.8,1.2,2.8,2.8v1.8c0,1.5-1.2,2.8-2.8,2.8h-7.9c-1,0-1.8,0.8-1.8,1.8s0.8,1.8,1.8,1.8h7.9c3.5,0,6.3-2.8,6.3-6.3v-1.8
		c0-3.5-2.8-6.3-6.3-6.3h-3.9c-1.5,0-2.8-1.3-2.8-2.8v-1.8C27.9,24.4,29.2,23.1,30.7,23.1z"/>
	<path d="M15.1,22.2c0.8-0.6,0.9-1.7,0.3-2.5c-0.6-0.8-1.7-0.9-2.5-0.3l-9.4,7.7c-1.4,1.1-2.2,2.8-2.2,4.7s0.8,3.5,2.2,4.7l9.4,7.7
		c0.3,0.3,0.7,0.4,1.1,0.4c0.5,0,1-0.2,1.4-0.6c0.6-0.8,0.5-1.9-0.3-2.5l-9.4-7.7c-0.6-0.5-0.9-1.2-0.9-2s0.3-1.5,0.9-2L15.1,22.2z"
		/>
	<path d="M60.5,27.2l-9.4-7.6c-0.8-0.6-1.9-0.5-2.5,0.3c-0.6,0.8-0.5,1.9,0.3,2.5l9.4,7.6c0.6,0.5,0.9,1.2,0.9,2s-0.3,1.5-0.9,2
		l-9.4,7.6c-0.8,0.6-0.9,1.7-0.3,2.5c0.3,0.4,0.9,0.7,1.4,0.7c0.4,0,0.8-0.1,1.1-0.4l9.4-7.6c1.4-1.1,2.3-2.9,2.3-4.7
		C62.8,30,61.9,28.3,60.5,27.2z"/>
</g>
</svg>
