<?xml version="1.0" encoding="utf-8"?>
<!-- Generator: Adobe Illustrator 22.0.1, SVG Export Plug-In . SVG Version: 6.00 Build 0)  -->
<svg version="1.1" id="lni_lni-signal" xmlns="http://www.w3.org/2000/svg" xmlns:xlink="http://www.w3.org/1999/xlink" x="0px"
	 y="0px" viewBox="0 0 64 64" style="enable-background:new 0 0 64 64;" xml:space="preserve">
<g>
	<path d="M32,22.9c-2.9,0-5.3,2.4-5.3,5.3c0,2.3,1.5,4.3,3.6,5v19.9c0,1,0.8,1.8,1.8,1.8s1.8-0.8,1.8-1.8V33.2
		c2.1-0.7,3.6-2.7,3.6-5C37.3,25.3,34.9,22.9,32,22.9z M32,30c-1,0-1.8-0.8-1.8-1.8s0.8-1.8,1.8-1.8s1.8,0.8,1.8,1.8S33,30,32,30z"
		/>
	<path d="M23.9,19.6c-0.7-0.7-1.8-0.7-2.5,0c-2.1,2.1-3.3,4.9-3.3,7.8c0,3,1.2,5.8,3.3,8c0.3,0.3,0.8,0.5,1.2,0.5
		c0.4,0,0.9-0.2,1.2-0.5c0.7-0.7,0.7-1.8,0-2.5c-1.5-1.5-2.3-3.4-2.3-5.5c0-2,0.8-3.9,2.3-5.4C24.6,21.4,24.6,20.3,23.9,19.6z"/>
	<path d="M40.1,19.6c-0.7,0.7-0.7,1.8,0,2.5c1.4,1.4,2.2,3.3,2.3,5.4c0,2.1-0.8,4-2.3,5.5c-0.7,0.7-0.7,1.8,0,2.5
		c0.3,0.3,0.8,0.5,1.2,0.5c0.4,0,0.9-0.2,1.2-0.5c2.1-2.1,3.3-5,3.3-8c0-3-1.2-5.8-3.3-7.8C41.9,18.9,40.8,19,40.1,19.6z"/>
	<path d="M17.6,14.7c-0.7-0.7-1.8-0.7-2.5,0c-3.5,3.4-5.4,8-5.4,12.9s1.9,9.4,5.4,12.9c0.3,0.3,0.8,0.5,1.2,0.5
		c0.5,0,0.9-0.2,1.2-0.5c0.7-0.7,0.7-1.8,0-2.5c-2.8-2.8-4.3-6.5-4.3-10.4c0-3.9,1.5-7.6,4.3-10.4C18.2,16.4,18.2,15.3,17.6,14.7z"
		/>
	<path d="M48.9,14.6c-0.7-0.7-1.8-0.7-2.5,0c-0.7,0.7-0.7,1.8,0,2.5c2.8,2.8,4.3,6.5,4.3,10.4c0,3.9-1.5,7.6-4.3,10.4
		c-0.7,0.7-0.7,1.8,0,2.5c0.3,0.3,0.8,0.5,1.2,0.5c0.4,0,0.9-0.2,1.2-0.5c3.5-3.4,5.4-8,5.4-12.9S52.4,18.1,48.9,14.6z"/>
	<path d="M4.8,27.5c0-5.8,2.3-11.3,6.4-15.4c0.7-0.7,0.7-1.8,0-2.5C10.5,9,9.4,9,8.7,9.7c-4.8,4.8-7.5,11.1-7.5,17.8
		c0,6.7,2.7,13.1,7.5,17.8c0.3,0.3,0.8,0.5,1.2,0.5c0.5,0,0.9-0.2,1.2-0.5c0.7-0.7,0.7-1.8,0-2.5C7,38.8,4.8,33.3,4.8,27.5z"/>
	<path d="M55.3,9.7c-0.7-0.7-1.8-0.7-2.5,0c-0.7,0.7-0.7,1.8,0,2.5c4.1,4.1,6.4,9.6,6.4,15.4c0,5.8-2.3,11.3-6.4,15.4
		c-0.7,0.7-0.7,1.8,0,2.5c0.3,0.3,0.8,0.5,1.2,0.5c0.4,0,0.9-0.2,1.2-0.5c4.8-4.8,7.5-11.1,7.5-17.8C62.8,20.8,60.1,14.4,55.3,9.7z"
		/>
</g>
</svg>
