<?xml version="1.0" encoding="utf-8"?>
<!-- Generator: Adobe Illustrator 22.0.1, SVG Export Plug-In . SVG Version: 6.00 Build 0)  -->
<svg version="1.1" id="lni_lni-star-half" xmlns="http://www.w3.org/2000/svg" xmlns:xlink="http://www.w3.org/1999/xlink" x="0px"
	 y="0px" viewBox="0 0 64 64" style="enable-background:new 0 0 64 64;" xml:space="preserve">
<g>
	<polygon points="45.7,23.2 40.9,23 39.2,18.7 35.9,19.9 38.4,26.4 45.6,26.7 	"/>
	<path d="M62.7,25.2c-0.3-0.9-1.1-1.5-2-1.5l-6.1-0.2L54.4,27l2.3,0.1L51.5,31l2.1,2.8l7.1-5.4l-0.9-1.3h0l0.9,1.3l1.2-0.9
		C62.6,27,62.9,26.1,62.7,25.2z"/>
	<polygon points="44.3,44.6 47.7,43.6 46.4,39.3 50.1,36.4 48,33.6 42.4,37.9 	"/>
	<path d="M50.1,51.7l-3.4,1l0.6,2.2l-5.7-3.7l-1.9,3l7.4,4.7l0,0l1.3,0.9c0.4,0.2,0.8,0.3,1.2,0.3c0.5,0,0.9-0.1,1.3-0.4
		c0.7-0.5,1-1.4,0.8-2.3L50.1,51.7z"/>
	<path d="M26.1,48.9L26.1,48.9l-9.4,6l5-17L7.3,27.1l18.3-0.7L31.1,12l0,0L32,9.8l0.9,2.4l3.3-1.3L34,5.2c-0.3-0.8-1.1-1.4-2-1.4
		s-1.7,0.5-2,1.4l-2.1,5.5h0L23.1,23L3.3,23.7c-0.9,0-1.7,0.6-2,1.5c-0.3,0.9,0,1.8,0.8,2.3l15.5,11.7l-5.3,18.1
		c-0.3,0.9,0,1.8,0.8,2.3c0.4,0.3,0.8,0.4,1.3,0.4c0.4,0,0.8-0.1,1.2-0.3L30,50.5l2-1.3l4.1,2.6l1.9-3L32,45.1L26.1,48.9z"/>
</g>
</svg>
