<svg width="64" height="64" viewBox="0 0 64 64" fill="none" xmlns="http://www.w3.org/2000/svg">
<path d="M31.8 8.59998H32L32.2 8.69998L32.3 8.39998L34.9 7.09998L33.5 4.49998C33.2 3.89998 32.6 3.59998 31.9 3.59998C31.2 3.59998 30.6 3.99998 30.3 4.49998L28.9 7.09998L31.5 8.39998L31.8 8.59998Z" fill="black"/>
<path d="M37.0611 11.1902L33.93 12.754L37.0129 18.9267L40.144 17.3629L37.0611 11.1902Z" fill="black"/>
<path d="M41.2 19.3L38.1 21L39.5 23.6C39.8 24.1 40.3 24.5 40.8 24.5L43.8 24.9L44.3 21.4L42.2 21L41.2 19.3Z" fill="black"/>
<path d="M48.8595 22.1887L48.3705 25.6544L55.401 26.6462L55.8899 23.1805L48.8595 22.1887Z" fill="black"/>
<path d="M62.7 25.2C62.5 24.5 62 24 61.3 24L58.3 23.5L57.9 26.3L57.7 26.5L57.9 26.7V27L58.3 27.1L60.2 29.1L62.4 27.1C62.7 26.5 62.9 25.8 62.7 25.2Z" fill="black"/>
<path d="M54.2382 29.6319L49.2171 34.3646L51.6178 36.9115L56.6389 32.1788L54.2382 29.6319Z" fill="black"/>
<path d="M48.4 40L49.9 38.5L47.5 36L45.3 38C44.9 38.4 44.7 39 44.8 39.5L45.3 42.4L48.8 41.8L48.4 40Z" fill="black"/>
<path d="M49.5441 46.4437L46.1008 47.0706L47.3366 53.8588L50.7799 53.2319L49.5441 46.4437Z" fill="black"/>
<path d="M51.1 55.5L48.4 56L48 55.8L47.8 56H47.6V56.2L46.3 58.7L49 60.1C49.3 60.2 49.5 60.3 49.8 60.3C50.2 60.3 50.5 60.2 50.8 60C51.3 59.6 51.6 58.9 51.5 58.3L51.1 55.5Z" fill="black"/>
<path d="M37.6577 50.4077L36.0652 53.5245L42.2987 56.7095L43.8912 53.5927L37.6577 50.4077Z" fill="black"/>
<path d="M31.2 48L28.5 49.4L30.1 52.5L32 51.5L33.9 52.5L35.5 49.4L32.8 48C32.3 47.8 31.7 47.8 31.2 48Z" fill="black"/>
<path d="M24.3451 51.4996L18.0983 54.658L19.6775 57.7814L25.9243 54.623L24.3451 51.4996Z" fill="black"/>
<path d="M16.3 56H16.1L16 55.8L15.6 56L12.9 55.6L12.4 58.5C12.3 59.2 12.6 59.8 13.1 60.2C13.4 60.4 13.8 60.5 14.1 60.5C14.4 60.5 14.7 60.4 14.9 60.3L17.6 58.9L16.3 56.4V56Z" fill="black"/>
<path d="M14.829 44.2423L13.6757 50.9437L17.125 51.5373L18.2782 44.8359L14.829 44.2423Z" fill="black"/>
<path d="M14.1 38.5L15.6 40L15.2 42L18.6 42.6L19.1 39.7C19.2 39.1 19 38.5 18.6 38.1L16.6 36L14.1 38.5Z" fill="black"/>
<path d="M8.12392 28.0145L5.72327 30.5615L10.7444 35.2942L13.145 32.7472L8.12392 28.0145Z" fill="black"/>
<path d="M6.3 27L6.2 26.7L6.4 26.5L6.2 26.3L5.8 23.5L2.7 24C2 24 1.5 24.5 1.3 25.2C1.1 25.8 1.3 26.5 1.8 27L4.1 29L5.9 27H6.3Z" fill="black"/>
<path d="M17.4111 21.723L10.4811 22.7114L10.9753 26.1764L17.9053 25.188L17.4111 21.723Z" fill="black"/>
<path d="M21.9 21.3L19.7 21.6L20.1 25.1L23.2 24.7C23.8 24.6 24.3 24.3 24.5 23.8L26 21L22.9 19.4L21.9 21.3Z" fill="black"/>
<path d="M28.0128 9.09544L24.8754 15.2413L27.9928 16.8327L31.1302 10.6869L28.0128 9.09544Z" fill="black"/>
</svg>
