<?xml version="1.0" encoding="utf-8"?>
<!-- Generator: Adobe Illustrator 22.0.1, SVG Export Plug-In . SVG Version: 6.00 Build 0)  -->
<svg version="1.1" id="lni_lni-star" xmlns="http://www.w3.org/2000/svg" xmlns:xlink="http://www.w3.org/1999/xlink" x="0px"
	 y="0px" viewBox="0 0 64 64" style="enable-background:new 0 0 64 64;" xml:space="preserve">
<g>
	<path d="M15.5,62.7c-0.8,0-1.6-0.2-2.3-0.7c-1.3-0.9-2-2.5-1.7-4.1l2.7-17L2.5,28.8c-1.1-1.1-1.5-2.8-1-4.3C2,23,3.2,22,4.7,21.7
		L21,19.1l7.3-15.5c0.7-1.4,2.1-2.3,3.6-2.3c0,0,0,0,0,0c1.6,0,2.9,0.9,3.6,2.3L43,19l16.3,2.6c1.5,0.2,2.7,1.3,3.2,2.8
		c0.5,1.5,0.1,3.2-1,4.3L49.7,40.8l2.8,17.1c0.3,1.6-0.4,3.2-1.7,4.1c-1.2,0.9-2.8,1-4.2,0.3L32,54.3l-14.6,8
		C16.8,62.6,16.2,62.7,15.5,62.7z M5,26.4l12.1,12.4c0.6,0.6,0.9,1.5,0.7,2.4L15,58.5c-0.1,0.4,0.2,0.6,0.3,0.7
		c0.2,0.2,0.4,0.1,0.5,0l15-8.2c0.8-0.4,1.7-0.4,2.5,0l15,8.1c0.1,0,0.2,0.1,0.5,0c0.1-0.1,0.3-0.3,0.3-0.7l-2.8-17.4
		c-0.1-0.9,0.1-1.7,0.7-2.4L59,26.2c0.3-0.3,0.2-0.6,0.2-0.8c0-0.1-0.2-0.4-0.4-0.4L42,22.4c-0.9-0.1-1.6-0.7-2-1.5L32.5,5.1
		c-0.1-0.3-0.3-0.3-0.5-0.3h0c-0.1,0-0.3,0.1-0.5,0.3L24,21c-0.4,0.8-1.1,1.4-2,1.5L5.3,25.2c-0.3,0-0.4,0.3-0.4,0.4
		C4.8,25.7,4.7,26.1,5,26.4L5,26.4z M31.6,54.1C31.6,54.1,31.6,54.1,31.6,54.1L31.6,54.1z"/>
</g>
</svg>
