<?xml version="1.0" encoding="utf-8"?>
<!-- Generator: Adobe Illustrator 22.0.1, SVG Export Plug-In . SVG Version: 6.00 Build 0)  -->
<svg version="1.1" id="lni_lni-tab" xmlns="http://www.w3.org/2000/svg" xmlns:xlink="http://www.w3.org/1999/xlink" x="0px"
	 y="0px" viewBox="0 0 64 64" style="enable-background:new 0 0 64 64;" xml:space="preserve">
<g>
	<path d="M49.3,1.3H14.7c-3.1,0-5.6,2.5-5.6,5.6v50.4c0,3.1,2.5,5.6,5.6,5.6h34.7c3.1,0,5.6-2.5,5.6-5.6V6.8
		C54.9,3.7,52.4,1.3,49.3,1.3z M51.4,57.2c0,1.1-0.9,2.1-2.1,2.1H14.7c-1.1,0-2.1-0.9-2.1-2.1V6.8c0-1.1,0.9-2.1,2.1-2.1h34.7
		c1.1,0,2.1,0.9,2.1,2.1V57.2z"/>
	<path d="M33.8,11.6c0-1-0.8-1.8-1.8-1.8h-7.9c-1,0-1.8,0.8-1.8,1.8s0.8,1.8,1.8,1.8H32C33,13.4,33.8,12.6,33.8,11.6z"/>
	<path d="M40.2,9.1c-1.4,0-2.6,1.1-2.6,2.5c0,1.4,1.1,2.5,2.6,2.5c1.4,0,2.6-1.1,2.6-2.5C42.7,10.2,41.6,9.1,40.2,9.1z"/>
	<ellipse cx="32" cy="50.9" rx="3.8" ry="3.8"/>
</g>
</svg>
