<?xml version="1.0" encoding="utf-8"?>
<!-- Generator: Adobe Illustrator 22.0.1, SVG Export Plug-In . SVG Version: 6.00 Build 0)  -->
<svg version="1.1" id="lni_lni-timer" xmlns="http://www.w3.org/2000/svg" xmlns:xlink="http://www.w3.org/1999/xlink" x="0px"
	 y="0px" viewBox="0 0 64 64" style="enable-background:new 0 0 64 64;" xml:space="preserve">
<g>
	<path d="M33.8,11.9V4.8h6.2c1,0,1.8-0.8,1.8-1.8s-0.8-1.8-1.8-1.8H24.1c-1,0-1.8,0.8-1.8,1.8s0.8,1.8,1.8,1.8h6.2v7.1
		C17,12.8,6.5,23.8,6.5,37.3c0,14,11.4,25.5,25.5,25.5c14.1,0,25.5-11.4,25.5-25.5C57.5,23.8,47,12.8,33.8,11.9z M32,59.3
		c-12.1,0-22-9.9-22-22s9.9-22,22-22c12.1,0,22,9.9,22,22S44.1,59.3,32,59.3z"/>
	<path d="M45.2,35.5H33.8V24.1c0-1-0.8-1.8-1.8-1.8c-1,0-1.8,0.8-1.8,1.8v11.4h-3.5c-1,0-1.8,0.8-1.8,1.8s0.8,1.8,1.8,1.8h3.5v3.5
		c0,1,0.8,1.8,1.8,1.8c1,0,1.8-0.8,1.8-1.8V39h11.4c1,0,1.8-0.8,1.8-1.8S46.2,35.5,45.2,35.5z"/>
</g>
</svg>
