<?xml version="1.0" encoding="utf-8"?>
<!-- Generator: Adobe Illustrator 22.0.1, SVG Export Plug-In . SVG Version: 6.00 Build 0)  -->
<svg version="1.1" id="lni_lni-trash-can" xmlns="http://www.w3.org/2000/svg" xmlns:xlink="http://www.w3.org/1999/xlink" x="0px"
	 y="0px" viewBox="0 0 64 64" style="enable-background:new 0 0 64 64;" xml:space="preserve">
<g>
	<path d="M50.7,8.6H41V5c0-2.1-1.7-3.8-3.8-3.8H26.8C24.7,1.3,23,2.9,23,5v3.6h-9.7c-2.1,0-3.8,1.7-3.8,3.8v7.3c0,1,0.8,1.8,1.8,1.8
		h1.5v33.9c0,4.1,3.4,7.5,7.5,7.5h23.5c4.1,0,7.5-3.4,7.5-7.5V21.3h1.5c1,0,1.8-0.8,1.8-1.8v-7.3C54.4,10.2,52.8,8.6,50.7,8.6z
		 M26.5,5c0-0.1,0.1-0.3,0.3-0.3h10.4c0.1,0,0.3,0.1,0.3,0.3v3.6H26.5V5z M13.1,12.3c0-0.1,0.1-0.3,0.3-0.3h11.5h14.4h11.5
		c0.1,0,0.3,0.1,0.3,0.3v5.5H13.1V12.3z M47.7,55.3c0,2.2-1.8,4-4,4H20.3c-2.2,0-4-1.8-4-4V21.3h31.5V55.3z"/>
	<path d="M32,48.3c1,0,1.8-0.8,1.8-1.8V33.4c0-1-0.8-1.8-1.8-1.8s-1.8,0.8-1.8,1.8v13.2C30.3,47.6,31,48.3,32,48.3z"/>
	<path d="M40.4,48.3c1,0,1.8-0.8,1.8-1.8V33.4c0-1-0.8-1.8-1.8-1.8s-1.8,0.8-1.8,1.8v13.2C38.7,47.6,39.5,48.3,40.4,48.3z"/>
	<path d="M23.6,48.3c1,0,1.8-0.8,1.8-1.8V33.4c0-1-0.8-1.8-1.8-1.8s-1.8,0.8-1.8,1.8v13.2C21.8,47.6,22.6,48.3,23.6,48.3z"/>
</g>
</svg>
