<?xml version="1.0" encoding="utf-8"?>
<!-- Generator: Adobe Illustrator 22.0.1, SVG Export Plug-In . SVG Version: 6.00 Build 0)  -->
<svg version="1.1" id="lni_lni-unlink" xmlns="http://www.w3.org/2000/svg" xmlns:xlink="http://www.w3.org/1999/xlink" x="0px"
	 y="0px" viewBox="0 0 64 64" style="enable-background:new 0 0 64 64;" xml:space="preserve">
<g>
	<path d="M29.3,13l-8.4-8.3c-4.5-4.5-11.8-4.5-16.3,0c-2.2,2.2-3.4,5.1-3.4,8.1s1.2,6,3.4,8.1l8.3,8.4c2.2,2.2,5.2,3.4,8.1,3.4
		c2.9,0,5.9-1.1,8.1-3.4c2.2-2.1,3.4-5,3.4-8.1C32.6,18.1,31.4,15.2,29.3,13z M15.4,26.8l-8.3-8.4c-1.5-1.5-2.4-3.5-2.4-5.7
		s0.8-4.1,2.4-5.7c1.6-1.6,3.6-2.3,5.7-2.3c2,0,4.1,0.8,5.7,2.3l8.3,8.3c1.5,1.5,2.3,3.5,2.3,5.7c0,1.7-0.5,3.2-1.4,4.5l-3.1-3.1
		c-0.7-0.7-1.8-0.7-2.5,0c-0.7,0.7-0.7,1.8,0,2.5l3,2.9C22,29.8,18,29.4,15.4,26.8z"/>
	<path d="M59.4,43.1l-8.4-8.3c-4.5-4.5-11.8-4.5-16.3,0c-2.2,2.2-3.4,5.1-3.4,8.1c0,3.1,1.2,6,3.4,8.1l8.3,8.4
		c2.2,2.2,5.2,3.4,8.1,3.4c2.9,0,5.9-1.1,8.1-3.4c2.2-2.1,3.4-5,3.4-8C62.8,48.2,61.6,45.3,59.4,43.1z M56.9,56.9L56.9,56.9
		c-3.1,3.1-8.2,3.1-11.3,0l-8.3-8.4c-1.5-1.5-2.4-3.5-2.4-5.7c0-1.4,0.4-2.8,1.1-4l2.9,2.9c0.3,0.3,0.8,0.5,1.2,0.5
		c0.4,0,0.9-0.2,1.2-0.5c0.7-0.7,0.7-1.8,0-2.5l-3-3c1.4-0.9,3-1.4,4.6-1.4c2,0,4.1,0.8,5.7,2.3l8.3,8.3c1.5,1.5,2.3,3.6,2.3,5.7
		C59.2,53.4,58.4,55.4,56.9,56.9z"/>
	<path d="M39.9,15.3c1,0,1.8-0.8,1.8-1.8V5.6c0-1-0.8-1.8-1.8-1.8s-1.8,0.8-1.8,1.8v7.9C38.2,14.5,39,15.3,39.9,15.3z"/>
	<path d="M48.7,24.1c0,1,0.8,1.8,1.8,1.8h7.9c1,0,1.8-0.8,1.8-1.8s-0.8-1.8-1.8-1.8h-7.9C49.5,22.3,48.7,23.1,48.7,24.1z"/>
	<path d="M43.8,20.3c0.5,0,0.9-0.2,1.2-0.5l6.7-6.8c0.7-0.7,0.7-1.8,0-2.5c-0.7-0.7-1.8-0.7-2.5,0l-6.7,6.8c-0.7,0.7-0.7,1.8,0,2.5
		C42.9,20.1,43.3,20.3,43.8,20.3z"/>
	<path d="M24.1,48.8c-1,0-1.8,0.8-1.8,1.8v7.9c0,1,0.8,1.8,1.8,1.8s1.8-0.8,1.8-1.8v-7.9C25.8,49.5,25.1,48.8,24.1,48.8z"/>
	<path d="M12.7,39.9c0-1-0.8-1.8-1.8-1.8H5.6c-1,0-1.8,0.8-1.8,1.8s0.8,1.8,1.8,1.8h5.3C11.9,41.7,12.7,40.9,12.7,39.9z"/>
	<path d="M16.7,43.1L10,49.8c-0.7,0.7-0.7,1.8,0,2.5c0.3,0.3,0.8,0.5,1.2,0.5c0.4,0,0.9-0.2,1.2-0.5l6.7-6.7c0.7-0.7,0.7-1.8,0-2.5
		C18.5,42.4,17.4,42.4,16.7,43.1z"/>
</g>
</svg>
