<?xml version="1.0" encoding="utf-8"?>
<!-- Generator: Adobe Illustrator 22.0.1, SVG Export Plug-In . SVG Version: 6.00 Build 0)  -->
<svg version="1.1" id="lni_lni-upload" xmlns="http://www.w3.org/2000/svg" xmlns:xlink="http://www.w3.org/1999/xlink" x="0px"
	 y="0px" viewBox="0 0 64 64" style="enable-background:new 0 0 64 64;" xml:space="preserve">
<g>
	<path d="M61,43.4c-1,0-1.8,0.8-1.8,1.8v14.1l-54.5,0V45.1c0-1-0.8-1.8-1.8-1.8s-1.8,0.8-1.8,1.8v15c0,1.5,1.4,2.6,3.1,2.6h55.3
		c1.7,0,3.1-1.2,3.1-2.6v-15C62.8,44.1,62,43.4,61,43.4z"/>
	<path d="M23.5,13l6.7-6.9v38.9c0,1,0.8,1.8,1.8,1.8c1,0,1.8-0.8,1.8-1.8v-39l6.7,6.9c0.3,0.4,0.8,0.5,1.3,0.5
		c0.4,0,0.9-0.2,1.2-0.5c0.7-0.7,0.7-1.8,0-2.5l-7.7-7.9c-0.9-0.9-2-1.4-3.2-1.4c0,0,0,0,0,0c-1.2,0-2.4,0.5-3.2,1.4L21,10.6
		c-0.7,0.7-0.7,1.8,0,2.5C21.8,13.7,22.9,13.7,23.5,13z"/>
</g>
</svg>
