<?xml version="1.0" encoding="utf-8"?>
<!-- Generator: Adobe Illustrator 22.0.1, SVG Export Plug-In . SVG Version: 6.00 Build 0)  -->
<svg version="1.1" id="lni_lni-users" xmlns="http://www.w3.org/2000/svg" xmlns:xlink="http://www.w3.org/1999/xlink" x="0px"
	 y="0px" viewBox="0 0 64 64" style="enable-background:new 0 0 64 64;" xml:space="preserve">
<g>
	<path d="M21.5,36.4c6.8,0,12.3-5.5,12.3-12.3s-5.5-12.3-12.3-12.3S9.2,17.3,9.2,24.1S14.7,36.4,21.5,36.4z M21.5,15.3
		c4.8,0,8.8,3.9,8.8,8.8c0,4.9-3.9,8.8-8.8,8.8s-8.8-3.9-8.8-8.8C12.7,19.2,16.6,15.3,21.5,15.3z"/>
	<path d="M21.5,40.8c-7.3,0-14.3,3-19.7,8.4c-0.7,0.7-0.7,1.8,0,2.5C2.1,52,2.6,52.2,3,52.2c0.5,0,0.9-0.2,1.2-0.5
		c4.7-4.8,10.8-7.4,17.2-7.4c6.3,0,12.4,2.6,17.2,7.4c0.7,0.7,1.8,0.7,2.5,0c0.7-0.7,0.7-1.8,0-2.5C35.7,43.8,28.7,40.8,21.5,40.8z"
		/>
	<path d="M47.8,36.4c3.9,0,7-3.2,7-7s-3.2-7-7-7s-7,3.2-7,7S43.9,36.4,47.8,36.4z M47.8,25.8c1.9,0,3.5,1.6,3.5,3.5
		s-1.6,3.5-3.5,3.5s-3.5-1.6-3.5-3.5S45.9,25.8,47.8,25.8z"/>
	<path d="M62.2,46.5c-5.3-5-12.7-6.9-20.1-5c-0.9,0.2-1.5,1.2-1.3,2.1c0.2,0.9,1.2,1.5,2.1,1.3c6.2-1.6,12.4,0,16.8,4.2
		c0.3,0.3,0.8,0.5,1.2,0.5c0.5,0,0.9-0.2,1.3-0.6C62.9,48.3,62.9,47.2,62.2,46.5z"/>
</g>
</svg>
