<?xml version="1.0" encoding="utf-8"?>
<!-- Generator: Adobe Illustrator 22.0.1, SVG Export Plug-In . SVG Version: 6.00 Build 0)  -->
<svg version="1.1" id="lni_lni-website" xmlns="http://www.w3.org/2000/svg" xmlns:xlink="http://www.w3.org/1999/xlink" x="0px"
	 y="0px" viewBox="0 0 64 64" style="enable-background:new 0 0 64 64;" xml:space="preserve">
<g>
	<path d="M20.5,19.4l-1.2,2.4l-1-2c-0.3-0.7-1-1.1-1.8-1.1s-1.5,0.4-1.8,1.1l-1,2l-1.2-2.4c-0.4-0.9-1.5-1.2-2.3-0.8
		c-0.9,0.4-1.2,1.5-0.8,2.3l2.5,5.1c0.3,0.7,1,1.1,1.8,1.1c0.8,0,1.5-0.4,1.8-1.1l1-2l1,2c0.3,0.7,1,1.1,1.8,1.1
		c0.8,0,1.5-0.4,1.8-1.1l2.5-5.1c0.4-0.9,0.1-1.9-0.8-2.3C22,18.1,20.9,18.5,20.5,19.4z"/>
	<path d="M38.3,18.6c-0.9-0.4-1.9-0.1-2.3,0.8l-1.2,2.4l-1-2c-0.3-0.7-1-1.1-1.8-1.1c-0.8,0-1.5,0.4-1.8,1.1l-1,2L28,19.4
		c-0.4-0.9-1.5-1.2-2.3-0.8c-0.9,0.4-1.2,1.5-0.8,2.3l2.5,5.1c0.3,0.7,1,1.1,1.8,1.1c0.8,0,1.5-0.4,1.8-1.1l1-2l1,2
		c0.3,0.7,1,1.1,1.8,1.1c0,0,0,0,0,0c0.8,0,1.5-0.4,1.8-1.1l2.5-5.1C39.6,20.1,39.2,19,38.3,18.6z"/>
	<path d="M46.5,26l1-2l1,2c0.3,0.7,1,1.1,1.8,1.1s1.5-0.4,1.8-1.1l2.5-5.1c0.4-0.9,0.1-1.9-0.8-2.3c-0.9-0.4-1.9-0.1-2.3,0.8
		l-1.2,2.4l-1-2c-0.3-0.7-1-1.1-1.8-1.1c-0.8,0-1.5,0.4-1.8,1.1l-1,2l-1.2-2.4c-0.4-0.9-1.5-1.2-2.3-0.8c-0.9,0.4-1.2,1.5-0.8,2.3
		l2.5,5.1c0.3,0.7,1,1.1,1.8,1.1C45.5,27.2,46.2,26.7,46.5,26z"/>
	<path d="M58.4,7.8H5.6c-2.4,0-4.3,2-4.3,4.4v21.2c0,2.4,1.9,4.4,4.3,4.4h31.7c1,0,1.8-0.8,1.8-1.8s-0.8-1.8-1.8-1.8H5.6
		c-0.4,0-0.8-0.4-0.8-0.9V12.2c0-0.5,0.4-0.9,0.8-0.9h52.9c0.4,0,0.8,0.4,0.8,0.9v21.2c0,0.5-0.4,0.9-0.9,0.9c-1,0-1.8,0.8-1.8,1.8
		s0.8,1.8,1.8,1.8c2.4,0,4.4-2,4.4-4.4V12.2C62.8,9.8,60.8,7.8,58.4,7.8z"/>
	<path d="M61.1,44.3L47,37.2c-1-0.5-2.1-0.4-2.9,0.4c-0.7,0.7-0.9,1.9-0.4,2.9l7.1,14.1c0.5,1,1.5,1.6,2.5,1.6c0,0,0,0,0.1,0
		c0.9,0,1.7-0.6,2.1-1.4l1.8-4.1l4.1-1.8c0.8-0.4,1.4-1.2,1.4-2.1C62.7,45.8,62.1,44.8,61.1,44.3z M54.6,48.1l-1.5,3.3l-4.8-9.6
		l9.6,4.8L54.6,48.1z"/>
</g>
</svg>
