<?xml version="1.0" encoding="utf-8"?>
<!-- Generator: Adobe Illustrator 22.0.1, SVG Export Plug-In . SVG Version: 6.00 Build 0)  -->
<svg version="1.1" id="lni_lni-website-alt" xmlns="http://www.w3.org/2000/svg" xmlns:xlink="http://www.w3.org/1999/xlink"
	 x="0px" y="0px" viewBox="0 0 64 64" style="enable-background:new 0 0 64 64;" xml:space="preserve">
<g>
	<path d="M19.3,27.9c-0.8-0.5-1.9-0.3-2.4,0.5l-2.4,3.5l-2-3c-0.4-0.6-1.1-0.9-1.8-0.9c0,0,0,0,0,0c-0.7,0-1.4,0.3-1.8,0.9l-2,3
		l-2.4-3.5c-0.5-0.8-1.6-1-2.4-0.5s-1,1.6-0.5,2.4L5,35.5c0.4,0.6,1.1,0.9,1.8,0.9c0.7,0,1.4-0.3,1.8-0.9l2-3l2,3
		c0.4,0.6,1.1,0.9,1.8,0.9s1.4-0.3,1.8-0.9l3.5-5.2C20.3,29.5,20.1,28.4,19.3,27.9z"/>
	<path d="M40.6,27.9c-0.8-0.5-1.9-0.3-2.4,0.5l-2.4,3.5l-2-3c-0.4-0.6-1.1-0.9-1.8-0.9c-0.7,0-1.4,0.3-1.8,0.9l-2,3l-2.4-3.5
		c-0.5-0.8-1.6-1-2.4-0.5s-1,1.6-0.5,2.4l3.5,5.2c0.4,0.6,1.1,0.9,1.8,0.9c0.7,0,1.4-0.3,1.8-0.9l2-3l2,3c0.4,0.6,1.1,0.9,1.8,0.9
		c0.7,0,1.4-0.3,1.8-0.9l3.5-5.2C41.7,29.5,41.4,28.4,40.6,27.9z"/>
	<path d="M62,27.9c-0.8-0.5-1.9-0.3-2.4,0.5l-2.4,3.5l-2-3c-0.4-0.6-1.1-0.9-1.8-0.9c-0.7,0-1.4,0.3-1.8,0.9l-2,3l-2.4-3.5
		c-0.5-0.8-1.6-1-2.4-0.5c-0.8,0.5-1,1.6-0.5,2.4l3.5,5.2c0.4,0.6,1.1,0.9,1.8,0.9c0.7,0,1.4-0.3,1.8-0.9l2-3l2,3
		c0.4,0.6,1.1,0.9,1.8,0.9c0.7,0,1.4-0.3,1.8-0.9l3.5-5.2C63,29.5,62.8,28.4,62,27.9z"/>
</g>
</svg>
