<?xml version="1.0" encoding="utf-8"?>
<!-- Generator: Adobe Illustrator 22.0.1, SVG Export Plug-In . SVG Version: 6.00 Build 0)  -->
<svg version="1.1" id="lni_lni-zip" xmlns="http://www.w3.org/2000/svg" xmlns:xlink="http://www.w3.org/1999/xlink" x="0px"
	 y="0px" viewBox="0 0 64 64" style="enable-background:new 0 0 64 64;" xml:space="preserve">
<path d="M57.1,10.9H51V8.6c0-4-3.3-7.3-7.3-7.3H10c-4,0-7.3,3.3-7.3,7.3v31.8c0,1.2,0.5,2.5,1.4,3.3l19,17.8
	c0.8,0.8,1.9,1.2,3.1,1.2h17.4c4,0,7.3-3.3,7.3-7.3V34.6h6.2c1.5,0,2.6-1.2,2.6-2.6V13.5C59.8,12.1,58.6,10.9,57.1,10.9z M7.8,42.4
	h14.9c0.7,0,1.3,0.6,1.3,1.3v13.9L7.8,42.4z M47.5,55.4c0,2.1-1.7,3.8-3.8,3.8H27V43.6c0-2.4-1.9-4.3-4.3-4.3H6.2V8.6
	c0-2.1,1.7-3.8,3.8-3.8h33.6c2.1,0,3.8,1.7,3.8,3.8v2.3H17.6c-1.5,0-2.6,1.2-2.6,2.6V32c0,1.5,1.2,2.6,2.6,2.6h29.9V55.4z
	 M38.7,18.8v7.9c0,1.5-1.2,2.6-2.6,2.6s-2.6-1.2-2.6-2.6v-7.9c0-1.5,1.2-2.6,2.6-2.6S38.7,17.4,38.7,18.8z M30.8,26.7
	c0,1.5-1.2,2.6-2.6,2.6h-4.4c-1,0-1.8-0.5-2.3-1.3c-0.5-0.8-0.4-1.9,0.1-2.7l2.4-3.9h-1c-1.5,0-2.6-1.2-2.6-2.6s1.2-2.6,2.6-2.6h5.7
	c1,0,1.8,0.5,2.3,1.3c0.5,0.8,0.4,1.9-0.1,2.7l-2.4,3.9C29.7,24.2,30.8,25.4,30.8,26.7z M49.2,26.7h-2.6c0,1.5-1.2,2.6-2.6,2.6
	s-2.6-1.2-2.6-2.6v-2.6v-5.3c0-1.5,1.2-2.6,2.6-2.6h5.3c2.9,0,5.3,2.4,5.3,5.3C54.5,24.4,52.1,26.7,49.2,26.7z"/>
</svg>
