<?xml version="1.0" encoding="utf-8"?>
<!-- Generator: Adobe Illustrator 22.0.1, SVG Export Plug-In . SVG Version: 6.00 Build 0)  -->
<svg version="1.1" id="lni_lni-zoom-out" xmlns="http://www.w3.org/2000/svg" xmlns:xlink="http://www.w3.org/1999/xlink" x="0px"
	 y="0px" viewBox="0 0 64 64" style="enable-background:new 0 0 64 64;" xml:space="preserve">
<g>
	<path d="M62,52.6L45.7,36.2c-1-1-2.7-1-3.7,0l-1.6,1.6l-3.6-3.6c3-3.6,4.7-8.1,4.7-12.9c0-5.4-2.1-10.4-5.9-14.2
		c-3.8-3.8-8.8-5.9-14.2-5.9S10.9,3.3,7.1,7.1c-3.8,3.8-5.9,8.8-5.9,14.2s2.1,10.4,5.9,14.2c3.8,3.8,8.8,5.9,14.2,5.9
		c4.8,0,9.3-1.7,12.9-4.7l3.6,3.6L36.2,42c-1,1-1,2.7,0,3.7L52.6,62c0.5,0.5,1.2,0.8,1.8,0.8c0.7,0,1.3-0.3,1.8-0.8l5.8-5.8
		C63.1,55.3,63.1,53.6,62,52.6z M21.3,37.9c-4.4,0-8.6-1.7-11.7-4.9c-3.1-3.1-4.9-7.3-4.9-11.7s1.7-8.6,4.9-11.7s7.3-4.9,11.7-4.9
		s8.6,1.7,11.7,4.9c3.1,3.1,4.9,7.3,4.9,11.7s-1.7,8.6-4.9,11.7C29.9,36.2,25.7,37.9,21.3,37.9z M54.5,58.9L39.3,43.8l4.5-4.5
		l15.1,15.1L54.5,58.9z"/>
	<path d="M26.6,19.6H16.1c-1,0-1.8,0.8-1.8,1.8s0.8,1.8,1.8,1.8h10.5c1,0,1.8-0.8,1.8-1.8S27.5,19.6,26.6,19.6z"/>
</g>
</svg>
