<?xml version="1.0" encoding="utf-8"?>
<!-- Generator: Adobe Illustrator 22.0.1, SVG Export Plug-In . SVG Version: 6.00 Build 0)  -->
<svg version="1.1" id="lni_lni-zoom-in" xmlns="http://www.w3.org/2000/svg" xmlns:xlink="http://www.w3.org/1999/xlink" x="0px"
	 y="0px" viewBox="0 0 64 64" style="enable-background:new 0 0 64 64;" xml:space="preserve">
<g>
	<path d="M61.5,52.1L47,37.5c-1.5-1.5-4.2-1.5-5.7,0l-0.7,0.7L37,34.5c6.7-8,6.3-19.9-1.2-27.3C32,3.4,26.9,1.3,21.5,1.3
		C16.1,1.3,11,3.4,7.2,7.2c-7.9,7.9-7.9,20.8,0,28.6c3.8,3.8,8.9,5.9,14.3,5.9c4.8,0,9.4-1.7,13-4.8l3.7,3.7l-0.7,0.7
		c-1.6,1.6-1.6,4.1,0,5.7l14.5,14.5c0.8,0.8,1.8,1.2,2.8,1.2c1.1,0,2.1-0.4,2.8-1.2l3.8-3.8C63.1,56.2,63.1,53.7,61.5,52.1z
		 M21.5,38.3c-4.5,0-8.7-1.7-11.8-4.9c-6.5-6.5-6.5-17.2,0-23.7c3.2-3.2,7.4-4.9,11.8-4.9c4.5,0,8.7,1.7,11.8,4.9
		c6.5,6.5,6.5,17.2,0,23.7C30.2,36.5,26,38.3,21.5,38.3z M59.1,55.3l-3.8,3.8c-0.2,0.2-0.5,0.2-0.7,0L40,44.6
		c-0.2-0.2-0.2-0.5,0-0.7l3.8-3.8c0.1-0.1,0.3-0.1,0.4-0.1s0.2,0,0.4,0.1l14.5,14.5C59.3,54.8,59.3,55.1,59.1,55.3z"/>
	<path d="M26.8,19.8h-3.5v-3.5c0-1-0.8-1.8-1.8-1.8s-1.8,0.8-1.8,1.8v3.5h-3.5c-1,0-1.8,0.8-1.8,1.8s0.8,1.8,1.8,1.8h3.5v3.5
		c0,1,0.8,1.8,1.8,1.8s1.8-0.8,1.8-1.8v-3.5h3.5c1,0,1.8-0.8,1.8-1.8S27.8,19.8,26.8,19.8z"/>
</g>
</svg>
