<?xml version="1.0" encoding="utf-8"?>
<!-- Generator: Adobe Illustrator 22.0.1, SVG Export Plug-In . SVG Version: 6.00 Build 0)  -->
<svg version="1.1" id="lni_lni-anchor" xmlns="http://www.w3.org/2000/svg" xmlns:xlink="http://www.w3.org/1999/xlink" x="0px"
	 y="0px" viewBox="0 0 64 64" style="enable-background:new 0 0 64 64;" xml:space="preserve">
<path d="M54.3,46.3l-4.8-3.8c-1-0.8-2.5-0.8-3.6,0l-4.7,3.7c-0.8,0.6-0.9,1.7-0.3,2.5c0.6,0.8,1.7,0.9,2.5,0.3l2.5-2
	c-0.4,6.3-5.7,11.4-12.3,12.2l0-33.9h6.3c1,0,1.8-0.8,1.8-1.8s-0.8-1.8-1.8-1.8h-6.3l0-4.8c3.5-0.8,6.2-4,6.2-7.7
	c0-4.4-3.6-7.9-7.9-7.9s-7.9,3.6-7.9,7.9c0,3.8,2.6,6.9,6.2,7.7l0,4.8h-6.3c-1,0-1.8,0.8-1.8,1.8s0.8,1.8,1.8,1.8h6.3l0,33.9
	c-6.7-0.8-11.9-5.9-12.3-12.2l2.7,2.2c0.3,0.3,0.7,0.4,1.1,0.4c0.5,0,1-0.2,1.4-0.7c0.6-0.8,0.5-1.9-0.3-2.5l-4.8-3.8
	c-1-0.8-2.5-0.8-3.6,0l-4.7,3.7c-0.8,0.6-0.9,1.7-0.3,2.5c0.6,0.8,1.7,0.9,2.5,0.3l2.4-1.9c0.5,8.7,8.2,15.7,17.6,15.7h0
	c0,0,0,0,0,0c9.4,0,17.1-7,17.6-15.7l2.6,2.1c0.3,0.3,0.7,0.4,1.1,0.4c0.5,0,1-0.2,1.4-0.7C55.2,48,55,46.9,54.3,46.3z M27.4,9.2
	c0-2.5,2-4.4,4.4-4.4c2.5,0,4.4,2,4.4,4.4c0,2.5-2,4.4-4.4,4.4C29.4,13.6,27.4,11.6,27.4,9.2z"/>
</svg>
