<?xml version="1.0" encoding="utf-8"?>
<!-- Generator: Adobe Illustrator 22.0.1, SVG Export Plug-In . SVG Version: 6.00 Build 0)  -->
<svg version="1.1" id="lni_lni-bi-cycle" xmlns="http://www.w3.org/2000/svg" xmlns:xlink="http://www.w3.org/1999/xlink" x="0px"
	 y="0px" viewBox="0 0 64 64" style="enable-background:new 0 0 64 64;" xml:space="preserve">
<g>
	<path d="M12.3,36.9c-6.1,0-11,5-11,11s5,11,11,11s11-5,11-11S18.4,36.9,12.3,36.9z M12.3,55.4c-4.2,0-7.5-3.4-7.5-7.5
		s3.4-7.5,7.5-7.5s7.5,3.4,7.5,7.5S16.4,55.4,12.3,55.4z"/>
	<path d="M51.8,36.9c-6.1,0-11,4.9-11,11c0,6.1,4.9,11,11,11s11-4.9,11-11C62.8,41.8,57.8,36.9,51.8,36.9z M51.8,55.4
		c-4.1,0-7.5-3.4-7.5-7.5s3.4-7.5,7.5-7.5s7.5,3.4,7.5,7.5S55.9,55.4,51.8,55.4z"/>
	<path d="M47.2,30.1c0.6,0.8,1.7,0.9,2.5,0.3c0.8-0.6,0.9-1.7,0.3-2.5l-8.8-11.2L41,16.6c-0.8-0.8-2-1-3.1-0.5l-12,7
		c-0.7,0.4-1.2,1.1-1.3,1.9c-0.1,0.7,0.2,1.5,0.7,2l4,4.6c0.7,0.8,1,1.7,1,2.7v6.9c0,1,0.8,1.8,1.8,1.8c1,0,1.8-0.8,1.8-1.8v-6.9
		c0-1.8-0.7-3.6-1.9-5l-3.2-3.8l10.2-5.9L47.2,30.1z"/>
	<path d="M49.2,16.6c3.2,0,5.8-2.6,5.8-5.8s-2.6-5.8-5.8-5.8c-3.2,0-5.8,2.6-5.8,5.8S46,16.6,49.2,16.6z M49.2,8.6
		c1.2,0,2.3,1,2.3,2.3c0,1.2-1,2.3-2.3,2.3c-1.2,0-2.3-1-2.3-2.3C46.9,9.6,47.9,8.6,49.2,8.6z"/>
</g>
</svg>
