<?xml version="1.0" encoding="utf-8"?>
<!-- Generator: Adobe Illustrator 22.0.1, SVG Export Plug-In . SVG Version: 6.00 Build 0)  -->
<svg version="1.1" id="lni_lni-bridge" xmlns="http://www.w3.org/2000/svg" xmlns:xlink="http://www.w3.org/1999/xlink" x="0px"
	 y="0px" viewBox="0 0 64 64" style="enable-background:new 0 0 64 64;" xml:space="preserve">
<path d="M61,31.6h-7.1C51.1,22.4,42.3,15.7,32,15.7s-19.1,6.7-21.9,15.9H3c-1,0-1.8,0.8-1.8,1.8S2,35.1,3,35.1h6.2v11.5
	c0,1,0.8,1.8,1.8,1.8s1.8-0.8,1.8-1.8v-8.7h0c0-0.9,0.1-1.9,0.2-2.8h38.2c0.1,0.9,0.2,1.8,0.2,2.8h0v8.7c0,1,0.8,1.8,1.8,1.8
	s1.8-0.8,1.8-1.8V35.1H61c1,0,1.8-0.8,1.8-1.8S62,31.6,61,31.6z M30.3,31.6h-7V21.3c2.1-1.1,4.5-1.8,7-2V31.6z M33.8,19.3
	c2.5,0.2,4.9,0.9,7,2v10.3h-7V19.3z M19.7,23.5v8.1h-5.9C15,28.4,17,25.6,19.7,23.5z M44.3,31.6v-8.1c2.7,2.1,4.7,4.9,5.9,8.1H44.3z
	"/>
</svg>
