<?xml version="1.0" encoding="utf-8"?>
<!-- Generator: Adobe Illustrator 22.0.1, SVG Export Plug-In . SVG Version: 6.00 Build 0)  -->
<svg version="1.1" id="lni_lni-bubble" xmlns="http://www.w3.org/2000/svg" xmlns:xlink="http://www.w3.org/1999/xlink" x="0px"
	 y="0px" viewBox="0 0 64 64" style="enable-background:new 0 0 64 64;" xml:space="preserve">
<g>
	<path d="M6.8,56c-1,0-1.9-0.3-2.8-0.8c-1.7-1-2.8-2.8-2.8-4.8V13.6C1.3,10.5,3.7,8,6.8,8h50.4c3.1,0,5.6,2.5,5.6,5.5v29.1
		c0,3.1-2.5,5.5-5.6,5.5H22.5c-0.4,0-0.7,0.1-1,0.3L9.6,55.2C8.7,55.7,7.7,56,6.8,56z M6.8,11.5c-1.1,0-2.1,0.9-2.1,2v36.9
		c0,1,0.7,1.6,1,1.8c0.6,0.4,1.4,0.4,2.1,0l11.9-6.8c0.8-0.5,1.8-0.7,2.8-0.7h34.7c1.1,0,2.1-0.9,2.1-2V13.6c0-1.1-0.9-2-2.1-2H6.8z
		"/>
</g>
</svg>
