<?xml version="1.0" encoding="utf-8"?>
<!-- Generator: Adobe Illustrator 22.0.1, SVG Export Plug-In . SVG Version: 6.00 Build 0)  -->
<svg version="1.1" id="lni_lni-bullhorn" xmlns="http://www.w3.org/2000/svg" xmlns:xlink="http://www.w3.org/1999/xlink" x="0px"
	 y="0px" viewBox="0 0 64 64" style="enable-background:new 0 0 64 64;" xml:space="preserve">
<path d="M56.9,1.3h-8.7c-3.1,0-5.7,2.5-5.7,5.7L16.7,9.5H7.3C4,9.5,1.4,12,1.4,15.2v17.1c0,2.3,1.4,4.3,3.5,5.2l3.6,20.3
	c0.7,3,3.4,5.1,6.6,5.1c2.1,0,4.1-0.9,5.4-2.5c1.1-1.4,1.6-3.2,1.2-4.9l-3-17.1l23.6,4.6v0.3c0,3.2,2.6,5.8,5.8,5.8h8.7
	c3.2,0,5.8-2.6,5.8-5.8V7C62.6,3.8,60,1.3,56.9,1.3z M4.9,15.2C4.9,14,6,13,7.3,13h7.8v21.3H7.3c-1.3,0-2.4-1-2.4-2.1V15.2z
	 M17.8,58c-0.6,0.8-1.6,1.2-2.7,1.2c-1.5,0-2.9-1-3.2-2.3L8.5,37.8h6.6L18.3,56C18.5,57,18.1,57.7,17.8,58z M18.6,34.7V12.9
	l23.8-2.4v28.9L18.6,34.7z M59.1,43.1c0,1.2-1,2.3-2.3,2.3h-8.7c-1.2,0-2.3-1-2.3-2.3V7c0-1.2,1-2.3,2.3-2.3h8.7
	c1.2,0,2.3,1,2.3,2.3V43.1z"/>
</svg>
