<?xml version="1.0" encoding="utf-8"?>
<!-- Generator: Adobe Illustrator 22.0.1, SVG Export Plug-In . SVG Version: 6.00 Build 0)  -->
<svg version="1.1" id="lni_lni-bus" xmlns="http://www.w3.org/2000/svg" xmlns:xlink="http://www.w3.org/1999/xlink" x="0px"
	 y="0px" viewBox="0 0 64 64" style="enable-background:new 0 0 64 64;" xml:space="preserve">
<g>
	<path d="M21.4,34c-3.1,0-5.6,2.5-5.6,5.6c0,3.1,2.5,5.6,5.6,5.6s5.6-2.5,5.6-5.6C27,36.5,24.5,34,21.4,34z M21.4,41.8
		c-1.2,0-2.1-1-2.1-2.1c0-1.2,1-2.1,2.1-2.1s2.1,1,2.1,2.1C23.5,40.8,22.6,41.8,21.4,41.8z"/>
	<path d="M42.6,34c-3.1,0-5.6,2.5-5.6,5.6c0,3.1,2.5,5.6,5.6,5.6c3.1,0,5.6-2.5,5.6-5.6C48.2,36.5,45.7,34,42.6,34z M42.6,41.8
		c-1.2,0-2.1-1-2.1-2.1c0-1.2,1-2.1,2.1-2.1c1.2,0,2.1,1,2.1,2.1C44.7,40.8,43.8,41.8,42.6,41.8z"/>
	<path d="M57.2,3.9h-2.7c-0.6-1.5-2.2-2.6-4-2.6H13.4c-1.8,0-3.3,1.1-4,2.6H6.8c-2,0-3.7,1.5-3.8,3.4l0,4.6c0,1.9,1.7,3.5,3.8,3.5
		h2.4v31.4c0,3,2.3,5.4,5.3,5.5V57c0,3.2,2.6,5.8,5.8,5.8h2.5c3.2,0,5.8-2.6,5.8-5.8v-4.8h7V57c0,3.2,2.6,5.8,5.8,5.8h2.5
		c3.2,0,5.8-2.6,5.8-5.8v-4.8c2.9-0.1,5.3-2.6,5.3-5.5V15.3h2.4c2.1,0,3.8-1.6,3.8-3.5V7.4C61.1,5.4,59.3,3.9,57.2,3.9z M13.4,4.8
		h37.1c0.4,0,0.8,0.4,0.8,0.8v6.3H12.7V5.5C12.7,5.1,13,4.8,13.4,4.8z M51.3,27.6H33.8V15.3h17.6V27.6z M12.7,27.6V15.3h17.6v12.3
		H12.7z M6.8,11.8c-0.2,0-0.3-0.1-0.3-0.1V7.5c0,0,0.1-0.1,0.3-0.1h2.4v4.4H6.8z M25,57c0,1.2-1,2.3-2.3,2.3h-2.5
		c-1.2,0-2.3-1-2.3-2.3v-4.8h7V57z M46.1,57c0,1.2-1,2.3-2.3,2.3h-2.5c-1.2,0-2.3-1-2.3-2.3v-4.8h7V57z M49.3,48.7H35.5h-7H14.7
		c-1.1,0-2.1-0.9-2.1-2.1V31.1h38.7v15.5C51.3,47.8,50.4,48.7,49.3,48.7z M57.6,11.7c-0.1,0-0.2,0.1-0.3,0.1h-2.4V7.4h2.4
		c0.2,0,0.3,0.1,0.3,0.1V11.7z"/>
</g>
</svg>
