<?xml version="1.0" encoding="utf-8"?>
<!-- Generator: Adobe Illustrator 22.0.1, SVG Export Plug-In . SVG Version: 6.00 Build 0)  -->
<svg version="1.1" id="lni_lni-car" xmlns="http://www.w3.org/2000/svg" xmlns:xlink="http://www.w3.org/1999/xlink" x="0px"
	 y="0px" viewBox="0 0 64 64" style="enable-background:new 0 0 64 64;" xml:space="preserve">
<g>
	<path d="M17.1,30.7c-3.7,0-6.7,3-6.7,6.6c0,3.6,3,6.6,6.7,6.6c3.7,0,6.7-3,6.7-6.6C23.8,33.6,20.8,30.7,17.1,30.7z M17.1,40.3
		c-1.8,0-3.2-1.4-3.2-3.1s1.4-3.1,3.2-3.1s3.2,1.4,3.2,3.1S18.9,40.3,17.1,40.3z"/>
	<path d="M46.8,30.5c-3.7,0-6.7,3-6.7,6.6s3,6.6,6.7,6.6s6.7-3,6.7-6.6S50.5,30.5,46.8,30.5z M46.8,40.3c-1.8,0-3.2-1.4-3.2-3.1
		s1.4-3.1,3.2-3.1c1.8,0,3.2,1.4,3.2,3.1S48.6,40.3,46.8,40.3z"/>
	<path d="M34.5,35.4h-5c-1,0-1.8,0.8-1.8,1.8s0.8,1.8,1.8,1.8h5c1,0,1.8-0.8,1.8-1.8S35.4,35.4,34.5,35.4z"/>
	<path d="M58.2,23.4l-1-10.6C56.8,7.3,51.8,3,45.8,3H18.2c-6,0-11,4.3-11.4,9.8l-1,10.6c-2.6,0.6-4.6,2.9-4.6,5.6v16.4
		c0,3.2,2.6,5.8,5.8,5.8h0.9v5.2c0,2.6,2.1,4.8,4.8,4.8h3.9c2.6,0,4.8-2.1,4.8-4.8v-5.2h21.3v5.2c0,2.6,2.1,4.8,4.8,4.8h3.9
		c2.6,0,4.8-2.1,4.8-4.8v-5.2H57c3.2,0,5.8-2.6,5.8-5.8V29C62.8,26.2,60.8,23.9,58.2,23.4z M10.2,13.1c0.3-3.7,3.8-6.6,8-6.6h27.6
		c4.2,0,7.6,2.9,8,6.6l0.9,10.2H9.3L10.2,13.1z M17.9,56.3c0,0.7-0.6,1.3-1.3,1.3h-3.9c-0.7,0-1.3-0.6-1.3-1.3v-5.2h6.4V56.3z
		 M52.6,56.3c0,0.7-0.6,1.3-1.3,1.3h-3.9c-0.7,0-1.3-0.6-1.3-1.3v-5.2h6.4V56.3z M59.3,45.4c0,1.2-1,2.3-2.3,2.3h-0.9H42.6H21.4H7.9
		H7c-1.2,0-2.3-1-2.3-2.3V29c0-1.2,1-2.3,2.3-2.3h50c1.2,0,2.3,1,2.3,2.3V45.4z"/>
</g>
</svg>
