<?xml version="1.0" encoding="utf-8"?>
<!-- Generator: Adobe Illustrator 22.0.1, SVG Export Plug-In . SVG Version: 6.00 Build 0)  -->
<svg version="1.1" id="lni_lni-caravan" xmlns="http://www.w3.org/2000/svg" xmlns:xlink="http://www.w3.org/1999/xlink" x="0px"
	 y="0px" viewBox="0 0 64 64" style="enable-background:new 0 0 64 64;" xml:space="preserve">
<g>
	<path d="M17.8,19.7h-5.9c-1.5,0-2.8,1.2-2.8,2.8v5.9c0,1.5,1.2,2.8,2.8,2.8h5.9c1.5,0,2.8-1.2,2.8-2.8v-5.9
		C20.6,20.9,19.3,19.7,17.8,19.7z M17.1,27.6h-4.4v-4.4h4.4V27.6z"/>
	<path d="M61,40.8h-6.2V26.7c0-0.4-0.1-0.9-0.4-1.3l-7.7-12.4c-0.4-0.7-1.2-1.2-2.1-1.2h-41c-1.3,0-2.4,1.1-2.4,2.4v27.6
		c0,1.3,1.1,2.4,2.4,2.4h2.9c0,0.3-0.1,0.6-0.1,0.9c0,3.9,3.2,7,7,7c3.9,0,7-3.2,7-7c0-0.3,0-0.6-0.1-0.9h34.3v0H61
		c1,0,1.8-0.8,1.8-1.8S62,40.8,61,40.8z M13.5,48.7c-1.9,0-3.5-1.6-3.5-3.5s1.6-3.5,3.5-3.5s3.5,1.6,3.5,3.5S15.5,48.7,13.5,48.7z
		 M13.5,38.2c-2.2,0-4.2,1-5.5,2.6H4.8V15.3h39.4L51.3,27v13.8h-9.7V24.5c0-1.2-1-2.2-2.2-2.2h-7.1c-1.2,0-2.2,1-2.2,2.2v16.3H19
		C17.7,39.2,15.8,38.2,13.5,38.2z M33.8,40.8v-15h4.4v15H33.8z"/>
</g>
</svg>
