<?xml version="1.0" encoding="utf-8"?>
<!-- Generator: Adobe Illustrator 22.0.1, SVG Export Plug-In . SVG Version: 6.00 Build 0)  -->
<svg version="1.1" id="lni_lni-comments" xmlns="http://www.w3.org/2000/svg" xmlns:xlink="http://www.w3.org/1999/xlink" x="0px"
	 y="0px" viewBox="0 0 64 64" style="enable-background:new 0 0 64 64;" xml:space="preserve">
<g>
	<path d="M18.3,22.9c-3.4,0-6.2,2.8-6.2,6.2c0,3.4,2.8,6.2,6.2,6.2s6.2-2.8,6.2-6.2C24.5,25.7,21.7,22.9,18.3,22.9z M18.3,31.8
		c-1.5,0-2.7-1.2-2.7-2.7c0-1.5,1.2-2.7,2.7-2.7s2.7,1.2,2.7,2.7C21,30.6,19.7,31.8,18.3,31.8z"/>
	<path d="M32,22.9c-3.4,0-6.2,2.8-6.2,6.2c0,3.4,2.8,6.2,6.2,6.2s6.2-2.8,6.2-6.2C38.2,25.7,35.4,22.9,32,22.9z M32,31.8
		c-1.5,0-2.7-1.2-2.7-2.7c0-1.5,1.2-2.7,2.7-2.7s2.7,1.2,2.7,2.7C34.7,30.6,33.5,31.8,32,31.8z"/>
	<path d="M45.8,22.9c-3.4,0-6.2,2.8-6.2,6.2c0,3.4,2.8,6.2,6.2,6.2s6.2-2.8,6.2-6.2C52,25.7,49.2,22.9,45.8,22.9z M45.8,31.8
		c-1.5,0-2.7-1.2-2.7-2.7c0-1.5,1.2-2.7,2.7-2.7s2.7,1.2,2.7,2.7C48.5,30.6,47.2,31.8,45.8,31.8z"/>
	<path d="M56.8,10H7.2c-3.3,0-6,2.7-6,6V48c0,2.2,1.1,4.1,3,5.2c0.9,0.5,2,0.8,3,0.8c1,0,2-0.3,3-0.8l8.8-5.1
		c0.4-0.2,0.8-0.3,1.2-0.3h36.5c3.3,0,6-2.7,6-6V16C62.8,12.7,60.1,10,56.8,10z M59.3,41.8c0,1.4-1.1,2.5-2.5,2.5H20.3
		c-1,0-2.1,0.3-3,0.8l-8.8,5.1l0,0c-0.8,0.4-1.7,0.4-2.5,0c-0.8-0.4-1.2-1.2-1.2-2.1V16c0-1.4,1.1-2.5,2.5-2.5h49.6
		c1.4,0,2.5,1.1,2.5,2.5V41.8z"/>
</g>
</svg>
