<?xml version="1.0" encoding="utf-8"?>
<!-- Generator: Adobe Illustrator 22.0.1, SVG Export Plug-In . SVG Version: 6.00 Build 0)  -->
<svg version="1.1" id="lni_lni-comments-reply" xmlns="http://www.w3.org/2000/svg" xmlns:xlink="http://www.w3.org/1999/xlink"
	 x="0px" y="0px" viewBox="0 0 64 64" style="enable-background:new 0 0 64 64;" xml:space="preserve">
<g>
	<path d="M56.9,7.5H7.1c-3.2,0-5.9,2.6-5.9,5.9V49c0,2.2,1.2,4.2,3.1,5.2c0.9,0.5,1.8,0.7,2.8,0.7c1.1,0,2.3-0.3,3.3-1l8.9-6h3.6
		c1,0,1.8-0.8,1.8-1.8s-0.8-1.8-1.8-1.8h-4.1c-0.3,0-0.7,0.1-1,0.3l-9.3,6.2c-0.7,0.5-1.6,0.5-2.4,0.1c-0.8-0.4-1.3-1.2-1.3-2.1
		V13.3C4.8,12,5.8,11,7.1,11h49.8c1.3,0,2.4,1.1,2.4,2.4v32.8c0,1,0.8,1.8,1.8,1.8s1.8-0.8,1.8-1.8V13.3
		C62.8,10.1,60.1,7.5,56.9,7.5z"/>
	<path d="M53.4,44.5c-2.5-2.4-5.6-4.1-9.2-4.7v-2.8c0-1.1-0.6-2.1-1.6-2.6c-1-0.5-2.2-0.4-3.1,0.4L29.1,43c-0.7,0.6-1.1,1.4-1.1,2.3
		s0.4,1.7,1.1,2.3l10.4,8.4c0.5,0.4,1.2,0.6,1.8,0.6c0.4,0,0.9-0.1,1.3-0.3c1-0.5,1.6-1.5,1.6-2.6v-2c2.4,0.5,5.3,1.7,8.2,3.5
		c0.9,0.6,2.1,0.6,3,0c0.9-0.5,1.5-1.6,1.4-2.6c0-0.8-0.1-1.4-0.2-1.8C56.1,48.2,55.2,46.3,53.4,44.5z M44.2,48.1
		c-0.9-0.1-1.8,0.1-2.5,0.7c-0.7,0.6-1.1,1.4-1.1,2.3v1.3l-8.9-7.1l8.9-7.1v1.9c0,1.5,1.1,2.7,2.6,3c3,0.5,5.6,1.8,7.6,3.8
		c1.3,1.4,1.9,2.6,2.3,4.5c0,0,0,0.1,0,0.2C50.8,50.2,47.5,48.7,44.2,48.1z"/>
	<path d="M10.3,24.6c0,3.2,2.6,5.9,5.9,5.9c3.2,0,5.9-2.6,5.9-5.9c0-3.2-2.6-5.9-5.9-5.9C12.9,18.7,10.3,21.4,10.3,24.6z M18.5,24.6
		c0,1.3-1.1,2.4-2.4,2.4s-2.4-1.1-2.4-2.4s1.1-2.4,2.4-2.4S18.5,23.3,18.5,24.6z"/>
	<path d="M37.9,24.6c0-3.2-2.6-5.9-5.9-5.9s-5.9,2.6-5.9,5.9c0,3.2,2.6,5.9,5.9,5.9S37.9,27.8,37.9,24.6z M29.6,24.6
		c0-1.3,1.1-2.4,2.4-2.4c1.3,0,2.4,1.1,2.4,2.4S33.3,27,32,27C30.7,27,29.6,25.9,29.6,24.6z"/>
	<path d="M47.8,30.5c3.2,0,5.9-2.6,5.9-5.9c0-3.2-2.6-5.9-5.9-5.9S42,21.4,42,24.6C42,27.8,44.6,30.5,47.8,30.5z M47.8,22.2
		c1.3,0,2.4,1.1,2.4,2.4S49.1,27,47.8,27s-2.4-1.1-2.4-2.4S46.5,22.2,47.8,22.2z"/>
</g>
</svg>
