<?xml version="1.0" encoding="utf-8"?>
<!-- Generator: Adobe Illustrator 22.0.1, SVG Export Plug-In . SVG Version: 6.00 Build 0)  -->
<svg version="1.1" id="lni_lni-comments-alt" xmlns="http://www.w3.org/2000/svg" xmlns:xlink="http://www.w3.org/1999/xlink"
	 x="0px" y="0px" viewBox="0 0 64 64" style="enable-background:new 0 0 64 64;" xml:space="preserve">
<g>
	<path d="M56.8,10H7.2c-3.3,0-6,2.7-6,6V48c0,2.2,1.1,4.1,3,5.2c0.9,0.5,2,0.8,3,0.8c1,0,2-0.3,3-0.8l8.8-5.1
		c0.4-0.2,0.8-0.3,1.2-0.3h36.5c3.3,0,6-2.7,6-6V16C62.8,12.7,60.1,10,56.8,10z M59.3,41.8c0,1.4-1.1,2.5-2.5,2.5H20.3
		c-1,0-2.1,0.3-3,0.8l-8.8,5.1l0,0c-0.8,0.4-1.7,0.4-2.5,0c-0.8-0.4-1.2-1.2-1.2-2.1V16c0-1.4,1.1-2.5,2.5-2.5h49.6
		c1.4,0,2.5,1.1,2.5,2.5V41.8z"/>
	<path d="M44.7,22H17.9c-1,0-1.8,0.8-1.8,1.8s0.8,1.8,1.8,1.8h26.9c1,0,1.8-0.8,1.8-1.8S45.7,22,44.7,22z"/>
	<path d="M40.5,33.3H17.9c-1,0-1.8,0.8-1.8,1.8s0.8,1.8,1.8,1.8h22.7c1,0,1.8-0.8,1.8-1.8S41.5,33.3,40.5,33.3z"/>
</g>
</svg>
