<?xml version="1.0" encoding="utf-8"?>
<!-- Generator: Adobe Illustrator 22.0.1, SVG Export Plug-In . SVG Version: 6.00 Build 0)  -->
<svg version="1.1" id="lni_lni-helicopter" xmlns="http://www.w3.org/2000/svg" xmlns:xlink="http://www.w3.org/1999/xlink" x="0px"
	 y="0px" viewBox="0 0 64 64" style="enable-background:new 0 0 64 64;" xml:space="preserve">
<path d="M61,22.3c-1,0-1.8,0.8-1.8,1.8V25H36.4v-2.7c0-1.4-1.2-2.6-2.6-2.6H23.1v-7h14c1,0,1.8-0.8,1.8-1.8S38,9.2,37.1,9.2H5.6
	c-1,0-1.8,0.8-1.8,1.8s0.8,1.8,1.8,1.8h14v7H9c-4.3,0-7.7,3.5-7.7,7.7v14.3c0,1.4,1.2,2.6,2.6,2.6h5.3v7H6c-0.3,0-0.6-0.2-0.6-0.3
	c0-1-0.8-1.8-1.8-1.8S2,50,2,51c0,2.1,1.8,3.8,4.1,3.8h26c1,0,1.8-0.8,1.8-1.8S33,51.3,32,51.3h-6.2v-7h8c1.4,0,2.6-1.2,2.6-2.6
	v-2.6l22.9-2.5v0.7c0,1,0.8,1.8,1.8,1.8s1.8-0.8,1.8-1.8V24.1C62.8,23.1,62,22.3,61,22.3z M22.3,51.3h-9.7v-7h9.7V51.3z M32.9,40.8
	H4.8V27.4c0-2.3,1.9-4.2,4.2-4.2h23.9V40.8z M36.4,35.6v-7.1h22.9v4.6L36.4,35.6z"/>
</svg>
