<?xml version="1.0" encoding="utf-8"?>
<!-- Generator: Adobe Illustrator 22.0.1, SVG Export Plug-In . SVG Version: 6.00 Build 0)  -->
<svg version="1.1" id="lni_lni-inbox" xmlns="http://www.w3.org/2000/svg" xmlns:xlink="http://www.w3.org/1999/xlink" x="0px"
	 y="0px" viewBox="0 0 64 64" style="enable-background:new 0 0 64 64;" xml:space="preserve">
<g>
	<path d="M61,30.3c-1,0-1.8,0.8-1.8,1.8v19.5c0,4.4-3.2,7.8-7.3,7.8H12.1c-4.1,0-7.3-3.4-7.3-7.8V32c0-1-0.8-1.8-1.8-1.8
		S1.3,31,1.3,32v19.5c0,6.2,4.9,11.3,10.8,11.3h39.8c6,0,10.8-5.1,10.8-11.3V32C62.8,31,62,30.3,61,30.3z"/>
	<path d="M28.7,41.7c0.9,0.9,2.1,1.3,3.3,1.3c1.2,0,2.3-0.4,3.2-1.3l8.6-8.5c0.7-0.7,0.7-1.8,0-2.5c-0.7-0.7-1.8-0.7-2.5,0l-7.5,7.5
		V3c0-1-0.8-1.8-1.8-1.8S30.3,2,30.3,3v35.3l-7.6-7.6c-0.7-0.7-1.8-0.7-2.5,0c-0.7,0.7-0.7,1.8,0,2.5L28.7,41.7z"/>
</g>
</svg>
