<?xml version="1.0" encoding="utf-8"?>
<!-- Generator: Adobe Illustrator 22.0.1, SVG Export Plug-In . SVG Version: 6.00 Build 0)  -->
<svg version="1.1" id="lni_lni-phone-set" xmlns="http://www.w3.org/2000/svg" xmlns:xlink="http://www.w3.org/1999/xlink" x="0px"
	 y="0px" viewBox="0 0 64 64" style="enable-background:new 0 0 64 64;" xml:space="preserve">
<g>
	<path d="M57.7,36.9c-0.2-2.3-2.1-3.9-4.4-3.9H10.7c-2.3,0-4.1,1.7-4.4,3.9L4.2,57.9c-0.1,1.2,0.3,2.5,1.1,3.4
		c0.8,0.9,2,1.4,3.3,1.4h46.9c1.2,0,2.4-0.5,3.3-1.4c0.8-0.9,1.2-2.1,1.1-3.4L57.7,36.9z M56.1,59c-0.1,0.1-0.3,0.3-0.7,0.3H8.6
		c-0.3,0-0.6-0.2-0.7-0.3c-0.1-0.1-0.3-0.3-0.2-0.7l2.1-21.1c0-0.5,0.4-0.8,0.9-0.8h42.7c0.5,0,0.8,0.3,0.9,0.8l2.1,21.1
		C56.3,58.6,56.2,58.9,56.1,59z"/>
	<path d="M32,40.8c-3.9,0-7,3.1-7,7s3.1,7,7,7s7-3.1,7-7S35.9,40.8,32,40.8z M32,51.3c-1.9,0-3.5-1.6-3.5-3.5s1.6-3.5,3.5-3.5
		s3.5,1.6,3.5,3.5S33.9,51.3,32,51.3z"/>
	<path d="M6.6,19.6c0.2,4.4,4.1,6.2,6.1,6.2c0,0,0,0,0,0l7,0c0.1,0,0.1,0,0.1,0c3-0.2,6-2.2,6-6.2l0-2.4c3.3,0,10.9,0,14.2,0l0,2.4
		c0,4,3,6,6,6.2c0,0,0.1,0,0.1,0c0,0,0,0,0,0l6.9,0c0,0,0,0,0,0c2,0,5.9-1.8,6.1-6.2c0-0.3,0-1.4,0-2.4c0-0.8,0-1.5,0-1.6
		c0-0.1,0-0.2,0-0.2c-0.3-2.8-1.3-5.1-3-6.9c0,0-0.1-0.1-0.1-0.1c-2.5-2.3-5.5-3.6-7.8-4.4c-6.7-2.6-15.1-2.6-15.5-2.6c0,0,0,0,0,0
		c-5.9,0.1-9.7,0.6-15.4,2.6C15.1,4.7,12.1,6,9.6,8.3c0,0-0.1,0.1-0.1,0.1c-1.7,1.8-2.7,4.1-3,6.9c0,0.1,0,0.2,0,0.2
		c0,0.2,0,0.8,0,1.6C6.6,18,6.6,19.2,6.6,19.6z M12,10.8c2-1.8,4.5-2.9,6.6-3.7c5.2-1.9,8.6-2.3,14.3-2.4c0.4,0,8.2,0.1,14.2,2.4
		c2.1,0.8,4.6,1.8,6.6,3.7c1.1,1.2,1.8,2.8,2,4.7c0,0.3,0,0.8,0,1.6c0,1,0,2.1,0,2.4c-0.1,2.3-2.3,2.8-2.6,2.8h0l-6.9,0
		c-1-0.1-2.6-0.5-2.6-2.7l0-4.1c0-0.8-0.5-1.4-1.2-1.7c-0.6-0.2-18.1-0.2-18.7,0c-0.7,0.2-1.2,0.9-1.2,1.7l0,4.1
		c0,2.2-1.6,2.6-2.6,2.7l-6.9,0c0,0,0,0,0,0c-0.3,0-2.5-0.5-2.6-2.8c0-0.3,0-1.4,0-2.4c0-0.8,0-1.2,0-1.5C10.2,13.6,10.9,12,12,10.8
		z"/>
</g>
</svg>
