<?xml version="1.0" encoding="utf-8"?>
<!-- Generator: Adobe Illustrator 22.0.1, SVG Export Plug-In . SVG Version: 6.00 Build 0)  -->
<svg version="1.1" id="lni_lni-phone" xmlns="http://www.w3.org/2000/svg" xmlns:xlink="http://www.w3.org/1999/xlink" x="0px"
	 y="0px" viewBox="0 0 64 64" style="enable-background:new 0 0 64 64;" xml:space="preserve">
<g>
	<path d="M49.1,61.3c-8.2,0-20-5.9-30.8-16.2C3.6,31.1-2.7,15.5,3.7,8.7C4,8.4,4.3,8.2,4.7,8l8.4-4.7c1.9-1,4.3-0.5,5.5,1.2l6.1,8.7
		c0.6,0.9,0.9,2,0.7,3c-0.2,1.1-0.8,2-1.7,2.6L20,21.2c-0.2,0.1-0.2,0.2-0.2,0.3c0,0.1,0,0.2,0.1,0.3c2.7,4,10.4,14.2,22.6,21.5
		c0.3,0.2,0.8,0.1,1-0.1l2.6-3.5c1.3-1.8,3.8-2.2,5.7-1l9.1,5.8c1.9,1.2,2.5,3.6,1.3,5.5l-5,8c0,0,0,0,0,0c-0.2,0.4-0.5,0.7-0.8,0.9
		C54.5,60.6,52,61.3,49.1,61.3z M15.2,6.2c-0.1,0-0.2,0-0.4,0.1L6.4,11c-0.1,0.1-0.1,0.1-0.2,0.1C2,15.6,6.8,29.3,20.8,42.6
		c14,13.3,28.5,17.9,33.3,13.8c0,0,0,0,0.1-0.1l5-8c0.1-0.2,0.1-0.5-0.2-0.7l-9.1-5.8c-0.3-0.2-0.8-0.1-1,0.1l-2.6,3.5
		c-1.3,1.7-3.7,2.2-5.6,1.1C27.8,38.8,19.8,28.1,17,23.8c-0.6-0.9-0.8-1.9-0.6-3c0.2-1,0.8-2,1.7-2.5l3.7-2.5
		c0.2-0.1,0.2-0.2,0.2-0.3c0-0.1,0-0.2-0.1-0.4l-6.1-8.7C15.7,6.3,15.4,6.2,15.2,6.2z M55.7,57.1L55.7,57.1L55.7,57.1z"/>
</g>
</svg>
