<?xml version="1.0" encoding="utf-8"?>
<!-- Generator: Adobe Illustrator 22.0.1, SVG Export Plug-In . SVG Version: 6.00 Build 0)  -->
<svg version="1.1" id="lni_lni-phone" xmlns="http://www.w3.org/2000/svg" xmlns:xlink="http://www.w3.org/1999/xlink" x="0px"
	 y="0px" viewBox="0 0 64 64" style="enable-background:new 0 0 64 64;" xml:space="preserve">
<g>
	<path d="M37.2,62.8c-0.8,0-1.5-0.3-2.1-0.9l-5.4-5.4c-1-1-1.1-2.5-0.4-3.7l4.4-7.1L25.8,38L13.3,53.3c-0.5,0.7-1.3,1.1-2.2,1.1
		c-0.8,0-1.7-0.3-2.2-0.9l-6.7-6.7c-1-1-1.1-2.6-0.4-3.8l11.6-17.4L8.6,21c-3.4-3.4-3.3-8.9,0.1-12.3C10.3,7,12.5,6.1,14.8,6
		C17.2,6,19.4,6.9,21,8.5l4.7,4.8L43,1.8c1.2-0.8,2.8-0.6,3.8,0.4l6.7,6.7c0.6,0.6,0.9,1.4,0.9,2.2c0,0.8-0.4,1.6-1.1,2.2L38,25.9
		l7.7,7.9l7.1-4.4c1.2-0.7,2.7-0.6,3.7,0.4l5.4,5.4c0.7,0.7,1,1.6,0.8,2.5c-0.1,0.9-0.7,1.8-1.5,2.2l-13.7,7.6l-7.6,13.7
		c-0.5,0.8-1.3,1.4-2.2,1.5C37.5,62.7,37.4,62.8,37.2,62.8z M32.5,54.3l4.6,4.7l7.8-14l14-7.8l-4.6-4.7l-7.1,4.5
		c-1.2,0.8-2.7,0.6-3.7-0.4l-8.4-8.6c-0.6-0.6-0.9-1.4-0.8-2.2c0-0.8,0.5-1.6,1.1-2.2l15.3-12.6l-6-6L27.3,16.5
		c-1.2,0.8-2.8,0.6-3.8-0.4l-5-5.1c-0.9-0.9-2.2-1.5-3.6-1.4c-1.4,0-2.7,0.6-3.7,1.6c-2.1,2.1-2.1,5.4-0.1,7.4l5.1,5
		c1,1,1.2,2.6,0.4,3.8L4.9,44.7l6,6l12.6-15.3c0.5-0.7,1.3-1.1,2.2-1.1c0.8,0,1.7,0.3,2.2,0.8l8.5,8.4c1,1,1.2,2.5,0.4,3.7
		L32.5,54.3z"/>
</g>
</svg>
