<?xml version="1.0" encoding="utf-8"?>
<!-- Generator: Adobe Illustrator 22.0.1, SVG Export Plug-In . SVG Version: 6.00 Build 0)  -->
<svg version="1.1" id="lni_lni-popup" xmlns="http://www.w3.org/2000/svg" xmlns:xlink="http://www.w3.org/1999/xlink" x="0px"
	 y="0px" viewBox="0 0 64 64" style="enable-background:new 0 0 64 64;" xml:space="preserve">
<g>
	<path d="M55.2,4.1H8.8c-4.1,0-7.5,3.4-7.5,7.5v30.7c0,4.1,3.4,7.5,7.5,7.5h13.6c0.1,0,0.1,0,0.2,0l5.9,7.2c0.9,1.1,2.2,1.7,3.6,1.7
		c1.4,0,2.7-0.6,3.6-1.7l5.9-7.2c0,0,0.1,0,0.2,0h13.6c4.1,0,7.5-3.4,7.5-7.5V11.6C62.8,7.5,59.4,4.1,55.2,4.1z M59.3,42.3
		c0,2.2-1.8,4-4,4H41.6c-1,0-1.9,0.4-2.7,1.1c0,0-0.1,0.1-0.1,0.1l-5.9,7.3c-0.3,0.4-0.7,0.4-0.9,0.4c-0.2,0-0.6-0.1-0.9-0.4
		l-5.9-7.3c0,0-0.1-0.1-0.1-0.1c-0.7-0.7-1.7-1.1-2.7-1.1H8.8c-2.2,0-4-1.8-4-4V11.6c0-2.2,1.8-4,4-4h46.5c2.2,0,4,1.8,4,4V42.3z"/>
	<path d="M16.7,18.2h28.5c1,0,1.8-0.8,1.8-1.8s-0.8-1.8-1.8-1.8H16.7c-1,0-1.8,0.8-1.8,1.8S15.7,18.2,16.7,18.2z"/>
	<path d="M16.7,28.7h20.6c1,0,1.8-0.8,1.8-1.8s-0.8-1.8-1.8-1.8H16.7c-1,0-1.8,0.8-1.8,1.8S15.7,28.7,16.7,28.7z"/>
	<path d="M47.8,35.8H16.7c-1,0-1.8,0.8-1.8,1.8s0.8,1.8,1.8,1.8h31.1c1,0,1.8-0.8,1.8-1.8S48.8,35.8,47.8,35.8z"/>
</g>
</svg>
