<?xml version="1.0" encoding="utf-8"?>
<!-- Generator: Adobe Illustrator 22.0.1, SVG Export Plug-In . SVG Version: 6.00 Build 0)  -->
<svg version="1.1" id="lni_lni-postcard" xmlns="http://www.w3.org/2000/svg" xmlns:xlink="http://www.w3.org/1999/xlink" x="0px"
	 y="0px" viewBox="0 0 64 64" style="enable-background:new 0 0 64 64;" xml:space="preserve">
<g>
	<path d="M57,11.8H7c-3.2,0-5.8,2.6-5.8,5.8v29c0,3.2,2.6,5.8,5.8,5.8h50c3.2,0,5.8-2.6,5.8-5.8v-29C62.8,14.3,60.2,11.8,57,11.8z
		 M59.3,46.5c0,1.2-1,2.3-2.3,2.3H7c-1.2,0-2.3-1-2.3-2.3v-29c0-1.2,1-2.3,2.3-2.3h50c1.2,0,2.3,1,2.3,2.3V46.5z"/>
	<path d="M32,21c-1,0-1.8,0.8-1.8,1.8v15.8c0,1,0.8,1.8,1.8,1.8s1.8-0.8,1.8-1.8V22.8C33.8,21.8,33,21,32,21z"/>
	<path d="M10.9,32.4h9.2c1,0,1.8-0.8,1.8-1.8s-0.8-1.8-1.8-1.8h-9.2c-1,0-1.8,0.8-1.8,1.8S9.9,32.4,10.9,32.4z"/>
	<path d="M52.7,21h-9.8c-1.2,0-2.1,1-2.1,2.1v9.8c0,1.2,1,2.1,2.1,2.1h9.8c1.2,0,2.1-1,2.1-2.1v-9.8C54.8,22,53.9,21,52.7,21z
		 M51.3,31.6h-7v-7h7V31.6z"/>
	<path d="M22.7,36.8H10.9c-1,0-1.8,0.8-1.8,1.8s0.8,1.8,1.8,1.8h11.8c1,0,1.8-0.8,1.8-1.8S23.7,36.8,22.7,36.8z"/>
</g>
</svg>
