<?xml version="1.0" encoding="utf-8"?>
<!-- Generator: Adobe Illustrator 22.0.1, SVG Export Plug-In . SVG Version: 6.00 Build 0)  -->
<svg version="1.1" id="lni_lni-road" xmlns="http://www.w3.org/2000/svg" xmlns:xlink="http://www.w3.org/1999/xlink" x="0px"
	 y="0px" viewBox="0 0 64 64" style="enable-background:new 0 0 64 64;" xml:space="preserve">
<g>
	<path d="M62.7,53.7L51.6,8.9c-0.3-1.4-1.6-2.3-3-2.3H15.4c-1.4,0-2.6,1-3,2.3L1.3,53.7c-0.2,0.9,0,1.9,0.6,2.6s1.5,1.2,2.4,1.2
		h55.4c0.9,0,1.8-0.4,2.4-1.2C62.7,55.6,62.9,54.6,62.7,53.7z M32,47.3c-1,0-1.8,0.8-1.8,1.8V54H13L23.4,10h7
		c-0.1,0.2-0.1,0.4-0.1,0.6v4.9c0,1,0.8,1.8,1.8,1.8s1.8-0.8,1.8-1.8v-4.9c0-0.2,0-0.4-0.1-0.6h7L51,54H33.8v-4.9
		C33.8,48.1,33,47.3,32,47.3z M15.7,10h4.1L9.4,54H4.9L15.7,10z M54.6,54L44.2,10h4L59.1,54H54.6z"/>
	<path d="M32,30.1c1,0,1.8-0.8,1.8-1.8v-4.9c0-1-0.8-1.8-1.8-1.8s-1.8,0.8-1.8,1.8v4.9C30.3,29.3,31,30.1,32,30.1z"/>
	<path d="M33.8,36.3c0-1-0.8-1.8-1.8-1.8s-1.8,0.8-1.8,1.8v4.9c0,1,0.8,1.8,1.8,1.8s1.8-0.8,1.8-1.8V36.3z"/>
</g>
</svg>
