<?xml version="1.0" encoding="utf-8"?>
<!-- Generator: Adobe Illustrator 22.0.1, SVG Export Plug-In . SVG Version: 6.00 Build 0)  -->
<svg version="1.1" id="lni_lni-scooter" xmlns="http://www.w3.org/2000/svg" xmlns:xlink="http://www.w3.org/1999/xlink" x="0px"
	 y="0px" viewBox="0 0 64 64" style="enable-background:new 0 0 64 64;" xml:space="preserve">
<path d="M50.5,6.5H38.8c-0.8-3-3.5-5.3-6.8-5.3c-3.3,0-6,2.2-6.8,5.3H13.5c-1,0-1.8,0.8-1.8,1.8s0.8,1.8,1.8,1.8h9.9
	c-3.8,1.8-6.4,5.7-6.4,10.1v21.8c0,4.9,3.3,9.3,7.9,10.7V58c0,2.6,2.1,4.8,4.8,4.8h4.5c2.6,0,4.8-2.1,4.8-4.8v-5.4
	c4.6-1.4,7.9-5.7,7.9-10.7V20.1c0-4.4-2.6-8.3-6.4-10.1h9.9c1,0,1.8-0.8,1.8-1.8S51.4,6.5,50.5,6.5z M32,4.8c1.9,0,3.5,1.6,3.5,3.5
	s-1.6,3.5-3.5,3.5s-3.5-1.6-3.5-3.5S30.1,4.8,32,4.8z M35.5,58c0,0.7-0.6,1.3-1.3,1.3h-4.5c-0.7,0-1.3-0.6-1.3-1.3v-9.8
	c0-0.7,0.6-1.3,1.3-1.3h4.5c0.7,0,1.3,0.6,1.3,1.3V58z M43.4,20.1v21.8c0,3-1.8,5.7-4.4,6.9v-0.7c0-2.6-2.1-4.8-4.8-4.8h-4.5
	c-2.6,0-4.8,2.1-4.8,4.8v0.7c-2.6-1.2-4.4-3.9-4.4-6.9V20.1c0-3.6,2.5-6.7,5.9-7.5c1.3,1.6,3.3,2.6,5.5,2.6c2.2,0,4.2-1,5.5-2.6
	C40.9,13.4,43.4,16.6,43.4,20.1z"/>
</svg>
