<?xml version="1.0" encoding="utf-8"?>
<!-- Generator: Adobe Illustrator 22.0.1, SVG Export Plug-In . SVG Version: 6.00 Build 0)  -->
<svg version="1.1" id="lni_lni-ship" xmlns="http://www.w3.org/2000/svg" xmlns:xlink="http://www.w3.org/1999/xlink" x="0px"
	 y="0px" viewBox="0 0 64 64" style="enable-background:new 0 0 64 64;" xml:space="preserve">
<g>
	<path d="M11.8,43.1v4.8c0,1,0.8,1.8,1.8,1.8s1.8-0.8,1.8-1.8v-5c0-0.1,0-0.3-0.1-0.4l-4.8-19.6L32,18l21.6,4.8l-4.8,19.6
		c0,0.1-0.1,0.3-0.1,0.4v5c0,1,0.8,1.8,1.8,1.8s1.8-0.8,1.8-1.8v-4.8L57.4,22c0.1-0.5,0-0.9-0.2-1.3c-0.2-0.4-0.6-0.7-1.1-0.8
		l-6.5-1.5V8.3c0-3.9-3.1-7-7-7H21.5c-3.9,0-7,3.2-7,7v10.1l-6.5,1.5c-0.5,0.1-0.9,0.4-1.1,0.8C6.5,21,6.5,21.5,6.6,22L11.8,43.1z
		 M17.9,8.3c0-1.9,1.6-3.5,3.5-3.5h21.1c1.9,0,3.5,1.6,3.5,3.5v9.3l-13.7-3.1c-0.3-0.1-0.5-0.1-0.8,0l-13.7,3.1V8.3z"/>
	<path d="M57,54c-2.9,0-4.4,1.9-5.6,3.3c-1,1.3-1.6,2-2.8,2c-1.2,0-1.8-0.7-2.8-2c-1.1-1.4-2.6-3.3-5.6-3.3c-2.9,0-4.4,1.9-5.5,3.3
		c-1,1.3-1.6,2-2.8,2c-1.2,0-1.8-0.7-2.8-2c-1.1-1.4-2.6-3.3-5.5-3.3c-2.9,0-4.4,1.9-5.5,3.3c-1,1.3-1.6,2-2.8,2
		c-1.2,0-1.8-0.7-2.8-2C11.4,55.9,9.9,54,7,54c-1,0-1.8,0.8-1.8,1.8S6,57.5,7,57.5c1.2,0,1.8,0.7,2.8,2c1.1,1.4,2.6,3.3,5.5,3.3
		c2.9,0,4.4-1.9,5.5-3.3c1-1.3,1.6-2,2.8-2c1.2,0,1.8,0.7,2.8,2c1.1,1.4,2.6,3.3,5.5,3.3c2.9,0,4.4-1.9,5.5-3.3c1-1.3,1.6-2,2.8-2
		c1.2,0,1.8,0.7,2.8,2c1.1,1.4,2.6,3.3,5.6,3.3c2.9,0,4.4-1.9,5.6-3.3c1-1.3,1.6-2,2.8-2c1,0,1.8-0.8,1.8-1.8S58,54,57,54z"/>
</g>
</svg>
