<?xml version="1.0" encoding="utf-8"?>
<!-- Generator: Adobe Illustrator 22.0.1, SVG Export Plug-In . SVG Version: 6.00 Build 0)  -->
<svg version="1.1" id="lni_lni-support" xmlns="http://www.w3.org/2000/svg" xmlns:xlink="http://www.w3.org/1999/xlink" x="0px"
	 y="0px" viewBox="0 0 64 64" style="enable-background:new 0 0 64 64;" xml:space="preserve">
<g>
	<path d="M30.6,18.8H13.8c-1,0-1.8,0.8-1.8,1.8s0.8,1.8,1.8,1.8h16.8c1,0,1.8-0.8,1.8-1.8S31.5,18.8,30.6,18.8z"/>
	<path d="M13.8,30.2h7.7c1,0,1.8-0.8,1.8-1.8s-0.8-1.8-1.8-1.8h-7.7c-1,0-1.8,0.8-1.8,1.8S12.8,30.2,13.8,30.2z"/>
	<path d="M26.7,34.6h-13c-1,0-1.8,0.8-1.8,1.8s0.8,1.8,1.8,1.8h13c1,0,1.8-0.8,1.8-1.8S27.7,34.6,26.7,34.6z"/>
	<path d="M48.4,17.3c-2.3-0.3-4.4,0.8-5.5,2.8c-0.5,0.9-0.1,1.9,0.7,2.4c0.9,0.5,1.9,0.1,2.4-0.7c0.4-0.7,1.2-1.1,2-1
		c0.9,0.1,1.6,0.8,1.7,1.6c0.1,0.8-0.3,1.5-1,1.8c-1.5,0.7-2.6,2.5-2.6,4.2v1.3c0,1,0.8,1.8,1.8,1.8s1.8-0.8,1.8-1.8v-1.3
		c0-0.3,0.4-0.9,0.7-1c2-1,3.2-3.1,2.9-5.4C52.9,19.5,50.9,17.6,48.4,17.3z"/>
	<path d="M47.8,34.9c-1.5,0-2.6,1.2-2.6,2.6c0,1.5,1.2,2.6,2.6,2.6c1.5,0,2.6-1.2,2.6-2.6C50.5,36.1,49.3,34.9,47.8,34.9z"/>
	<path d="M55.3,9.4H8.7c-4.1,0-7.4,3.3-7.4,7.4v33.3c0,1.6,0.8,3,2.2,3.8c0.7,0.4,1.4,0.6,2.2,0.6c0.8,0,1.5-0.2,2.2-0.6l11.6-6.7
		c0.1-0.1,0.3-0.1,0.4-0.1h35.5c4.1,0,7.4-3.3,7.4-7.4V16.9C62.8,12.8,59.4,9.4,55.3,9.4z M59.3,39.8c0,2.2-1.8,3.9-3.9,3.9H19.8
		c-0.8,0-1.5,0.2-2.2,0.6L6.1,51c-0.4,0.2-0.8,0.1-0.9,0s-0.4-0.3-0.4-0.8V16.9c0-2.2,1.8-3.9,3.9-3.9h46.6c2.2,0,3.9,1.8,3.9,3.9
		V39.8z"/>
</g>
</svg>
