<?xml version="1.0" encoding="utf-8"?>
<!-- Generator: Adobe Illustrator 22.0.1, SVG Export Plug-In . SVG Version: 6.00 Build 0)  -->
<svg version="1.1" id="lni_lni-taxi" xmlns="http://www.w3.org/2000/svg" xmlns:xlink="http://www.w3.org/1999/xlink" x="0px"
	 y="0px" viewBox="0 0 64 64" style="enable-background:new 0 0 64 64;" xml:space="preserve">
<g>
	<path d="M14.5,41.5h6.5c1,0,1.8-0.8,1.8-1.8S22,38,21.1,38h-6.5c-1,0-1.8,0.8-1.8,1.8S13.6,41.5,14.5,41.5z"/>
	<path d="M41.7,41.5h6.5c1,0,1.8-0.8,1.8-1.8S49.2,38,48.3,38h-6.5c-1,0-1.8,0.8-1.8,1.8S40.8,41.5,41.7,41.5z"/>
	<path d="M61,25.1h-3.7l-5-12.6c-0.6-1.7-2.3-2.9-4.1-2.9h-5.7c0-0.1,0-0.2-0.1-0.3l-1-3.3c-0.6-2-2.4-3.4-4.5-3.4h-9.8
		C25,2.7,23.2,4,22.5,6l-1,3.2c0,0.1,0,0.2-0.1,0.3h-6.5c-1.8,0-3.4,1.1-4.1,2.8L6,25.1H3c-1,0-1.8,0.8-1.8,1.8S2,28.6,3,28.6h1.4
		v17.7c0,2.6,2.1,4.7,4.6,4.7v5.6c0,2.6,2.1,4.8,4.8,4.8h4.3c2.6,0,4.8-2.1,4.8-4.8V51H40v5.6c0,2.6,2.1,4.8,4.8,4.8h4.3
		c2.6,0,4.8-2.1,4.8-4.8V51h1.3c2.6,0,4.8-2.1,4.8-4.8V28.6H61c1,0,1.8-0.8,1.8-1.8S62,25.1,61,25.1z M25.9,7
		c0.2-0.5,0.6-0.9,1.2-0.9h9.8c0.6,0,1,0.4,1.2,0.9l0.8,2.5H25.1L25.9,7z M14.2,13.6c0.1-0.4,0.5-0.6,0.8-0.6h33.2
		c0.4,0,0.7,0.2,0.8,0.6l5.5,14H8.7L14.2,13.6z M19.3,56.6c0,0.7-0.6,1.3-1.3,1.3h-4.3c-0.7,0-1.3-0.6-1.3-1.3V51h6.8V56.6z
		 M50.3,56.6c0,0.7-0.6,1.3-1.3,1.3h-4.3c-0.7,0-1.3-0.6-1.3-1.3V51h6.8V56.6z M56.4,46.3c0,0.7-0.6,1.3-1.3,1.3h-1.3H40H22.8H9.1
		c-0.7,0-1.3-0.6-1.3-1.3V31.1h48.5V46.3z"/>
</g>
</svg>
