<?xml version="1.0" encoding="utf-8"?>
<!-- Generator: Adobe Illustrator 22.0.1, SVG Export Plug-In . SVG Version: 6.00 Build 0)  -->
<svg version="1.1" id="lni_lni-train-alt" xmlns="http://www.w3.org/2000/svg" xmlns:xlink="http://www.w3.org/1999/xlink" x="0px"
	 y="0px" viewBox="0 0 64 64" style="enable-background:new 0 0 64 64;" xml:space="preserve">
<g>
	<path d="M54.2,17.2c-0.8-6.8-6.5-11.8-13.4-11.8h-1.3V4c0-1.5-1.2-2.8-2.8-2.8h-9.6c-1.5,0-2.8,1.2-2.8,2.8v1.3h-1.4
		c-6.8,0-12.5,5.1-13.3,11.8c-0.1,0.5-0.1,1-0.1,1.6v30.8c0,1.7,1.4,3,3,3h4.7l-5,7.5c-0.5,0.8-0.3,1.9,0.5,2.4
		c0.3,0.2,0.6,0.3,1,0.3c0.6,0,1.1-0.3,1.5-0.8l6.2-9.4h21l5.9,9.4c0.3,0.5,0.9,0.8,1.5,0.8c0.3,0,0.6-0.1,0.9-0.3
		c0.8-0.5,1.1-1.6,0.5-2.4l-4.8-7.5h4.6c1.7,0,3-1.4,3-3V18.6C54.3,18.2,54.3,17.7,54.2,17.2z M30.3,19.1v9.4H13.2v-9.4H30.3z
		 M33.8,19.1h17.1v9.4H33.8V19.1z M28,4.8H36v4.6H28V4.8z M23.1,8.8h1.4v1.3c0,1.5,1.2,2.8,2.8,2.8h9.6c1.5,0,2.8-1.2,2.8-2.8V8.8
		h1.3c4.4,0,8.2,2.8,9.5,6.8H13.7C15,11.6,18.7,8.8,23.1,8.8z M13.2,49V32h37.7V49H13.2z"/>
	<path d="M26.3,38.2h-5.6c-1,0-1.8,0.8-1.8,1.8s0.8,1.8,1.8,1.8h5.6c1,0,1.8-0.8,1.8-1.8S27.3,38.2,26.3,38.2z"/>
	<path d="M43.7,38.2h-5.6c-1,0-1.8,0.8-1.8,1.8s0.8,1.8,1.8,1.8h5.6c1,0,1.8-0.8,1.8-1.8S44.7,38.2,43.7,38.2z"/>
</g>
</svg>
