<?xml version="1.0" encoding="utf-8"?>
<!-- Generator: Adobe Illustrator 22.0.1, SVG Export Plug-In . SVG Version: 6.00 Build 0)  -->
<svg version="1.1" id="lni_lni-brush-alt" xmlns="http://www.w3.org/2000/svg" xmlns:xlink="http://www.w3.org/1999/xlink" x="0px"
	 y="0px" viewBox="0 0 64 64" style="enable-background:new 0 0 64 64;" xml:space="preserve">
<path d="M61,5.3c-1.2-1.2-2.8-1.9-4.4-1.9c-1.6,0-3.1,0.6-4.3,1.7L15.1,39.5c-1.2,0-2.5,0.2-4,0.8C9,41.3,8,43,7,44.8
	c-1,1.6-2,3.5-4.5,5.4c-0.9,0.7-1.3,1.7-1.2,2.8S2,55,3,55.6c4,2.1,10.2,5,15.4,5c2,0,3.9-0.4,5.4-1.6c2.3-1.7,3.4-4,3.4-6.6
	c0-0.2,0-0.5,0-0.7l34.1-37.6C63.4,11.6,63.3,7.7,61,5.3z M21.6,56.2C19,58.1,12.7,56.8,5,52.7c2.7-2.2,4-4.4,5-6.1
	c0.9-1.6,1.5-2.5,2.6-3c2.7-1.2,4.9,0,5.2,0.1c2.8,2,5.8,5.6,5.9,8.7C23.6,53.9,22.9,55.2,21.6,56.2z M58.5,11.7L25.8,47.8
	c-1.4-2.8-3.8-5.3-6.1-7l-0.1,0c0,0-0.2-0.1-0.4-0.2L54.7,7.7c1-1,2.8-1,3.8,0.1C59.5,8.8,59.5,10.6,58.5,11.7z"/>
</svg>
