<?xml version="1.0" encoding="utf-8"?>
<!-- Generator: Adobe Illustrator 22.0.1, SVG Export Plug-In . SVG Version: 6.00 Build 0)  -->
<svg version="1.1" id="lni_lni-brush" xmlns="http://www.w3.org/2000/svg" xmlns:xlink="http://www.w3.org/1999/xlink" x="0px"
	 y="0px" viewBox="0 0 64 64" style="enable-background:new 0 0 64 64;" xml:space="preserve">
<g>
	<path d="M60.7,19L45.1,3.4c-2.7-2.7-7.2-2.7-9.9,0L20.1,18.5c-2.4,2.4-3.7,5.6-3.7,9c0,2.8,0.9,5.4,2.6,7.6L3.3,50.7
		c-1.3,1.3-2.1,3-2.1,4.9c0,1.9,0.7,3.7,2.1,5.1l0,0c1.4,1.3,3.2,2,5,2c1.8,0,3.6-0.7,4.9-2L28.9,45c2.3,1.8,5,2.7,7.8,2.7
		c3.2,0,6.5-1.2,9-3.7l15.1-15c1.3-1.3,2.1-3.1,2.1-5S62,20.4,60.7,19z M10.8,58.1c-1.3,1.3-3.6,1.3-5,0c-0.7-0.7-1-1.6-1-2.5
		c0-0.9,0.4-1.8,1-2.4l15.5-15.5l5,5L10.8,58.1z M43.2,41.5c-3.6,3.6-9.4,3.6-13,0l-7.6-7.6c-1.7-1.7-2.7-4-2.7-6.5
		c0-2.5,1-4.8,2.7-6.5l3-3l20.6,20.6L43.2,41.5z M58.2,26.5l-9.6,9.6L28,15.5l9.6-9.6c1.4-1.4,3.6-1.4,5,0l15.6,15.6
		c0.7,0.7,1,1.5,1,2.5S58.9,25.8,58.2,26.5z"/>
	<path d="M27.5,25.7c-1.5,0-2.7,1.2-2.7,2.7c0,1.5,1.2,2.7,2.7,2.7c1.5,0,2.7-1.2,2.7-2.7C30.2,26.9,29,25.7,27.5,25.7z"/>
	<ellipse cx="35.6" cy="36.5" rx="2.7" ry="2.7"/>
</g>
</svg>
