<?xml version="1.0" encoding="utf-8"?>
<!-- Generator: Adobe Illustrator 22.0.1, SVG Export Plug-In . SVG Version: 6.00 Build 0)  -->
<svg version="1.1" id="lni_lni-crop" xmlns="http://www.w3.org/2000/svg" xmlns:xlink="http://www.w3.org/1999/xlink" x="0px"
	 y="0px" viewBox="0 0 64 64" style="enable-background:new 0 0 64 64;" xml:space="preserve">
<path d="M58.2,54h-3.5V9.2l4.5-5.1c0.6-0.7,0.6-1.8-0.1-2.5c-0.7-0.6-1.8-0.6-2.5,0.1l-4.5,5H12.8V3.4c0-1-0.8-1.8-1.8-1.8
	S9.3,2.4,9.3,3.4v3.5H5.8C4.8,6.8,4,7.6,4,8.6s0.8,1.8,1.8,1.8h3.5V54H5.8c-1,0-1.8,0.8-1.8,1.8s0.8,1.8,1.8,1.8h3.5V61
	c0,1,0.8,1.8,1.8,1.8s1.8-0.8,1.8-1.8v-3.5h38.5V61c0,1,0.8,1.8,1.8,1.8s1.8-0.8,1.8-1.8v-3.5h3.5c1,0,1.8-0.8,1.8-1.8
	S59.2,54,58.2,54z M12.8,10.3h36.3L12.8,51.2V10.3z M14.9,54l36.3-40.8V54H14.9z"/>
</svg>
