<?xml version="1.0" encoding="utf-8"?>
<!-- Generator: Adobe Illustrator 22.0.1, SVG Export Plug-In . SVG Version: 6.00 Build 0)  -->
<svg version="1.1" id="lni_lni-grid-alt" xmlns="http://www.w3.org/2000/svg" xmlns:xlink="http://www.w3.org/1999/xlink" x="0px"
	 y="0px" viewBox="0 0 64 64" style="enable-background:new 0 0 64 64;" xml:space="preserve">
<g>
	<g>
		<path d="M19.7,26.2H7c-3.2,0-5.8-2.6-5.8-5.8V7.7c0-3.2,2.6-5.8,5.8-5.8h12.7c3.2,0,5.8,2.6,5.8,5.8v12.7
			C25.5,23.6,22.9,26.2,19.7,26.2z M7,5.4c-1.2,0-2.3,1-2.3,2.3v12.7c0,1.2,1,2.3,2.3,2.3h12.7c1.2,0,2.3-1,2.3-2.3V7.7
			c0-1.2-1-2.3-2.3-2.3H7z"/>
	</g>
	<g>
		<path d="M57,26.2H44.3c-3.2,0-5.8-2.6-5.8-5.8V7.7c0-3.2,2.6-5.8,5.8-5.8H57c3.2,0,5.8,2.6,5.8,5.8v12.7
			C62.8,23.6,60.2,26.2,57,26.2z M44.3,5.4c-1.2,0-2.3,1-2.3,2.3v12.7c0,1.2,1,2.3,2.3,2.3H57c1.2,0,2.3-1,2.3-2.3V7.7
			c0-1.2-1-2.3-2.3-2.3H44.3z"/>
	</g>
	<g>
		<path d="M19.7,62.1H7c-3.2,0-5.8-2.6-5.8-5.8V43.6c0-3.2,2.6-5.8,5.8-5.8h12.7c3.2,0,5.8,2.6,5.8,5.8v12.7
			C25.5,59.5,22.9,62.1,19.7,62.1z M7,41.3c-1.2,0-2.3,1-2.3,2.3v12.7c0,1.2,1,2.3,2.3,2.3h12.7c1.2,0,2.3-1,2.3-2.3V43.6
			c0-1.2-1-2.3-2.3-2.3H7z"/>
	</g>
	<g>
		<path d="M57,62.1H44.3c-3.2,0-5.8-2.6-5.8-5.8V43.6c0-3.2,2.6-5.8,5.8-5.8H57c3.2,0,5.8,2.6,5.8,5.8v12.7
			C62.8,59.5,60.2,62.1,57,62.1z M44.3,41.3c-1.2,0-2.3,1-2.3,2.3v12.7c0,1.2,1,2.3,2.3,2.3H57c1.2,0,2.3-1,2.3-2.3V43.6
			c0-1.2-1-2.3-2.3-2.3H44.3z"/>
	</g>
</g>
</svg>
