<?xml version="1.0" encoding="utf-8"?>
<!-- Generator: Adobe Illustrator 22.0.1, SVG Export Plug-In . SVG Version: 6.00 Build 0)  -->
<svg version="1.1" id="lni_lni-grid" xmlns="http://www.w3.org/2000/svg" xmlns:xlink="http://www.w3.org/1999/xlink" x="0px"
	 y="0px" viewBox="0 0 64 64" style="enable-background:new 0 0 64 64;" xml:space="preserve">
<path d="M61,33.8c1,0,1.8-0.8,1.8-1.8S62,30.3,61,30.3h-7.8V17.6H61c1,0,1.8-0.8,1.8-1.8S62,14.1,61,14.1h-7.8V8.4
	c0-1-0.8-1.8-1.8-1.8s-1.8,0.8-1.8,1.8v5.6H33.8V8.4c0-1-0.8-1.8-1.8-1.8s-1.8,0.8-1.8,1.8v5.6H14.3V8.4c0-1-0.8-1.8-1.8-1.8
	s-1.8,0.8-1.8,1.8v5.6H3c-1,0-1.8,0.8-1.8,1.8S2,17.6,3,17.6h7.8v12.7H3c-1,0-1.8,0.8-1.8,1.8S2,33.8,3,33.8h7.8v12.7H3
	c-1,0-1.8,0.8-1.8,1.8S2,49.9,3,49.9h7.8v5.6c0,1,0.8,1.8,1.8,1.8s1.8-0.8,1.8-1.8v-5.6h15.9v5.6c0,1,0.8,1.8,1.8,1.8
	s1.8-0.8,1.8-1.8v-5.6h15.9v5.6c0,1,0.8,1.8,1.8,1.8s1.8-0.8,1.8-1.8v-5.6H61c1,0,1.8-0.8,1.8-1.8S62,46.4,61,46.4h-7.8V33.8H61z
	 M49.7,17.6v12.7H33.8V17.6H49.7z M14.3,17.6h15.9v12.7H14.3V17.6z M14.3,46.4V33.8h15.9v12.7H14.3z M49.7,46.4H33.8V33.8h15.9V46.4
	z"/>
</svg>
