<?xml version="1.0" encoding="utf-8"?>
<!-- Generator: Adobe Illustrator 22.0.1, SVG Export Plug-In . SVG Version: 6.00 Build 0)  -->
<svg version="1.1" id="lni_lni-highlight-alt" xmlns="http://www.w3.org/2000/svg" xmlns:xlink="http://www.w3.org/1999/xlink"
	 x="0px" y="0px" viewBox="0 0 64 64" style="enable-background:new 0 0 64 64;" xml:space="preserve">
<path d="M60.6,9.8l-5.5-5.5v0c-2.8-2.8-7.5-2.8-10.3,0L13.4,35.7c-0.4,0.4-0.6,1-0.6,1.5s0.2,1.1,0.6,1.5l0.7,0.7l-5.4,5.4
	c-0.9,0.9-1.4,2-1.4,3.2L2,53.3c-0.6,0.6-0.8,1.4-0.7,2.2c0.1,0.8,0.6,1.5,1.3,1.9l7.6,4.1c0.4,0.2,0.9,0.3,1.3,0.3
	c0.7,0,1.4-0.3,2-0.8l3.4-3.4c1.2-0.1,2.3-0.6,3.1-1.4l5.4-5.4l0.7,0.7c0.4,0.4,1,0.6,1.6,0.6c0.6,0,1.1-0.2,1.6-0.6l31.4-31.4
	C63.5,17.3,63.5,12.6,60.6,9.8z M11.4,58.2l-6.1-3.3l3.2-3.2c0,0,0,0.1,0.1,0.1l4.5,4.5c0,0,0.1,0.1,0.2,0.1L11.4,58.2z M17.6,53.8
	c-0.5,0.5-1.4,0.5-2,0l-4.5-4.5c-0.5-0.5-0.5-1.4,0-2l5.4-5.4l6.4,6.4L17.6,53.8z M58.1,17.6L27.7,48.1L16.8,37.2L47.3,6.8
	c1.5-1.5,3.9-1.5,5.4,0l5.5,5.5C59.6,13.8,59.6,16.2,58.1,17.6z"/>
</svg>
