<?xml version="1.0" encoding="utf-8"?>
<!-- Generator: Adobe Illustrator 22.0.1, SVG Export Plug-In . SVG Version: 6.00 Build 0)  -->
<svg version="1.1" id="lni_lni-highlight" xmlns="http://www.w3.org/2000/svg" xmlns:xlink="http://www.w3.org/1999/xlink" x="0px"
	 y="0px" viewBox="0 0 64 64" style="enable-background:new 0 0 64 64;" xml:space="preserve">
<path d="M35.4,1.3h-6.9c-3.7,0-6.6,3-6.6,6.6v35.5c0,1.2,1,2.1,2.1,2.1h0.6v5.4c0,1.1,0.4,2.2,1.1,3v6.5c0,0.8,0.4,1.5,1,2
	c0.4,0.3,1,0.5,1.5,0.5c0.2,0,0.5,0,0.7-0.1l7.3-2.2c1.1-0.3,1.9-1.4,1.9-2.6v-4.1c0.7-0.8,1.1-1.8,1.1-2.9v-5.4h0.6
	c1.2,0,2.2-1,2.2-2.2V7.9C42.1,4.2,39.1,1.3,35.4,1.3z M25.4,7.9c0-1.7,1.4-3.1,3.1-3.1h6.9c1.7,0,3.1,1.4,3.1,3.1V42H25.4V7.9z
	 M29.3,58.9v-3.5h5.4v1.9L29.3,58.9z M35.8,50.9c0,0.6-0.5,1-1,1h-5.6c-0.6,0-1-0.5-1-1v-5.4h7.6V50.9z"/>
</svg>
