<?xml version="1.0" encoding="utf-8"?>
<!-- Generator: Adobe Illustrator 22.0.1, SVG Export Plug-In . SVG Version: 6.00 Build 0)  -->
<svg version="1.1" id="lni_lni-layers" xmlns="http://www.w3.org/2000/svg" xmlns:xlink="http://www.w3.org/1999/xlink" x="0px"
	 y="0px" viewBox="0 0 64 64" style="enable-background:new 0 0 64 64;" xml:space="preserve">
<path d="M54,39.6l-1.6-0.9l1.9-1.1c1.9-1.2,3-3.2,2.9-5.4s-1.2-4.2-3.2-5.3l-3-1.7l3.2-2c1.9-1.2,3-3.2,2.9-5.4s-1.2-4.2-3.2-5.3
	L35.2,2c-1.9-1.1-4.2-1-6.1,0L9.9,13.2c-1.9,1.1-3.1,3.1-3.1,5.3c0,2.2,1.2,4.2,3.1,5.3l3.1,1.8l-3.1,1.8c-1.9,1.1-3.1,3.1-3.1,5.3
	c0,2.2,1.1,4.2,3.1,5.3l1.8,1l-1.7,1c-1.9,1.1-3.1,3.1-3.1,5.3c0,2.2,1.1,4.2,3.1,5.3l19.1,11c1,0.6,2,0.8,3.1,0.8
	c1.1,0,2.2-0.3,3.2-0.9l18.9-11.6c1.9-1.2,3-3.2,2.9-5.4C57.1,42.6,56,40.6,54,39.6z M10.3,18.5c0-1,0.5-1.8,1.3-2.3L30.8,5.1
	c0.4-0.2,0.9-0.4,1.3-0.4c0.4,0,0.9,0.1,1.3,0.3l18.8,10.5c0.8,0.5,1.3,1.3,1.4,2.3c0,1-0.5,1.8-1.3,2.3L33.5,31.8
	c-0.8,0.5-1.9,0.5-2.7,0l-19.1-11C10.8,20.4,10.3,19.5,10.3,18.5z M10.3,32.8c0-1,0.5-1.8,1.3-2.3l4.9-2.8L29,34.9
	c1,0.6,2,0.8,3.1,0.8c1.1,0,2.2-0.3,3.2-0.9l12.3-7.6l4.7,2.6c0.8,0.5,1.3,1.3,1.4,2.3c0,1-0.5,1.8-1.3,2.3L33.5,46.2
	c-0.8,0.5-1.9,0.5-2.7,0l-19.1-11C10.8,34.7,10.3,33.8,10.3,32.8z M52.4,47.2L33.5,58.9c-0.8,0.5-1.9,0.5-2.7,0l-19.1-11
	c-0.8-0.5-1.3-1.3-1.3-2.3c0-1,0.5-1.8,1.3-2.3l3.5-2l13.8,8c1,0.6,2,0.8,3.1,0.8c1.1,0,2.2-0.3,3.2-0.9L49,40.7l3.4,1.9
	c0.8,0.5,1.3,1.3,1.4,2.3C53.7,45.8,53.2,46.7,52.4,47.2z"/>
</svg>
