<?xml version="1.0" encoding="utf-8"?>
<!-- Generator: Adobe Illustrator 22.0.1, SVG Export Plug-In . SVG Version: 6.00 Build 0)  -->
<svg version="1.1" id="lni_lni-layout" xmlns="http://www.w3.org/2000/svg" xmlns:xlink="http://www.w3.org/1999/xlink" x="0px"
	 y="0px" viewBox="0 0 64 64" style="enable-background:new 0 0 64 64;" xml:space="preserve">
<path d="M58,1.3H6C3.4,1.3,1.3,3.4,1.3,6v52c0,2.6,2.1,4.8,4.8,4.8h52c2.6,0,4.8-2.1,4.8-4.8V6C62.8,3.4,60.6,1.3,58,1.3z M6,4.8h52
	c0.7,0,1.3,0.6,1.3,1.3v14.3H4.8V6C4.8,5.3,5.3,4.8,6,4.8z M28.8,23.8h30.5v16.3H28.8V23.8z M4.8,58V23.8h20.5v35.4H6
	C5.3,59.3,4.8,58.7,4.8,58z M58,59.3H28.8V43.7h30.5V58C59.3,58.7,58.7,59.3,58,59.3z"/>
</svg>
