<?xml version="1.0" encoding="utf-8"?>
<!-- Generator: Adobe Illustrator 22.0.1, SVG Export Plug-In . SVG Version: 6.00 Build 0)  -->
<svg version="1.1" id="lni_lni-move" xmlns="http://www.w3.org/2000/svg" xmlns:xlink="http://www.w3.org/1999/xlink" x="0px"
	 y="0px" viewBox="0 0 64 64" style="enable-background:new 0 0 64 64;" xml:space="preserve">
<path d="M61.3,28.7L54,21.4c-0.7-0.7-1.8-0.7-2.5,0s-0.7,1.8,0,2.5l6.3,6.4H33.8V6l6.3,6.4c0.7,0.7,1.8,0.7,2.5,0
	c0.7-0.7,0.7-1.8,0-2.5l-7.3-7.3c-0.9-0.9-2.1-1.4-3.3-1.4c-1.3,0-2.4,0.5-3.3,1.4l-7.3,7.3c-0.7,0.7-0.7,1.8,0,2.5
	c0.3,0.3,0.8,0.5,1.2,0.5c0.4,0,0.9-0.2,1.2-0.5L30.3,6v24.2H6.1l6.3-6.4c0.7-0.7,0.7-1.8,0-2.5c-0.7-0.7-1.8-0.7-2.5,0l-7.3,7.3
	c-1.8,1.8-1.8,4.8,0,6.6l7.3,7.3c0.3,0.3,0.8,0.5,1.2,0.5c0.4,0,0.9-0.2,1.2-0.5c0.7-0.7,0.7-1.8,0-2.5l-6.4-6.4h24.2V58l-6.4-6.4
	c-0.7-0.7-1.8-0.7-2.5,0c-0.7,0.7-0.7,1.8,0,2.5l7.3,7.3c0.9,0.9,2.1,1.4,3.3,1.4c1.3,0,2.4-0.5,3.3-1.4l7.3-7.3
	c0.7-0.7,0.7-1.8,0-2.5c-0.7-0.7-1.8-0.7-2.5,0L33.8,58V33.7h24.1l-6.4,6.4c-0.7,0.7-0.7,1.8,0,2.5c0.3,0.3,0.8,0.5,1.2,0.5
	c0.4,0,0.9-0.2,1.2-0.5l7.3-7.3C63.1,33.5,63.1,30.5,61.3,28.7z"/>
</svg>
