<?xml version="1.0" encoding="utf-8"?>
<!-- Generator: Adobe Illustrator 22.0.1, SVG Export Plug-In . SVG Version: 6.00 Build 0)  -->
<svg version="1.1" id="lni_lni-pallet" xmlns="http://www.w3.org/2000/svg" xmlns:xlink="http://www.w3.org/1999/xlink" x="0px"
	 y="0px" viewBox="0 0 64 64" style="enable-background:new 0 0 64 64;" xml:space="preserve">
<g>
	<path d="M56.4,44.7l-0.2-0.2c-0.8-0.5-1.6-0.9-3.7-1.5l-0.1,0c-0.9-0.2-1.9-0.6-2.1-0.8l-0.1-0.1c-0.6-0.6-0.9-1.4-0.9-2.3
		c0-0.9,0.3-1.8,0.9-2.3l4.1-4.1c6.9-6.9,6.9-17.8,0-24.9c-4.6-4.7-11.1-7.3-18.3-7.3c-8,0-16.2,3.5-22.4,9.6
		c-5.8,5.9-8.9,13.4-8.9,21.6c0,8.2,3.2,15.9,9,21.4c5.8,5.8,13.4,8.9,21.5,8.9c8.1,0,15.7-3.2,21.4-9c1.1-1.1,1.8-2.8,1.8-4.4
		C58.4,47.5,57.6,45.8,56.4,44.7z M54,51.2c-5.1,5.2-11.8,8-19,8c-7.3,0-13.9-2.7-19.1-7.9c-5.1-4.9-7.9-11.7-7.9-19
		c0-7.3,2.7-13.9,7.9-19.1c5.5-5.4,12.8-8.5,19.9-8.5c6.3,0,11.8,2.2,15.8,6.3c5.6,5.7,5.6,14.3,0,19.9l-4.1,4.1
		c-1.2,1.3-1.9,3-1.9,4.8c0,1.9,0.6,3.5,1.8,4.8c1.1,1.2,3.6,1.8,4,1.9c1.6,0.4,2.1,0.7,2.6,1c0.4,0.4,0.6,1.1,0.6,1.8
		C54.9,50,54.5,50.8,54,51.2z"/>
	<path d="M39.9,29.4c-1.5,0-2.6,1.2-2.6,2.6s1.2,2.6,2.6,2.6c1.5,0,2.6-1.2,2.6-2.6S41.4,29.4,39.9,29.4z"/>
	<path d="M47.8,22.8c0-2.2-1.8-4-4-4s-4,1.8-4,4c0,2.2,1.8,4,4,4S47.8,25,47.8,22.8z"/>
	<circle cx="32" cy="16.2" r="5.3"/>
</g>
</svg>
