<?xml version="1.0" encoding="utf-8"?>
<!-- Generator: Adobe Illustrator 22.0.1, SVG Export Plug-In . SVG Version: 6.00 Build 0)  -->
<svg version="1.1" id="lni_lni-select" xmlns="http://www.w3.org/2000/svg" xmlns:xlink="http://www.w3.org/1999/xlink" x="0px"
	 y="0px" viewBox="0 0 64 64" style="enable-background:new 0 0 64 64;" xml:space="preserve">
<g>
	<path d="M53.8,52l6.6-3.8l-19.6-7.4c-0.4-0.2-0.8,0.2-0.6,0.6L47.5,61l3.8-6.5l4,4c0.3,0.3,0.8,0.5,1.2,0.5s0.9-0.2,1.2-0.5
		c0.7-0.7,0.7-1.8,0-2.5L53.8,52z"/>
	<rect x="35.5" y="45.4" width="4" height="3.5"/>
	<rect x="20.6" y="45.4" width="7.5" height="3.5"/>
	<rect x="9.2" y="45.4" width="4" height="3.5"/>
	<path d="M5.4,44.4H1.9v2.8c0,1,0.8,1.8,1.8,1.8h2.8v-3.5h-1V44.4z"/>
	<rect x="1.9" y="34.9" width="3.5" height="4"/>
	<rect x="1.9" y="20" width="3.5" height="7.5"/>
	<rect x="1.9" y="8.5" width="3.5" height="4"/>
	<path d="M1.9,3v2.8h3.5v-1h1V1.3H3.6C2.7,1.3,1.9,2,1.9,3z"/>
	<rect x="11.9" y="1.3" width="4" height="3.5"/>
	<rect x="23.4" y="1.3" width="7.5" height="3.5"/>
	<rect x="38.3" y="1.3" width="4" height="3.5"/>
	<path d="M46.1,5.8h3.5V3c0-1-0.8-1.8-1.8-1.8H45v3.5h1V5.8z"/>
	<rect x="46.1" y="11.3" width="3.5" height="4"/>
	<rect x="46.1" y="22.7" width="3.5" height="7.5"/>
	<rect x="46.1" y="37.6" width="3.5" height="4"/>
</g>
</svg>
