<?xml version="1.0" encoding="utf-8"?>
<!-- Generator: Adobe Illustrator 22.0.1, SVG Export Plug-In . SVG Version: 6.00 Build 0)  -->
<svg version="1.1" id="lni_lni-slice" xmlns="http://www.w3.org/2000/svg" xmlns:xlink="http://www.w3.org/1999/xlink" x="0px"
	 y="0px" viewBox="0 0 64 64" style="enable-background:new 0 0 64 64;" xml:space="preserve">
<path d="M61.9,53L49.5,40.6l0,0L17.8,8.9c-3-3-7.8-3-10.8,0l-3.5,3.5c-3,3-3,7.8,0,10.8L35.3,55c0.3,0.3,0.8,0.5,1.2,0.5
	s0.9-0.2,1.2-0.5l1.9-1.9l4,3.8c0.3,0.3,0.8,0.5,1.2,0.5h15.3c1.1,0,2-0.7,2.4-1.7C62.9,54.7,62.7,53.7,61.9,53z M6,14.9l3.5-3.5
	c0.8-0.8,1.9-1.2,2.9-1.2c1.1,0,2.1,0.4,2.9,1.2l2.8,2.8l-9.3,9.3L6,20.7C4.3,19.1,4.3,16.5,6,14.9z M36.5,51.3L11.2,26l3.4-3.4
	l7.7,7.7c0.3,0.3,0.8,0.5,1.2,0.5c0.4,0,0.9-0.2,1.2-0.5c0.7-0.7,0.7-1.8,0-2.5l-7.7-7.7l3.5-3.5L45.9,42L36.5,51.3z M45.6,53.8
	l-3.4-3.2l6.2-6.2l9.4,9.4H45.6z"/>
</svg>
