<?xml version="1.0" encoding="utf-8"?>
<!-- Generator: Adobe Illustrator 22.0.1, SVG Export Plug-In . SVG Version: 6.00 Build 0)  -->
<svg version="1.1" id="lni_lni-ux" xmlns="http://www.w3.org/2000/svg" xmlns:xlink="http://www.w3.org/1999/xlink" x="0px" y="0px"
	 viewBox="0 0 64 64" style="enable-background:new 0 0 64 64;" xml:space="preserve">
<path d="M48.7,38.2c1.7,0,3.1-1.4,3.1-3.1v-7.6c0-1.7-1.4-3.1-3.1-3.1H41c-1.7,0-3.1,1.4-3.1,3.1v2.1H26v-2.1c0-1.7-1.4-3.1-3.1-3.1
	h-2.1V15H23c1.7,0,3.1-1.4,3.1-3.1V4.3c0-1.7-1.4-3.1-3.1-3.1h-7.6c-1.7,0-3.1,1.4-3.1,3.1V12c0,1.7,1.4,3.1,3.1,3.1h2.1v9.4h-2.1
	c-1.7,0-3.1,1.4-3.1,3.1v7.6c0,1.7,1.4,3.1,3.1,3.1H23c1.7,0,3.1-1.4,3.1-3.1V33H38v2.1c0,1.7,1.4,3.1,3.1,3.1h2.1V49H41
	C39.3,49,38,50.3,38,52v7.6c0,1.7,1.4,3.1,3.1,3.1h7.6c1.7,0,3.1-1.4,3.1-3.1V52c0-1.7-1.4-3.1-3.1-3.1h-2.1V38.2H48.7z M15.7,4.8
	h6.8v6.8h-6.8V4.8z M22.5,34.7h-6.8v-6.8h3.4c0,0,0,0,0,0s0,0,0,0h3.4V34.7z M48.3,59.3h-6.8v-6.8h6.8V59.3z M41.5,27.9h6.8v6.8
	h-6.8V27.9z"/>
</svg>
