<?xml version="1.0" encoding="utf-8"?>
<!-- Generator: Adobe Illustrator 22.0.1, SVG Export Plug-In . SVG Version: 6.00 Build 0)  -->
<svg version="1.1" id="lni_lni-vector" xmlns="http://www.w3.org/2000/svg" xmlns:xlink="http://www.w3.org/1999/xlink" x="0px"
	 y="0px" viewBox="0 0 64 64" style="enable-background:new 0 0 64 64;" xml:space="preserve">
<path d="M56.2,28.5c3.6,0,6.6-3,6.6-6.6c0-3.6-3-6.6-6.6-6.6c-3.1,0-5.7,2.2-6.4,5.1H38.4c-0.7-2.9-3.3-5.1-6.4-5.1
	c-3.1,0-5.7,2.2-6.4,5.1H14.2c-0.7-2.9-3.3-5.1-6.4-5.1c-3.6,0-6.6,3-6.6,6.6c0,3.6,3,6.6,6.6,6.6c2.9,0,5.4-1.9,6.3-4.6H20
	c-4.4,3.1-7.5,7.9-8.4,13.3H9.7c-1.7,0-3.2,1.4-3.2,3.2v5.1c0,1.7,1.4,3.2,3.2,3.2h7.7c1.7,0,3.2-1.4,3.2-3.2v-5.1
	c0-1.7-1.4-3.2-3.2-3.2h-2.3c1.2-5.8,5.4-10.6,10.9-12.6c1,2.3,3.3,3.8,6,3.8c2.6,0,4.8-1.5,5.9-3.6c5.4,2.1,9.3,6.8,10.4,12.4h-1.7
	c-1.7,0-3.2,1.4-3.2,3.2v5.1c0,1.7,1.4,3.2,3.2,3.2h7.7c1.7,0,3.2-1.4,3.2-3.2v-5.1c0-1.7-1.4-3.2-3.2-3.2h-2.5
	c-0.9-5.4-4-10.2-8.4-13.3h6.4C50.7,26.6,53.2,28.5,56.2,28.5z M56.2,18.8c1.7,0,3.1,1.4,3.1,3.1S57.9,25,56.2,25s-3.1-1.4-3.1-3.1
	S54.5,18.8,56.2,18.8z M7.8,25c-1.7,0-3.1-1.4-3.1-3.1s1.4-3.1,3.1-3.1s3.1,1.4,3.1,3.1S9.5,25,7.8,25z M17.1,45.2h-7v-4.4h7V45.2z
	 M54,45.2h-7v-4.4h7V45.2z M32,25c-1.7,0-3.1-1.4-3.1-3.1s1.4-3.1,3.1-3.1s3.1,1.4,3.1,3.1S33.7,25,32,25z"/>
</svg>
