<?xml version="1.0" encoding="utf-8"?>
<!-- Generator: Adobe Illustrator 22.0.1, SVG Export Plug-In . SVG Version: 6.00 Build 0)  -->
<svg version="1.1" id="lni_lni-cool" xmlns="http://www.w3.org/2000/svg" xmlns:xlink="http://www.w3.org/1999/xlink" x="0px"
	 y="0px" viewBox="0 0 64 64" style="enable-background:new 0 0 64 64;" xml:space="preserve">
<g>
	<path d="M32,1.3C15,1.3,1.3,15,1.3,32C1.3,49,15,62.8,32,62.8C49,62.8,62.8,49,62.8,32C62.8,15,49,1.3,32,1.3z M32,4.8
		c9.9,0,18.6,5.3,23.4,13.3H8.6C13.4,10.1,22.1,4.8,32,4.8z M32,59.3C17,59.3,4.8,47,4.8,32c0-3.7,0.7-7.3,2.1-10.5h11.6v5.6
		c0,1.2,0.9,2.1,2.1,2.1h7c1.2,0,2.1-0.9,2.1-2.1v-5.6h4.3v5.6c0,1.2,0.9,2.1,2.1,2.1h7c1.2,0,2.1-0.9,2.1-2.1v-5.6H57
		c0.1,0,0.1,0,0.2,0c1.4,3.2,2.1,6.8,2.1,10.5C59.3,47,47,59.3,32,59.3z"/>
	<path d="M43.9,38.7c-3.2,3-7.4,4.6-11.9,4.6c-4.4,0-8.6-1.6-11.9-4.6c-0.7-0.7-1.8-0.6-2.5,0.1c-0.7,0.7-0.6,1.8,0.1,2.5
		c3.9,3.6,8.9,5.6,14.3,5.6c5.3,0,10.4-2,14.3-5.6c0.7-0.7,0.8-1.8,0.1-2.5C45.7,38,44.6,38,43.9,38.7z"/>
</g>
</svg>
