<?xml version="1.0" encoding="utf-8"?>
<!-- Generator: Adobe Illustrator 22.0.1, SVG Export Plug-In . SVG Version: 6.00 Build 0)  -->
<svg version="1.1" id="lni_lni-happy" xmlns="http://www.w3.org/2000/svg" xmlns:xlink="http://www.w3.org/1999/xlink" x="0px"
	 y="0px" viewBox="0 0 64 64" style="enable-background:new 0 0 64 64;" xml:space="preserve">
<g>
	<path d="M32,1.3C15,1.3,1.3,15,1.3,32C1.3,49,15,62.8,32,62.8C49,62.8,62.8,49,62.8,32C62.8,15,49,1.3,32,1.3z M32,59.3
		C17,59.3,4.8,47,4.8,32C4.8,17,17,4.8,32,4.8C47,4.8,59.3,17,59.3,32C59.3,47,47,59.3,32,59.3z"/>
	<path d="M45.6,35.5H18.4c-0.9,0-1.7,0.4-2.3,1.1c-0.5,0.7-0.8,1.5-0.6,2.4C17,46.8,23.9,52.6,32,52.6c8.1,0,15-5.7,16.5-13.6
		c0.2-0.8-0.1-1.7-0.6-2.4C47.4,35.9,46.5,35.5,45.6,35.5z M32,49.1c-6.1,0-11.4-4.2-12.9-10.1h25.9C43.4,44.9,38.1,49.1,32,49.1z"
		/>
	<path d="M20.1,26.7c2.2,0,4-1.8,4-4c0-2.2-1.8-4-4-4c-2.2,0-4,1.8-4,4C16.2,25,18,26.7,20.1,26.7z"/>
	<circle cx="43.9" cy="22.8" r="4"/>
</g>
</svg>
