<?xml version="1.0" encoding="utf-8"?>
<!-- Generator: Adobe Illustrator 22.0.1, SVG Export Plug-In . SVG Version: 6.00 Build 0)  -->
<svg version="1.1" id="lni_lni-suspect" xmlns="http://www.w3.org/2000/svg" xmlns:xlink="http://www.w3.org/1999/xlink" x="0px"
	 y="0px" viewBox="0 0 64 64" style="enable-background:new 0 0 64 64;" xml:space="preserve">
<g>
	<path d="M32,1.3C15,1.3,1.3,15,1.3,32C1.3,49,15,62.8,32,62.8C49,62.8,62.8,49,62.8,32C62.8,15,49,1.3,32,1.3z M32,59.3
		C17,59.3,4.8,47,4.8,32C4.8,17,17,4.8,32,4.8C47,4.8,59.3,17,59.3,32C59.3,47,47,59.3,32,59.3z"/>
	<path d="M45.2,43.4H18.8c-1,0-1.8,0.8-1.8,1.8s0.8,1.8,1.8,1.8h26.4c1,0,1.8-0.8,1.8-1.8S46.1,43.4,45.2,43.4z"/>
	<path d="M28.5,21.5c0-1-0.8-1.8-1.8-1.8H16.2c-1,0-1.8,0.8-1.8,1.8s0.8,1.8,1.8,1.8h10.5C27.7,23.2,28.5,22.4,28.5,21.5z"/>
	<path d="M47.8,19.7H37.3c-1,0-1.8,0.8-1.8,1.8s0.8,1.8,1.8,1.8h10.5c1,0,1.8-0.8,1.8-1.8S48.8,19.7,47.8,19.7z"/>
</g>
</svg>
