<?xml version="1.0" encoding="utf-8"?>
<!-- Generator: Adobe Illustrator 22.0.1, SVG Export Plug-In . SVG Version: 6.00 Build 0)  -->
<svg version="1.1" id="lni_lni-tounge" xmlns="http://www.w3.org/2000/svg" xmlns:xlink="http://www.w3.org/1999/xlink" x="0px"
	 y="0px" viewBox="0 0 64 64" style="enable-background:new 0 0 64 64;" xml:space="preserve">
<g>
	<path d="M32,1.3C15,1.3,1.3,15,1.3,32C1.3,49,15,62.8,32,62.8C49,62.8,62.8,49,62.8,32C62.8,15,49,1.3,32,1.3z M32,59.3
		C17,59.3,4.8,47,4.8,32C4.8,17,17,4.8,32,4.8C47,4.8,59.3,17,59.3,32C59.3,47,47,59.3,32,59.3z"/>
	<path d="M44,38.7c-3.3,3-7.5,4.7-12,4.7c-4.5,0-8.7-1.7-12-4.7c-0.7-0.7-1.8-0.6-2.5,0.1c-0.7,0.7-0.6,1.8,0.1,2.5
		c3.9,3.6,9,5.6,14.4,5.6c1.8,0,3.6-0.2,5.3-0.7v4.4c0,1.4,1.2,2.5,2.6,2.5c1.5,0,2.6-1.1,2.6-2.5v-6.5c1.4-0.8,2.6-1.7,3.8-2.8
		c0.7-0.7,0.7-1.8,0.1-2.5C45.8,38.1,44.7,38,44,38.7z"/>
	<circle cx="20.1" cy="22.8" r="4"/>
	<circle cx="43.9" cy="22.8" r="4"/>
</g>
</svg>
