<?xml version="1.0" encoding="utf-8"?>
<!-- Generator: Adobe Illustrator 22.0.1, SVG Export Plug-In . SVG Version: 6.00 Build 0)  -->
<svg version="1.1" id="lni_lni-backward" xmlns="http://www.w3.org/2000/svg" xmlns:xlink="http://www.w3.org/1999/xlink" x="0px"
	 y="0px" viewBox="0 0 64 64" style="enable-background:new 0 0 64 64;" xml:space="preserve">
<path d="M56.1,3.7c-2-1.1-4.5-1-6.4,0.3L8.1,31.1V3c0-1-0.8-1.8-1.8-1.8S4.6,2,4.6,3v58c0,1,0.8,1.8,1.8,1.8S8.1,62,8.1,61V32.9
	L49.7,60c1,0.7,2.2,1,3.4,1c1,0,2.1-0.3,3-0.8c2-1.1,3.3-3.2,3.3-5.5V9.2C59.4,6.9,58.2,4.8,56.1,3.7z M55.9,54.8
	c0,1-0.5,1.9-1.4,2.4c-0.9,0.5-2,0.5-2.9-0.1L13.2,32L51.6,6.9c0.9-0.6,1.9-0.6,2.9-0.1c0.9,0.5,1.4,1.4,1.4,2.4V54.8z"/>
</svg>
