<?xml version="1.0" encoding="utf-8"?>
<!-- Generator: Adobe Illustrator 22.0.1, SVG Export Plug-In . SVG Version: 6.00 Build 0)  -->
<svg version="1.1" id="lni_lni-forward" xmlns="http://www.w3.org/2000/svg" xmlns:xlink="http://www.w3.org/1999/xlink" x="0px"
	 y="0px" viewBox="0 0 64 64" style="enable-background:new 0 0 64 64;" xml:space="preserve">
<path d="M57.7,1.3c-1,0-1.8,0.8-1.8,1.8v28.1L14.3,4c-1.9-1.3-4.4-1.4-6.4-0.3c-2,1.1-3.3,3.2-3.3,5.5v45.6c0,2.3,1.2,4.4,3.3,5.5
	c0.9,0.5,2,0.8,3,0.8c1.2,0,2.4-0.3,3.4-1l41.6-27.1V61c0,1,0.8,1.8,1.8,1.8s1.8-0.8,1.8-1.8V3C59.4,2,58.6,1.3,57.7,1.3z
	 M12.4,57.1c-0.9,0.6-1.9,0.6-2.9,0.1c-0.9-0.5-1.4-1.4-1.4-2.4V9.2c0-1,0.5-1.9,1.4-2.4c0.4-0.2,0.9-0.3,1.3-0.3
	c0.5,0,1.1,0.2,1.5,0.5L50.8,32L12.4,57.1z"/>
</svg>
