<?xml version="1.0" encoding="utf-8"?>
<!-- Generator: Adobe Illustrator 22.0.1, SVG Export Plug-In . SVG Version: 6.00 Build 0)  -->
<svg version="1.1" id="lni_lni-full-screen" xmlns="http://www.w3.org/2000/svg" xmlns:xlink="http://www.w3.org/1999/xlink"
	 x="0px" y="0px" viewBox="0 0 64 64" style="enable-background:new 0 0 64 64;" xml:space="preserve">
<path d="M61,20.6c1,0,1.8-0.8,1.8-1.8v-13c0-2.5-2-4.5-4.5-4.5h-13c-1,0-1.8,0.8-1.8,1.8s0.8,1.8,1.8,1.8h11.6L32,29.5L7.2,4.8h11.6
	c1,0,1.8-0.8,1.8-1.8s-0.8-1.8-1.8-1.8h-13c-1.2,0-2.2,0.4-3,1.2C2.7,2.5,2.6,2.5,2.6,2.6C2.5,2.6,2.5,2.7,2.4,2.8
	c-0.7,0.8-1.1,1.8-1.1,3v13c0,1,0.8,1.8,1.8,1.8s1.8-0.8,1.8-1.8V7.2L29.5,32L4.8,56.8V45.2c0-1-0.8-1.8-1.8-1.8s-1.8,0.8-1.8,1.8
	v13c0,2.5,2,4.5,4.5,4.5h13c1,0,1.8-0.8,1.8-1.8s-0.8-1.8-1.8-1.8H7.2L32,34.5l24.8,24.8H45.2c-1,0-1.8,0.8-1.8,1.8s0.8,1.8,1.8,1.8
	h13c2.5,0,4.5-2,4.5-4.5v-13c0-1-0.8-1.8-1.8-1.8s-1.8,0.8-1.8,1.8v11.6L34.5,32L59.3,7.2v11.6C59.3,19.8,60,20.6,61,20.6z"/>
</svg>
