<?xml version="1.0" encoding="utf-8"?>
<!-- Generator: Adobe Illustrator 22.0.1, SVG Export Plug-In . SVG Version: 6.00 Build 0)  -->
<svg version="1.1" id="lni_lni-gallery" xmlns="http://www.w3.org/2000/svg" xmlns:xlink="http://www.w3.org/1999/xlink" x="0px"
	 y="0px" viewBox="0 0 64 64" style="enable-background:new 0 0 64 64;" xml:space="preserve">
<g>
	<path d="M23.1,41.5c3.1,0,5.7-2.5,5.7-5.6c0-3.1-2.5-5.6-5.7-5.6s-5.7,2.5-5.7,5.6C17.5,39,20,41.5,23.1,41.5z M23.1,33.7
		c1.2,0,2.2,1,2.2,2.1c0,1.2-1,2.1-2.2,2.1C22,38,21,37,21,35.9C21,34.7,22,33.7,23.1,33.7z"/>
	<path d="M49.2,20.9c3.1,0,5.7-2.5,5.7-5.6c0-3.1-2.5-5.6-5.7-5.6s-5.7,2.5-5.7,5.6C43.5,18.4,46.1,20.9,49.2,20.9z M49.2,13.2
		c1.2,0,2.2,1,2.2,2.1s-1,2.1-2.2,2.1s-2.2-1-2.2-2.1S48,13.2,49.2,13.2z"/>
	<path d="M55.5,1.5H35c-4,0-7.2,3.2-7.2,7.2V22H7.5c-3.2,0-5.8,2.6-5.8,5.8v29c0,3.2,2.6,5.8,5.8,5.8H31c3.2,0,5.8-2.6,5.8-5.8V42
		h18.8c4,0,7.2-3.2,7.2-7.2v-26C62.8,4.7,59.5,1.5,55.5,1.5z M35,5h20.6c2.1,0,3.7,1.7,3.7,3.7v15.1c-0.8,0.5-2,1.3-2.2,1.5
		c-0.9,0.6-1.8,1.4-2.7,2.1c-2.6,2.3-4.4,3.6-6.8,2.7c-0.4-0.2-0.9-0.6-1.4-1l-0.4-0.3c-1.5-1.2-3.2-2.6-5.3-3.2
		c-1.3-0.4-2.7-0.4-4.1-0.1c-0.8-2-2.8-3.5-5.1-3.6V8.7C31.2,6.6,32.9,5,35,5z M7.5,25.5H31c1.2,0,2.3,1,2.3,2.3v16.5
		c-0.5,0.3-1.2,0.8-2.2,1.5c-0.9,0.6-1.8,1.4-2.7,2.1c-2.6,2.3-4.4,3.6-6.8,2.7c-0.5-0.2-1-0.6-1.6-1.1l-0.2-0.2
		c-1.5-1.2-3.2-2.6-5.3-3.2c-3.5-1.1-6.6,0.7-9.2,2.3V27.8C5.2,26.5,6.2,25.5,7.5,25.5z M31,59H7.5c-1.2,0-2.3-1-2.3-2.3v-4.1
		c0.5-0.3,0.9-0.6,1.4-0.8c2.4-1.5,4.6-2.9,6.8-2.2c1.5,0.4,2.8,1.5,4.1,2.6l0.2,0.2c0.7,0.6,1.5,1.3,2.6,1.7
		c0.9,0.3,1.8,0.5,2.7,0.5c3.1,0,5.6-2.1,7.6-3.9c0.8-0.7,1.6-1.4,2.3-1.9c0.1-0.1,0.2-0.1,0.3-0.2v8.2C33.2,58,32.2,59,31,59z
		 M55.5,38.5H36.7v-9.4c1-0.3,1.8-0.3,2.7-0.1c1.5,0.4,2.8,1.5,4.1,2.6l0.3,0.2c0.7,0.6,1.5,1.3,2.5,1.6c1,0.3,1.8,0.5,2.7,0.5
		c3.1,0,5.6-2.1,7.6-3.9c0.8-0.7,1.6-1.4,2.4-1.9c0.1-0.1,0.2-0.1,0.3-0.2v6.8C59.3,36.8,57.6,38.5,55.5,38.5z"/>
</g>
</svg>
