<?xml version="1.0" encoding="utf-8"?>
<!-- Generator: Adobe Illustrator 22.0.1, SVG Export Plug-In . SVG Version: 6.00 Build 0)  -->
<svg version="1.1" id="lni_lni-pause" xmlns="http://www.w3.org/2000/svg" xmlns:xlink="http://www.w3.org/1999/xlink" x="0px"
	 y="0px" viewBox="0 0 64 64" style="enable-background:new 0 0 64 64;" xml:space="preserve">
<g>
	<path d="M17.5,6.5H7c-3.2,0-5.8,2.6-5.8,5.8v39.5c0,3.2,2.6,5.8,5.8,5.8h10.5c3.2,0,5.8-2.6,5.8-5.8V12.3
		C23.2,9.1,20.6,6.5,17.5,6.5z M19.7,51.7c0,1.2-1,2.3-2.3,2.3H7c-1.2,0-2.3-1-2.3-2.3V12.3C4.8,11,5.8,10,7,10h10.5
		c1.2,0,2.3,1,2.3,2.3V51.7z"/>
	<path d="M57,6.5H46.5c-3.2,0-5.8,2.6-5.8,5.8v39.5c0,3.2,2.6,5.8,5.8,5.8H57c3.2,0,5.8-2.6,5.8-5.8V12.3C62.8,9.1,60.2,6.5,57,6.5z
		 M59.3,51.7c0,1.2-1,2.3-2.3,2.3H46.5c-1.2,0-2.3-1-2.3-2.3V12.3c0-1.2,1-2.3,2.3-2.3H57c1.2,0,2.3,1,2.3,2.3V51.7z"/>
</g>
</svg>
