<?xml version="1.0" encoding="utf-8"?>
<!-- Generator: Adobe Illustrator 22.0.1, SVG Export Plug-In . SVG Version: 6.00 Build 0)  -->
<svg version="1.1" id="lni_lni-shuffle" xmlns="http://www.w3.org/2000/svg" xmlns:xlink="http://www.w3.org/1999/xlink" x="0px"
	 y="0px" viewBox="0 0 64 64" style="enable-background:new 0 0 64 64;" xml:space="preserve">
<path d="M54.4,37.5c-0.7-0.7-1.8-0.7-2.5,0c-0.7,0.7-0.7,1.8,0,2.5l6.6,6.8H48.1c-0.3,0-0.6-0.1-0.9-0.4L36.1,32.5l11.1-13.9
	c0.2-0.3,0.5-0.4,0.9-0.4h9.5L51.9,24c-0.7,0.7-0.7,1.8,0,2.5c0.3,0.3,0.8,0.5,1.2,0.5c0.5,0,0.9-0.2,1.3-0.5l7.1-7.3
	c1.7-1.8,1.7-4.6,0-6.4l-7.1-7.3c-0.7-0.7-1.8-0.7-2.5,0c-0.7,0.7-0.7,1.8,0,2.5l6.6,6.8H48.1c-1.4,0-2.7,0.6-3.6,1.7L33.9,29.7
	L23.3,16.4c-0.9-1.1-2.2-1.7-3.6-1.7H3c-1,0-1.8,0.8-1.8,1.8S2,18.2,3,18.2h16.7c0.3,0,0.6,0.1,0.9,0.4l11.1,13.9L20.5,46.4
	c-0.2,0.3-0.5,0.4-0.9,0.4H3c-1,0-1.8,0.8-1.8,1.8S2,50.3,3,50.3h16.7c1.4,0,2.7-0.6,3.6-1.7l10.6-13.3l10.6,13.3
	c0.9,1.1,2.2,1.7,3.6,1.7h9.4l-5.6,5.8c-0.7,0.7-0.7,1.8,0,2.5c0.3,0.3,0.8,0.5,1.2,0.5c0.5,0,0.9-0.2,1.3-0.5l7.1-7.3
	c1.7-1.8,1.7-4.6,0-6.4L54.4,37.5z"/>
</svg>
