<?xml version="1.0" encoding="utf-8"?>
<!-- Generator: Adobe Illustrator 22.0.1, SVG Export Plug-In . SVG Version: 6.00 Build 0)  -->
<svg version="1.1" id="lni_lni-stop" xmlns="http://www.w3.org/2000/svg" xmlns:xlink="http://www.w3.org/1999/xlink" x="0px"
	 y="0px" viewBox="0 0 64 64" style="enable-background:new 0 0 64 64;" xml:space="preserve">
<path d="M57,1.3H7C3.8,1.3,1.3,3.8,1.3,7v50c0,3.2,2.6,5.8,5.8,5.8h50c3.2,0,5.8-2.6,5.8-5.8V7C62.8,3.8,60.2,1.3,57,1.3z M59.3,57
	c0,1.2-1,2.3-2.3,2.3H7c-1.2,0-2.3-1-2.3-2.3V7c0-1.2,1-2.3,2.3-2.3h50c1.2,0,2.3,1,2.3,2.3V57z"/>
</svg>
