<?xml version="1.0" encoding="utf-8"?>
<!-- Generator: Adobe Illustrator 22.0.1, SVG Export Plug-In . SVG Version: 6.00 Build 0)  -->
<svg version="1.1" id="lni_lni-video" xmlns="http://www.w3.org/2000/svg" xmlns:xlink="http://www.w3.org/1999/xlink" x="0px"
	 y="0px" viewBox="0 0 64 64" style="enable-background:new 0 0 64 64;" xml:space="preserve">
<path d="M61.6,29.4c-0.7-0.6-1.6-0.8-2.6-0.7l-9.2,1.6c-0.5-3.7-3.6-6.5-7.4-6.5h-7.2c2.8-1.4,4.7-4.3,4.7-7.7
	c0-4.7-3.7-8.5-8.3-8.5c-3.6,0-6.7,2.4-7.8,5.7c-1.3-2.4-3.7-4-6.6-4c-4.1,0-7.5,3.4-7.5,7.7c0,3,1.6,5.5,4.1,6.8H9
	c-4.1,0-7.5,3.4-7.5,7.5v17.7c0,4.1,3.4,7.5,7.5,7.5h33.4c4.1,0,7.5-3.4,7.5-7.5v-0.2l9.2,1.6c0.2,0,0.4,0,0.5,0
	c0.7,0,1.4-0.3,2-0.7c0.7-0.6,1.1-1.5,1.1-2.4V31.8C62.8,30.8,62.3,30,61.6,29.4z M31.6,11.1c2.6,0,4.8,2.2,4.8,5s-2.1,5-4.8,5
	s-4.8-2.2-4.8-5S29,11.1,31.6,11.1z M17.3,12.8c2.2,0,4,1.9,4,4.2c0,2.3-1.8,4.2-4,4.2c-2.2,0-4-1.9-4-4.2
	C13.3,14.6,15.1,12.8,17.3,12.8z M24.2,19.8c0.8,1.7,2.2,3.1,3.8,3.9h-7.3C22.2,22.9,23.5,21.5,24.2,19.8z M46.4,48.9
	c0,2.2-1.8,4-4,4H9c-2.2,0-4-1.8-4-4V31.3c0-2.2,1.8-4,4-4h33.4c2.2,0,4,1.8,4,4V48.9z M59.3,46.8l-9.3-1.6V33.8l9.3-1.6V46.8z"/>
</svg>
