<?xml version="1.0" encoding="utf-8"?>
<!-- Generator: Adobe Illustrator 23.0.0, SVG Export Plug-In . SVG Version: 6.00 Build 0)  -->
<svg version="1.1" id="lni_lni-volume-low" xmlns="http://www.w3.org/2000/svg" xmlns:xlink="http://www.w3.org/1999/xlink" x="0px"
	 y="0px" viewBox="0 0 64 64" style="enable-background:new 0 0 64 64;" xml:space="preserve">
<g>
	<path d="M48,26c-0.7-0.7-1.8-0.7-2.5-0.1c-0.7,0.7-0.7,1.8-0.1,2.5c1.9,1.9,1.9,5.1,0,7.1c-0.7,0.7-0.6,1.8,0.1,2.5
		c0.3,0.3,0.8,0.5,1.2,0.5c0.5,0,0.9-0.2,1.3-0.5C51.2,34.7,51.2,29.3,48,26z"/>
	<path d="M38.2,17.5c-1.2-0.6-2.6-0.6-3.7,0.1l-7.9,4.9h-9.3c-2,0-3.7,1.6-3.7,3.7v11.5c0,2,1.6,3.7,3.7,3.7h9.3h0.1l7.8,4.9
		c0.6,0.4,1.3,0.6,1.9,0.6c0.6,0,1.2-0.2,1.8-0.5c1.2-0.6,1.9-1.9,1.9-3.2V20.7C40.1,19.4,39.4,18.2,38.2,17.5z M36.6,43.3
		c0,0,0,0.1-0.1,0.2c-0.1,0-0.1,0-0.2,0l-7.8-4.9l0,0c-0.6-0.4-1.3-0.6-1.9-0.6h-9.3c-0.1,0-0.2-0.1-0.2-0.2V26.2
		c0-0.1,0.1-0.2,0.2-0.2h9.3c0.7,0,1.4-0.2,1.9-0.6l7.8-4.9c0,0,0.1,0,0.2,0c0.1,0.1,0.1,0.1,0.1,0.2V43.3z"/>
</g>
</svg>
