<?xml version="1.0" encoding="utf-8"?>
<!-- Generator: Adobe Illustrator 22.0.1, SVG Export Plug-In . SVG Version: 6.00 Build 0)  -->
<svg version="1.1" id="lni_lni-volume-high" xmlns="http://www.w3.org/2000/svg" xmlns:xlink="http://www.w3.org/1999/xlink"
	 x="0px" y="0px" viewBox="0 0 64 64" style="enable-background:new 0 0 64 64;" xml:space="preserve">
<g>
	<path d="M44,27.1c-0.7,0.7-0.8,1.8-0.1,2.5c1.2,1.3,1.2,3.5,0,4.9c-0.7,0.7-0.6,1.8,0.1,2.5c0.3,0.3,0.8,0.5,1.2,0.5
		c0.5,0,0.9-0.2,1.3-0.6c2.4-2.7,2.4-7,0-9.6C45.8,26.5,44.7,26.4,44,27.1z"/>
	<path d="M52.1,23.1c-0.7-0.7-1.8-0.8-2.5-0.1c-0.7,0.7-0.8,1.8-0.1,2.5c3.3,3.6,3.3,9.5,0,13.1c-0.7,0.7-0.6,1.8,0.1,2.5
		c0.3,0.3,0.8,0.5,1.2,0.5c0.5,0,0.9-0.2,1.3-0.6C56.7,36,56.7,28,52.1,23.1z"/>
	<path d="M57.8,18.9c-0.7-0.7-1.8-0.8-2.5-0.1c-0.7,0.7-0.8,1.8-0.1,2.5c5.4,5.9,5.4,15.5,0,21.4c-0.7,0.7-0.6,1.8,0.1,2.5
		c0.3,0.3,0.8,0.5,1.2,0.5c0.5,0,0.9-0.2,1.3-0.6C64.4,37.9,64.4,26.1,57.8,18.9z"/>
	<path d="M34.1,12.7c-1.4-0.8-3.1-0.7-4.5,0.1l-10.8,6.7c-0.1,0.1-0.3,0.1-0.5,0.1H5.6c-2.4,0-4.4,2-4.4,4.4v15.8
		c0,2.4,2,4.4,4.4,4.4h12.8c0.2,0,0.3,0,0.5,0.1l10.8,6.7c0.7,0.4,1.5,0.7,2.3,0.7c0.7,0,1.5-0.2,2.1-0.6c1.4-0.8,2.3-2.2,2.3-3.8
		V16.5C36.4,14.9,35.5,13.5,34.1,12.7z M32.9,47.5c0,0.5-0.3,0.7-0.5,0.8c-0.1,0.1-0.5,0.2-0.9,0l-10.8-6.7h0
		c-0.7-0.4-1.5-0.7-2.3-0.7H5.6c-0.5,0-0.9-0.4-0.9-0.9V24.1c0-0.5,0.4-0.9,0.9-0.9h12.8c0.8,0,1.6-0.2,2.3-0.7l10.8-6.7
		c0.4-0.3,0.8-0.1,0.9,0c0.1,0.1,0.5,0.3,0.5,0.8V47.5z"/>
</g>
</svg>
