<?xml version="1.0" encoding="utf-8"?>
<!-- Generator: Adobe Illustrator 22.0.1, SVG Export Plug-In . SVG Version: 6.00 Build 0)  -->
<svg version="1.1" id="lni_lni-volume" xmlns="http://www.w3.org/2000/svg" xmlns:xlink="http://www.w3.org/1999/xlink" x="0px"
	 y="0px" viewBox="0 0 64 64" style="enable-background:new 0 0 64 64;" xml:space="preserve">
<path d="M55.9,2c-1.9-1.1-4.2-1-6,0.2L32.7,13c-0.4,0.2-0.8,0.4-1.3,0.4H10.9c-3.3,0-6,2.7-6,6v25.3c0,3.3,2.7,6,6,6h20.4
	c0.5,0,0.9,0.1,1.3,0.4l17.2,10.8c1,0.6,2.1,0.9,3.2,0.9c1,0,2-0.3,2.9-0.8c1.9-1.1,3.1-3,3.1-5.2V7.2C59,5,57.9,3.1,55.9,2z
	 M55.5,56.8c0,0.9-0.5,1.7-1.3,2.2c-0.8,0.4-1.7,0.4-2.5-0.1L34.5,48.1c-0.9-0.6-2-0.9-3.2-0.9H10.9c-1.4,0-2.5-1.1-2.5-2.5V19.3
	c0-1.4,1.1-2.5,2.5-2.5h20.4c1.1,0,2.2-0.3,3.2-0.9L51.7,5.1c0.8-0.5,1.7-0.5,2.5-0.1c0.8,0.4,1.3,1.3,1.3,2.2V56.8z"/>
</svg>
