<?xml version="1.0" encoding="utf-8"?>
<!-- Generator: Adobe Illustrator 22.0.1, SVG Export Plug-In . SVG Version: 6.00 Build 0)  -->
<svg version="1.1" id="lni_lni-volume-medium" xmlns="http://www.w3.org/2000/svg" xmlns:xlink="http://www.w3.org/1999/xlink"
	 x="0px" y="0px" viewBox="0 0 64 64" style="enable-background:new 0 0 64 64;" xml:space="preserve">
<g>
	<path d="M56.6,16.5c-0.7-0.7-1.8-0.7-2.5-0.1c-0.7,0.7-0.7,1.8-0.1,2.5c6.9,7.2,6.9,19,0,26.2c-0.7,0.7-0.6,1.8,0.1,2.5
		c0.3,0.3,0.8,0.5,1.2,0.5c0.5,0,0.9-0.2,1.3-0.5C64.8,39,64.8,25,56.6,16.5z"/>
	<path d="M46,24.1c-0.7,0.7-0.7,1.8-0.1,2.5c2.9,3,2.9,7.9,0,10.9c-0.7,0.7-0.6,1.8,0.1,2.5c0.3,0.3,0.8,0.5,1.2,0.5
		c0.5,0,0.9-0.2,1.3-0.5c4.2-4.4,4.2-11.4,0-15.8C47.8,23.4,46.7,23.4,46,24.1z"/>
	<path d="M34.8,12.2c-1.4-0.8-3.1-0.7-4.5,0.1l-11,6.9c-0.1,0.1-0.3,0.1-0.5,0.1H5.7c-2.5,0-4.4,2-4.4,4.5v16.2c0,2.5,2,4.5,4.4,4.5
		h13.1c0.2,0,0.3,0,0.5,0.1l11,6.9c0.7,0.5,1.5,0.7,2.4,0.7c0.7,0,1.5-0.2,2.2-0.6c1.4-0.8,2.3-2.3,2.3-3.9V16.1
		C37.1,14.5,36.2,13,34.8,12.2z M33.6,47.9c0,0.5-0.3,0.8-0.5,0.8c-0.1,0.1-0.5,0.2-1,0l-11-6.9c-0.7-0.4-1.5-0.7-2.4-0.7H5.7
		c-0.5,0-0.9-0.4-0.9-1V23.9c0-0.5,0.4-1,0.9-1h13.1c0.8,0,1.7-0.2,2.4-0.7l11-6.9c0.4-0.3,0.8-0.1,1,0c0.1,0.1,0.5,0.3,0.5,0.8
		V47.9z"/>
</g>
</svg>
