<?xml version="1.0" encoding="utf-8"?>
<!-- Generator: Adobe Illustrator 22.0.1, SVG Export Plug-In . SVG Version: 6.00 Build 0)  -->
<svg version="1.1" id="lni_lni-volume-mute" xmlns="http://www.w3.org/2000/svg" xmlns:xlink="http://www.w3.org/1999/xlink"
	 x="0px" y="0px" viewBox="0 0 64 64" style="enable-background:new 0 0 64 64;" xml:space="preserve">
<g>
	<path d="M62.2,5.4c-0.7-0.7-1.8-0.7-2.5,0L47.6,17.6v-6.4c0-2-1-3.7-2.8-4.7c-1.7-0.9-3.7-0.9-5.4,0.1l-14.6,9.2
		c-0.3,0.2-0.6,0.3-1,0.3H6.6c-2.9,0-5.3,2.4-5.3,5.3V43c0,2.9,2.4,5.3,5.3,5.3h10.3l-7.8,7.8c-0.7,0.7-0.7,1.8,0,2.5
		c0.3,0.3,0.8,0.5,1.2,0.5c0.4,0,0.9-0.2,1.2-0.5L62.2,7.9C62.9,7.2,62.9,6.1,62.2,5.4z M20.2,44.8H6.6c-1,0-1.8-0.8-1.8-1.8V21.5
		c0-1,0.8-1.8,1.8-1.8h17.3c1,0,2-0.3,2.8-0.8l14.6-9.2c0.8-0.5,1.6-0.2,1.8-0.1c0.3,0.2,0.9,0.6,0.9,1.6v9.7c0,0,0,0.1,0,0.1
		L20.4,44.8C20.3,44.8,20.2,44.8,20.2,44.8z"/>
	<path d="M45.9,33.9c-1,0-1.8,0.8-1.8,1.8v17.6c0,1-0.7,1.5-0.9,1.6c-0.3,0.2-1,0.5-1.8-0.1l-9.6-6c-0.8-0.5-1.9-0.3-2.4,0.6
		c-0.5,0.8-0.3,1.9,0.6,2.4l9.6,6c0.9,0.5,1.8,0.8,2.8,0.8c0.9,0,1.8-0.2,2.6-0.7c1.7-1,2.8-2.7,2.8-4.7V35.6
		C47.6,34.7,46.8,33.9,45.9,33.9z"/>
</g>
</svg>
