<?xml version="1.0" encoding="utf-8"?>
<!-- Generator: Adobe Illustrator 22.0.1, SVG Export Plug-In . SVG Version: 6.00 Build 0)  -->
<svg version="1.1" id="lni_lni-angle-double-left" xmlns="http://www.w3.org/2000/svg" xmlns:xlink="http://www.w3.org/1999/xlink"
	 x="0px" y="0px" viewBox="0 0 64 64" style="enable-background:new 0 0 64 64;" xml:space="preserve">
<g>
	<path d="M12.3,33.4c-0.7-0.7-0.7-1.9,0-2.6L37.2,4.2c0.7-0.7,0.6-1.8-0.1-2.5c-0.7-0.7-1.8-0.6-2.5,0.1L9.7,28.4
		c-1.9,2-1.9,5.4,0,7.4l24.9,26.3c0.3,0.4,0.8,0.5,1.3,0.5c0.4,0,0.9-0.2,1.2-0.5c0.7-0.7,0.7-1.8,0.1-2.5L12.3,33.4z"/>
	<path d="M55.2,59.8L30.3,33.5c-0.7-0.7-0.7-1.9,0-2.6L55.2,4.3c0.7-0.7,0.6-1.8-0.1-2.5c-0.7-0.7-1.8-0.6-2.5,0.1L27.8,28.5
		c-1.9,2-1.9,5.4,0,7.4l24.9,26.3c0.3,0.4,0.8,0.5,1.3,0.5c0.4,0,0.9-0.2,1.2-0.5C55.9,61.6,55.9,60.5,55.2,59.8z"/>
</g>
</svg>
