<?xml version="1.0" encoding="utf-8"?>
<!-- Generator: Adobe Illustrator 22.0.1, SVG Export Plug-In . SVG Version: 6.00 Build 0)  -->
<svg version="1.1" id="lni_lni-angle-double-right" xmlns="http://www.w3.org/2000/svg" xmlns:xlink="http://www.w3.org/1999/xlink"
	 x="0px" y="0px" viewBox="0 0 64 64" style="enable-background:new 0 0 64 64;" xml:space="preserve">
<g>
	<path d="M36.2,28.1L11.3,1.8c-0.7-0.7-1.8-0.7-2.5-0.1C8.1,2.4,8.1,3.5,8.8,4.2l24.9,26.3c0.7,0.7,0.7,1.9,0,2.6L8.8,59.7
		c-0.7,0.7-0.6,1.8,0.1,2.5c0.3,0.3,0.8,0.5,1.2,0.5c0.5,0,0.9-0.2,1.3-0.6l24.9-26.6C38.2,33.5,38.2,30.2,36.2,28.1z"/>
	<path d="M54.3,28.2L29.3,1.9c-0.7-0.7-1.8-0.7-2.5-0.1c-0.7,0.7-0.7,1.8-0.1,2.5l24.9,26.3c0.7,0.7,0.7,1.9,0,2.6L26.8,59.8
		c-0.7,0.7-0.6,1.8,0.1,2.5c0.3,0.3,0.8,0.5,1.2,0.5c0.5,0,0.9-0.2,1.3-0.6l24.9-26.6C56.2,33.6,56.2,30.3,54.3,28.2z"/>
</g>
</svg>
