<?xml version="1.0" encoding="utf-8"?>
<!-- Generator: Adobe Illustrator 22.0.1, SVG Export Plug-In . SVG Version: 6.00 Build 0)  -->
<svg version="1.1" id="lni_lni-angle-double-down" xmlns="http://www.w3.org/2000/svg" xmlns:xlink="http://www.w3.org/1999/xlink"
	 x="0px" y="0px" viewBox="0 0 64 64" style="enable-background:new 0 0 64 64;" xml:space="preserve">
<g>
	<path d="M59.7,26.8L33.4,51.7c-0.7,0.7-1.9,0.7-2.6,0L4.2,26.8c-0.7-0.7-1.8-0.6-2.5,0.1c-0.7,0.7-0.6,1.8,0.1,2.5l26.6,24.9
		c1,1,2.4,1.4,3.7,1.4c1.3,0,2.7-0.5,3.7-1.5l26.3-24.9c0.7-0.7,0.7-1.8,0.1-2.5C61.5,26.2,60.4,26.1,59.7,26.8z"/>
	<path d="M28.5,36.2c1,1,2.4,1.4,3.7,1.4c1.3,0,2.7-0.5,3.7-1.5l26.3-24.9c0.7-0.7,0.7-1.8,0.1-2.5c-0.7-0.7-1.8-0.7-2.5-0.1
		L33.5,33.7c-0.7,0.7-1.9,0.7-2.6,0L4.3,8.8C3.6,8.1,2.5,8.1,1.8,8.8c-0.7,0.7-0.6,1.8,0.1,2.5L28.5,36.2z"/>
</g>
</svg>
