<?xml version="1.0" encoding="utf-8"?>
<!-- Generator: Adobe Illustrator 22.0.1, SVG Export Plug-In . SVG Version: 6.00 Build 0)  -->
<svg version="1.1" id="lni_lni-arrows-vertical" xmlns="http://www.w3.org/2000/svg" xmlns:xlink="http://www.w3.org/1999/xlink"
	 x="0px" y="0px" viewBox="0 0 64 64" style="enable-background:new 0 0 64 64;" xml:space="preserve">
<g>
	<path d="M32,62.8c-1.2,0-2.5-0.4-3.5-1.3l-8.1-6.8c-0.7-0.6-0.8-1.7-0.2-2.5s1.7-0.8,2.5-0.2l7.6,6.4V5.6L22.6,12
		c-0.7,0.6-1.8,0.5-2.5-0.2c-0.6-0.7-0.5-1.8,0.2-2.5l8.1-6.8c2-1.7,5-1.7,7,0l8.1,6.8c0.7,0.6,0.8,1.7,0.2,2.5
		c-0.6,0.7-1.7,0.8-2.5,0.2l-7.6-6.4v52.8l7.6-6.4c0.7-0.6,1.8-0.5,2.5,0.2s0.5,1.8-0.2,2.5l-8.1,6.8C34.5,62.3,33.2,62.8,32,62.8z"
		/>
</g>
</svg>
