<?xml version="1.0" encoding="utf-8"?>
<!-- Generator: Adobe Illustrator 22.0.1, SVG Export Plug-In . SVG Version: 6.00 Build 0)  -->
<svg version="1.1" id="lni_lni-arrow-top-right" xmlns="http://www.w3.org/2000/svg" xmlns:xlink="http://www.w3.org/1999/xlink"
	 x="0px" y="0px" viewBox="0 0 64 64" style="enable-background:new 0 0 64 64;" xml:space="preserve">
<g>
	<path d="M3,62.8c-0.4,0-0.9-0.2-1.2-0.5c-0.7-0.7-0.7-1.8,0-2.5L55.5,6.1C55.3,6,55.2,6,55,6L40.7,4.7c-1-0.1-1.7-0.9-1.6-1.9
		c0.1-1,0.9-1.7,1.9-1.6l14.4,1.2c3.3,0.3,5.9,2.9,6.2,6.2L62.7,23c0.1,1-0.6,1.8-1.6,1.9c-1,0.1-1.8-0.6-1.9-1.6L58,9
		c0-0.1,0-0.3-0.1-0.4L4.2,62.2C3.9,62.6,3.4,62.8,3,62.8z"/>
</g>
</svg>
