<?xml version="1.0" encoding="utf-8"?>
<!-- Generator: Adobe Illustrator 22.0.1, SVG Export Plug-In . SVG Version: 6.00 Build 0)  -->
<svg version="1.1" id="lni_lni-arrow-left" xmlns="http://www.w3.org/2000/svg" xmlns:xlink="http://www.w3.org/1999/xlink" x="0px"
	 y="0px" viewBox="0 0 64 64" style="enable-background:new 0 0 64 64;" xml:space="preserve">
<g>
	<path d="M10.7,44.3c-0.5,0-1-0.2-1.3-0.6l-6.9-8.2c-1.7-2-1.7-5,0-7l6.9-8.2c0.6-0.7,1.7-0.8,2.5-0.2c0.7,0.6,0.8,1.7,0.2,2.5
		l-6.5,7.7H61c1,0,1.8,0.8,1.8,1.8c0,1-0.8,1.8-1.8,1.8H5.6l6.5,7.7c0.6,0.7,0.5,1.8-0.2,2.5C11.5,44.2,11.1,44.3,10.7,44.3z"/>
</g>
</svg>
