<?xml version="1.0" encoding="utf-8"?>
<!-- Generator: Adobe Illustrator 22.0.1, SVG Export Plug-In . SVG Version: 6.00 Build 0)  -->
<svg version="1.1" id="lni_lni-arrow-left-circle" xmlns="http://www.w3.org/2000/svg" xmlns:xlink="http://www.w3.org/1999/xlink"
	 x="0px" y="0px" viewBox="0 0 64 64" style="enable-background:new 0 0 64 64;" xml:space="preserve">
<g>
	<path d="M32,62.7C15,62.7,1.3,48.9,1.3,32C1.3,15.1,15,1.3,32,1.3c17,0,30.8,13.8,30.8,30.7C62.8,48.9,49,62.7,32,62.7z M32,4.8
		C17,4.8,4.8,17,4.8,32C4.8,47,17,59.2,32,59.2C47,59.2,59.3,47,59.3,32C59.3,17,47,4.8,32,4.8z M21.9,41.6c-0.5,0-0.9-0.2-1.2-0.5
		l-5.5-5.6c-1.9-1.9-1.9-5,0-6.9l5.5-5.6c0.7-0.7,1.8-0.7,2.5,0c0.7,0.7,0.7,1.8,0,2.5l-4.8,4.9h29.5c1,0,1.8,0.8,1.8,1.8
		c0,1-0.8,1.8-1.8,1.8H18.4l4.8,4.9c0.7,0.7,0.7,1.8,0,2.5C22.8,41.4,22.3,41.6,21.9,41.6z"/>
</g>
</svg>
