<?xml version="1.0" encoding="utf-8"?>
<!-- Generator: Adobe Illustrator 22.0.1, SVG Export Plug-In . SVG Version: 6.00 Build 0)  -->
<svg version="1.1" id="lni_lni-arrows-horizontal" xmlns="http://www.w3.org/2000/svg" xmlns:xlink="http://www.w3.org/1999/xlink"
	 x="0px" y="0px" viewBox="0 0 64 64" style="enable-background:new 0 0 64 64;" xml:space="preserve">
<g>
	<path d="M53.3,44.3c-0.4,0-0.8-0.1-1.1-0.4c-0.7-0.6-0.8-1.7-0.2-2.5l6.4-7.6H5.6l6.4,7.6c0.6,0.7,0.5,1.8-0.2,2.5
		c-0.7,0.6-1.8,0.5-2.5-0.2l-6.8-8.1c-1.7-2-1.7-5,0-7l6.8-8.1c0.6-0.7,1.7-0.8,2.5-0.2c0.7,0.6,0.8,1.7,0.2,2.5l-6.4,7.6h52.8
		L52,22.6c-0.6-0.7-0.5-1.8,0.2-2.5c0.7-0.6,1.8-0.5,2.5,0.2l6.8,8.1c1.7,2,1.7,5,0,7l-6.8,8.1C54.3,44,53.8,44.3,53.3,44.3z"/>
</g>
</svg>
