<?xml version="1.0" encoding="utf-8"?>
<!-- Generator: Adobe Illustrator 22.0.1, SVG Export Plug-In . SVG Version: 6.00 Build 0)  -->
<svg version="1.1" id="lni_lni-arrow-right-circle" xmlns="http://www.w3.org/2000/svg" xmlns:xlink="http://www.w3.org/1999/xlink"
	 x="0px" y="0px" viewBox="0 0 64 64" style="enable-background:new 0 0 64 64;" xml:space="preserve">
<g>
	<path d="M43.4,22.9c-0.7-0.7-1.8-0.7-2.5,0s-0.7,1.8,0,2.5l4.8,4.9H16.2c-1,0-1.8,0.8-1.8,1.8c0,1,0.8,1.8,1.8,1.8h29.5l-4.8,4.9
		c-0.7,0.7-0.7,1.8,0,2.5c0.3,0.3,0.8,0.5,1.2,0.5c0.5,0,0.9-0.2,1.2-0.5l5.5-5.6c1.9-1.9,1.9-5,0-6.9L43.4,22.9z"/>
	<path d="M32,1.3C15,1.3,1.2,15,1.2,32C1.2,49,15,62.8,32,62.8C49,62.8,62.8,49,62.8,32C62.8,15,49,1.3,32,1.3z M32,59.3
		C17,59.3,4.7,47,4.7,32C4.7,17,17,4.8,32,4.8C47,4.8,59.3,17,59.3,32C59.3,47,47,59.3,32,59.3z"/>
</g>
</svg>
