<?xml version="1.0" encoding="utf-8"?>
<!-- Generator: Adobe Illustrator 22.0.1, SVG Export Plug-In . SVG Version: 6.00 Build 0)  -->
<svg version="1.1" id="lni_lni-arrow-down" xmlns="http://www.w3.org/2000/svg" xmlns:xlink="http://www.w3.org/1999/xlink" x="0px"
	 y="0px" viewBox="0 0 64 64" style="enable-background:new 0 0 64 64;" xml:space="preserve">
<path d="M43.9,52.1c-0.6-0.7-1.7-0.8-2.5-0.2l-7.7,6.5V3c0-1-0.8-1.8-1.8-1.8c-1,0-1.8,0.8-1.8,1.8v55.4l-7.7-6.5
	c-0.7-0.6-1.8-0.5-2.5,0.2c-0.6,0.7-0.5,1.8,0.2,2.5l8.2,6.9c1,0.9,2.3,1.3,3.5,1.3s2.5-0.4,3.5-1.3l8.2-6.9
	C44.4,54,44.5,52.9,43.9,52.1z"/>
</svg>
