<?xml version="1.0" encoding="utf-8"?>
<!-- Generator: Adobe Illustrator 22.0.1, SVG Export Plug-In . SVG Version: 6.00 Build 0)  -->
<svg version="1.1" id="lni_lni-arrow-down-circle" xmlns="http://www.w3.org/2000/svg" xmlns:xlink="http://www.w3.org/1999/xlink"
	 x="0px" y="0px" viewBox="0 0 64 64" style="enable-background:new 0 0 64 64;" xml:space="preserve">
<g>
	<path d="M32,62.8C15.1,62.8,1.3,49,1.3,32C1.3,15,15.1,1.3,32,1.3C48.9,1.3,62.7,15,62.7,32C62.7,49,48.9,62.8,32,62.8z M32,4.8
		C17,4.8,4.8,17,4.8,32C4.8,47,17,59.3,32,59.3C47,59.3,59.2,47,59.2,32C59.2,17,47,4.8,32,4.8z M32,50.3c-1.3,0-2.5-0.5-3.5-1.4
		l-5.6-5.5c-0.7-0.7-0.7-1.8,0-2.5c0.7-0.7,1.8-0.7,2.5,0l4.9,4.8V16.2c0-1,0.8-1.8,1.8-1.8c1,0,1.8,0.8,1.8,1.8v29.5l4.9-4.8
		c0.7-0.7,1.8-0.7,2.5,0s0.7,1.8,0,2.5l-5.6,5.5C34.5,49.8,33.2,50.3,32,50.3z"/>
</g>
</svg>
