<?xml version="1.0" encoding="utf-8"?>
<!-- Generator: Adobe Illustrator 22.0.1, SVG Export Plug-In . SVG Version: 6.00 Build 0)  -->
<svg version="1.1" id="lni_lni-arrow-top-left" xmlns="http://www.w3.org/2000/svg" xmlns:xlink="http://www.w3.org/1999/xlink"
	 x="0px" y="0px" viewBox="0 0 64 64" style="enable-background:new 0 0 64 64;" xml:space="preserve">
<g>
	<path d="M61,62.8c-0.4,0-0.9-0.2-1.2-0.5L6.1,8.5C6,8.7,6,8.8,6,9L4.7,23.3c-0.1,1-0.9,1.7-1.9,1.6c-1-0.1-1.7-0.9-1.6-1.9L2.5,8.7
		c0.3-3.3,2.9-5.9,6.2-6.2L23,1.3c1-0.1,1.8,0.6,1.9,1.6c0.1,1-0.6,1.8-1.6,1.9L9,6C8.8,6,8.7,6,8.5,6.1l53.7,53.7
		c0.7,0.7,0.7,1.8,0,2.5C61.9,62.6,61.4,62.8,61,62.8z"/>
</g>
</svg>
