<?xml version="1.0" encoding="utf-8"?>
<!-- Generator: Adobe Illustrator 22.0.1, SVG Export Plug-In . SVG Version: 6.00 Build 0)  -->
<svg version="1.1" id="lni_lni-arrow-up" xmlns="http://www.w3.org/2000/svg" xmlns:xlink="http://www.w3.org/1999/xlink" x="0px"
	 y="0px" viewBox="0 0 64 64" style="enable-background:new 0 0 64 64;" xml:space="preserve">
<path d="M43.7,9.4l-8.2-6.9c-2-1.7-5-1.7-7,0l-8.2,6.9c-0.7,0.6-0.8,1.7-0.2,2.5c0.6,0.7,1.7,0.8,2.5,0.2l7.7-6.5V61
	c0,1,0.8,1.8,1.8,1.8c1,0,1.8-0.8,1.8-1.8V5.6l7.7,6.5c0.3,0.3,0.7,0.4,1.1,0.4c0.5,0,1-0.2,1.3-0.6C44.5,11.1,44.4,10,43.7,9.4z"/>
</svg>
