<?xml version="1.0" encoding="utf-8"?>
<!-- Generator: Adobe Illustrator 22.0.1, SVG Export Plug-In . SVG Version: 6.00 Build 0)  -->
<svg version="1.1" id="lni_lni-dirction-alt" xmlns="http://www.w3.org/2000/svg" xmlns:xlink="http://www.w3.org/1999/xlink"
	 x="0px" y="0px" viewBox="0 0 64 64" style="enable-background:new 0 0 64 64;" xml:space="preserve">
<path d="M46.3,30.4h-10v-7.2h5c0.9,0,1.7-0.4,2.3-1l3.5-3.9c1.1-1.2,1.1-3,0-4.2l-3.5-3.9c-0.6-0.7-1.4-1-2.3-1h-5V3
	c0-1-0.8-1.8-1.8-1.8S32.9,2,32.9,3v6.2H17.7c-1.7,0-3.1,1.4-3.1,3.1v7.8c0,1.7,1.4,3.1,3.1,3.1h15.2v7.2H22.6c-0.9,0-1.7,0.4-2.3,1
	l-3.5,3.9c-1.1,1.2-1.1,3,0,4.2l3.5,3.9c0.6,0.7,1.4,1,2.3,1h10.2V61c0,1,0.8,1.8,1.8,1.8s1.8-0.8,1.8-1.8V44.5h10
	c1.7,0,3.1-1.4,3.1-3.1v-7.8C49.5,31.8,48.1,30.4,46.3,30.4z M18,12.7h23.2l3.2,3.5l-3.2,3.5H18V12.7z M46,41H22.8l-3.2-3.5l3.2-3.5
	H46V41z"/>
</svg>
