<?xml version="1.0" encoding="utf-8"?>
<!-- Generator: Adobe Illustrator 22.0.1, SVG Export Plug-In . SVG Version: 6.00 Build 0)  -->
<svg version="1.1" id="lni_lni-dirction-ltr" xmlns="http://www.w3.org/2000/svg" xmlns:xlink="http://www.w3.org/1999/xlink"
	 x="0px" y="0px" viewBox="0 0 64 64" style="enable-background:new 0 0 64 64;" xml:space="preserve">
<g>
	<path d="M24.2,24.9c0.7,0,1.2,0,1.7,0v14.7c0,1,0.8,1.8,1.8,1.8s1.8-0.8,1.8-1.8V4.8h8.7v34.8c0,1,0.8,1.8,1.8,1.8s1.8-0.8,1.8-1.8
		V4.8h13.8c1,0,1.8-0.8,1.8-1.8s-0.8-1.8-1.8-1.8H24.3c0,0,0,0,0,0c0,0,0,0-0.1,0c-6.7,0-11.9,5.2-11.9,11.8
		C12.3,19.6,17.6,24.9,24.2,24.9z M24.2,4.8c0.3,0,1,0,1.7,0c0,0,0,0,0,0v16.6c-0.4,0-1,0-1.7,0c-4.7,0-8.4-3.7-8.4-8.4
		C15.8,8.4,19.5,4.8,24.2,4.8z"/>
	<path d="M48,44.4c-0.8-0.6-1.9-0.5-2.5,0.3s-0.5,1.9,0.3,2.5l5.6,4.5H8.6c-1,0-1.8,0.8-1.8,1.8s0.8,1.8,1.8,1.8h42.9l-5.6,4.5
		c-0.8,0.6-0.9,1.7-0.3,2.5c0.3,0.4,0.9,0.7,1.4,0.7c0.4,0,0.8-0.1,1.1-0.4l7.9-6.3c0.8-0.6,1.3-1.6,1.3-2.7s-0.5-2-1.3-2.7L48,44.4
		z"/>
</g>
</svg>
