<?xml version="1.0" encoding="utf-8"?>
<!-- Generator: Adobe Illustrator 22.0.1, SVG Export Plug-In . SVG Version: 6.00 Build 0)  -->
<svg version="1.1" id="lni_lni-direction" xmlns="http://www.w3.org/2000/svg" xmlns:xlink="http://www.w3.org/1999/xlink" x="0px"
	 y="0px" viewBox="0 0 64 64" style="enable-background:new 0 0 64 64;" xml:space="preserve">
<path d="M58.8,17.3l-5-6.4c-0.9-1.1-2.2-1.8-3.6-1.8H26.2V3c0-1-0.8-1.8-1.8-1.8S22.7,2,22.7,3v6.2H8.7c-2.5,0-4.5,2-4.5,4.5v12.9
	c0,2.5,2,4.5,4.5,4.5h13.9V61c0,1,0.8,1.8,1.8,1.8s1.8-0.8,1.8-1.8V31.1h24.1c1.4,0,2.7-0.6,3.6-1.8l5-6.4
	C60.1,21.3,60.1,19,58.8,17.3z M56.1,20.8l-5,6.4c-0.2,0.3-0.5,0.4-0.8,0.4H8.7c-0.6,0-1-0.5-1-1V13.7c0-0.6,0.5-1,1-1h41.5
	c0.3,0,0.6,0.1,0.8,0.4l5,6.4C56.4,19.9,56.4,20.4,56.1,20.8z"/>
</svg>
