<?xml version="1.0" encoding="utf-8"?>
<!-- Generator: Adobe Illustrator 22.0.1, SVG Export Plug-In . SVG Version: 6.00 Build 0)  -->
<svg version="1.1" id="lni_lni-exit" xmlns="http://www.w3.org/2000/svg" xmlns:xlink="http://www.w3.org/1999/xlink" x="0px"
	 y="0px" viewBox="0 0 64 64" style="enable-background:new 0 0 64 64;" xml:space="preserve">
<g>
	<path d="M14.2,33.8h25.7c1,0,1.8-0.8,1.8-1.8c0-1-0.8-1.8-1.8-1.8H14.8l5.3-5.2c0.7-0.7,0.7-1.8,0-2.5c-0.7-0.7-1.8-0.7-2.5,0
		l-7.4,7.4c-0.6,0.6-1,1.5-1,2.3c0,0.9,0.3,1.7,1,2.3l7.4,7.4c0.3,0.3,0.8,0.5,1.2,0.5c0.4,0,0.9-0.2,1.2-0.5c0.7-0.7,0.7-1.8,0-2.5
		L14.2,33.8z"/>
	<path d="M46.3,1.3H34.6c-2.4,0-4.4,2-4.4,4.4v9.2c0,1,0.8,1.8,1.8,1.8c1,0,1.8-0.8,1.8-1.8V5.6c0-0.5,0.4-0.9,0.9-0.9h11.7
		c2.8,0,5,2.3,5,5v44.4c0,2.8-2.3,5-5,5H34.6c-0.5,0-0.9-0.4-0.9-0.9v-9.2c0-1-0.8-1.8-1.8-1.8c-1,0-1.8,0.8-1.8,1.8v9.2
		c0,2.4,2,4.4,4.4,4.4h11.7c4.7,0,8.5-3.8,8.5-8.5V9.8C54.8,5.1,51,1.3,46.3,1.3z"/>
</g>
</svg>
