<?xml version="1.0" encoding="utf-8"?>
<!-- Generator: Adobe Illustrator 22.0.1, SVG Export Plug-In . SVG Version: 6.00 Build 0)  -->
<svg version="1.1" id="lni_lni-exit-down" xmlns="http://www.w3.org/2000/svg" xmlns:xlink="http://www.w3.org/1999/xlink" x="0px"
	 y="0px" viewBox="0 0 64 64" style="enable-background:new 0 0 64 64;" xml:space="preserve">
<g>
	<path d="M29.3,40.7c0.6,0.6,1.5,1,2.3,1h0c0.9,0,1.7-0.3,2.3-1l7.4-7.4c0.7-0.7,0.7-1.8,0-2.5c-0.7-0.7-1.8-0.7-2.5,0l-5.5,5.5
		V10.9c0-1-0.8-1.8-1.8-1.8c-1,0-1.8,0.8-1.8,1.8v25.4l-5.5-5.5c-0.7-0.7-1.8-0.7-2.5,0c-0.7,0.7-0.7,1.8,0,2.5L29.3,40.7z"/>
	<path d="M58.4,30.2h-9.2c-1,0-1.8,0.8-1.8,1.8c0,1,0.8,1.8,1.8,1.8h9.2c0.5,0,0.9,0.4,0.9,0.9v11.7c0,2.8-2.3,5-5,5H9.8
		c-2.8,0-5-2.3-5-5V34.6c0-0.5,0.4-0.9,0.9-0.9h9.2c1,0,1.8-0.8,1.8-1.8c0-1-0.8-1.8-1.8-1.8H5.6c-2.4,0-4.4,2-4.4,4.4v11.7
		c0,4.7,3.8,8.5,8.5,8.5h44.4c4.7,0,8.5-3.8,8.5-8.5V34.6C62.8,32.2,60.8,30.2,58.4,30.2z"/>
</g>
</svg>
