<?xml version="1.0" encoding="utf-8"?>
<!-- Generator: Adobe Illustrator 22.0.1, SVG Export Plug-In . SVG Version: 6.00 Build 0)  -->
<svg version="1.1" id="lni_lni-pointer-top" xmlns="http://www.w3.org/2000/svg" xmlns:xlink="http://www.w3.org/1999/xlink"
	 x="0px" y="0px" viewBox="0 0 64 64" style="enable-background:new 0 0 64 64;" xml:space="preserve">
<g>
	<path d="M38.6,62.7c-4.5,0-9.8-0.8-13.7-2.8c-4.6-2.4-7.7-8.7-9.1-11.7c-0.2-0.5-0.5-1-0.6-1.1c-3.1-5-5.7-8.9-8.3-12.3
		c-1.3-1.7-2.9-3.8-3-6.4c0-2.9,2-5.6,4.9-6.6c2.3-0.8,4.9-0.4,7.5,0.9c0.9,0.5,1.7,1,2.5,1.6c0-4.2-0.1-8.5,0.1-12.7
		c0.1-2,0.2-4,1-5.8c0.9-2.1,2.8-3.6,5.1-4.3c2.1-0.6,4.4-0.3,6.1,0.8c0.5,0.3,1,0.8,1.5,1.3c0,0,0,0,0,0c1.5,1.7,2.5,4.1,2.8,6.9
		c0.2,1.8,0.1,3.6,0,5.4c0,0.1,0,0.2,0,0.3c2.4-0.4,5.1,0.4,6.9,2.1c2.9-0.9,6.2,0.1,8.3,2.4c1.4-0.4,3-0.4,4.5,0.2
		c2.1,0.8,3.8,2.4,4.6,4.4c0.7,1.7,0.7,3.5,0.7,5c0,3.4,0.1,7-0.1,10.5c-0.2,4.8-0.9,10.9-4.5,15.3c-2.9,3.5-7.5,5.7-13.3,6.3
		C41.1,62.7,39.9,62.7,38.6,62.7z M11.3,24.9c-0.5,0-1,0.1-1.4,0.2c-1.2,0.4-2.5,1.7-2.5,3.2c0,1.4,1.1,2.9,2.2,4.2
		c2.7,3.5,5.5,7.5,8.6,12.6c0.2,0.3,0.4,0.8,0.7,1.4c1.2,2.5,4,8.2,7.6,10.1c4.2,2.2,10.9,2.7,15.3,2.3c3.4-0.4,8.1-1.6,11-5
		c2.9-3.6,3.5-8.9,3.7-13.2c0.1-3.4,0.1-6.9,0.1-10.3c0-1.3,0-2.7-0.5-3.8c-0.4-1.1-1.3-1.9-2.5-2.3c-1.1-0.4-2.2-0.3-3.1,0.2
		c-0.4,0.2-0.9,0.3-1.3,0.2c-0.4-0.1-0.8-0.4-1.1-0.8c-1.1-2-3.9-2.9-5.8-1.8c-0.8,0.4-1.7,0.2-2.3-0.5c-1.3-1.8-4-2.4-5.9-1.2
		c-0.5,0.3-1.2,0.4-1.8,0.1c-0.6-0.3-0.9-0.9-0.9-1.5c0-1,0.1-2,0.1-3c0.1-1.7,0.2-3.3,0.1-4.8c-0.2-2-0.9-3.8-1.9-4.9l0,0
		c-0.3-0.3-0.5-0.5-0.8-0.7c-0.9-0.6-2-0.7-3.2-0.4c-1.3,0.4-2.3,1.3-2.8,2.4c-0.6,1.2-0.6,2.7-0.7,4.5c-0.2,5.5-0.1,11.1,0,16.5
		c0,0.7-0.4,1.3-1,1.6c-0.6,0.3-1.4,0.2-1.9-0.3c-1.5-1.4-3-2.8-4.7-3.7C13.9,25.5,12.6,24.9,11.3,24.9z"/>
</g>
</svg>
