<?xml version="1.0" encoding="utf-8"?>
<!-- Generator: Adobe Illustrator 22.0.1, SVG Export Plug-In . SVG Version: 6.00 Build 0)  -->
<svg version="1.1" id="lni_lni-pointer-left" xmlns="http://www.w3.org/2000/svg" xmlns:xlink="http://www.w3.org/1999/xlink"
	 x="0px" y="0px" viewBox="0 0 64 64" style="enable-background:new 0 0 64 64;" xml:space="preserve">
<g>
	<path d="M35.4,60.1c-1.7,0-3.3,0-4.9,0c-1.6,0-3.3,0-5-0.7c-2-0.8-3.6-2.5-4.4-4.6c-0.5-1.5-0.6-3.1-0.2-4.5
		c-2.3-2-3.3-5.4-2.4-8.3c-1.8-1.8-2.5-4.5-2.1-6.9c-0.1,0-0.2,0-0.3,0c-1.7,0.1-3.5,0.2-5.4,0c-2.8-0.3-5.3-1.2-6.9-2.8
		c0,0,0,0,0,0c-0.5-0.4-0.9-0.9-1.3-1.5c-1.1-1.7-1.4-4-0.8-6.1c0.7-2.3,2.2-4.1,4.3-5.1c1.8-0.8,3.8-0.9,5.8-1
		c4.2-0.1,8.5-0.1,12.7-0.1c-0.6-0.8-1.1-1.6-1.6-2.5c-1.3-2.5-1.7-5.2-0.9-7.5c0.9-2.9,3.7-4.9,6.6-4.9c2.6,0,4.7,1.7,6.3,2.9
		c3.4,2.7,7.3,5.3,12.3,8.4c0.2,0.1,0.6,0.3,1.1,0.6c3,1.5,9.3,4.5,11.7,9.1c2.6,4.9,3.2,12.2,2.6,17.3c-0.6,5.8-2.8,10.4-6.3,13.3
		C51.9,59.1,45.8,59.8,41,60C39.1,60.1,37.2,60.1,35.4,60.1z M18.8,31.5c0.6,0,1.2,0.3,1.5,0.9c0.3,0.6,0.3,1.3-0.1,1.8
		c-1.2,1.8-0.6,4.6,1.2,5.9c0.7,0.5,1,1.5,0.5,2.3c-1,2-0.2,4.7,1.8,5.8c0.4,0.2,0.7,0.6,0.8,1.1s0.1,0.9-0.2,1.3
		c-0.5,0.9-0.6,2-0.2,3.1c0.4,1.2,1.3,2.1,2.3,2.5c1.1,0.4,2.5,0.4,3.8,0.5c3.4,0,6.9,0.1,10.3-0.1c4.3-0.2,9.7-0.8,13.2-3.7
		c3.5-2.9,4.7-7.6,5-11c0.5-4.4,0-11.1-2.3-15.3c-1.9-3.6-7.7-6.4-10.1-7.6c-0.7-0.3-1.1-0.5-1.4-0.7c-5.1-3.1-9.1-5.9-12.6-8.6
		c-1.4-1.1-2.8-2.2-4.3-2.2c0,0,0,0,0,0c-1.5,0-2.8,1.2-3.2,2.5c-0.6,1.9,0.2,3.8,0.7,4.8c0.9,1.7,2.3,3.2,3.7,4.7
		c0.5,0.5,0.6,1.3,0.3,1.9c-0.3,0.6-0.9,1-1.6,1c-5.4-0.1-11-0.1-16.5,0c-1.7,0-3.2,0.1-4.5,0.7c-1.1,0.5-2,1.6-2.4,2.8
		C4.6,27,4.7,28.1,5.3,29c0.2,0.3,0.4,0.6,0.7,0.8c1.1,1,2.8,1.7,4.9,1.9c1.6,0.1,3.2,0,4.8-0.1C16.7,31.6,17.8,31.5,18.8,31.5
		C18.8,31.5,18.8,31.5,18.8,31.5z"/>
</g>
</svg>
