<?xml version="1.0" encoding="utf-8"?>
<!-- Generator: Adobe Illustrator 22.0.1, SVG Export Plug-In . SVG Version: 6.00 Build 0)  -->
<svg version="1.1" id="lni_lni-pointer-down" xmlns="http://www.w3.org/2000/svg" xmlns:xlink="http://www.w3.org/1999/xlink"
	 x="0px" y="0px" viewBox="0 0 64 64" style="enable-background:new 0 0 64 64;" xml:space="preserve">
<g>
	<path d="M37,62.7c-1.4,0-2.8-0.4-3.9-1.1c-0.5-0.3-1-0.8-1.5-1.3c0,0,0,0,0,0c-1.5-1.7-2.5-4.1-2.8-6.9c-0.2-1.8-0.1-3.6,0-5.4
		c0-0.1,0-0.2,0-0.3c-2.4,0.4-5.1-0.4-6.9-2.1c-2.9,0.9-6.2-0.1-8.3-2.4c-1.4,0.4-3,0.4-4.5-0.2c-2.1-0.8-3.8-2.4-4.6-4.4
		c-0.7-1.7-0.7-3.5-0.7-5c0-3.5-0.1-7,0.1-10.5c0.2-4.8,0.9-10.9,4.5-15.3c2.9-3.5,7.5-5.7,13.3-6.3c5.1-0.6,12.4,0,17.3,2.6
		c4.6,2.4,7.7,8.7,9.1,11.7c0.2,0.5,0.5,1,0.6,1.1c3.1,5,5.7,8.9,8.3,12.3c1.3,1.7,2.9,3.8,3,6.4c0,2.9-2,5.6-4.9,6.6
		c-2.3,0.8-4.9,0.4-7.5-0.9c-0.9-0.5-1.7-1-2.5-1.6c0,4.2,0.1,8.5-0.1,12.7c-0.1,2-0.2,4-1,5.8c-0.9,2.1-2.8,3.6-5.1,4.3
		C38.4,62.6,37.7,62.7,37,62.7z M34.2,58c0.3,0.3,0.5,0.5,0.8,0.7c0.9,0.6,2,0.7,3.2,0.4c1.3-0.4,2.3-1.3,2.8-2.4
		c0.6-1.2,0.6-2.7,0.7-4.5c0.2-5.5,0.1-11.1,0-16.5c0-0.7,0.4-1.3,1-1.6c0.6-0.3,1.4-0.2,1.9,0.3c1.5,1.4,3,2.8,4.7,3.7
		c1,0.5,2.9,1.3,4.8,0.7c1.2-0.4,2.5-1.7,2.5-3.2c0-1.4-1.1-2.9-2.2-4.2c-2.7-3.5-5.5-7.5-8.6-12.6c-0.2-0.3-0.4-0.8-0.7-1.4
		c-1.2-2.5-4-8.2-7.6-10.1c-4.2-2.2-10.9-2.7-15.3-2.3c-3.4,0.4-8.1,1.6-11,5c-2.9,3.6-3.5,8.9-3.7,13.2c-0.1,3.4-0.1,6.9-0.1,10.3
		c0,1.4,0,2.7,0.5,3.9c0.4,1.1,1.3,1.9,2.5,2.3c1.1,0.4,2.2,0.3,3.1-0.2c0.4-0.2,0.9-0.3,1.3-0.2c0.4,0.1,0.8,0.4,1.1,0.8
		c1.1,2,3.9,2.9,5.8,1.8c0.8-0.4,1.7-0.2,2.3,0.5c1.3,1.8,4,2.4,5.9,1.2c0.5-0.3,1.2-0.4,1.8-0.1c0.6,0.3,0.9,0.9,0.9,1.5
		c0,1-0.1,2-0.1,3c-0.1,1.7-0.2,3.3-0.1,4.8C32.5,55.1,33.2,56.9,34.2,58L34.2,58z"/>
</g>
</svg>
