<?xml version="1.0" encoding="utf-8"?>
<!-- Generator: Adobe Illustrator 22.0.1, SVG Export Plug-In . SVG Version: 6.00 Build 0)  -->
<svg version="1.1" id="lni_lni-pointer-right" xmlns="http://www.w3.org/2000/svg" xmlns:xlink="http://www.w3.org/1999/xlink"
	 x="0px" y="0px" viewBox="0 0 64 64" style="enable-background:new 0 0 64 64;" xml:space="preserve">
<g>
	<path d="M28.6,60.1c-1.9,0-3.7,0-5.6-0.1c-4.8-0.2-10.9-0.9-15.3-4.5C4.3,52.6,2.1,48,1.4,42.2c-0.6-5.1,0-12.4,2.6-17.3
		c2.4-4.6,8.7-7.7,11.7-9.1c0.5-0.2,1-0.5,1.1-0.6c5-3.1,8.9-5.7,12.3-8.3c1.7-1.3,3.8-2.9,6.4-3c0,0,0.1,0,0.1,0
		c2.8,0,5.5,2,6.5,4.9c0.8,2.3,0.4,4.9-0.9,7.5c-0.5,0.9-1,1.7-1.6,2.5c4.2,0,8.5-0.1,12.7,0.1c2,0.1,4,0.2,5.8,1
		c2.1,0.9,3.6,2.8,4.3,5.1c0.6,2.1,0.3,4.4-0.8,6.1c-0.3,0.5-0.8,1-1.3,1.5c0,0,0,0,0,0c-1.7,1.5-4.1,2.5-6.9,2.8
		c-1.8,0.2-3.6,0.1-5.4,0c-0.1,0-0.2,0-0.3,0c0.4,2.5-0.4,5.1-2.1,6.9c0.9,2.9-0.1,6.2-2.4,8.3c0.4,1.4,0.4,3-0.2,4.5
		c-0.8,2.1-2.4,3.8-4.4,4.6c-1.7,0.7-3.5,0.7-5,0.7C31.9,60.1,30.3,60.1,28.6,60.1z M35.7,7.4C35.7,7.4,35.6,7.4,35.7,7.4
		c-1.5,0-2.9,1.1-4.3,2.2c-3.5,2.7-7.5,5.5-12.6,8.6c-0.3,0.2-0.8,0.4-1.4,0.7c-2.5,1.2-8.2,4-10.1,7.6c-2.2,4.2-2.7,10.9-2.3,15.3
		c0.4,3.4,1.6,8.1,5,11c3.6,2.9,8.9,3.5,13.2,3.7c3.4,0.1,6.9,0.1,10.3,0.1c1.3,0,2.7,0,3.8-0.5c1.1-0.4,1.9-1.3,2.3-2.5
		c0.4-1.1,0.3-2.2-0.2-3.1c-0.2-0.4-0.3-0.9-0.2-1.3c0.1-0.4,0.4-0.8,0.8-1.1c2-1.1,2.9-3.9,1.8-5.8c-0.4-0.8-0.2-1.7,0.5-2.3
		c1.8-1.3,2.4-4,1.2-5.9c-0.3-0.5-0.4-1.2-0.1-1.8c0.3-0.6,0.9-0.9,1.5-0.9c1,0,2,0.1,3,0.1c1.7,0.1,3.3,0.2,4.8,0.1
		c2-0.2,3.8-0.9,4.9-1.9l0,0c0.3-0.3,0.5-0.5,0.7-0.8c0.6-0.9,0.7-2,0.4-3.2c-0.4-1.3-1.3-2.3-2.4-2.8c-1.2-0.6-2.7-0.6-4.5-0.7
		c-5.5-0.2-11.1-0.1-16.5,0c-0.7,0-1.3-0.4-1.6-1s-0.2-1.4,0.3-1.9c1.4-1.5,2.8-3,3.7-4.7c0.5-1,1.3-2.9,0.7-4.8
		C38.4,8.6,37.1,7.4,35.7,7.4z M59.2,31.1L59.2,31.1L59.2,31.1z"/>
</g>
</svg>
