<?xml version="1.0" encoding="utf-8"?>
<!-- Generator: Adobe Illustrator 22.0.1, SVG Export Plug-In . SVG Version: 6.00 Build 0)  -->
<svg version="1.1" id="lni_lni-shift-right" xmlns="http://www.w3.org/2000/svg" xmlns:xlink="http://www.w3.org/1999/xlink"
	 x="0px" y="0px" viewBox="0 0 64 64" style="enable-background:new 0 0 64 64;" xml:space="preserve">
<g>
	<path d="M61,3.9c-1,0-1.8,0.8-1.8,1.8v52.7c0,1,0.8,1.8,1.8,1.8s1.8-0.8,1.8-1.8V5.6C62.8,4.7,62,3.9,61,3.9z"/>
	<path d="M41,22.8c-0.7-0.7-1.8-0.7-2.5,0c-0.7,0.7-0.7,1.8,0,2.5l5.1,5H3c-1,0-1.8,0.8-1.8,1.8S2,33.8,3,33.8h40.5l-5,4.9
		c-0.7,0.7-0.7,1.8,0,2.5c0.3,0.3,0.8,0.5,1.2,0.5c0.4,0,0.9-0.2,1.2-0.5l8-8c0.3-0.3,0.5-0.8,0.5-1.2c0-0.5-0.2-0.9-0.5-1.2
		L41,22.8z"/>
</g>
</svg>
