<?xml version="1.0" encoding="utf-8"?>
<!-- Generator: Adobe Illustrator 22.0.1, SVG Export Plug-In . SVG Version: 6.00 Build 0)  -->
<svg version="1.1" id="lni_lni-pyramids" xmlns="http://www.w3.org/2000/svg" xmlns:xlink="http://www.w3.org/1999/xlink" x="0px"
	 y="0px" viewBox="0 0 64 64" style="enable-background:new 0 0 64 64;" xml:space="preserve">
<g>
	<path d="M59.6,52.2H4.4c-1.2,0-2.2-0.6-2.8-1.6c-0.6-1-0.6-2.2,0-3.2l14.8-25c0.6-1,1.6-1.6,2.7-1.6c1.1,0,2.2,0.6,2.7,1.5l4.6,7.7
		l9.8-16.7c0.6-1,1.6-1.6,2.7-1.6c1.2,0,2.2,0.6,2.7,1.5l20.5,34.1c0.6,1,0.6,2.2,0,3.2C61.8,51.6,60.7,52.2,59.6,52.2z M5,48.7h54
		L39.1,15.6l-9.8,16.7c-0.6,1-1.6,1.6-2.7,1.6c0,0,0,0,0,0c-1.1,0-2.1-0.6-2.7-1.5l-4.6-7.7L5,48.7z"/>
</g>
</svg>
