<?xml version="1.0" encoding="utf-8"?>
<!-- Generator: Adobe Illustrator 22.0.1, SVG Export Plug-In . SVG Version: 6.00 Build 0)  -->
<svg version="1.1" id="lni_lni-surf-board" xmlns="http://www.w3.org/2000/svg" xmlns:xlink="http://www.w3.org/1999/xlink" x="0px"
	 y="0px" viewBox="0 0 64 64" style="enable-background:new 0 0 64 64;" xml:space="preserve">
<path d="M43.4,1.5c-0.6-0.3-1.3-0.3-1.9,0c-3.6,1.8-6.8,4.8-9.5,8.7c-2.7-3.9-5.9-6.9-9.5-8.7c-0.6-0.3-1.3-0.3-1.9,0
	C10.6,6.5,3.9,20.3,3.9,36c0,9.8,2.6,19,7.3,25.9c0.4,0.6,1,0.9,1.7,0.9h38.2c0.7,0,1.3-0.3,1.7-0.9c4.7-6.9,7.3-16.1,7.3-25.9
	C60.1,20.3,53.4,6.5,43.4,1.5z M21.6,4.9c3.4,1.9,6.5,5.1,8.9,9.4c1,1.7,1.8,3.6,2.5,5.5l-25.1,9C9.4,17.9,14.5,8.8,21.6,4.9z
	 M7.4,36c0-1.1,0-2.2,0.1-3.3l26.6-9.5c0.8,2.8,1.3,5.7,1.5,8.6l-27.9,10C7.5,39.9,7.4,37.9,7.4,36z M29.5,59.3H13.6
	c-2.6-4-4.4-8.7-5.4-14l27.5-9.8c0,0.2,0,0.3,0,0.5c0,8-1.9,15.7-5.3,21.7C30.2,58.2,29.8,58.7,29.5,59.3z M50.4,59.3H33.6
	c3.7-6.5,5.7-14.8,5.7-23.3c0-8.2-1.9-16.1-5.3-22.5c2.3-3.9,5.2-6.8,8.4-8.5C51,9.6,56.6,22,56.6,36C56.6,44.8,54.4,53,50.4,59.3z"
	/>
</svg>
