<?xml version="1.0" encoding="utf-8"?>
<!-- Generator: Adobe Illustrator 22.0.1, SVG Export Plug-In . SVG Version: 6.00 Build 0)  -->
<svg version="1.1" id="lni_lni-travel" xmlns="http://www.w3.org/2000/svg" xmlns:xlink="http://www.w3.org/1999/xlink" x="0px"
	 y="0px" viewBox="0 0 64 64" style="enable-background:new 0 0 64 64;" xml:space="preserve">
<g>
	<path d="M62.8,44.3c0-5.4-4.2-9.6-9.6-9.6c-5.3,0-9.7,4.3-9.7,9.6c0,3.5,3.8,9.8,6.3,13.6H18.1c-1.6,0-3.2-0.6-4.3-1.8
		c-1.5-1.5-2.1-3.6-1.7-5.7c0.5-2.8,3.2-4.8,6.3-4.8h10.2c2.6,0,5-1,6.8-2.8c2.7-2.7,3.5-6.5,2.3-10.1c-1.3-3.8-5-6.4-9.3-6.4H14.2
		c2.5-3.9,6.4-10.6,6.4-14.1c0-5.4-4.2-9.6-9.6-9.6c-5.3,0-9.7,4.3-9.7,9.6C1.3,16.8,8.1,27,9.5,29c0,0,0,0,0,0c0,0,0,0,0,0
		c0,0,0,0,0,0c0.1,0.1,0.1,0.2,0.2,0.3c0,0,0.1,0.1,0.1,0.1c0.1,0.1,0.1,0.1,0.2,0.2c0,0,0.1,0,0.1,0.1c0.1,0,0.2,0.1,0.3,0.1
		c0,0,0.1,0,0.1,0c0.1,0,0.3,0,0.4,0c0,0,0,0,0,0h17.6c2.7,0,5.2,1.6,6,4c0.8,2.4,0.3,4.8-1.5,6.5c-1.1,1.2-2.7,1.8-4.3,1.8H18.5
		c-4.8,0-8.8,3.2-9.7,7.7c-0.7,3.2,0.3,6.5,2.6,8.8c1.8,1.8,4.2,2.8,6.8,2.8h35c0.1,0,0.3,0,0.4,0c0,0,0.1,0,0.1,0
		c0.1,0,0.2-0.1,0.3-0.1c0,0,0.1,0,0.1-0.1c0.1,0,0.1-0.1,0.2-0.1c0,0,0.1-0.1,0.1-0.1c0.1-0.1,0.1-0.1,0.2-0.2c0,0,0,0,0.1-0.1
		C55.9,58.8,62.8,49,62.8,44.3z M10.9,6.1c3.4,0,6.1,2.7,6.1,6.1c0,2.3-3.3,8.3-6.1,12.7c-2.8-4.4-6.2-10.4-6.2-12.7
		C4.8,8.8,7.5,6.1,10.9,6.1z M53.2,38.3c3.4,0,6.1,2.7,6.1,6.1c0,2.3-3.3,8.1-6.1,12.3c-2.8-4.2-6.1-9.9-6.1-12.3
		C47,41,49.7,38.3,53.2,38.3z"/>
	<path d="M55.7,43.6c0-1.5-1.2-2.7-2.6-2.7c-1.5,0-2.6,1.2-2.6,2.7s1.2,2.7,2.6,2.7C54.6,46.2,55.7,45,55.7,43.6z"/>
	<path d="M13.5,11.4c0-1.5-1.2-2.7-2.6-2.7s-2.6,1.2-2.6,2.7S9.4,14,10.9,14S13.5,12.8,13.5,11.4z"/>
</g>
</svg>
