<?xml version="1.0" encoding="utf-8"?>
<!-- Generator: Adobe Illustrator 22.0.1, SVG Export Plug-In . SVG Version: 6.00 Build 0)  -->
<svg version="1.1" id="lni_lni-bolt" xmlns="http://www.w3.org/2000/svg" xmlns:xlink="http://www.w3.org/1999/xlink" x="0px"
	 y="0px" viewBox="0 0 64 64" style="enable-background:new 0 0 64 64;" xml:space="preserve">
<g>
	<path d="M25.3,62.8c-0.3,0-0.5-0.1-0.7-0.2c-0.7-0.3-1.1-1.1-1-1.9L27.7,39H7.5c-0.7,0-1.3-0.4-1.6-1c-0.3-0.6-0.2-1.3,0.2-1.8
		L31.7,2c0.5-0.6,1.2-0.9,2-0.6c0.7,0.2,1.2,0.9,1.2,1.7v18.5h21.7c0.7,0,1.3,0.4,1.6,1c0.3,0.6,0.2,1.3-0.2,1.9L26.7,62.1
		C26.3,62.5,25.8,62.8,25.3,62.8z M11,35.5h18.8c0.5,0,1,0.2,1.3,0.6c0.3,0.4,0.5,0.9,0.4,1.4l-3.2,17.1L52.8,25H33.1
		c-1,0-1.8-0.8-1.8-1.8v-15L11,35.5z"/>
</g>
</svg>
