<?xml version="1.0" encoding="utf-8"?>
<!-- Generator: Adobe Illustrator 22.0.1, SVG Export Plug-In . SVG Version: 6.00 Build 0)  -->
<svg version="1.1" id="lni_lni-bolt-alt" xmlns="http://www.w3.org/2000/svg" xmlns:xlink="http://www.w3.org/1999/xlink" x="0px"
	 y="0px" viewBox="0 0 64 64" style="enable-background:new 0 0 64 64;" xml:space="preserve">
<g>
	<path d="M23.5,62.8c-1,0-2-0.5-2.7-1.3c-1.3-1.5-0.9-3.4-0.7-4.3l5.7-24.3l-11.4,0c-0.7,0-2,0-3-0.8c-1.8-1.4-1.3-4-1.1-4.8
		l4.4-21.2c0.2-1,0.6-2.7,1.9-3.8c1.3-1,2.9-1,4-1l14.2,0c1.2,0,3.6,0,5,1.8c1.4,1.8,0.9,4.1,0.7,5.3L39,15l9.8,0.1
		c2.7,0,4.3,0.9,4.9,2.6c0.6,1.8-0.4,3.4-1,4.2L27.4,60.1c-0.5,0.7-1.2,1.8-2.3,2.3c-0.4,0.2-0.9,0.3-1.3,0.3h0
		C23.7,62.7,23.6,62.8,23.5,62.8z M23.6,61L23.6,61L23.6,61z M20.6,4.8c-0.6,0-1.4,0-1.8,0.3c-0.4,0.3-0.6,1.2-0.7,1.8L13.8,28
		c-0.2,1.1-0.1,1.4-0.1,1.4c0.1,0,0.6,0,0.8,0l13.6,0c0.5,0,1,0.2,1.4,0.7c0.3,0.4,0.5,1,0.3,1.5L23.5,58c-0.2,0.9-0.2,1.1-0.1,1.2
		c0.1,0.1,0.1,0.1,0.1,0.1c0.3-0.2,0.7-0.7,1-1.1l25.3-38.3c0.5-0.7,0.6-1,0.6-1.1c-0.1,0-0.4-0.2-1.6-0.2l-11.9-0.1
		c-0.5,0-1-0.2-1.4-0.7c-0.3-0.4-0.5-1-0.3-1.5l1.9-8.8c0.1-0.6,0.4-1.9,0-2.3c-0.4-0.5-1.7-0.5-2.3-0.5L20.6,4.8
		C20.6,4.8,20.6,4.8,20.6,4.8z"/>
</g>
</svg>
