<?xml version="1.0" encoding="utf-8"?>
<!-- Generator: Adobe Illustrator 22.0.1, SVG Export Plug-In . SVG Version: 6.00 Build 0)  -->
<svg version="1.1" id="lni_lni-checkmark-circle" xmlns="http://www.w3.org/2000/svg" xmlns:xlink="http://www.w3.org/1999/xlink"
	 x="0px" y="0px" viewBox="0 0 64 64" style="enable-background:new 0 0 64 64;" xml:space="preserve">
<g>
	<g>
		<path d="M32,62.8C15,62.8,1.3,49,1.3,32C1.3,15,15,1.3,32,1.3C49,1.3,62.8,15,62.8,32C62.8,49,49,62.8,32,62.8z M32,4.8
			C17,4.8,4.8,17,4.8,32C4.8,47,17,59.3,32,59.3C47,59.3,59.3,47,59.3,32C59.3,17,47,4.8,32,4.8z"/>
	</g>
	<g>
		<path d="M28.6,39c-0.7,0-1.3-0.2-1.9-0.7l-6.6-6.4c-0.7-0.7-0.7-1.8,0-2.5c0.7-0.7,1.8-0.7,2.5,0l6,5.9l12.8-12.4
			c0.7-0.7,1.8-0.7,2.5,0c0.7,0.7,0.7,1.8,0,2.5l-13.3,13C29.9,38.8,29.2,39,28.6,39z"/>
	</g>
</g>
</svg>
