<?xml version="1.0" encoding="utf-8"?>
<!-- Generator: Adobe Illustrator 22.0.1, SVG Export Plug-In . SVG Version: 6.00 Build 0)  -->
<svg version="1.1" id="lni_lni-check-box" xmlns="http://www.w3.org/2000/svg" xmlns:xlink="http://www.w3.org/1999/xlink" x="0px"
	 y="0px" viewBox="0 0 64 64" style="enable-background:new 0 0 64 64;" xml:space="preserve">
<g id="Layer_2_1_">
</g>
<path d="M62.2,8.4c-0.7-0.7-1.8-0.7-2.5,0L55,13.1V9.9c0-2.6-2.1-4.8-4.8-4.8H6c-2.6,0-4.8,2.1-4.8,4.8v44.3c0,2.6,2.1,4.8,4.8,4.8
	h44.3c2.6,0,4.8-2.1,4.8-4.8V18.1l7.2-7.2C62.9,10.2,62.9,9,62.2,8.4z M51.5,54.1c0,0.7-0.6,1.3-1.3,1.3H6c-0.7,0-1.3-0.6-1.3-1.3
	V9.9c0-0.7,0.6-1.3,1.3-1.3h44.3c0.7,0,1.3,0.6,1.3,1.3v6.8L40.4,27.8L33.6,21c-0.7-0.7-1.8-0.7-2.5,0c-0.7,0.7-0.7,1.8,0,2.5
	l8.1,8.1c0,0,0,0,0,0c0,0,0,0,0,0c0.1,0.1,0.1,0.1,0.2,0.1c0,0,0.1,0.1,0.1,0.1c0.1,0,0.1,0.1,0.2,0.1c0,0,0.1,0.1,0.1,0.1
	c0.1,0,0.1,0,0.2,0.1c0,0,0.1,0,0.1,0c0.1,0,0.2,0,0.3,0c0.1,0,0.2,0,0.3,0c0.1,0,0.1,0,0.1,0c0.1,0,0.1,0,0.2-0.1
	c0.1,0,0.1-0.1,0.1-0.1c0.1,0,0.1-0.1,0.2-0.1c0,0,0.1-0.1,0.1-0.1c0.1,0,0.1-0.1,0.2-0.1c0,0,0,0,0,0c0,0,0,0,0,0l9.9-10V54.1z"/>
</svg>
