<?xml version="1.0" encoding="utf-8"?>
<!-- Generator: Adobe Illustrator 22.0.1, SVG Export Plug-In . SVG Version: 6.00 Build 0)  -->
<svg version="1.1" id="lni_lni-circle-plus" xmlns="http://www.w3.org/2000/svg" xmlns:xlink="http://www.w3.org/1999/xlink"
	 x="0px" y="0px" viewBox="0 0 64 64" style="enable-background:new 0 0 64 64;" xml:space="preserve">
<g>
	<path d="M42.6,30.2C42.6,30.2,42.5,30.2,42.6,30.2l-8.8,0l0-8.8c0-1-0.8-1.7-1.8-1.7c0,0,0,0,0,0c-1,0-1.7,0.8-1.7,1.8l0,8.8
		l-8.8,0c-1,0-1.7,0.8-1.7,1.8c0,1,0.8,1.7,1.8,1.7c0,0,0,0,0,0l8.8,0l0,8.8c0,1,0.8,1.7,1.8,1.7c0,0,0,0,0,0c1,0,1.7-0.8,1.7-1.8
		l0-8.8l8.8,0c1,0,1.7-0.8,1.7-1.8C44.3,31,43.5,30.2,42.6,30.2z"/>
	<path d="M32,1.3C15,1.3,1.3,15,1.3,32S15,62.8,32,62.8S62.8,49,62.8,32S49,1.3,32,1.3z M32,59.3C17,59.3,4.8,47,4.8,32
		S17,4.8,32,4.8S59.3,17,59.3,32S47,59.3,32,59.3z"/>
</g>
</svg>
