<?xml version="1.0" encoding="utf-8"?>
<!-- Generator: Adobe Illustrator 22.0.1, SVG Export Plug-In . SVG Version: 6.00 Build 0)  -->
<svg version="1.1" id="lni_lni-eye" xmlns="http://www.w3.org/2000/svg" xmlns:xlink="http://www.w3.org/1999/xlink" x="0px"
	 y="0px" viewBox="0 0 64 64" style="enable-background:new 0 0 64 64;" xml:space="preserve">
<g>
	<path d="M32,25c-3.9,0-7,3.2-7,7s3.2,7,7,7s7-3.2,7-7S35.9,25,32,25z M32,35.5c-1.9,0-3.5-1.6-3.5-3.5c0-1.9,1.6-3.5,3.5-3.5
		c1.9,0,3.5,1.6,3.5,3.5C35.5,33.9,33.9,35.5,32,35.5z"/>
	<path d="M62.4,30.8c-6.6-10.4-18-16.6-30.4-16.6c-12.4,0-23.8,6.2-30.4,16.6c-0.4,0.7-0.4,1.6,0,2.3c6.6,10.4,18,16.6,30.4,16.6
		c12.4,0,23.8-6.2,30.4-16.6l0,0C62.9,32.4,62.9,31.5,62.4,30.8z M32,46.2c-10.9,0-21-5.3-27-14.3c6-8.9,16.1-14.2,27-14.2
		c10.9,0,21,5.3,27,14.2C53,40.9,42.9,46.2,32,46.2z"/>
</g>
</svg>
