<?xml version="1.0" encoding="utf-8"?>
<!-- Generator: Adobe Illustrator 22.0.1, SVG Export Plug-In . SVG Version: 6.00 Build 0)  -->
<svg version="1.1" id="lni_lni-flag-alt" xmlns="http://www.w3.org/2000/svg" xmlns:xlink="http://www.w3.org/1999/xlink" x="0px"
	 y="0px" viewBox="0 0 64 64" style="enable-background:new 0 0 64 64;" xml:space="preserve">
<path d="M52.1,33.9l-3.6-8.5l3.6-8.5c0-0.1,0.1-0.2,0.1-0.4c0-0.1,0-0.2,0-0.4c0-1-0.8-1.8-1.8-1.8H33.8v-3.5c0-1-0.8-1.8-1.8-1.8
	H15.3V3c0-1-0.8-1.8-1.8-1.8S11.8,2,11.8,3v6.2v22V61c0,1,0.8,1.8,1.8,1.8s1.8-0.8,1.8-1.8V31.1h15v2.4c0,1.6,1.3,2.9,2.9,2.9h17.3
	c1,0,1.8-0.8,1.8-1.8C52.2,34.4,52.2,34.2,52.1,33.9C52.1,33.9,52.1,33.9,52.1,33.9z M15.3,27.6v-15h15v14.1v0.9H15.3z M33.8,26.7
	v-8.8h14.1l-3.2,7.5l3.2,7.5H33.8V26.7z"/>
</svg>
