<?xml version="1.0" encoding="utf-8"?>
<!-- Generator: Adobe Illustrator 22.0.1, SVG Export Plug-In . SVG Version: 6.00 Build 0)  -->
<svg version="1.1" id="lni_lni-hand" xmlns="http://www.w3.org/2000/svg" xmlns:xlink="http://www.w3.org/1999/xlink" x="0px"
	 y="0px" viewBox="0 0 64 64" style="enable-background:new 0 0 64 64;" xml:space="preserve">
<style type="text/css">
	.st0{fill:#030104;}
</style>
<path class="st0" d="M52.6,45.6l0-30.1c0-2.8-2.5-5.2-5.7-5.2c-0.8,0-1.5,0.1-2.1,0.4V8.8c0-2.8-2.5-5.2-5.7-5.2
	c-1.3,0-2.4,0.4-3.3,1c-1-1.2-2.7-2-4.5-2c-2.6,0-4.7,1.6-5.4,3.7c-0.7-0.3-1.5-0.5-2.4-0.5c-3.1,0-5.7,2.3-5.7,5.2v22.6L15.7,31
	c-2.1-2.8-6.1-3.7-9.1-2.1c-1.5,0.8-2.5,2.2-2.9,3.8c-0.4,1.7,0,3.4,1.1,4.8c1.8,2.4,3.7,4.9,5.5,7.3l3.3,4.4
	c0.5,0.6,0.9,1.3,1.4,1.9c1.4,2,2.9,4,4.9,5.7c3.8,3.2,9,4.4,13.9,4.4c2.4,0,4.7-0.3,6.8-0.7C52.6,58,52.6,49,52.6,45.6z M39.9,57.2
	c-5.2,1.1-13,1-17.7-2.9c-1.6-1.4-2.9-3.2-4.3-5.1c-0.5-0.7-1-1.4-1.5-2l-3.3-4.4c-1.8-2.4-3.7-4.9-5.5-7.3c-0.5-0.6-0.6-1.3-0.5-2
	c0.1-0.6,0.5-1.1,1.1-1.5c1.5-0.8,3.6-0.3,4.6,1.1c0,0,0,0.1,0.1,0.1l5.3,6.3c0.5,0.6,1.2,0.8,1.9,0.5c0.7-0.3,1.2-0.9,1.2-1.6V11.1
	c0-0.9,1-1.7,2.2-1.7c1.1,0,2.1,0.7,2.1,1.6v0.4c0,0,0,0.1,0,0.1v16.9c0,1,0.8,1.8,1.8,1.8s1.8-0.8,1.8-1.8V11.1c0-0.1,0-0.1,0-0.2
	v-3c0-0.9,1-1.7,2.2-1.7s2.2,0.8,2.2,1.7v1v19.9v0.4c0,1,0.8,1.8,1.8,1.8s1.8-0.8,1.8-1.8v-0.4V8.8c0-0.9,1-1.7,2.2-1.7
	c1.2,0,2.2,0.8,2.2,1.7v6.4c0,0.1,0,0.1,0,0.2v2.7c0,0,0,0.1,0,0.1v12.8c0,1,0.8,1.8,1.8,1.8s1.8-0.8,1.8-1.8V15.4
	c0.1-0.9,1-1.6,2.1-1.6c1.2,0,2.2,0.8,2.2,1.7v29.8l0,0.4C49.1,49,49.1,55.2,39.9,57.2z"/>
</svg>
