<?xml version="1.0" encoding="utf-8"?>
<!-- Generator: Adobe Illustrator 22.0.1, SVG Export Plug-In . SVG Version: 6.00 Build 0)  -->
<svg version="1.1" id="lni_lni-heart" xmlns="http://www.w3.org/2000/svg" xmlns:xlink="http://www.w3.org/1999/xlink" x="0px"
	 y="0px" viewBox="0 0 64 64" style="enable-background:new 0 0 64 64;" xml:space="preserve">
<g>
	<path d="M32,59.4c-1.2,0-2.5-0.4-3.4-1.3c-2.3-2-4.6-3.9-6.6-5.6c-5.9-5-11-9.3-14.6-13.6c-4.2-5-6.2-9.8-6.2-15.1
		c0-5.2,1.8-10,5.1-13.5c3.3-3.6,7.9-5.6,12.9-5.6c3.7,0,7.2,1.2,10.2,3.5c0.9,0.7,1.8,1.5,2.6,2.4c0.8-0.9,1.7-1.7,2.6-2.4
		c3-2.3,6.4-3.5,10.2-3.5c5,0,9.5,2,12.9,5.6c3.3,3.5,5.1,8.3,5.1,13.5c0,5.3-2,10.1-6.2,15.1C53,43.2,47.9,47.5,42,52.5
		c-2,1.7-4.3,3.6-6.6,5.6C34.5,58.9,33.2,59.4,32,59.4z M19.2,8.1c-4,0-7.7,1.6-10.3,4.5c-2.7,2.9-4.1,6.8-4.1,11.1
		c0,4.4,1.7,8.5,5.3,12.9c3.4,4.1,8.4,8.3,14.2,13.2c2,1.7,4.3,3.6,6.6,5.7c0.6,0.5,1.6,0.5,2.2,0c2.4-2,4.6-4,6.6-5.7
		c5.8-4.9,10.8-9.1,14.2-13.2c3.6-4.4,5.3-8.5,5.3-12.9c0-4.3-1.5-8.2-4.1-11.1c-2.7-2.9-6.3-4.5-10.3-4.5c-3,0-5.7,0.9-8,2.8
		c-1,0.7-1.8,1.6-2.7,2.6c-0.5,0.6-1.3,1-2.1,1c0,0,0,0,0,0c-0.8,0-1.6-0.4-2.1-1c-0.8-1-1.7-1.9-2.7-2.6
		C24.9,9.1,22.2,8.1,19.2,8.1z"/>
</g>
</svg>
