<?xml version="1.0" encoding="utf-8"?>
<!-- Generator: Adobe Illustrator 22.0.1, SVG Export Plug-In . SVG Version: 6.00 Build 0)  -->
<svg version="1.1" id="lni_lni-help" xmlns="http://www.w3.org/2000/svg" xmlns:xlink="http://www.w3.org/1999/xlink" x="0px"
	 y="0px" viewBox="0 0 64 64" style="enable-background:new 0 0 64 64;" xml:space="preserve">
<g>
	<path d="M45.1,13.5C44.5,7.3,39.4,2.2,33,1.3c-5.8-0.6-11.3,2.3-14,7.4c-0.4,0.9-0.1,1.9,0.7,2.4c0.9,0.4,1.9,0.1,2.4-0.7
		c2-3.9,6.1-6,10.5-5.6c4.8,0.6,8.6,4.4,9.1,9.1c0.5,4.4-1.8,8.5-5.8,10.4c-3.8,1.8-6.3,5.9-6.3,10.2v13.8c0,1,0.8,1.8,1.8,1.8
		s1.8-0.8,1.8-1.8V34.5c0-3,1.7-5.8,4.3-7.1C42.7,25,45.8,19.3,45.1,13.5z"/>
	<path d="M31.3,55.9c-1.4,0-2.5,1.1-2.5,2.5c0,1.4,1.1,2.5,2.5,2.5s2.5-1.1,2.5-2.5C33.9,57.1,32.7,55.9,31.3,55.9z"/>
</g>
</svg>
