<?xml version="1.0" encoding="utf-8"?>
<!-- Generator: Adobe Illustrator 22.0.1, SVG Export Plug-In . SVG Version: 6.00 Build 0)  -->
<svg version="1.1" id="lni_lni-infinite" xmlns="http://www.w3.org/2000/svg" xmlns:xlink="http://www.w3.org/1999/xlink" x="0px"
	 y="0px" viewBox="0 0 64 64" style="enable-background:new 0 0 64 64;" xml:space="preserve">
<g>
	<path d="M49.1,45.6c-2.2,0-4.3-0.5-6.2-1.5l-0.8-0.4c-3-1.5-5.6-3.5-8-5.8L32,35.8l-1.4,1.4c-2.9,2.9-7.7,6-9.5,6.9
		c-3.3,1.7-7,2-10.6,0.8C5.6,43.3,2,39,1.4,33.8C0.9,29.9,2,26,4.6,23c2.6-2.9,6.3-4.6,10.2-4.6c4.8,0,7.3,2.6,9.8,5.2l7.3,7.3
		l4.7-4.7c3.1-3.1,7.7-7.8,12.5-7.8c3.9,0,7.7,1.7,10.2,4.6c2.6,2.9,3.8,6.9,3.3,10.8c-0.7,5.1-4.3,9.5-9.2,11.1
		C52,45.4,50.6,45.6,49.1,45.6z M36.6,35.4c2.1,2.1,4.5,3.8,7.1,5.2l0.8,0.4c2.4,1.3,5.2,1.5,7.9,0.6c3.6-1.2,6.3-4.4,6.8-8.2
		c0.4-3-0.5-5.8-2.4-8.1c-1.9-2.2-4.7-3.4-7.6-3.4c-3.3,0-7.5,4.2-10,6.7l-4.7,4.7L36.6,35.4z M14.9,21.9c-2.9,0-5.7,1.3-7.6,3.4
		c-1.9,2.2-2.8,5.1-2.4,8.1c0.5,3.8,3.2,7,6.8,8.2c2.7,0.9,5.5,0.7,7.9-0.6c1.7-0.9,6.2-3.8,8.6-6.3l1.4-1.4L22.2,26
		C19.9,23.7,18.2,21.9,14.9,21.9z"/>
</g>
</svg>
