<?xml version="1.0" encoding="utf-8"?>
<!-- Generator: Adobe Illustrator 22.0.1, SVG Export Plug-In . SVG Version: 6.00 Build 0)  -->
<svg version="1.1" id="lni_lni-invention" xmlns="http://www.w3.org/2000/svg" xmlns:xlink="http://www.w3.org/1999/xlink" x="0px"
	 y="0px" viewBox="0 0 64 64" style="enable-background:new 0 0 64 64;" xml:space="preserve">
<g>
	<path d="M43.3,22.3c-3.3-3.1-7.6-4.6-12.2-4.4c-8.5,0.5-15.2,7.5-15.2,15.9c-0.1,5.4,2.5,10.3,6.8,13.4v7.5c0,3.4,2.8,6.1,6.2,6.1
		h6.2c3.4,0,6.2-2.8,6.2-6.1v-7.4c4.4-3,7-7.9,7-13.2C48.3,29.5,46.5,25.4,43.3,22.3L43.3,22.3z M35.1,57.2h-6.2
		c-1.5,0-2.7-1.2-2.7-2.6v-6.6h11.7v6.6C37.8,56,36.6,57.2,35.1,57.2z M39.1,44.4h-5.3v-3.2c0-1-0.8-1.8-1.8-1.8s-1.8,0.8-1.8,1.8
		v3.2H25c-3.6-2.3-5.7-6.3-5.7-10.7c0.1-6.5,5.3-12,11.9-12.4c0.2,0,0.5,0,0.7,0c3.4,0,6.5,1.2,8.9,3.5c2.5,2.4,3.9,5.7,3.9,9.1
		C44.8,38.2,42.7,42.1,39.1,44.4z"/>
	<path d="M32,12.6c1,0,1.8-0.8,1.8-1.8V5.1c0-1-0.8-1.8-1.8-1.8s-1.8,0.8-1.8,1.8v5.8C30.3,11.8,31,12.6,32,12.6z"/>
	<path d="M57.6,16c0.7-0.7,0.7-1.8,0-2.5c-0.7-0.7-1.8-0.7-2.5,0l-4,3.9c-0.7,0.7-0.7,1.8,0,2.5c0.3,0.3,0.8,0.5,1.2,0.5
		c0.4,0,0.9-0.2,1.2-0.5L57.6,16z"/>
	<path d="M8.8,13.6c-0.7-0.7-1.8-0.7-2.5,0c-0.7,0.7-0.7,1.8,0,2.5l3.9,3.9c0.3,0.3,0.8,0.5,1.2,0.5s0.9-0.2,1.2-0.5
		c0.7-0.7,0.7-1.8,0-2.5L8.8,13.6z"/>
	<path d="M8.8,36.4H3c-1,0-1.8,0.8-1.8,1.8S2,39.9,3,39.9h5.8c1,0,1.8-0.8,1.8-1.8S9.7,36.4,8.8,36.4z"/>
	<path d="M61,36.4h-5.8c-1,0-1.8,0.8-1.8,1.8s0.8,1.8,1.8,1.8H61c1,0,1.8-0.8,1.8-1.8S62,36.4,61,36.4z"/>
</g>
</svg>
