<?xml version="1.0" encoding="utf-8"?>
<!-- Generator: Adobe Illustrator 22.0.1, SVG Export Plug-In . SVG Version: 6.00 Build 0)  -->
<svg version="1.1" id="lni_lni-key" xmlns="http://www.w3.org/2000/svg" xmlns:xlink="http://www.w3.org/1999/xlink" x="0px"
	 y="0px" viewBox="0 0 64 64" style="enable-background:new 0 0 64 64;" xml:space="preserve">
<path d="M60.7,44.2L48.8,32.3c-2.8-2.7-7.2-2.7-10,0l-2,2L11,7.3c-0.1-0.1-0.2-0.2-0.3-0.3c-0.1,0-0.1-0.1-0.2-0.1L5.7,1.8
	C5,1.1,3.9,1.1,3.2,1.7C2.5,2.4,2.5,3.5,3.2,4.2l3.9,4.1l-5.3,5.6c-0.7,0.7-0.6,1.8,0.1,2.5c0.3,0.3,0.8,0.5,1.2,0.5
	c0.5,0,0.9-0.2,1.3-0.5l5.2-5.5l6.6,6.9l-7.7,8c-0.7,0.7-0.6,1.8,0.1,2.5c0.3,0.3,0.8,0.5,1.2,0.5c0.5,0,0.9-0.2,1.3-0.5l7.6-7.9
	l15.8,16.5l-2,2c-2.8,2.8-2.7,7.2,0,10l11.8,12c1.4,1.4,3.2,2.1,5,2.1c1.8,0,3.6-0.7,5-2.1l6.5-6.4c1.3-1.3,2.1-3.1,2.1-5
	S62,45.5,60.7,44.2z M58.2,51.7l-6.5,6.4c-1.4,1.4-3.6,1.4-5.1,0L34.8,46.3c-1.4-1.4-1.4-3.6,0-5l3.1-3.1c0,0,0,0,0.1,0
	c0,0,0.1-0.1,0.1-0.1l3.2-3.2c0.7-0.7,1.6-1.1,2.5-1.1c0.9,0,1.8,0.4,2.5,1.1l11.8,11.9c0.7,0.7,1.1,1.6,1.1,2.6
	S58.9,51.1,58.2,51.7z"/>
</svg>
