<?xml version="1.0" encoding="utf-8"?>
<!-- Generator: Adobe Illustrator 22.0.1, SVG Export Plug-In . SVG Version: 6.00 Build 0)  -->
<svg version="1.1" id="lni_lni-lifering" xmlns="http://www.w3.org/2000/svg" xmlns:xlink="http://www.w3.org/1999/xlink" x="0px"
	 y="0px" viewBox="0 0 64 64" style="enable-background:new 0 0 64 64;" xml:space="preserve">
<g>
	<path d="M32,62.7c-7.9,0-15.7-3-21.7-9c-5.8-5.8-9-13.5-9-21.7c0-8.2,3.2-15.9,9-21.7c5.8-5.8,13.5-9,21.7-9c8.2,0,15.9,3.2,21.7,9
		c12,12,12,31.5,0,43.5C47.7,59.7,39.9,62.7,32,62.7z M19.8,56.4c3.7,1.9,7.9,2.8,12.2,2.8s8.4-1,12.2-2.8L32,44.2L19.8,56.4z
		 M9.4,47.3c1,1.4,2.1,2.8,3.3,4c1.2,1.2,2.6,2.3,4,3.3L29,42.3c-1.7-0.5-3.3-1.4-4.6-2.7s-2.2-2.9-2.7-4.6L9.4,47.3z M35,42.3
		l12.3,12.3c1.4-1,2.8-2.1,4-3.3c1.2-1.2,2.3-2.6,3.3-4L42.3,35c-0.5,1.7-1.4,3.3-2.7,4.6C38.3,40.9,36.7,41.8,35,42.3z M7.6,19.8
		C5.7,23.6,4.8,27.7,4.8,32c0,4.3,1,8.4,2.8,12.2L19.8,32L7.6,19.8z M44.2,32l12.2,12.2c1.9-3.7,2.8-7.9,2.8-12.2s-1-8.4-2.8-12.2
		L44.2,32z M32,24.8c-1.9,0-3.7,0.8-5.1,2.1s-2.1,3.2-2.1,5.1c0,1.9,0.8,3.7,2.1,5.1c1.4,1.4,3.2,2.1,5.1,2.1c1.9,0,3.7-0.8,5.1-2.1
		s2.1-3.2,2.1-5.1c0-1.9-0.8-3.7-2.1-5.1l0,0C35.7,25.5,33.9,24.8,32,24.8z M39.6,24.4c1.3,1.3,2.2,2.9,2.7,4.6l12.3-12.3
		c-1-1.4-2.1-2.8-3.3-4c-1.2-1.2-2.6-2.3-4-3.3L35,21.7C36.7,22.2,38.3,23.1,39.6,24.4L39.6,24.4L39.6,24.4L39.6,24.4z M9.4,16.7
		L21.7,29c0.5-1.7,1.4-3.3,2.7-4.6c1.3-1.3,2.9-2.2,4.6-2.7L16.7,9.4c-1.4,1-2.8,2.1-4,3.3C11.5,14,10.4,15.3,9.4,16.7z M19.8,7.6
		L32,19.8L44.2,7.6C40.4,5.7,36.3,4.8,32,4.8C27.7,4.8,23.6,5.7,19.8,7.6z"/>
</g>
</svg>
