<?xml version="1.0" encoding="utf-8"?>
<!-- Generator: Adobe Illustrator 22.0.1, SVG Export Plug-In . SVG Version: 6.00 Build 0)  -->
<svg version="1.1" id="lni_lni-list" xmlns="http://www.w3.org/2000/svg" xmlns:xlink="http://www.w3.org/1999/xlink" x="0px"
	 y="0px" viewBox="0 0 64 64" style="enable-background:new 0 0 64 64;" xml:space="preserve">
<g>
	<path d="M15.8,13.7H61c1,0,1.8-0.8,1.8-1.8S62,10.2,61,10.2H15.8c-1,0-1.8,0.8-1.8,1.8S14.9,13.7,15.8,13.7z"/>
	<path d="M61,30.3H15.8c-1,0-1.8,0.8-1.8,1.8s0.8,1.8,1.8,1.8H61c1,0,1.8-0.8,1.8-1.8S62,30.3,61,30.3z"/>
	<path d="M61,50.3H15.8c-1,0-1.8,0.8-1.8,1.8s0.8,1.8,1.8,1.8H61c1,0,1.8-0.8,1.8-1.8S62,50.3,61,50.3z"/>
	<path d="M5.8,9.1C4.2,9.1,3,10.4,3,11.9s1.2,2.8,2.8,2.8s2.8-1.2,2.8-2.8S7.3,9.1,5.8,9.1z"/>
	<path d="M5.8,29.2C4.2,29.2,3,30.5,3,32c0,1.5,1.2,2.8,2.8,2.8s2.8-1.2,2.8-2.8C8.6,30.5,7.3,29.2,5.8,29.2z"/>
	<path d="M5.8,49.3c-1.5,0-2.8,1.2-2.8,2.8s1.2,2.8,2.8,2.8s2.8-1.2,2.8-2.8S7.3,49.3,5.8,49.3z"/>
</g>
</svg>
