<?xml version="1.0" encoding="utf-8"?>
<!-- Generator: Adobe Illustrator 22.0.1, SVG Export Plug-In . SVG Version: 6.00 Build 0)  -->
<svg version="1.1" id="lni_lni-lock-alt" xmlns="http://www.w3.org/2000/svg" xmlns:xlink="http://www.w3.org/1999/xlink" x="0px"
	 y="0px" viewBox="0 0 64 64" style="enable-background:new 0 0 64 64;" xml:space="preserve">
<g>
	<path d="M46.9,19.9v-3.2c0-8-6-14.7-13.6-15.4c-4.2-0.4-8.4,1.1-11.5,3.9c-3,2.8-4.8,6.7-4.8,10.8v3.8c-6,0.9-10.5,6.1-10.5,12.3
		V51c0,6.5,5.3,11.8,11.8,11.8h27.3c6.5,0,11.8-5.3,11.8-11.8V32C57.5,25.9,52.9,20.9,46.9,19.9z M24.2,7.8c2.4-2.2,5.5-3.3,8.8-3
		c5.8,0.5,10.4,5.7,10.4,11.9v3H20.6V16C20.6,12.9,21.9,9.9,24.2,7.8z M54,50.9c0,4.6-3.7,8.3-8.3,8.3H18.3c-4.6,0-8.3-3.7-8.3-8.3
		V32.2c0-4.9,4-9,9-9h25.9c5,0,9.1,3.9,9.1,8.8V50.9z"/>
	<path d="M32,35.5c-1,0-1.8,0.8-1.8,1.8v2.6v2.6v5.3c0,1,0.8,1.8,1.8,1.8s1.8-0.8,1.8-1.8v-5.3v-2.6v-2.6C33.8,36.3,33,35.5,32,35.5
		z"/>
</g>
</svg>
