<?xml version="1.0" encoding="utf-8"?>
<!-- Generator: Adobe Illustrator 22.0.1, SVG Export Plug-In . SVG Version: 6.00 Build 0)  -->
<svg version="1.1" id="lni_lni-lock" xmlns="http://www.w3.org/2000/svg" xmlns:xlink="http://www.w3.org/1999/xlink" x="0px"
	 y="0px" viewBox="0 0 64 64" style="enable-background:new 0 0 64 64;" xml:space="preserve">
<g>
	<path d="M51.1,19.7h-6.8v-5c0-7.4-5.5-13.5-12.3-13.5S19.7,7.3,19.7,14.7v5h-6.8c-3.5,0-6.4,2.9-6.4,6.4v17.4
		c0,10.6,8.6,19.3,19.3,19.3h12.5c10.6,0,19.3-8.6,19.3-19.1V26.1C57.5,22.6,54.6,19.7,51.1,19.7z M23.2,14.7c0-5.5,3.9-10,8.8-10
		c4.9,0,8.8,4.5,8.8,10v4.9H23.2V14.7z M54,43.6c0,8.6-7.1,15.6-15.8,15.6H25.8c-8.7,0-15.8-7.1-15.8-15.8V26.1
		c0-1.6,1.3-2.9,2.9-2.9h38.2c1.6,0,2.9,1.3,2.9,2.9V43.6z"/>
	<path d="M36.3,40.8h-8.5c-1.5,0-2.8,1.2-2.8,2.8v8.5c0,1.5,1.2,2.8,2.8,2.8h8.5c1.5,0,2.8-1.2,2.8-2.8v-8.5
		C39,42,37.8,40.8,36.3,40.8z M35.5,51.3h-7v-7h7V51.3z"/>
</g>
</svg>
