<?xml version="1.0" encoding="utf-8"?>
<!-- Generator: Adobe Illustrator 22.0.1, SVG Export Plug-In . SVG Version: 6.00 Build 0)  -->
<svg version="1.1" id="lni_lni-pointer" xmlns="http://www.w3.org/2000/svg" xmlns:xlink="http://www.w3.org/1999/xlink" x="0px"
	 y="0px" viewBox="0 0 64 64" style="enable-background:new 0 0 64 64;" xml:space="preserve">
<g>
	<path d="M33.3,62.8c-1.5,0-2.8-0.8-3.5-2.1L1.7,7.1C0.9,5.5,1.2,3.7,2.4,2.4c1.3-1.3,3.1-1.5,4.7-0.7l53.5,28
		c1.4,0.7,2.2,2.2,2.1,3.8c-0.1,1.6-1.1,2.9-2.5,3.5l-16.7,6.5L37,60.2c-0.6,1.5-1.9,2.4-3.5,2.5C33.4,62.7,33.3,62.8,33.3,62.8z
		 M5.2,4.8C5.1,4.8,5,4.8,4.9,4.9C4.7,5.1,4.7,5.3,4.8,5.5l28,53.5c0.1,0.2,0.3,0.3,0.5,0.3c0.1,0,0.3-0.1,0.4-0.3l6.8-17.4
		c0.2-0.5,0.5-0.8,1-1l17.4-6.8c0.2-0.1,0.3-0.3,0.3-0.4c0-0.1,0-0.3-0.3-0.5L5.5,4.8C5.4,4.8,5.3,4.8,5.2,4.8z"/>
</g>
</svg>
