<?xml version="1.0" encoding="utf-8"?>
<!-- Generator: Adobe Illustrator 22.0.1, SVG Export Plug-In . SVG Version: 6.00 Build 0)  -->
<svg version="1.1" id="lni_lni-power-switch" xmlns="http://www.w3.org/2000/svg" xmlns:xlink="http://www.w3.org/1999/xlink"
	 x="0px" y="0px" viewBox="0 0 64 64" style="enable-background:new 0 0 64 64;" xml:space="preserve">
<g>
	<path d="M44.1,15.6c-0.8-0.5-1.9-0.2-2.4,0.7c-0.5,0.8-0.2,1.9,0.7,2.4c6.9,3.8,11.2,11.1,11.2,19c0,11.9-9.7,21.6-21.7,21.6
		c-11.9,0-21.7-9.7-21.7-21.6c0-7.8,4.2-15,10.9-18.8c0.8-0.5,1.1-1.5,0.7-2.4c-0.5-0.8-1.5-1.1-2.4-0.7
		C11.7,20.2,6.8,28.6,6.8,37.6c0,13.9,11.3,25.1,25.2,25.1c13.9,0,25.2-11.3,25.2-25.1C57.2,28.4,52.2,20,44.1,15.6z"/>
	<path d="M31.7,29.5c1,0,1.7-0.8,1.7-1.8V3c0-1-0.8-1.8-1.7-1.8S29.9,2,29.9,3v24.7C29.9,28.7,30.7,29.5,31.7,29.5z"/>
</g>
</svg>
