<?xml version="1.0" encoding="utf-8"?>
<!-- Generator: Adobe Illustrator 22.0.1, SVG Export Plug-In . SVG Version: 6.00 Build 0)  -->
<svg version="1.1" id="lni_lni-protection" xmlns="http://www.w3.org/2000/svg" xmlns:xlink="http://www.w3.org/1999/xlink" x="0px"
	 y="0px" viewBox="0 0 64 64" style="enable-background:new 0 0 64 64;" xml:space="preserve">
<g>
	<path d="M54.3,7.2L33.2,1.4c-0.8-0.2-1.6-0.2-2.3,0L9.7,7.2c-1.9,0.5-3.2,2.3-3.2,4.3v15.4c0,15.8,9.4,29.8,23.8,35.6
		c0.5,0.2,1.1,0.3,1.7,0.3c0.6,0,1.1-0.1,1.7-0.3c14.5-5.9,23.8-19.9,23.8-35.7V11.4C57.5,9.5,56.2,7.7,54.3,7.2z M54,26.7
		c0,14.2-8.7,27.2-21.6,32.4c-0.2,0.1-0.5,0.1-0.7,0C18.5,53.9,10,41.2,10,26.8V11.4c0-0.4,0.3-0.8,0.7-0.9l21.1-5.8
		c0.1,0,0.2,0,0.2,0c0.1,0,0.2,0,0.2,0l21.1,5.8c0.4,0.1,0.7,0.5,0.7,0.9V26.7z"/>
	<path d="M44.1,22.7L29.4,35l-6.8-5.7c-0.7-0.6-1.8-0.5-2.5,0.2s-0.5,1.8,0.2,2.5l7.9,6.6c0.3,0.3,0.7,0.4,1.1,0.4s0.8-0.1,1.1-0.4
		l15.8-13.3c0.7-0.6,0.8-1.7,0.2-2.5C45.9,22.2,44.8,22.1,44.1,22.7z"/>
</g>
</svg>
