<?xml version="1.0" encoding="utf-8"?>
<!-- Generator: Adobe Illustrator 22.0.1, SVG Export Plug-In . SVG Version: 6.00 Build 0)  -->
<svg version="1.1" id="lni_lni-question-circle" xmlns="http://www.w3.org/2000/svg" xmlns:xlink="http://www.w3.org/1999/xlink"
	 x="0px" y="0px" viewBox="0 0 64 64" style="enable-background:new 0 0 64 64;" xml:space="preserve">
<g>
	<path d="M32,1.3C15,1.3,1.3,15,1.3,32C1.3,49,15,62.8,32,62.8C49,62.8,62.8,49,62.8,32C62.8,15,49,1.3,32,1.3z M32,59.3
		C17,59.3,4.8,47,4.8,32C4.8,17,17,4.8,32,4.8C47,4.8,59.3,17,59.3,32C59.3,47,47,59.3,32,59.3z"/>
	<path d="M33.7,11.9c-2.9-0.5-5.8,0.3-7.9,2.1c-2.2,1.8-3.5,4.5-3.5,7.4c0,1.1,0.2,2.2,0.6,3.2c0.3,0.9,1.3,1.4,2.2,1.1
		c0.9-0.3,1.4-1.3,1.1-2.2c-0.2-0.7-0.4-1.3-0.4-2.1c0-1.8,0.8-3.5,2.2-4.7c1.4-1.2,3.2-1.7,5.1-1.3c2.5,0.4,4.5,2.5,4.9,4.9
		c0.5,2.9-1,5.7-3.7,6.8c-2.5,1-4.1,3.5-4.1,6.4v6.4c0,1,0.8,1.8,1.8,1.8s1.8-0.8,1.8-1.8v-6.4c0-1.4,0.8-2.7,1.9-3.1
		c4.2-1.7,6.6-6.1,5.8-10.7C40.8,15.8,37.6,12.6,33.7,11.9z"/>
	<path d="M32.1,46.8h-0.3c-1,0-1.8,0.8-1.8,1.8s0.8,1.8,1.8,1.8h0.3c1,0,1.8-0.8,1.8-1.8S33.1,46.8,32.1,46.8z"/>
</g>
</svg>
