<?xml version="1.0" encoding="utf-8"?>
<!-- Generator: Adobe Illustrator 22.0.1, SVG Export Plug-In . SVG Version: 6.00 Build 0)  -->
<svg version="1.1" id="lni_lni-radio-button" xmlns="http://www.w3.org/2000/svg" xmlns:xlink="http://www.w3.org/1999/xlink"
	 x="0px" y="0px" viewBox="0 0 64 64" style="enable-background:new 0 0 64 64;" xml:space="preserve">
<g>
	<path d="M8.3,3.9c-3.9,0-7,3.2-7,7c0,3.9,3.2,7,7,7c3.9,0,7-3.2,7-7C15.3,7,12.1,3.9,8.3,3.9z M8.3,14.4c-1.9,0-3.5-1.6-3.5-3.5
		s1.6-3.5,3.5-3.5s3.5,1.6,3.5,3.5S10.2,14.4,8.3,14.4z"/>
	<path d="M8.3,25c-3.9,0-7,3.2-7,7c0,3.9,3.2,7,7,7c3.9,0,7-3.2,7-7C15.3,28.1,12.1,25,8.3,25z M8.3,35.5c-1.9,0-3.5-1.6-3.5-3.5
		s1.6-3.5,3.5-3.5s3.5,1.6,3.5,3.5S10.2,35.5,8.3,35.5z"/>
	<path d="M8.3,46.1c-3.9,0-7,3.2-7,7s3.2,7,7,7c3.9,0,7-3.2,7-7S12.1,46.1,8.3,46.1z M8.3,56.6c-1.9,0-3.5-1.6-3.5-3.5
		s1.6-3.5,3.5-3.5s3.5,1.6,3.5,3.5S10.2,56.6,8.3,56.6z"/>
	<path d="M24.1,12.7H61c1,0,1.8-0.8,1.8-1.8S62,9.2,61,9.2H24.1c-1,0-1.8,0.8-1.8,1.8S23.1,12.7,24.1,12.7z"/>
	<path d="M61,30.3H24.1c-1,0-1.8,0.8-1.8,1.8s0.8,1.8,1.8,1.8H61c1,0,1.8-0.8,1.8-1.8S62,30.3,61,30.3z"/>
	<path d="M61,51.3H24.1c-1,0-1.8,0.8-1.8,1.8s0.8,1.8,1.8,1.8H61c1,0,1.8-0.8,1.8-1.8S62,51.3,61,51.3z"/>
</g>
</svg>
