<?xml version="1.0" encoding="utf-8"?>
<!-- Generator: Adobe Illustrator 22.0.1, SVG Export Plug-In . SVG Version: 6.00 Build 0)  -->
<svg version="1.1" id="shield" xmlns="http://www.w3.org/2000/svg" xmlns:xlink="http://www.w3.org/1999/xlink" x="0px" y="0px"
	 viewBox="0 0 64 64" style="enable-background:new 0 0 64 64;" xml:space="preserve">
<g>
	<path d="M32,62.7c-0.9,0-1.7-0.2-2.5-0.5C15.4,56.7,6.3,43.5,6.3,28.7V13.5c0-3.2,2.1-6,5.2-6.8L30,1.5c1.3-0.4,2.6-0.4,3.8,0
		l18.7,5.2c3,0.9,5.2,3.7,5.2,6.8v15.1c0,14.8-9.1,28-23.2,33.6C33.7,62.6,32.9,62.7,32,62.7z M12.4,10.1c-1.5,0.4-2.6,1.8-2.6,3.4
		v15.1C9.8,42.1,18,54,30.8,59c0.8,0.3,1.7,0.3,2.4,0C46,53.9,54.2,42,54.2,28.7V13.6c0-1.6-1.1-3-2.6-3.4L32.9,4.9
		c-0.6-0.2-1.3-0.2-1.9,0L12.4,10.1z"/>
</g>
</svg>
