<?xml version="1.0" encoding="utf-8"?>
<!-- Generator: Adobe Illustrator 22.0.1, SVG Export Plug-In . SVG Version: 6.00 Build 0)  -->
<svg version="1.1" id="lni_lni-teabag" xmlns="http://www.w3.org/2000/svg" xmlns:xlink="http://www.w3.org/1999/xlink" x="0px"
	 y="0px" viewBox="0 0 64 64" style="enable-background:new 0 0 64 64;" xml:space="preserve">
<g>
	<path d="M14.9,31.1h5.3c1,0,1.8-0.8,1.8-1.8s-0.8-1.8-1.8-1.8h-5.3c-1,0-1.8,0.8-1.8,1.8S13.9,31.1,14.9,31.1z"/>
	<path d="M60.5,43.6l-4.3-2.2V21.9c0-11.4-9.1-20.6-20.2-20.6c-11.3,0-19.1,6.3-20.1,15.8H7.4c-1.5,0-2.7,1.1-3,2.5l-1.7,7.3
		c-0.2,0.4-0.2,0.8-0.2,0.9v31.9c0,1.7,1.4,3.1,3.1,3.1h23.6c1.6,0,3-1.4,3.1-3.2l0-31.9c0-0.2,0-0.4-0.1-0.5l-1.8-7.6
		c-0.3-1.5-1.6-2.6-3-2.6h-8.1C20.5,8,28.8,4.8,36,4.8c9.2,0,16.7,7.7,16.7,17.1v19.6l-4.3,2.2c-0.6,0.3-1,0.9-1,1.6V61
		c0,1,0.8,1.8,1.8,1.8h10.5c1,0,1.8-0.8,1.8-1.8V45.2C61.4,44.5,61.1,43.9,60.5,43.6z M28.9,27.6c0,0.1,0,0.2,0,0.2l0,31.4H6.1V27.9
		l1.7-7.3h19.4L28.9,27.6z M57.9,59.3h-7v-13l3.5-1.8l3.5,1.8V59.3z"/>
</g>
</svg>
