<?xml version="1.0" encoding="utf-8"?>
<!-- Generator: Adobe Illustrator 22.0.1, SVG Export Plug-In . SVG Version: 6.00 Build 0)  -->
<svg version="1.1" id="lni_lni-thumbs-down" xmlns="http://www.w3.org/2000/svg" xmlns:xlink="http://www.w3.org/1999/xlink"
	 x="0px" y="0px" viewBox="0 0 64 64" style="enable-background:new 0 0 64 64;" xml:space="preserve">
<path d="M53.9,7.7C49.4,4.7,42.8,3,35.9,3c-1.2,0-2.3,0-3.5,0.1C24.2,3.8,18.5,5.2,15.7,7l-0.6,0.5H5.7c-2.4,0-4.4,2-4.4,4.4v23.7
	c0,2.4,2,4.4,4.4,4.4h12.3c0.2,0,0.4,0,0.7,0.3c2.2,2.2,7.9,8.4,13.8,17.7c1.3,2,3.3,3.1,5.6,3.1c0.2,0,0.4,0,0.5,0
	c2.5-0.2,4.6-1.5,5.6-3.7c1.5-2.8,0-11.8-0.5-14.7l0.7,0c5.3,0.1,14.2,0.4,16.7-5.3C64.9,28.7,62.4,13.3,53.9,7.7z M4.8,35.6V11.9
	c0-0.5,0.4-0.9,0.9-0.9h6.1v25.5H5.6C5.1,36.5,4.8,36.1,4.8,35.6z M57.8,35.9c-1.6,3.5-9.3,3.3-13.5,3.2h-2.9c-0.5,0-1,0.2-1.4,0.7
	s-0.5,1-0.3,1.5l0.3,1.5c1.3,7.3,1.3,12.1,0.9,13c-0.5,1-1.5,1.7-2.8,1.8C37,57.6,36,57.1,35.3,56c-6.1-9.5-12-15.9-14.2-18.2
	c-0.8-0.9-2-1.3-3.2-1.3h-2.6V11h0.3c0.4,0,0.7-0.1,1-0.3l1-0.8c1-0.7,4.5-2.3,15-3.3c1.1-0.1,2-0.1,3.2-0.1C42.1,6.5,48,8,52,10.6
	C58.8,15.1,61,28.7,57.8,35.9z"/>
</svg>
