<?xml version="1.0" encoding="utf-8"?>
<!-- Generator: Adobe Illustrator 22.0.1, SVG Export Plug-In . SVG Version: 6.00 Build 0)  -->
<svg version="1.1" id="lni_lni-thumbs-up" xmlns="http://www.w3.org/2000/svg" xmlns:xlink="http://www.w3.org/1999/xlink" x="0px"
	 y="0px" viewBox="0 0 64 64" style="enable-background:new 0 0 64 64;" xml:space="preserve">
<path d="M61,26.6c-2.5-5.6-11.4-5.4-16.7-5.3h-0.7c0.5-2.8,1.9-11.9,0.5-14.7C43,4.5,41,3.2,38.5,3c-2.5-0.2-4.7,0.9-6.1,3.1
	c-5.9,9.2-11.6,15.4-13.8,17.7C18.4,24,18.1,24,17.9,24H5.6c-2.4,0-4.4,2-4.4,4.4v23.7c0,2.4,2,4.4,4.4,4.4h9.4l0.7,0.5
	c2.7,1.8,8.4,3.1,16.5,3.8c1.3,0.1,2.3,0.1,3.6,0.1c6.9,0,13.5-1.7,18.1-4.7C62.4,50.7,64.9,35.3,61,26.6z M4.8,52.1V28.4
	c0-0.5,0.4-0.9,0.9-0.9h6.2V53H5.7C5.2,53,4.8,52.6,4.8,52.1z M52,53.4c-4,2.6-9.9,4.1-16.1,4.1c-1.2,0-2.1,0-3.2-0.1
	c-10.4-1-13.9-2.6-14.9-3.2l-1.1-0.8c-0.3-0.2-0.7-0.3-1-0.3h-0.3V27.5h2.6c1.2,0,2.3-0.5,3.2-1.3c2.2-2.3,8.1-8.7,14.2-18.2
	C36,6.9,37,6.4,38.2,6.5c1.3,0.1,2.3,0.7,2.8,1.8c0.4,0.9,0.4,5.6-0.9,12.9l-0.4,1.6c-0.1,0.5,0,1.1,0.3,1.5
	c0.3,0.4,0.8,0.7,1.4,0.7l2.9,0c4.1-0.1,11.8-0.3,13.4,3.2C61,35.3,58.8,48.9,52,53.4z"/>
</svg>
