<?xml version="1.0" encoding="utf-8"?>
<!-- Generator: Adobe Illustrator 22.0.1, SVG Export Plug-In . SVG Version: 6.00 Build 0)  -->
<svg version="1.1" id="lni_lni-ticket-alt" xmlns="http://www.w3.org/2000/svg" xmlns:xlink="http://www.w3.org/1999/xlink" x="0px"
	 y="0px" viewBox="0 0 64 64" style="enable-background:new 0 0 64 64;" xml:space="preserve">
<g>
	<path d="M47.6,1.3H16.4C12.3,1.3,9,4.6,9,8.7v51c0,1.1,0.7,2.1,1.8,2.4c1.1,0.3,2.2-0.2,2.8-1.1l4.1-6.8l5.1,7.5
		c0.5,0.7,1.2,1.1,2,1.1c0,0,0,0,0,0c0.8,0,1.6-0.4,2-1.1L32,54l5.2,7.7c0.5,0.7,1.2,1.1,2,1.1c0,0,0,0,0,0c0.8,0,1.6-0.4,2-1.1
		l5.1-7.5l4.1,6.9c0.6,1,1.7,1.4,2.8,1.1c1.1-0.3,1.8-1.3,1.8-2.4V8.7C55,4.6,51.7,1.3,47.6,1.3z M51.5,56l-3-5.1
		c-0.4-0.7-1.2-1.2-2-1.2c-0.8,0-1.6,0.4-2.1,1.1l-5.1,7.6L34,50.8c-0.5-0.7-1.2-1.1-2-1.1s-1.6,0.4-2,1.1l-5.2,7.7l-5.2-7.6
		c-0.5-0.7-1.2-1.1-2-1.1c0,0-0.1,0-0.1,0c-0.8,0-1.6,0.5-2,1.2l-3,5V8.7c0-2.2,1.8-3.9,3.9-3.9h31.2c2.2,0,3.9,1.8,3.9,3.9V56z"/>
	<path d="M42.6,19.9H21.4c-1,0-1.8,0.8-1.8,1.8s0.8,1.8,1.8,1.8h21.3c1,0,1.8-0.8,1.8-1.8S43.6,19.9,42.6,19.9z"/>
	<path d="M42.6,30.5H21.4c-1,0-1.8,0.8-1.8,1.8c0,1,0.8,1.8,1.8,1.8h21.3c1,0,1.8-0.8,1.8-1.8C44.4,31.3,43.6,30.5,42.6,30.5z"/>
</g>
</svg>
