<?xml version="1.0" encoding="utf-8"?>
<!-- Generator: Adobe Illustrator 22.0.1, SVG Export Plug-In . SVG Version: 6.00 Build 0)  -->
<svg version="1.1" id="lni_lni-ticket" xmlns="http://www.w3.org/2000/svg" xmlns:xlink="http://www.w3.org/1999/xlink" x="0px"
	 y="0px" viewBox="0 0 64 64" style="enable-background:new 0 0 64 64;" xml:space="preserve">
<g>
	<path d="M60.5,25.6c1.2-0.1,2.2-1.1,2.2-2.4v-9c0-1.3-1.1-2.4-2.4-2.4H3.6c-1.3,0-2.4,1.1-2.4,2.4v9.2c0,1.3,1,2.4,2.2,2.4
		c3.2,0.3,5.6,3.1,5.6,6.4c0,3.3-2.4,6-5.6,6.3c-1.2,0-2.3,1.1-2.3,2.3v9c0,1.3,1.1,2.4,2.4,2.4h56.7c1.3,0,2.4-1.1,2.4-2.4v-9
		c0-1.3-1-2.4-2.2-2.4c-3.2-0.3-5.6-3.1-5.6-6.4C54.9,28.6,57.3,25.9,60.5,25.6z M59.3,41.7v7H31.1v-6.2c0-1-0.8-1.8-1.8-1.8
		s-1.8,0.8-1.8,1.8v6.2H4.8v-6.9c4.5-0.8,7.9-4.8,7.9-9.6c0-4.8-3.4-8.9-7.9-9.7v-7.1h22.9v6.2c0,1,0.8,1.8,1.8,1.8s1.8-0.8,1.8-1.8
		v-6.2h28.1v6.9c-4.5,0.9-7.9,4.9-7.9,9.7C51.4,36.7,54.8,40.8,59.3,41.7z"/>
	<path d="M29.4,27.6c-1,0-1.8,0.8-1.8,1.8v5.3c0,1,0.8,1.8,1.8,1.8s1.8-0.8,1.8-1.8v-5.3C31.1,28.4,30.3,27.6,29.4,27.6z"/>
</g>
</svg>
