<?xml version="1.0" encoding="utf-8"?>
<!-- Generator: Adobe Illustrator 22.0.1, SVG Export Plug-In . SVG Version: 6.00 Build 0)  -->
<svg version="1.1" id="lni_lni-unlock" xmlns="http://www.w3.org/2000/svg" xmlns:xlink="http://www.w3.org/1999/xlink" x="0px"
	 y="0px" viewBox="0 0 64 64" style="enable-background:new 0 0 64 64;" xml:space="preserve">
<g>
	<path d="M51,19.7h-7.5l0.7-3.1C45.7,9.7,41.4,3,34.6,1.5c-3.3-0.7-6.7-0.1-9.5,1.7c-2.8,1.8-4.8,4.7-5.4,7.9
		c-0.2,0.9,0.4,1.9,1.4,2.1c0.9,0.2,1.9-0.4,2.1-1.4c0.5-2.4,1.9-4.4,3.9-5.7c2-1.3,4.5-1.8,6.8-1.3c4.9,1,8,5.9,6.9,10.9L40,19.7
		H13c-3.6,0-6.6,2.8-6.6,6.3v18c0,10.4,8.9,18.8,19.9,18.8h11.4c11,0,19.9-8.6,19.9-19.1V26C57.6,22.5,54.6,19.7,51,19.7z
		 M54.1,43.6c0,8.6-7.3,15.6-16.4,15.6H26.3c-9,0-16.4-6.9-16.4-15.3V26c0-1.5,1.4-2.8,3.1-2.8H51c1.7,0,3,1.2,3,2.8V43.6z"/>
	<path d="M36.3,40.8h-8.6c-1.5,0-2.8,1.2-2.8,2.8v8.5c0,1.5,1.2,2.8,2.8,2.8h8.6c1.5,0,2.8-1.2,2.8-2.8v-8.5
		C39,42,37.8,40.8,36.3,40.8z M35.5,51.3h-7.1v-7h7.1V51.3z"/>
</g>
</svg>
