<?xml version="1.0" encoding="utf-8"?>
<!-- Generator: Adobe Illustrator 22.0.1, SVG Export Plug-In . SVG Version: 6.00 Build 0)  -->
<svg version="1.1" id="lni_lni-hourglass" xmlns="http://www.w3.org/2000/svg" xmlns:xlink="http://www.w3.org/1999/xlink" x="0px"
	 y="0px" viewBox="0 0 64 64" style="enable-background:new 0 0 64 64;" xml:space="preserve">
<g>
	<path d="M39.5,62.8H24.5c-3.4,0-6.5-1.6-8.4-4.3c-1.8-2.6-2.2-5.7-1-8.6L21.8,32L15,14.2c-1.1-2.9-0.7-6.1,1-8.6
		c1.9-2.7,5-4.3,8.4-4.3h15.1c3.4,0,6.5,1.6,8.4,4.3c1.8,2.6,2.2,5.7,1,8.6L42.2,32L49,49.8c1.1,2.9,0.7,6.1-1,8.6
		C46.1,61.1,42.9,62.8,39.5,62.8z M24.5,4.8c-2.2,0-4.3,1.1-5.5,2.8c-1.1,1.6-1.4,3.6-0.7,5.4l6.9,18c0,0,0,0,0,0
		c0.2,0.6,0.2,1.4,0,2l-6.9,18c-0.7,1.8-0.5,3.8,0.7,5.4c1.2,1.8,3.3,2.8,5.5,2.8h15.1c2.2,0,4.3-1.1,5.5-2.8
		c1.1-1.6,1.4-3.6,0.7-5.4l-6.9-18c-0.2-0.6-0.2-1.4,0-2l6.9-18c0.7-1.8,0.5-3.8-0.7-5.4c-1.2-1.8-3.3-2.8-5.5-2.8H24.5z M42.1,32.3
		L42.1,32.3C42.1,32.3,42.1,32.3,42.1,32.3z M21.9,32.3C21.9,32.3,21.9,32.3,21.9,32.3L21.9,32.3z M42.1,31.7L42.1,31.7
		C42.1,31.7,42.1,31.7,42.1,31.7z"/>
</g>
</svg>
