<?xml version="1.0" encoding="utf-8"?>
<!-- Generator: Adobe Illustrator 22.0.1, SVG Export Plug-In . SVG Version: 6.00 Build 0)  -->
<svg version="1.1" id="lni_lni-spinner-solid" xmlns="http://www.w3.org/2000/svg" xmlns:xlink="http://www.w3.org/1999/xlink"
	 x="0px" y="0px" viewBox="0 0 64 64" style="enable-background:new 0 0 64 64;" xml:space="preserve">
<g>
	<path d="M32,62.8C15,62.8,1.3,49,1.3,32C1.3,15,15,1.3,32,1.3c4.7,0,9.2,1,13.4,3.1c0.9,0.4,1.2,1.5,0.8,2.3
		c-0.4,0.9-1.5,1.2-2.3,0.8C40.2,5.7,36.2,4.8,32,4.8C17,4.8,4.8,17,4.8,32C4.8,47,17,59.3,32,59.3c10.5,0,19.9-5.9,24.5-15.4
		c1.8-3.7,2.7-7.7,2.7-11.9c0-2.8-0.4-5.5-1.2-8.2c-0.3-0.9,0.2-1.9,1.1-2.2c0.9-0.3,1.9,0.2,2.2,1.1c0.9,3,1.4,6.1,1.4,9.2
		c0,4.7-1,9.2-3.1,13.4C54.6,55.9,43.7,62.8,32,62.8z"/>
</g>
</svg>
