<?xml version="1.0" encoding="utf-8"?>
<!-- Generator: Adobe Illustrator 22.0.1, SVG Export Plug-In . SVG Version: 6.00 Build 0)  -->
<svg version="1.1" id="lni_lni-spinner" xmlns="http://www.w3.org/2000/svg" xmlns:xlink="http://www.w3.org/1999/xlink" x="0px"
	 y="0px" viewBox="0 0 64 64" style="enable-background:new 0 0 64 64;" xml:space="preserve">
<g>
	<circle cx="33.3" cy="9.8" r="6.8"/>
	<circle cx="33.3" cy="57.2" r="3.8"/>
	<path d="M57,31c-1.4,0-2.5,1.1-2.5,2.5c0,1.4,1.1,2.5,2.5,2.5s2.5-1.1,2.5-2.5C59.4,32.2,58.3,31,57,31z"/>
	<path d="M14.4,33.5c0-2.7-2.2-4.9-4.9-4.9s-4.9,2.2-4.9,4.9s2.2,4.9,4.9,4.9S14.4,36.2,14.4,33.5z"/>
	<circle cx="50.1" cy="50.2" r="3.1"/>
	<path d="M12.6,12.7c-2.2,2.2-2.2,5.7,0,7.8s5.7,2.2,7.8,0s2.2-5.7,0-7.8S14.7,10.6,12.6,12.7z"/>
	<path d="M51.4,18c0.7-0.7,0.7-1.9,0-2.6c-0.7-0.7-1.9-0.7-2.6,0c-0.7,0.7-0.7,1.9,0,2.6C49.4,18.8,50.6,18.8,51.4,18z"/>
	<circle cx="16.5" cy="50.3" r="4.3"/>
</g>
</svg>
