<?xml version="1.0" encoding="utf-8"?>
<!-- Generator: Adobe Illustrator 22.0.1, SVG Export Plug-In . SVG Version: 6.00 Build 0)  -->
<svg version="1.1" id="lni_lni-blackboard" xmlns="http://www.w3.org/2000/svg" xmlns:xlink="http://www.w3.org/1999/xlink" x="0px"
	 y="0px" viewBox="0 0 64 64" style="enable-background:new 0 0 64 64;" xml:space="preserve">
<path d="M56.1,9.2H33.8V5.6c0-1-0.8-1.8-1.8-1.8c-1,0-1.8,0.8-1.8,1.8v3.5H7.9c-3.7,0-6.7,3-6.7,6.7V35c0,3.7,3,6.7,6.7,6.7h9
	L8,57.5c-0.5,0.8-0.2,1.9,0.7,2.4C9,60,9.2,60.1,9.5,60.1c0.6,0,1.2-0.3,1.5-0.9l9.8-17.6h9.4v16.7c0,1,0.8,1.8,1.8,1.8
	c1,0,1.8-0.8,1.8-1.8V41.7h9.5l9.9,17.6c0.3,0.6,0.9,0.9,1.5,0.9c0.3,0,0.6-0.1,0.9-0.2c0.8-0.5,1.1-1.5,0.7-2.4l-8.9-15.8h8.8
	c3.7,0,6.7-3,6.7-6.7V15.8C62.8,12.1,59.8,9.2,56.1,9.2z M59.3,35c0,1.7-1.4,3.2-3.2,3.2H7.9c-1.7,0-3.2-1.4-3.2-3.2V15.8
	c0-1.7,1.4-3.2,3.2-3.2h48.2c1.7,0,3.2,1.4,3.2,3.2V35z"/>
</svg>
