<?xml version="1.0" encoding="utf-8"?>
<!-- Generator: Adobe Illustrator 22.0.1, SVG Export Plug-In . SVG Version: 6.00 Build 0)  -->
<svg version="1.1" id="lni_lni-book" xmlns="http://www.w3.org/2000/svg" xmlns:xlink="http://www.w3.org/1999/xlink" x="0px"
	 y="0px" viewBox="0 0 64 64" style="enable-background:new 0 0 64 64;" xml:space="preserve">
<g>
	<path d="M39.9,51.3H24.1c-1,0-1.8,0.8-1.8,1.8s0.8,1.8,1.8,1.8h15.8c1,0,1.8-0.8,1.8-1.8S40.9,51.3,39.9,51.3z"/>
	<path d="M23.8,33.8h16.5c2.1,0,3.8-1.7,3.8-3.8v-6.2c0-2.1-1.7-3.8-3.8-3.8H23.8c-2.1,0-3.8,1.7-3.8,3.8V30
		C20,32.1,21.7,33.8,23.8,33.8z M23.5,23.8c0-0.1,0.1-0.3,0.3-0.3h16.5c0.1,0,0.3,0.1,0.3,0.3V30c0,0.1-0.1,0.3-0.3,0.3H23.8
		c-0.1,0-0.3-0.1-0.3-0.3V23.8z"/>
	<path d="M16.4,4.8h36.7c1,0,1.8-0.8,1.8-1.8s-0.8-1.8-1.8-1.8H16.4c-3.8,0-6.9,2.9-7.2,6.7c0,0.1,0,0.2,0,0.3V57
		c0,3.2,2.8,5.8,6.2,5.8h34.1c2.6,0,4.7-2.1,4.7-4.7V16.5c0-2.6-2.1-4.7-4.7-4.7H16.2c0,0,0,0,0,0c0,0,0,0,0,0
		c-2.1,0-3.4-1.3-3.4-3.3C12.7,6.4,14.3,4.8,16.4,4.8z M16.1,15.3C16.1,15.3,16.1,15.3,16.1,15.3C16.1,15.3,16.2,15.3,16.1,15.3
		h33.3c0.7,0,1.2,0.5,1.2,1.2v41.6c0,0.7-0.5,1.2-1.2,1.2H15.3c-1.4,0-2.7-1-2.7-2.3V14.5C13.6,15,14.8,15.3,16.1,15.3z"/>
</g>
</svg>
