<?xml version="1.0" encoding="utf-8"?>
<!-- Generator: Adobe Illustrator 22.0.1, SVG Export Plug-In . SVG Version: 6.00 Build 0)  -->
<svg version="1.1" id="lni_lni-certificate" xmlns="http://www.w3.org/2000/svg" xmlns:xlink="http://www.w3.org/1999/xlink"
	 x="0px" y="0px" viewBox="0 0 64 64" style="enable-background:new 0 0 64 64;" xml:space="preserve">
<path d="M57,35.5h-4.8V8.8c0-4-3.1-7.3-7-7.5l-32.7,0C6.3,1.2,1.3,6.5,1.3,12.9v4.4c0,1.8,1.5,3.3,3.3,3.3h7.3v28.2
	c0,3.3,2.8,6,6.2,6h4.4v5.8c0,0.8,0.4,1.5,1.1,1.9c0.3,0.2,0.7,0.3,1,0.3c0.4,0,0.8-0.1,1.2-0.3l5.1-3.3l5,3.2l0.2,0.1
	c0.7,0.3,1.5,0.3,2.2-0.1c0.6-0.4,1-1.1,1-1.8v-5.8h9.7h7H57c3.2,0,5.8-2.6,5.8-5.8v-7.8C62.8,38.1,60.2,35.5,57,35.5z M4.8,12.9
	c0-4.5,3.5-8.2,7.7-8.2H37c-0.9,1.4-1.5,3.1-1.5,4.9v7.5H4.8V12.9z M30.7,45.5c-4.1,0-7.4-3.3-7.4-7.3c0-4,3.3-7.3,7.4-7.3
	c4.1,0,7.4,3.3,7.4,7.3C38.1,42.2,34.8,45.5,30.7,45.5z M32.1,55.9c-0.9-0.6-2-0.6-2.9,0l-3.4,2.2V47.9c1.5,0.7,3.1,1.1,4.8,1.1
	c1.7,0,3.4-0.4,4.9-1.1v10.2L32.1,55.9z M39,51.3v-6.2c1.6-1.9,2.6-4.3,2.6-7c0-6-4.9-10.8-10.9-10.8c-6,0-10.9,4.9-10.9,10.8
	c0,2.7,1,5.1,2.6,7v6.1H18c-1.5,0-2.7-1.1-2.7-2.5V20.6h20.5c1.8,0,3.3-1.5,3.3-3.3V9.6c0-2.5,1.8-4.7,4.2-4.9h1.6
	c2.1,0,3.9,1.8,3.9,4v26.7v12.3v3.5H39z M59.3,49.1c0,1.2-1,2.3-2.3,2.3h-1.3h-3.5v-3.5V39H57c1.2,0,2.3,1,2.3,2.3V49.1z"/>
</svg>
