<?xml version="1.0" encoding="utf-8"?>
<!-- Generator: Adobe Illustrator 22.0.1, SVG Export Plug-In . SVG Version: 6.00 Build 0)  -->
<svg version="1.1" id="lni_lni-clipboard" xmlns="http://www.w3.org/2000/svg" xmlns:xlink="http://www.w3.org/1999/xlink" x="0px"
	 y="0px" viewBox="0 0 64 64" style="enable-background:new 0 0 64 64;" xml:space="preserve">
<path d="M46,9.2h-2.2V7.5c0-2-1.6-3.7-3.6-3.7h-6.5V3c0-1-0.8-1.8-1.7-1.8S30.2,2,30.2,3v0.9h-6.5c-2,0-3.6,1.6-3.6,3.7v1.6H18
	c-3,0-5.4,2.5-5.4,5.6v42.5c0,3.1,2.4,5.6,5.4,5.6H46c3,0,5.4-2.5,5.4-5.6V14.7C51.4,11.6,49,9.2,46,9.2z M23.6,7.5
	c0-0.1,0.1-0.1,0.1-0.2l8.3,0c0,0,0,0,0,0s0,0,0,0l8.3,0c0,0,0.1,0.1,0.1,0.2v3.3c0,0,0,0,0,0s0,0,0,0v3.3c0,0.1-0.1,0.1-0.1,0.2
	l-16.5,0c0,0-0.1-0.1-0.1-0.2V7.5z M47.9,57.2c0,1.1-0.8,2.1-1.9,2.1H18c-1,0-1.9-0.9-1.9-2.1V14.7c0-1.1,0.8-2.1,1.9-2.1h2.2v1.6
	c0,2,1.6,3.7,3.6,3.7h16.6c2,0,3.6-1.6,3.6-3.7v-1.6H46c1,0,1.9,0.9,1.9,2.1V57.2z"/>
</svg>
