<?xml version="1.0" encoding="utf-8"?>
<!-- Generator: Adobe Illustrator 22.0.1, SVG Export Plug-In . SVG Version: 6.00 Build 0)  -->
<svg version="1.1" id="lni_lni-compass" xmlns="http://www.w3.org/2000/svg" xmlns:xlink="http://www.w3.org/1999/xlink" x="0px"
	 y="0px" viewBox="0 0 64 64" style="enable-background:new 0 0 64 64;" xml:space="preserve">
<path d="M56.5,60.2L45.2,37c3.3-2.4,6-5.8,7.5-9.7c0.4-0.9-0.1-1.9-1-2.3c-0.9-0.4-1.9,0.1-2.3,1c-1.2,3.1-3.3,5.8-5.8,7.8l-4.9-10
	c1.8-1.8,3-4.2,3-7c0-4.8-3.5-8.7-8.1-9.6V3c0-1-0.8-1.8-1.8-1.8S30.2,2,30.2,3v4.2c-4.6,0.8-8,4.8-8,9.6c0,2.7,1.2,5.2,3,7l-4.9,10
	c-2.6-2-4.6-4.7-5.8-7.8c-0.4-0.9-1.4-1.3-2.3-1c-0.9,0.4-1.3,1.4-1,2.3c1.5,3.9,4.2,7.3,7.5,9.7L7.5,60.2c-0.4,0.9-0.1,1.9,0.8,2.3
	c0.2,0.1,0.5,0.2,0.8,0.2c0.6,0,1.3-0.4,1.6-1l11.1-22.9c3.1,1.6,6.6,2.5,10.2,2.5c3.6,0,7.1-0.9,10.2-2.5l11.1,22.9
	c0.3,0.6,0.9,1,1.6,1c0.3,0,0.5-0.1,0.8-0.2C56.6,62.2,57,61.1,56.5,60.2z M32,10.5c3.5,0,6.3,2.8,6.3,6.2S35.5,23,32,23
	c-3.5,0-6.3-2.8-6.3-6.2S28.5,10.5,32,10.5z M32,37.8c-3.1,0-6.1-0.8-8.7-2.2l4.9-10c1.2,0.5,2.5,0.8,3.9,0.8c1.4,0,2.7-0.3,3.8-0.8
	l4.9,10C38.1,37.1,35.1,37.8,32,37.8z"/>
</svg>
