<?xml version="1.0" encoding="utf-8"?>
<!-- Generator: Adobe Illustrator 22.0.1, SVG Export Plug-In . SVG Version: 6.00 Build 0)  -->
<svg version="1.1" id="lni_lni-eraser" xmlns="http://www.w3.org/2000/svg" xmlns:xlink="http://www.w3.org/1999/xlink" x="0px"
	 y="0px" viewBox="0 0 64 64" style="enable-background:new 0 0 64 64;" xml:space="preserve">
<path d="M60.2,59.3h-30c0.2-0.2,0.4-0.3,0.6-0.5l30.3-30.3c2.2-2.2,2.2-5.9,0-8.1L43.7,2.9c-2.2-2.2-5.9-2.2-8.1,0L5.2,33.2
	c-2.6,2.6-4,6-4,9.7s1.4,7.1,4,9.7l6.2,6.2c2.7,2.7,6.2,4,9.7,4c0,0,0.1,0,0.1,0c0.1,0,0.1,0,0.2,0h38.8c1,0,1.8-0.8,1.8-1.8
	S61.2,59.3,60.2,59.3z M38,5.4c0.4-0.4,1-0.7,1.6-0.7c0.6,0,1.2,0.2,1.6,0.7l17.5,17.5c0.9,0.9,0.9,2.3,0,3.2l-23,23L15,28.3L38,5.4
	z M7.7,50.1c-1.9-1.9-3-4.5-3-7.2s1.1-5.3,3-7.2l4.9-4.9l20.6,20.6l-4.9,4.9c-4,4-10.5,4-14.4,0L7.7,50.1z"/>
</svg>
