<?xml version="1.0" encoding="utf-8"?>
<!-- Generator: Adobe Illustrator 22.0.1, SVG Export Plug-In . SVG Version: 6.00 Build 0)  -->
<svg version="1.1" id="lni_lni-graduation" xmlns="http://www.w3.org/2000/svg" xmlns:xlink="http://www.w3.org/1999/xlink" x="0px"
	 y="0px" viewBox="0 0 64 64" style="enable-background:new 0 0 64 64;" xml:space="preserve">
<path d="M62.1,34.5l-4.5-4.6v-4.4c0.7-0.6,1-1.5,1-2.4c0-1.3-0.7-2.4-1.9-3L31.4,8.6c-0.8-0.4-1.8-0.4-2.6,0L3.2,19.9
	c-1.2,0.5-1.9,1.7-1.9,3s0.7,2.5,1.9,3l9,4.1v12.6c0,7.2,5.8,13.1,13,13.1h9.4c7.2,0,13-5.9,13-13.1V30.2l5.3-2.4l1.1-0.5v2.8
	l-4.3,4.4c-0.9,0.9-0.9,2.4,0,3.3l4.5,4.6c0.4,0.4,1,0.7,1.6,0.7c0.6,0,1.2-0.3,1.6-0.7l4.5-4.6C63,36.8,63,35.4,62.1,34.5z
	 M44.2,42.5c0,5.3-4.3,9.6-9.5,9.6h-9.4c-5.3,0-9.5-4.3-9.5-9.6v-11l13.2,5.9c0.4,0.2,0.9,0.3,1.3,0.3c0.4,0,0.9-0.1,1.3-0.3
	l12.6-5.7V42.5z M51.5,24.6l-21.3,9.6L5.1,22.9l25-11l24.8,11.2L51.5,24.6z M55.9,39l-2.8-2.9l2.8-2.9l2.8,2.9L55.9,39z"/>
</svg>
