<?xml version="1.0" encoding="utf-8"?>
<!-- Generator: Adobe Illustrator 22.0.1, SVG Export Plug-In . SVG Version: 6.00 Build 0)  -->
<svg version="1.1" id="lni_lni-library" xmlns="http://www.w3.org/2000/svg" xmlns:xlink="http://www.w3.org/1999/xlink" x="0px"
	 y="0px" viewBox="0 0 64 64" style="enable-background:new 0 0 64 64;" xml:space="preserve">
<g>
	<path d="M58.1,9.2H35.3c-1.3,0-2.4,0.5-3.3,1.2c-0.9-0.8-2-1.2-3.3-1.2H5.9c-2.5,0-4.6,2.1-4.6,4.6v33.8c0,2.5,2.1,4.6,4.6,4.6
		h24.4v0.9c0,1,0.8,1.8,1.8,1.8s1.8-0.8,1.8-1.8v-0.9h24.4c2.5,0,4.6-2.1,4.6-4.6V13.8C62.8,11.2,60.7,9.2,58.1,9.2z M5.9,48.7
		c-0.6,0-1.1-0.5-1.1-1.1V13.8c0-0.6,0.5-1.1,1.1-1.1h22.9c0.8,0,1.5,0.7,1.5,1.5v0v34.5H5.9z M59.3,47.6c0,0.6-0.5,1.1-1.1,1.1
		H33.8V14.2c0-0.8,0.7-1.5,1.5-1.5h22.8c0.6,0,1.1,0.5,1.1,1.1V47.6z"/>
	<path d="M13.6,22.8h7.7c1,0,1.8-0.8,1.8-1.8s-0.8-1.8-1.8-1.8h-7.7c-1,0-1.8,0.8-1.8,1.8S12.7,22.8,13.6,22.8z"/>
	<path d="M42.4,22.8h7.7c1,0,1.8-0.8,1.8-1.8s-0.8-1.8-1.8-1.8h-7.7c-1,0-1.8,0.8-1.8,1.8S41.4,22.8,42.4,22.8z"/>
	<path d="M50.2,27.8h-7.7c-1,0-1.8,0.8-1.8,1.8s0.8,1.8,1.8,1.8h7.7c1,0,1.8-0.8,1.8-1.8S51.2,27.8,50.2,27.8z"/>
	<path d="M21.5,27.8h-7.7c-1,0-1.8,0.8-1.8,1.8s0.8,1.8,1.8,1.8h7.7c1,0,1.8-0.8,1.8-1.8S22.4,27.8,21.5,27.8z"/>
	<path d="M21.5,37h-7.7c-1,0-1.8,0.8-1.8,1.8s0.8,1.8,1.8,1.8h7.7c1,0,1.8-0.8,1.8-1.8S22.4,37,21.5,37z"/>
	<path d="M50.2,37h-7.7c-1,0-1.8,0.8-1.8,1.8s0.8,1.8,1.8,1.8h7.7c1,0,1.8-0.8,1.8-1.8S51.2,37,50.2,37z"/>
</g>
</svg>
