<?xml version="1.0" encoding="utf-8"?>
<!-- Generator: Adobe Illustrator 22.0.1, SVG Export Plug-In . SVG Version: 6.00 Build 0)  -->
<svg version="1.1" id="lni_lni-pencil-alt" xmlns="http://www.w3.org/2000/svg" xmlns:xlink="http://www.w3.org/1999/xlink" x="0px"
	 y="0px" viewBox="0 0 64 64" style="enable-background:new 0 0 64 64;" xml:space="preserve">
<path d="M62.7,11.2c0-0.7-0.3-1.3-0.8-1.8c-1.3-1.3-2.5-2.5-3.7-3.7c-1.1-1.1-2.2-2.2-3.3-3.4c-0.4-0.5-1-0.9-1.6-1
	c-0.7-0.1-1.5,0.1-2.1,0.6l-7.2,7.2H8.7c-4.1,0-7.4,3.3-7.4,7.4v38.9c0,4.1,3.3,7.4,7.4,7.4h38.9c4.1,0,7.4-3.3,7.4-7.4V19.9
	l6.9-6.9C62.4,12.5,62.7,11.8,62.7,11.2z M33.3,36.6c-0.1,0.1-0.3,0.2-0.4,0.3l-8.6,2.9l2.8-8.6c0.1-0.2,0.1-0.3,0.3-0.4l19-19
	l6,5.9L33.3,36.6z M51.5,55.4c0,2.1-1.7,3.9-3.9,3.9H8.7c-2.1,0-3.9-1.7-3.9-3.9V16.4c0-2.1,1.7-3.9,3.9-3.9h31.9L24.9,28.2
	c-0.5,0.5-0.9,1.1-1.1,1.8l-3.8,11.6c-0.2,0.6-0.1,1.2,0.2,1.7c0.3,0.4,0.7,0.8,1.6,0.8h0.3l11.9-3.9c0.7-0.2,1.3-0.6,1.8-1.1
	l15.8-15.7V55.4z M54.8,15.1l-6-5.9l4-4c1,1,1.9,1.9,2.9,2.9c1,1,2,2,3,3.1L54.8,15.1z"/>
</svg>
