<?xml version="1.0" encoding="utf-8"?>
<!-- Generator: Adobe Illustrator 22.0.1, SVG Export Plug-In . SVG Version: 6.00 Build 0)  -->
<svg version="1.1" id="lni_lni-pencil" xmlns="http://www.w3.org/2000/svg" xmlns:xlink="http://www.w3.org/1999/xlink" x="0px"
	 y="0px" viewBox="0 0 64 64" style="enable-background:new 0 0 64 64;" xml:space="preserve">
<path d="M61.9,12.8c-3.4-3.5-6.8-7.1-10.4-10.5c-0.6-0.6-1.3-1-2.1-1c-0.8,0-1.5,0.3-2.1,0.8l-39,38.8c-0.5,0.5-0.9,1.2-1.2,1.9
	L1.4,60.2c-0.2,0.6-0.1,1.3,0.2,1.8c0.2,0.3,0.7,0.8,1.7,0.8h0.3l17.6-5.9c0.7-0.2,1.3-0.6,1.9-1.2l38.8-38.8
	c0.6-0.6,0.9-1.3,0.9-2.1C62.7,14.1,62.4,13.3,61.9,12.8z M20.6,53.2c-0.1,0.1-0.3,0.3-0.5,0.3L5.6,58.4l4.8-14.4
	c0.1-0.2,0.2-0.4,0.3-0.5l28.9-28.8l9.8,9.8L20.6,53.2z M51.9,21.9l-9.8-9.8L49.3,5c3.3,3.2,6.6,6.6,9.7,9.8L51.9,21.9z"/>
</svg>
