<?xml version="1.0" encoding="utf-8"?>
<!-- Generator: Adobe Illustrator 22.0.1, SVG Export Plug-In . SVG Version: 6.00 Build 0)  -->
<svg version="1.1" id="lni_lni-school-bench" xmlns="http://www.w3.org/2000/svg" xmlns:xlink="http://www.w3.org/1999/xlink"
	 x="0px" y="0px" viewBox="0 0 64 64" style="enable-background:new 0 0 64 64;" xml:space="preserve">
<g>
	<path d="M32.6,26.4l-29-10.5c-0.9-0.3-1.9,0.1-2.2,1c-0.3,0.9,0.1,1.9,1,2.2l4.1,1.5v25.9c0,1,0.8,1.8,1.8,1.8s1.8-0.8,1.8-1.8
		V21.9l15,5.4v19.1c0,1,0.8,1.8,1.8,1.8s1.8-0.8,1.8-1.8V28.6l2.9,1.1c0.2,0.1,0.4,0.1,0.6,0.1c0.7,0,1.4-0.4,1.6-1.2
		C34,27.7,33.5,26.7,32.6,26.4z"/>
	<path d="M61,15.8c-1,0-1.8,0.8-1.8,1.8v16.7H48c-2.5,0-4.6,2-4.6,4.6v7.7c0,1,0.8,1.8,1.8,1.8s1.8-0.8,1.8-1.8v-7.7
		c0-0.6,0.5-1.1,1.1-1.1h11.3v8.8c0,1,0.8,1.8,1.8,1.8s1.8-0.8,1.8-1.8V36V17.5C62.8,16.5,62,15.8,61,15.8z"/>
</g>
</svg>
