<?xml version="1.0" encoding="utf-8"?>
<!-- Generator: Adobe Illustrator 22.0.1, SVG Export Plug-In . SVG Version: 6.00 Build 0)  -->
<svg version="1.1" id="lni_lni-school-bench-alt" xmlns="http://www.w3.org/2000/svg" xmlns:xlink="http://www.w3.org/1999/xlink"
	 x="0px" y="0px" viewBox="0 0 64 64" style="enable-background:new 0 0 64 64;" xml:space="preserve">
<g>
	<path d="M61,16.7c-1,0-1.8,0.8-1.8,1.8v8.8H42.5c-2.4,0-4.4,2-4.4,4.4v5.3c0,1.8,1.1,3.3,2.6,4v9.2c0,1,0.8,1.8,1.8,1.8
		s1.8-0.8,1.8-1.8v-8.8h15v0.9v7.9c0,1,0.8,1.8,1.8,1.8s1.8-0.8,1.8-1.8v-7.9v-2.6V18.4C62.8,17.5,62,16.7,61,16.7z M41.7,31.6
		c0-0.5,0.4-0.9,0.9-0.9h16.7v7H42.5c-0.5,0-0.9-0.4-0.9-0.9V31.6z"/>
	<path d="M30.6,18.9L6.5,12.3C5.3,12,4,12.2,3,13c-1.1,0.8-1.7,2.2-1.7,3.6v5.1c0,2,1.3,3.7,3.1,4.2l2.2,0.6v23.6
		c0,1,0.8,1.8,1.8,1.8s1.8-0.8,1.8-1.8V27.4l15,4.1c0,0,0,0.1,0,0.1v18.5c0,1,0.8,1.8,1.8,1.8s1.8-0.8,1.8-1.8V32.5l0.1,0
		c0.3,0.1,0.7,0.1,1.1,0.1c0.9,0,1.7-0.3,2.4-0.8c1.1-0.8,1.7-2.2,1.7-3.6v-5.1C33.8,21.1,32.5,19.4,30.6,18.9z M30.3,28.3
		c0,0.3-0.1,0.6-0.3,0.8c-0.1,0.1-0.3,0.1-0.4,0.1L5.3,22.5c-0.3-0.1-0.5-0.5-0.5-0.9v-5.1c0-0.3,0.1-0.6,0.3-0.8
		c0.1-0.1,0.3-0.1,0.4-0.1l24.2,6.6c0.3,0.1,0.5,0.5,0.5,0.9V28.3z"/>
</g>
</svg>
