<?xml version="1.0" encoding="utf-8"?>
<!-- Generator: Adobe Illustrator 22.0.1, SVG Export Plug-In . SVG Version: 6.00 Build 0)  -->
<svg version="1.1" id="lni_lni-world-alt" xmlns="http://www.w3.org/2000/svg" xmlns:xlink="http://www.w3.org/1999/xlink" x="0px"
	 y="0px" viewBox="0 0 64 64" style="enable-background:new 0 0 64 64;" xml:space="preserve">
<path d="M51.3,19L51.3,19c-1.4-3.7-4.1-6.7-7.7-8.4C40.3,9,36.7,8.7,33.3,9.7l-2.2-6.1c-0.3-0.9-1-1.7-1.9-2c-0.9-0.4-1.8-0.4-2.7,0
	C14.7,6.9,8.9,20.8,13.3,33c3.2,8.8,10.9,14.8,19.6,16.2v10h-6.2c-1,0-1.8,0.8-1.8,1.8s0.8,1.8,1.8,1.8h15.7c1,0,1.8-0.8,1.8-1.8
	s-0.8-1.8-1.8-1.8h-6v-9.7c0.2,0,0.3,0,0.5,0c2.2,0,4.5-0.3,6.7-0.9c0.9-0.3,1.6-0.9,2.1-1.7c0.4-0.9,0.5-1.9,0.2-2.8l-2.4-6.5
	C50.5,34.5,54,26.3,51.3,19z M16.6,31.9C12.8,21.3,17.7,9.4,27.8,4.8l2.3,6.2c-2.8,1.5-5,3.8-6.4,6.8c-1.7,3.6-1.9,7.7-0.5,11.4
	c1.4,3.7,4.1,6.7,7.7,8.4c2,0.9,4.2,1.4,6.3,1.4c1,0,1.9-0.1,2.9-0.3l2.5,6.6C31.8,48.3,20.4,42.4,16.6,31.9z M41.2,34.8
	c-2.9,1-6,0.9-8.7-0.4c-2.8-1.3-4.9-3.6-5.9-6.5s-0.9-6,0.4-8.7s3.6-4.9,6.5-5.9c1.3-0.5,2.6-0.7,3.9-0.7c1.6,0,3.3,0.4,4.8,1.1
	c2.8,1.3,4.9,3.6,5.9,6.5v0C50.2,26.1,47.1,32.7,41.2,34.8z"/>
</svg>
