<?xml version="1.0" encoding="utf-8"?>
<!-- Generator: Adobe Illustrator 22.0.1, SVG Export Plug-In . SVG Version: 6.00 Build 0)  -->
<svg version="1.1" id="lni_lni-world" xmlns="http://www.w3.org/2000/svg" xmlns:xlink="http://www.w3.org/1999/xlink" x="0px"
	 y="0px" viewBox="0 0 64 64" style="enable-background:new 0 0 64 64;" xml:space="preserve">
<path d="M58.8,16.9C54.7,9.6,47.6,4.3,39.5,2.2c-2.7-0.6-5.1-0.9-7.5-0.9c-2.6,0-5.2,0.3-7.7,1c-8,2.1-15,7.4-19.1,14.7
	c-2.6,4.7-4,9.8-4,15.1l0,0.7c0.1,5.6,1.8,11.1,4.8,15.9c4.9,7.7,12.9,12.8,21.8,13.8c1.2,0.2,2.5,0.3,4.1,0.3
	c1.2,0,2.5-0.1,3.8-0.2c9.1-1.1,17.2-6.2,22.2-14c3-4.7,4.7-10.1,4.8-15.8V32C62.8,26.9,61.4,21.6,58.8,16.9z M51.3,30.3
	c-0.3-3.4-1.2-6.6-2.5-9.7h7.9c1.4,3.1,2.2,6.4,2.4,9.7H51.3z M42.9,17.1h-9.2V6.3C36.7,8.4,39.8,12,42.9,17.1z M30.3,6.2v10.9h-9.7
	C23.8,12,27.1,8.3,30.3,6.2z M30.3,20.6v9.7H15.7c0.3-3.4,1.2-6.7,2.8-9.7H30.3z M30.3,33.8v12.3h-11c-2.2-3.7-3.4-8-3.6-12.3H30.3z
	 M30.3,49.6v8.3c-3.1-1.8-6.2-4.7-8.8-8.3H30.3z M33.8,57.9v-8.3H43C40.5,53,37.4,55.9,33.8,57.9z M33.8,46.1V33.8H48
	c-0.1,4.3-1.1,8.5-3,12.3H33.8z M33.8,30.3v-9.7H45c1.5,3,2.5,6.3,2.9,9.7H33.8z M54.8,17.1H47c-3-5-5.8-8.9-8.7-11.6
	c0.1,0,0.2,0,0.4,0.1C45.3,7.3,51.1,11.4,54.8,17.1z M25.2,5.7c0.1,0,0.1,0,0.2,0c-3,2.7-5.9,6.5-8.9,11.3c0,0,0,0.1-0.1,0.1H9.3
	C13,11.4,18.7,7.3,25.2,5.7z M7.3,20.6h7.3c-1.3,3.1-2.1,6.3-2.4,9.7H4.8C5,26.9,5.9,23.6,7.3,20.6z M4.8,33.8h7.3
	c0.2,4.3,1.2,8.5,3.1,12.3H8.6C6.4,42.3,5.1,38.1,4.8,33.8z M11.1,49.6h6.1c2.2,3.4,4.8,6.4,7.5,8.7C19.4,56.9,14.7,53.8,11.1,49.6z
	 M39.6,58.2c3-2.4,5.5-5.3,7.5-8.6h5.7C49.3,53.7,44.8,56.7,39.6,58.2z M55.3,46.1h-6.4c1.7-3.9,2.6-8.1,2.6-12.3h7.7
	C58.9,38.1,57.6,42.4,55.3,46.1z"/>
</svg>
