<?xml version="1.0" encoding="utf-8"?>
<!-- Generator: Adobe Illustrator 22.0.1, SVG Export Plug-In . SVG Version: 6.00 Build 0)  -->
<svg version="1.1" id="lni_lni-write" xmlns="http://www.w3.org/2000/svg" xmlns:xlink="http://www.w3.org/1999/xlink" x="0px"
	 y="0px" viewBox="0 0 64 64" style="enable-background:new 0 0 64 64;" xml:space="preserve">
<path d="M53.9,10.1l-0.2,0c-0.9,0-1.8,0-2.7,0V8.7c0-4.1-3.3-7.4-7.4-7.4H15.1c-4.1,0-7.4,3.3-7.4,7.4v33.9c0,1.2,0.5,2.3,1.3,3.2
	l15.2,15.6c0.9,0.9,2.1,1.4,3.3,1.4h18.9c2.5,0,4.6-2.1,4.6-4.6v-1.1l5-10.2c0.1-0.2,0.2-0.5,0.2-0.8l0.1-33.6
	C56.3,11.3,55.2,10.2,53.9,10.1z M52.8,18.5h-7l0-5c2.3,0,4.6,0,7,0.1L52.8,18.5z M24,56.2L13.6,45.5H24V56.2z M46.4,59.3H27.5V44.4
	c0-1.3-1.1-2.4-2.4-2.4H11.2V8.7c0-2.2,1.8-3.9,3.9-3.9h28.4c2.2,0,3.9,1.8,3.9,3.9v1.4c-0.9,0-1.8,0-2.7,0c-1.4,0-2.6,1.1-2.6,2.4
	l-0.1,33.6c0,0.3,0.1,0.5,0.2,0.8l5.1,10.2v1.1C47.5,58.8,47,59.3,46.4,59.3z M49.2,52.7l-3.5-7l0-23.7h7l0,23.7L49.2,52.7z"/>
</svg>
