<?xml version="1.0" encoding="utf-8"?>
<!-- Generator: Adobe Illustrator 22.0.1, SVG Export Plug-In . SVG Version: 6.00 Build 0)  -->
<svg version="1.1" id="lni_lni-bar-chart" xmlns="http://www.w3.org/2000/svg" xmlns:xlink="http://www.w3.org/1999/xlink" x="0px"
	 y="0px" viewBox="0 0 64 64" style="enable-background:new 0 0 64 64;" xml:space="preserve">
<path d="M61,56.6h-6.2v-21c0-3-2.4-5.4-5.4-5.4h-6c-3,0-5.4,2.4-5.4,5.4v21h-7.4V20c0-3-2.4-5.4-5.4-5.4h-6c-3,0-5.4,2.4-5.4,5.4
	v36.6H6.6c-1,0-1.9-0.8-1.9-1.9V5.6c0-1-0.8-1.8-1.8-1.8S1.3,4.7,1.3,5.6v49.1c0,3,2.4,5.4,5.4,5.4h7.5h16.7h7.4h16.7H61
	c1,0,1.8-0.8,1.8-1.8S62,56.6,61,56.6z M17.6,56.6V20c0-1,0.8-1.9,1.9-1.9h6c1,0,1.9,0.8,1.9,1.9v36.6H17.6z M41.7,56.6v-21
	c0-1,0.8-1.9,1.9-1.9h6c1,0,1.9,0.8,1.9,1.9v21H41.7z"/>
</svg>
