<?xml version="1.0" encoding="utf-8"?>
<!-- Generator: Adobe Illustrator 22.0.1, SVG Export Plug-In . SVG Version: 6.00 Build 0)  -->
<svg version="1.1" id="lni_lni-graph" xmlns="http://www.w3.org/2000/svg" xmlns:xlink="http://www.w3.org/1999/xlink" x="0px"
	 y="0px" viewBox="0 0 64 64" style="enable-background:new 0 0 64 64;" xml:space="preserve">
<g>
	<path d="M46.3,13.4c-3.3,0-6,2.7-6,6c0,0.3,0,0.6,0.1,1l-2.9,1.9l-3.2-1c-0.7-2.6-3-4.5-5.8-4.5c-3.3,0-6,2.7-6,6
		c0,0.6,0.1,1.3,0.3,1.8c-0.9,0.7-1.9,1.5-2.9,2.2c-1-0.8-2.3-1.3-3.7-1.3c-3.3,0-6,2.7-6,6c0,3.3,2.7,6,6,6s6-2.7,6-6
		c0-0.6-0.1-1.2-0.3-1.8c0.9-0.7,1.9-1.5,2.9-2.3c1,0.8,2.3,1.3,3.7,1.3c2.6,0,4.7-1.6,5.6-3.9l2.5,0.8c0.3,0.1,0.6,0.2,1,0.2
		c0.6,0,1.2-0.2,1.7-0.5l2.7-1.7c1.1,1.2,2.6,1.9,4.4,1.9c3.3,0,6-2.7,6-6S49.6,13.4,46.3,13.4z M16.2,33.9c-1.4,0-2.5-1.1-2.5-2.5
		s1.1-2.5,2.5-2.5s2.5,1.1,2.5,2.5S17.6,33.9,16.2,33.9z M28.5,25.1c-1.4,0-2.5-1.1-2.5-2.5s1.1-2.5,2.5-2.5s2.5,1.1,2.5,2.5
		S29.9,25.1,28.5,25.1z M46.3,21.9c-1.4,0-2.5-1.1-2.5-2.5s1.1-2.5,2.5-2.5s2.5,1.1,2.5,2.5S47.7,21.9,46.3,21.9z"/>
	<path d="M55.4,6.4H8.6c-4.1,0-7.4,3.3-7.4,7.4v23.2c0,4.1,3.3,7.4,7.4,7.4h21.6v9.8H18.8c-1,0-1.8,0.8-1.8,1.8s0.8,1.8,1.8,1.8
		h26.4c1,0,1.8-0.8,1.8-1.8s-0.8-1.8-1.8-1.8H33.8v-9.8h21.6c4.1,0,7.4-3.3,7.4-7.4V13.7C62.8,9.7,59.5,6.4,55.4,6.4z M59.3,36.9
		c0,2.1-1.7,3.9-3.9,3.9H8.6c-2.1,0-3.9-1.7-3.9-3.9V13.7c0-2.1,1.7-3.9,3.9-3.9h46.8c2.1,0,3.9,1.7,3.9,3.9V36.9z"/>
</g>
</svg>
