<?xml version="1.0" encoding="utf-8"?>
<!-- Generator: Adobe Illustrator 22.0.1, SVG Export Plug-In . SVG Version: 6.00 Build 0)  -->
<svg version="1.1" id="lni_lni-keyword-research" xmlns="http://www.w3.org/2000/svg" xmlns:xlink="http://www.w3.org/1999/xlink"
	 x="0px" y="0px" viewBox="0 0 64 64" style="enable-background:new 0 0 64 64;" xml:space="preserve">
<g>
	<path d="M61.6,52L47.8,38.1c-0.9-0.9-2.1-1.4-3.4-1.4c-1.3,0-2.5,0.5-3.4,1.4l-0.2,0.2l-6.1-6.1c6.2-7.5,5.8-18.6-1.2-25.7
		c-7.4-7.4-19.5-7.4-27,0c-7.4,7.4-7.4,19.5,0,27c3.7,3.7,8.6,5.6,13.5,5.6c4.3,0,8.7-1.5,12.2-4.4l6.1,6.1L38.1,41
		c-0.9,0.9-1.4,2.1-1.4,3.4c0,1.3,0.5,2.5,1.4,3.4L52,61.6c0.9,0.9,2.1,1.4,3.4,1.4c1.3,0,2.5-0.5,3.4-1.4l2.9-2.9
		c0.9-0.9,1.4-2.1,1.4-3.4C63,54.1,62.5,52.9,61.6,52z M9,31C3,25,3,15.1,9,9c3-3,7-4.6,11-4.6S28,6,31,9c6.1,6.1,6.1,15.9,0,22
		C25,37.1,15.1,37.1,9,31z M59.2,56.2l-2.9,2.9c-0.5,0.5-1.3,0.5-1.8,0L40.6,45.3c-0.2-0.2-0.4-0.6-0.4-0.9c0-0.3,0.1-0.6,0.4-0.9
		l2.9-2.9c0.2-0.2,0.5-0.4,0.9-0.4c0.3,0,0.6,0.1,0.9,0.4l13.9,13.9c0.2,0.2,0.4,0.6,0.4,0.9C59.5,55.7,59.4,56,59.2,56.2z"/>
	<path d="M14.8,18h5.1c1,0,1.8-0.8,1.8-1.8s-0.8-1.8-1.8-1.8h-5.1c-1,0-1.8,0.8-1.8,1.8S13.9,18,14.8,18z"/>
	<path d="M25.5,22.3H14.8c-1,0-1.8,0.8-1.8,1.8s0.8,1.8,1.8,1.8h10.7c1,0,1.8-0.8,1.8-1.8S26.4,22.3,25.5,22.3z"/>
</g>
</svg>
