<?xml version="1.0" encoding="utf-8"?>
<!-- Generator: Adobe Illustrator 22.0.1, SVG Export Plug-In . SVG Version: 6.00 Build 0)  -->
<svg version="1.1" id="lni_lni-network" xmlns="http://www.w3.org/2000/svg" xmlns:xlink="http://www.w3.org/1999/xlink" x="0px"
	 y="0px" viewBox="0 0 64 64" style="enable-background:new 0 0 64 64;" xml:space="preserve">
<g>
	<path d="M31.9,17.9c3.9,0,7-3.2,7-7s-3.2-7-7-7c-3.9,0-7,3.2-7,7S28,17.9,31.9,17.9z M31.9,7.3c2,0,3.5,1.6,3.5,3.5
		s-1.6,3.5-3.5,3.5c-2,0-3.5-1.6-3.5-3.5S29.9,7.3,31.9,7.3z"/>
	<path d="M23.2,28.2c2.2-2.4,5.4-3.8,8.8-3.8c3.3,0,6.5,1.4,8.8,3.8c0.3,0.4,0.8,0.6,1.3,0.6c0.4,0,0.9-0.2,1.2-0.5
		c0.7-0.7,0.8-1.8,0.1-2.5c-2.9-3.1-7-5-11.4-5c-4.3,0-8.4,1.8-11.4,5c-0.7,0.7-0.6,1.8,0.1,2.5C21.5,28.9,22.6,28.9,23.2,28.2z"/>
	<path d="M13.4,49.6c3.9,0,7-3.2,7-7s-3.2-7-7-7s-7,3.2-7,7S9.5,49.6,13.4,49.6z M13.4,39c2,0,3.5,1.6,3.5,3.5s-1.6,3.5-3.5,3.5
		s-3.5-1.6-3.5-3.5S11.4,39,13.4,39z"/>
	<path d="M13.1,52.3c-4.3,0-8.4,1.8-11.4,5c-0.7,0.7-0.6,1.8,0.1,2.5c0.7,0.7,1.8,0.6,2.5-0.1c2.2-2.4,5.4-3.8,8.8-3.8
		c3.3,0,6.5,1.4,8.8,3.8c0.3,0.4,0.8,0.6,1.3,0.6c0.4,0,0.9-0.2,1.2-0.5c0.7-0.7,0.8-1.8,0.1-2.5C21.5,54.1,17.4,52.3,13.1,52.3z"/>
	<path d="M50.4,49.6c3.9,0,7-3.2,7-7s-3.2-7-7-7s-7,3.2-7,7S46.5,49.6,50.4,49.6z M50.4,39c2,0,3.5,1.6,3.5,3.5s-1.6,3.5-3.5,3.5
		s-3.5-1.6-3.5-3.5S48.5,39,50.4,39z"/>
	<path d="M62.3,57.3c-2.9-3.1-7-5-11.4-5c-4.3,0-8.4,1.8-11.4,5c-0.7,0.7-0.6,1.8,0.1,2.5c0.7,0.7,1.8,0.6,2.5-0.1
		c2.2-2.4,5.4-3.8,8.8-3.8s6.5,1.4,8.8,3.8c0.3,0.4,0.8,0.6,1.3,0.6c0.4,0,0.9-0.2,1.2-0.5C62.9,59.1,62.9,58,62.3,57.3z"/>
	<path d="M37.9,38.4l-4.2-1.9V32c0-1-0.8-1.8-1.7-1.8S30.1,31,30.1,32v4.3l-4.3,2.1c-0.9,0.4-1.2,1.5-0.8,2.3
		c0.4,0.9,1.5,1.2,2.3,0.8l4.4-2.1l4.7,2.1c0.2,0.1,0.5,0.2,0.7,0.2c0.7,0,1.3-0.4,1.6-1C39.2,39.8,38.8,38.8,37.9,38.4z"/>
</g>
</svg>
