<?xml version="1.0" encoding="utf-8"?>
<!-- Generator: Adobe Illustrator 22.0.1, SVG Export Plug-In . SVG Version: 6.00 Build 0)  -->
<svg version="1.1" id="lni_lni-seo" xmlns="http://www.w3.org/2000/svg" xmlns:xlink="http://www.w3.org/1999/xlink" x="0px"
	 y="0px" viewBox="0 0 64 64" style="enable-background:new 0 0 64 64;" xml:space="preserve">
<g>
	<path d="M55.4,7.1H8.6c-4.1,0-7.4,3.3-7.4,7.4v23.2c0,4.1,3.3,7.4,7.4,7.4h21.6v8.4H18.8c-1,0-1.8,0.8-1.8,1.8s0.8,1.8,1.8,1.8
		h26.4c1,0,1.8-0.8,1.8-1.8s-0.8-1.8-1.8-1.8H33.8V45h21.6c4.1,0,7.4-3.3,7.4-7.4V14.4C62.8,10.4,59.4,7.1,55.4,7.1z M59.3,37.6
		c0,2.1-1.7,3.9-3.9,3.9H8.6c-2.1,0-3.9-1.7-3.9-3.9V14.4c0-2.1,1.7-3.9,3.9-3.9h46.8c2.1,0,3.9,1.7,3.9,3.9V37.6z"/>
	<path d="M16.1,19.9h4c1,0,1.8-0.8,1.8-1.8s-0.8-1.8-1.8-1.8h-4c-3.1,0-5.7,2.6-5.7,5.7s2.6,5.7,5.7,5.7c1.2,0,2.2,1,2.2,2.2
		c0,1.2-1,2.2-2.2,2.2h-4c-1,0-1.8,0.8-1.8,1.8c0,1,0.8,1.8,1.8,1.8h4c3.1,0,5.7-2.6,5.7-5.7c0-3.1-2.6-5.7-5.7-5.7
		c-1.2,0-2.2-1-2.2-2.2S14.9,19.9,16.1,19.9z"/>
	<path d="M31.9,19.9h4c1,0,1.8-0.8,1.8-1.8s-0.8-1.8-1.8-1.8h-4c-3.1,0-5.7,2.6-5.7,5.7V30c0,3.1,2.6,5.7,5.7,5.7h4
		c1,0,1.8-0.8,1.8-1.8c0-1-0.8-1.8-1.8-1.8h-4c-1.2,0-2.2-1-2.2-2.2v-2.2h6.2c1,0,1.8-0.8,1.8-1.8s-0.8-1.8-1.8-1.8h-6.2v-2.2
		C29.7,20.9,30.7,19.9,31.9,19.9z"/>
	<path d="M48.9,16.4h-2.3c-2.5,0-4.6,2-4.6,4.6v10.2c0,2.5,2,4.6,4.6,4.6h2.3c2.5,0,4.6-2,4.6-4.6V20.9
		C53.4,18.4,51.4,16.4,48.9,16.4z M49.9,31.1c0,0.6-0.5,1.1-1.1,1.1h-2.3c-0.6,0-1.1-0.5-1.1-1.1V20.9c0-0.6,0.5-1.1,1.1-1.1h2.3
		c0.6,0,1.1,0.5,1.1,1.1V31.1z"/>
</g>
</svg>
