<?xml version="1.0" encoding="utf-8"?>
<!-- Generator: Adobe Illustrator 22.0.1, SVG Export Plug-In . SVG Version: 6.00 Build 0)  -->
<svg version="1.1" id="lni_lni-target-customer" xmlns="http://www.w3.org/2000/svg" xmlns:xlink="http://www.w3.org/1999/xlink"
	 x="0px" y="0px" viewBox="0 0 64 64" style="enable-background:new 0 0 64 64;" xml:space="preserve">
<g>
	<path d="M61,30.3h-6.6c-0.9-11-9.7-19.7-20.6-20.6V3c0-1-0.8-1.8-1.8-1.8c-1,0-1.8,0.8-1.8,1.8v6.7c-10.9,0.9-19.7,9.6-20.6,20.6H3
		c-1,0-1.8,0.8-1.8,1.8c0,1,0.8,1.8,1.8,1.8h6.6c0.8,11.1,9.6,20,20.6,20.9V61c0,1,0.8,1.8,1.8,1.8c1,0,1.8-0.8,1.8-1.8v-6.4
		c11-0.9,19.8-9.8,20.6-20.9H61c1,0,1.8-0.8,1.8-1.8C62.8,31,62,30.3,61,30.3z M33.8,51.1v-0.7c0-1-0.8-1.8-1.8-1.8
		c-1,0-1.8,0.8-1.8,1.8v0.7c-9.1-0.8-16.3-8.2-17.1-17.4h3c1,0,1.8-0.8,1.8-1.8c0-1-0.8-1.8-1.8-1.8h-3c0.9-9,8.1-16.2,17.1-17.1
		v0.4c0,1,0.8,1.8,1.8,1.8c1,0,1.8-0.8,1.8-1.8v-0.4c9,0.8,16.2,8,17.1,17.1h-0.4c-1,0-1.8,0.8-1.8,1.8c0,1,0.8,1.8,1.8,1.8h0.4
		C50.1,42.9,42.9,50.3,33.8,51.1z"/>
	<path d="M37.3,36.5c1.6-1.4,2.6-3.5,2.6-5.8c0-4.4-3.5-7.9-7.9-7.9s-7.9,3.5-7.9,7.9c0,2.3,1,4.4,2.6,5.8c-1.9,0.7-3.6,1.7-5.1,3
		c-0.7,0.6-0.8,1.7-0.1,2.5c0.3,0.4,0.8,0.6,1.3,0.6c0.4,0,0.8-0.1,1.2-0.4c2.3-2,5.1-3.1,8.1-3.1c3,0,5.9,1.1,8.1,3.1
		c0.7,0.6,1.8,0.6,2.5-0.1c0.6-0.7,0.6-1.8-0.1-2.5C40.9,38.2,39.2,37.2,37.3,36.5z M32,26.3c2.4,0,4.4,2,4.4,4.4
		c0,2.4-2,4.4-4.4,4.4c-2.4,0-4.4-2-4.4-4.4C27.6,28.2,29.6,26.3,32,26.3z"/>
</g>
</svg>
