<?xml version="1.0" encoding="utf-8"?>
<!-- Generator: Adobe Illustrator 22.0.1, SVG Export Plug-In . SVG Version: 6.00 Build 0)  -->
<svg version="1.1" id="lni_lni-crown" xmlns="http://www.w3.org/2000/svg" xmlns:xlink="http://www.w3.org/1999/xlink" x="0px"
	 y="0px" viewBox="0 0 64 64" style="enable-background:new 0 0 64 64;" xml:space="preserve">
<g>
	<path d="M59.8,9c-1.8-1.2-4.2-1.2-6,0l-7,4.2C46,13.6,45,13.6,44.3,13l-8.7-6.9c-2.1-1.7-5.1-1.7-7.2,0l-8.7,7.1
		c-0.7,0.6-1.8,0.7-2.6,0.2l-6.9-4.1C8.3,8.2,6,8.2,4.1,9.4c-1.8,1.2-2.9,3.2-2.7,5.4l3.3,37.6c0.3,3.9,3.5,6.8,7.4,6.8h39.7
		c3.9,0,7-2.9,7.4-6.8l3.4-38.1C62.7,12.2,61.7,10.1,59.8,9z M51.8,55.7H12.1c-2,0-3.7-1.5-3.9-3.6L7.3,41h49.4l-1,11.1
		C55.5,54.1,53.8,55.7,51.8,55.7z M57,37.5H7l-2-23c-0.1-0.9,0.3-1.6,1-2.1C6.4,12.1,6.8,12,7.2,12c0.4,0,0.8,0.1,1.2,0.3l6.9,4.1
		c2.1,1.2,4.7,1,6.6-0.5l8.7-7.1l0,0c0.8-0.7,2-0.7,2.8,0l8.7,6.9c1.9,1.5,4.5,1.7,6.6,0.4l7-4.2c0.7-0.4,1.6-0.4,2.4,0
		c0.7,0.5,1.1,1.2,1.1,2.1L57,37.5z"/>
	<path d="M20.7,44.9c-1.6,0-2.8,1.3-2.8,2.8s1.3,2.8,2.8,2.8c1.6,0,2.8-1.3,2.8-2.8S22.3,44.9,20.7,44.9z"/>
	<circle cx="32" cy="47.7" r="2.8"/>
	<circle cx="43.3" cy="47.7" r="2.8"/>
</g>
</svg>
