<?xml version="1.0" encoding="utf-8"?>
<!-- Generator: Adobe Illustrator 22.0.1, SVG Export Plug-In . SVG Version: 6.00 Build 0)  -->
<svg version="1.1" id="lni_lni-CUP" xmlns="http://www.w3.org/2000/svg" xmlns:xlink="http://www.w3.org/1999/xlink" x="0px"
	 y="0px" viewBox="0 0 64 64" style="enable-background:new 0 0 64 64;" xml:space="preserve">
<path d="M57.5,9.2H46.9V3.9c0-1.4-1.2-2.6-2.6-2.6H19.7c-1.4,0-2.6,1.2-2.6,2.6v5.3H6.5c-1.5,0-2.6,1.1-2.6,2.6v0.9
	c0,7.5,5.8,13.8,13.2,14.6V28c0,7.6,5.8,13.8,13.2,14.7v16.5h-8.8c-1,0-1.8,0.8-1.8,1.8s0.8,1.8,1.8,1.8h21.1c1,0,1.8-0.8,1.8-1.8
	s-0.8-1.8-1.8-1.8h-8.8V42.7c3.4-0.4,6.6-1.9,9-4.3c2.8-2.8,4.2-6.5,4.2-10.4v-0.8c7.4-0.9,13.2-7.1,13.2-14.6v-0.9
	C60.1,10.3,59,9.2,57.5,9.2z M7.4,12.7h9.7v11.1C11.6,22.9,7.4,18.2,7.4,12.7z M43.4,28.1c0,3-1.1,5.8-3.2,7.9
	c-2.2,2.2-5.1,3.4-8.2,3.4c-6.3,0-11.4-5.1-11.4-11.3v-0.7V9.2V4.8h22.9v4.4v18.2V28.1z M46.9,23.7V12.7h9.7
	C56.6,18.2,52.4,22.9,46.9,23.7z"/>
</svg>
