<?xml version="1.0" encoding="utf-8"?>
<!-- Generator: Adobe Illustrator 22.0.1, SVG Export Plug-In . SVG Version: 6.00 Build 0)  -->
<svg version="1.1" id="lni_lni-gift" xmlns="http://www.w3.org/2000/svg" xmlns:xlink="http://www.w3.org/1999/xlink" x="0px"
	 y="0px" viewBox="0 0 64 64" style="enable-background:new 0 0 64 64;" xml:space="preserve">
<path d="M55.3,14.4h-7.4c2-0.9,3.5-2.1,4.1-3.7c0.8-2.1,0-4.3-2.4-6.6c-2.6-2.5-5.3-3.4-8-2.7c-4.7,1.2-7.8,7.3-9.3,10.9
	c-1.4-3.6-4.5-9.7-9.3-10.9c-2.7-0.7-5.4,0.2-8,2.7c-2.4,2.3-3.2,4.5-2.4,6.6c0.6,1.6,2.2,2.8,4.1,3.7H8.7c-2.5,0-4.5,2-4.5,4.5v7.6
	c0,2.5,2,4.5,4.5,4.5h0.8v25.9c0,3.2,2.6,5.9,5.9,5.9h34c3.2,0,5.9-2.6,5.9-5.9V31h0c2.5,0,4.5-2,4.5-4.5v-7.6
	C59.7,16.4,57.7,14.4,55.3,14.4z M42.5,4.9c0.3-0.1,0.6-0.1,0.8-0.1c1.2,0,2.5,0.6,3.8,2c0.6,0.6,1.9,1.9,1.6,2.8
	c-0.7,1.9-6.9,3.5-13.1,4C37,10.3,39.6,5.6,42.5,4.9z M16,9.5c-0.3-0.9,1-2.2,1.6-2.8c1.4-1.3,2.6-2,3.8-2c0.3,0,0.6,0,0.8,0.1
	c3,0.8,5.5,5.4,6.9,8.7C22.9,13,16.7,11.4,16,9.5z M51.7,56.9c0,1.3-1.1,2.4-2.4,2.4h-34c-1.3,0-2.4-1.1-2.4-2.4V31h38.7V56.9z
	 M56.2,26.5c0,0.6-0.4,1-1,1H8.7c-0.5,0-1-0.4-1-1v-7.6c0-0.5,0.5-1,1-1h46.5c0.5,0,1,0.4,1,1V26.5z"/>
</svg>
