<?xml version="1.0" encoding="utf-8"?>
<!-- Generator: Adobe Illustrator 22.0.1, SVG Export Plug-In . SVG Version: 6.00 Build 0)  -->
<svg version="1.1" id="lni_lni-home" xmlns="http://www.w3.org/2000/svg" xmlns:xlink="http://www.w3.org/1999/xlink" x="0px"
	 y="0px" viewBox="0 0 64 64" style="enable-background:new 0 0 64 64;" xml:space="preserve">
<g>
	<path d="M57.2,62.8H43.7c-3,0-5.5-2.5-5.5-5.5V46.3c0-1.1-0.9-2-2-2h-8.3c-1.1,0-2,0.9-2,2v10.9c0,3-2.5,5.5-5.5,5.5H6.7
		c-3,0-5.5-2.5-5.5-5.5V22.3c0-1.5,0.8-2.9,2.1-3.7L29.7,1.9c1.4-0.9,3.3-0.9,4.7,0l26.4,16.7c1.3,0.8,2,2.2,2,3.7v34.8
		C62.8,60.3,60.3,62.8,57.2,62.8z M27.8,40.8h8.3c3,0,5.5,2.5,5.5,5.5v10.9c0,1.1,0.9,2,2,2h13.6c1.1,0,2-0.9,2-2V22.4
		c0-0.3-0.2-0.6-0.4-0.8L32.5,4.9c-0.3-0.2-0.7-0.2-0.9,0L5.2,21.6c-0.3,0.2-0.4,0.5-0.4,0.8v34.9c0,1.1,0.9,2,2,2h13.6
		c1.1,0,2-0.9,2-2V46.3C22.3,43.3,24.8,40.8,27.8,40.8z"/>
</g>
</svg>
