<?xml version="1.0" encoding="utf-8"?>
<!-- Generator: Adobe Illustrator 22.0.1, SVG Export Plug-In . SVG Version: 6.00 Build 0)  -->
<svg version="1.1" id="lni_lni-thought" xmlns="http://www.w3.org/2000/svg" xmlns:xlink="http://www.w3.org/1999/xlink" x="0px"
	 y="0px" viewBox="0 0 64 64" style="enable-background:new 0 0 64 64;" xml:space="preserve">
<g>
	<path d="M36.9,38.2c2.2,1.3,4.7,2,7.2,2c8,0,14.5-6.5,14.5-14.5c0-6.1-3.7-11.4-9.2-13.6C47.8,5.7,42,1.3,35.5,1.3
		c-5.7,0-10.8,3.3-13.2,8.4c-0.8-0.1-1.6-0.2-2.4-0.2c-8,0.1-14.6,6.6-14.6,14.7c0,5.5,3.2,10.6,8.1,13.1c2.7,4,7.3,6.5,12,6.5
		C30,43.6,34.2,41.6,36.9,38.2z M35,34.9c-2,3.3-5.6,5.3-9.5,5.3c-3.7,0-7.3-2-9.3-5.3c-0.2-0.3-0.4-0.5-0.8-0.7
		c-4-1.8-6.5-5.8-6.5-10.1c0-6.1,5-11.1,11.1-11.2c1,0,2,0.1,3,0.4c0.9,0.2,1.8-0.2,2.1-1.1c1.5-4.5,5.7-7.5,10.5-7.5
		c5.2,0,9.8,3.8,10.8,8.9c0.1,0.6,0.6,1.1,1.2,1.3c4.6,1.4,7.7,5.7,7.7,10.6c0,6.1-5,11-11,11c-2.3,0-4.6-0.8-6.7-2.2
		c-0.4-0.3-0.9-0.4-1.4-0.3C35.6,34.2,35.2,34.4,35,34.9z"/>
	<path d="M40.7,43.3c-3.4,0-6.1,2.7-6.1,6.1s2.7,6.1,6.1,6.1s6.1-2.7,6.1-6.1S44.1,43.3,40.7,43.3z M40.7,52c-1.4,0-2.6-1.2-2.6-2.6
		c0-1.4,1.2-2.6,2.6-2.6s2.6,1.2,2.6,2.6C43.4,50.8,42.2,52,40.7,52z"/>
	<path d="M52.6,53c-2.7,0-4.9,2.2-4.9,4.9s2.2,4.9,4.9,4.9c2.6,0,4.7-2,4.9-4.6c0,0,0-0.1,0-0.1c0-1.3-0.4-2.6-1.3-3.5
		C55.2,53.5,54,53,52.6,53z M54,57.8c0,0.8-0.6,1.4-1.4,1.4c-0.8,0-1.4-0.6-1.4-1.4s0.6-1.4,1.4-1.4c0.4,0,0.7,0.1,1,0.4
		C53.8,57.2,54,57.5,54,57.8C54,57.8,54,57.8,54,57.8z"/>
</g>
</svg>
