<?xml version="1.0" encoding="utf-8"?>
<!-- Generator: Adobe Illustrator 22.0.1, SVG Export Plug-In . SVG Version: 6.00 Build 0)  -->
<svg version="1.1" id="lni_lni-t-shirt" xmlns="http://www.w3.org/2000/svg" xmlns:xlink="http://www.w3.org/1999/xlink" x="0px"
	 y="0px" viewBox="0 0 64 64" style="enable-background:new 0 0 64 64;" xml:space="preserve">
<path d="M60.1,5.1H41c-1.4,0-2.6,1-2.7,2.4c-0.4,2.9-3.1,5-6.3,5c-3.3,0-6-2.2-6.3-5L25.6,7c-0.4-1.2-1.4-2-2.6-2H3.9
	c-1.5,0-2.7,1.2-2.7,2.7L2.1,20c0,1.5,1.4,2.4,2.7,2.4h4.6L11,52.1c0.2,3.9,3.4,6.9,7.2,6.9h27.4c3.9,0,7-3,7.2-6.9l1.6-29.7h4.8
	c1.5,0,2.6-1.1,2.7-2.4l0.8-12.1l0-0.1C62.8,6.2,61.6,5.1,60.1,5.1z M58.5,18.9h-4.8c-1.3,0-2.8,1-2.8,2.5l-1.6,30.5
	c-0.1,2-1.8,3.6-3.7,3.6H18.2c-2,0-3.6-1.6-3.7-3.6l-1.6-30.4c0-1.4-1.2-2.5-2.7-2.5H5.5L4.8,8.6h17.5c0.9,4.2,5,7.4,9.7,7.4
	c4.7,0,8.8-3.1,9.7-7.4h17.5L58.5,18.9z"/>
</svg>
