<?xml version="1.0" encoding="utf-8"?>
<!-- Generator: Adobe Illustrator 22.0.1, SVG Export Plug-In . SVG Version: 6.00 Build 0)  -->
<svg version="1.1" id="lni_lni-soundcloud-original"
	 xmlns="http://www.w3.org/2000/svg" xmlns:xlink="http://www.w3.org/1999/xlink" x="0px" y="0px" viewBox="0 0 64 64"
	 style="enable-background:new 0 0 64 64;" xml:space="preserve">
<path d="M1.7,30.4c-0.1,0-0.3,0.1-0.3,0.3L1,34.3l0.4,3.4c0,0.1,0.1,0.3,0.3,0.3s0.1-0.1,0.3-0.3l0,0l0,0l0,0l0.4-3.4L2,30.7
	C2,30.6,1.8,30.4,1.7,30.4z M4.3,28.5c0-0.1-0.1-0.3-0.3-0.3c-0.1,0-0.3,0.1-0.3,0.3L3.1,34l0.6,5.4c0.1,0.1,0.1,0.3,0.3,0.3
	s0.3-0.1,0.3-0.3L5,34L4.3,28.5z M13.9,23.4c-0.3,0-0.4,0.1-0.4,0.4L13,34.1l0.4,6.7c0,0.3,0.1,0.4,0.4,0.4c0.3,0,0.4-0.1,0.4-0.4
	l0,0l0.4-6.7l-0.4-10.3C14.4,23.6,14.2,23.4,13.9,23.4z M8.9,26.9c-0.1,0-0.3,0.1-0.4,0.3L8.1,34l0.4,6.7c0,0.1,0.1,0.3,0.4,0.3
	c0.3,0,0.3-0.1,0.4-0.3l0.7-6.7l-0.7-6.7C9.2,27.2,9.2,26.9,8.9,26.9z M19,41.2c0.3,0,0.6-0.3,0.6-0.6l0.4-6.5l-0.4-13.7
	c0-0.3-0.3-0.6-0.6-0.6c-0.3,0-0.6,0.3-0.6,0.6L18,34.1l0.4,6.5C18.4,40.9,18.7,41.2,19,41.2z M29.3,41.3c0.4,0,0.7-0.3,0.7-0.7l0,0
	l0,0l0.3-6.4L30,18.4c0-0.4-0.4-0.7-0.7-0.7c-0.4,0-0.7,0.3-0.7,0.7l-0.4,15.9l0.3,6.4C28.6,40.9,28.9,41.3,29.3,41.3z M24.1,41.2
	c0.4,0,0.7-0.3,0.7-0.7l0,0l0.4-6.4l-0.4-13.7c0-0.4-0.3-0.7-0.7-0.7s-0.7,0.3-0.7,0.7l-0.4,13.7l0.4,6.4
	C23.4,40.9,23.6,41.2,24.1,41.2z M11.5,41.1c0.1,0,0.4-0.1,0.4-0.4l0.6-6.7l-0.6-6.2c0-0.3-0.1-0.4-0.4-0.4S11,27.5,11,27.8
	l-0.4,6.4l0.4,6.7C11,41.1,11.2,41.1,11.5,41.1z M6.4,40.8c0.1,0,0.3-0.1,0.3-0.3l0.7-6.4l-0.6-6.7c0-0.1-0.1-0.4-0.4-0.4
	c-0.1,0-0.3,0.1-0.3,0.3L5.5,34l0.6,6.4C6.2,40.8,6.4,40.8,6.4,40.8z M26.8,20.1c-0.4,0-0.7,0.3-0.7,0.7l-0.3,13.3l0.3,6.4
	c0,0.4,0.3,0.7,0.7,0.7s0.7-0.3,0.7-0.7l0,0l0.4-6.4l-0.4-13.3C27.3,20.5,27,20.1,26.8,20.1z M16.4,41.2c0.3,0,0.4-0.1,0.4-0.4
	l0.4-6.7l-0.4-12.5c0-0.3-0.3-0.4-0.4-0.4c-0.3,0-0.4,0.1-0.4,0.4l-0.4,12.6l0.4,6.7C16,41.1,16.1,41.2,16.4,41.2z M22.1,40.6
	L22.1,40.6l0.4-6.5l-0.4-14c0-0.3-0.3-0.7-0.7-0.7c-0.3,0-0.6,0.3-0.7,0.7l-0.4,14l0.4,6.5c0,0.3,0.3,0.7,0.7,0.7
	C21.8,41.2,22.1,40.9,22.1,40.6L22.1,40.6z M55.4,25.9c-1.1,0-2,0.1-3,0.6c-0.6-6.9-6.4-12.3-13.4-12.3c-1.7,0-3.4,0.3-4.8,0.8
	c-0.6,0.1-0.7,0.4-0.7,0.8v24.2c0,0.4,0.4,0.8,0.8,0.8h21.1c4.2,0,7.6-3.4,7.6-7.6C63.1,29.3,59.7,25.9,55.4,25.9z M32,16
	c-0.4,0-0.8,0.4-0.8,0.8L30.9,34l0.3,6.4c0,0.4,0.4,0.8,0.8,0.8c0.4,0,0.8-0.4,0.8-0.8l0,0l0.4-6.4l-0.4-17.1
	C32.8,16.4,32.4,16,32,16z M7.2,46c-0.8-0.1-1.1-0.3-1.1-0.7c0-0.3,0.1-0.4,0.7-0.4c0.4,0,0.8,0.1,1.3,0.6l0.8-0.7
	c-0.4-0.6-1.1-0.8-2.1-0.8c-1.1,0-2,0.7-2,1.7c0,1.1,0.7,1.4,1.7,1.7c1.1,0.1,1.3,0.4,1.3,0.8c0,0.4-0.3,0.6-1,0.6
	c-0.4,0-1.1-0.1-1.4-0.7l-0.7,0.7c0.4,0.7,1.3,1.1,2.3,1.1c1.6,0,2.3-0.7,2.3-1.8C9.2,46.6,8.1,46.3,7.2,46z M12.5,43.7
	c-1.6,0-2.5,1.1-2.5,3c0,1.7,0.8,3,2.5,3s2.5-1.1,2.5-3C15,45,14,43.7,12.5,43.7z M12.5,48.4c-0.8,0-1.3-0.7-1.3-1.8
	c0-1.1,0.4-1.8,1.3-1.8c0.8,0,1.3,0.7,1.3,1.8C13.7,47.7,13.5,48.4,12.5,48.4z M19.5,47c0,0.8-0.4,1.4-1.1,1.4s-1.1-0.6-1.1-1.4
	v-3.3h-1.1V47c0,1.7,0.8,2.7,2.3,2.7c1.4,0,2.3-1,2.3-2.7v-3.3h-1.1L19.5,47L19.5,47z M25.6,46.3c0,0.3,0,1.1,0,1.3
	c-0.1-0.1-0.3-0.4-0.4-0.7l-2-3h-1.1v5.7h1.1V47c0-0.3,0-1.1,0-1.3c0.1,0.1,0.3,0.4,0.4,0.7l2.1,3.1h1.1v-5.7h-1.1L25.6,46.3
	L25.6,46.3z M29.9,43.7h-1.7v5.7h1.7c1.4,0,3-0.8,3-3C32.8,44.7,31.6,43.7,29.9,43.7z M29.9,48.4h-0.7v-3.5h0.6
	c1.1,0,1.7,0.6,1.7,1.7C31.6,47.9,31,48.4,29.9,48.4z M36.2,44.9c0.4,0,0.8,0.1,1.1,0.6l1.1-0.4c-0.3-0.7-1-1.3-2.1-1.3
	c-1.4,0-2.5,1.1-2.5,3c0,1.8,1,3,2.5,3c1.1,0,1.7-0.4,2.1-1.3l-1-0.6c-0.3,0.4-0.6,0.7-1.1,0.7c-0.8,0-1.4-0.7-1.4-1.8
	C35,45.6,35.4,44.9,36.2,44.9z M40.5,43.7h-1.1v5.7h3.4v-1.1h-2.3V43.7z M45.7,43.7c-1.6,0-2.5,1.1-2.5,3c0,1.7,0.8,3,2.5,3
	c1.7,0,2.5-1.1,2.5-3C48.3,45,47.4,43.7,45.7,43.7z M45.7,48.4c-0.8,0-1.3-0.7-1.3-1.8c0-1.1,0.4-1.8,1.3-1.8c0.8,0,1.3,0.7,1.3,1.8
	C47.1,47.7,46.7,48.4,45.7,48.4z M52.9,47c0,0.8-0.4,1.4-1.1,1.4c-0.7,0-1.1-0.6-1.1-1.4v-3.3h-1.1V47c0,1.7,0.8,2.7,2.3,2.7
	c1.4,0,2.3-1,2.3-2.7v-3.3h-1.1V47L52.9,47z M57.2,43.7h-1.7v5.7h1.7c1.4,0,3-0.8,3-3C60,44.7,58.7,43.7,57.2,43.7z M57.2,48.4h-0.6
	v-3.5h0.6c1.1,0,1.7,0.6,1.7,1.7C58.7,47.9,58.3,48.4,57.2,48.4z"/>
</svg>
