<?xml version="1.0" encoding="utf-8"?>
<!-- Generator: Adobe Illustrator 22.0.1, SVG Export Plug-In . SVG Version: 6.00 Build 0)  -->
<svg version="1.1" id="lni_lni-twitter" xmlns="http://www.w3.org/2000/svg" xmlns:xlink="http://www.w3.org/1999/xlink" x="0px"
	 y="0px" viewBox="0 0 64 64" style="enable-background:new 0 0 64 64;" xml:space="preserve">
<g>
	<path d="M20.6,57.9c-7.1,0-13.9-2-19.6-5.9c-0.7-0.5-1-1.3-0.7-2.1s1.1-1.2,1.9-1.1C3.1,48.9,4,49,4.9,49c3.7,0,7.3-0.9,10.5-2.5
		c-3.9-1.4-7-4.6-8.4-8.8c-0.2-0.6,0-1.3,0.4-1.7c0.1-0.1,0.2-0.2,0.3-0.2c-3.1-2.6-5-6.4-5-10.7v-0.1c0-0.6,0.3-1.2,0.9-1.5
		c0.3-0.2,0.7-0.3,1-0.2c-1.2-2.1-1.8-4.4-1.8-6.9c0-2.5,0.6-4.9,1.9-7c0.3-0.5,0.8-0.8,1.4-0.9c0.6,0,1.1,0.2,1.5,0.6
		c5.4,6.7,13.2,10.9,21.7,11.8c0-0.3,0-0.6,0-0.8c0-7.7,6.2-13.9,13.9-13.9c3.5,0,6.8,1.3,9.4,3.7c1.4-0.4,2.8-1.3,4.2-2.2
		c0.6-0.4,1.3-0.8,1.9-1.2c0.6-0.3,1.3-0.3,1.8,0c0.6,0.4,0.9,1,0.8,1.7c-0.1,0.5-0.3,2.5-1,4.5c0.6,0,1.2,0,1.5,0
		c0.7-0.1,1.4,0.2,1.8,0.8c0.4,0.6,0.4,1.4,0,1.9c-1.4,2.2-3.5,3.6-5.6,5c-0.3,0.2-0.6,0.4-0.9,0.6c0,0.2,0,0.5,0,0.7
		C57,39.4,43.4,57.9,20.6,57.9z M8.9,52.2c3.7,1.4,7.6,2.2,11.7,2.2c20.6,0,32.9-16.7,32.9-32.9c0-0.4,0-1,0-1.3
		c-0.1-0.6,0.2-1.2,0.7-1.6c0.6-0.4,1.2-0.8,1.7-1.2c0.7-0.5,1.4-1,2.1-1.5c-0.3,0-0.5-0.1-0.8-0.1c-0.6-0.1-1.1-0.5-1.3-1.1
		c-0.2-0.6-0.2-1.2,0.2-1.7c0.2-0.3,0.5-0.8,0.7-1.3c-1.4,0.8-2.9,1.6-4.6,1.9c-0.6,0.1-1.2-0.1-1.6-0.5c-2-2.1-4.7-3.3-7.6-3.3
		c-5.7,0-10.4,4.7-10.4,10.4c0,0.7,0.1,1.5,0.3,2.4c0.1,0.5,0,1.1-0.4,1.5c-0.3,0.4-0.9,0.6-1.4,0.6C21.8,24.1,13,20.1,6.6,13.4
		c-0.3,0.9-0.4,1.9-0.4,2.9c0,3.5,1.7,6.7,4.6,8.6c0.7,0.4,0.9,1.2,0.7,2c-0.2,0.7-1,1.2-1.7,1.2c-1.1,0-2.3-0.2-3.4-0.5
		c1,3.8,4,6.8,8,7.6c0.8,0.2,1.4,0.9,1.4,1.7c0,0.8-0.5,1.5-1.3,1.7c-1.1,0.3-2.1,0.4-3,0.5c1.9,2.8,5,4.6,8.5,4.7
		c0.7,0,1.4,0.5,1.6,1.2c0.2,0.7,0,1.5-0.6,1.9C17.5,49.8,13.3,51.5,8.9,52.2z"/>
</g>
</svg>
