<?xml version="1.0" encoding="utf-8"?>
<!-- Generator: Adobe Illustrator 22.0.1, SVG Export Plug-In . SVG Version: 6.00 Build 0)  -->
<svg version="1.1" id="lni_lni-calculator" xmlns="http://www.w3.org/2000/svg" xmlns:xlink="http://www.w3.org/1999/xlink" x="0px"
	 y="0px" viewBox="0 0 64 64" style="enable-background:new 0 0 64 64;" xml:space="preserve">
<g>
	<path d="M56,1.3H8c-3.7,0-6.8,3-6.8,6.8v47.8c0,3.7,3,6.8,6.8,6.8h48c3.7,0,6.8-3,6.8-6.8V8.1C62.8,4.4,59.7,1.3,56,1.3z M59.3,8.1
		v22.2H33.8V4.8H56C57.8,4.8,59.3,6.3,59.3,8.1z M8,4.8h22.3v25.4H4.8V8.1C4.8,6.3,6.2,4.8,8,4.8z M4.8,55.9V33.8h25.5v25.4H8
		C6.2,59.2,4.8,57.7,4.8,55.9z M56,59.2H33.8V33.8h25.5v22.2C59.3,57.7,57.8,59.2,56,59.2z"/>
	<path d="M12.3,20.6h3.5v3.5c0,1,0.8,1.8,1.8,1.8s1.8-0.8,1.8-1.8v-3.5h3.5c1,0,1.8-0.8,1.8-1.8s-0.8-1.8-1.8-1.8h-3.5v-3.5
		c0-1-0.8-1.8-1.8-1.8s-1.8,0.8-1.8,1.8v3.5h-3.5c-1,0-1.8,0.8-1.8,1.8S11.3,20.6,12.3,20.6z"/>
	<path d="M44,17.5l-2.7,2.7c-0.7,0.7-0.7,1.8,0,2.5c0.3,0.3,0.8,0.5,1.2,0.5c0.4,0,0.9-0.2,1.2-0.5l2.7-2.7l2.7,2.7
		c0.3,0.3,0.8,0.5,1.2,0.5c0.4,0,0.9-0.2,1.2-0.5c0.7-0.7,0.7-1.8,0-2.5L49,17.5l2.7-2.7c0.7-0.7,0.7-1.8,0-2.5
		c-0.7-0.7-1.8-0.7-2.5,0l-2.7,2.7l-2.7-2.7c-0.7-0.7-1.8-0.7-2.5,0c-0.7,0.7-0.7,1.8,0,2.5L44,17.5z"/>
	<path d="M21.5,43.4h-7.9c-1,0-1.8,0.8-1.8,1.8s0.8,1.8,1.8,1.8h7.9c1,0,1.8-0.8,1.8-1.8S22.4,43.4,21.5,43.4z"/>
	<path d="M49.2,41.3l-7.9,7.9c-0.7,0.7-0.7,1.8,0,2.5c0.3,0.3,0.8,0.5,1.2,0.5c0.4,0,0.9-0.2,1.2-0.5l7.9-7.9c0.7-0.7,0.7-1.8,0-2.5
		C51,40.6,49.9,40.6,49.2,41.3z"/>
</g>
</svg>
