<?xml version="1.0" encoding="utf-8"?>
<!-- Generator: Adobe Illustrator 22.0.1, SVG Export Plug-In . SVG Version: 6.00 Build 0)  -->
<svg version="1.1" id="lni_lni-coin" xmlns="http://www.w3.org/2000/svg" xmlns:xlink="http://www.w3.org/1999/xlink" x="0px"
	 y="0px" viewBox="0 0 64 64" style="enable-background:new 0 0 64 64;" xml:space="preserve">
<g>
	<path d="M36,30.3h-7.4c-2.5,0-4.6-1.9-4.6-4.3c0-2.4,2-4.3,4.6-4.3h10.7c1,0,1.8-0.8,1.8-1.8s-0.8-1.8-1.8-1.8h-5.5v-3.1
		c0-1-0.8-1.8-1.8-1.8s-1.8,0.8-1.8,1.8v3.1h-1.7c-4.4,0-8.1,3.5-8.1,7.8s3.6,7.8,8.1,7.8H36c2.5,0,4.6,1.9,4.6,4.3s-2,4.3-4.6,4.3
		H24.8c-1,0-1.8,0.8-1.8,1.8s0.8,1.8,1.8,1.8h5.5v3.1c0,1,0.8,1.8,1.8,1.8s1.8-0.8,1.8-1.8v-3.1H36c4.4,0,8.1-3.5,8.1-7.8
		C44,33.7,40.4,30.3,36,30.3z"/>
	<path d="M32,1.3C15,1.3,1.3,15,1.3,32C1.3,49,15,62.8,32,62.8C49,62.8,62.8,49,62.8,32C62.8,15,49,1.3,32,1.3z M32,59.3
		C17,59.3,4.8,47,4.8,32C4.8,17,17,4.8,32,4.8C47,4.8,59.3,17,59.3,32C59.3,47,47,59.3,32,59.3z"/>
</g>
</svg>
