<?xml version="1.0" encoding="utf-8"?>
<!-- Generator: Adobe Illustrator 22.0.1, SVG Export Plug-In . SVG Version: 6.00 Build 0)  -->
<svg version="1.1" id="lni_lni-credit-cards" xmlns="http://www.w3.org/2000/svg" xmlns:xlink="http://www.w3.org/1999/xlink"
	 x="0px" y="0px" viewBox="0 0 64 64" style="enable-background:new 0 0 64 64;" xml:space="preserve">
<path d="M59.6,17.9v-6.2c0-1.7-0.7-3.2-2-4.2c-1.3-1-3-1.4-4.6-1.1L7.8,17.3H7c-3.2,0-5.8,2.6-5.8,5.8v28.9c0,3.2,2.6,5.8,5.8,5.8
	h50c3.2,0,5.8-2.6,5.8-5.8V23C62.8,20.8,61.5,18.9,59.6,17.9z M53.7,9.9c0.6-0.1,1.2,0,1.6,0.4c0.5,0.4,0.7,0.9,0.7,1.5v5.5H22.8
	L53.7,9.9z M7,20.8h50c1.2,0,2.3,1,2.3,2.3v4.8H4.8V23C4.8,21.8,5.8,20.8,7,20.8z M59.3,31.3v5.8H4.8v-5.8H59.3z M57,54.2H7
	c-1.2,0-2.3-1-2.3-2.3V40.6h54.5v11.3C59.3,53.2,58.2,54.2,57,54.2z"/>
</svg>
