<?xml version="1.0" encoding="utf-8"?>
<!-- Generator: Adobe Illustrator 22.0.1, SVG Export Plug-In . SVG Version: 6.00 Build 0)  -->
<svg version="1.1" id="lni_lni-diamond-alt" xmlns="http://www.w3.org/2000/svg" xmlns:xlink="http://www.w3.org/1999/xlink"
	 x="0px" y="0px" viewBox="0 0 64 64" style="enable-background:new 0 0 64 64;" xml:space="preserve">
<path d="M62.4,24.1L53.4,3.5c-0.4-0.9-1.1-1.6-1.9-1.9c-0.1-0.1-0.3-0.2-0.4-0.2c-0.3-0.1-0.5-0.1-0.8-0.1c-0.1,0-0.2,0-0.3,0H14
	c-1.5,0-2.8,0.9-3.4,2.2L1.6,24.1C1,25.4,1.2,26.8,2,28l27,33.2c0.7,1,1.8,1.5,3,1.5c0,0,0,0,0,0c0,0,0,0,0,0c0,0,0,0,0,0
	c1.2,0,2.3-0.6,2.9-1.5L62,27.9C62.8,26.8,63,25.4,62.4,24.1z M59,25H45l6-18.1L59,25z M42.3,22L34.2,4.8H48L42.3,22z M32,8.3
	L39.8,25H24.2L32,8.3z M21.6,22.2L15,4.8h14.9L21.6,22.2z M40.2,28.5L32,55.1l-8.2-26.6H40.2z M28.2,54.7L6.9,28.5h13.2L28.2,54.7z
	 M43.9,28.5h13.2L35.8,54.7L43.9,28.5z M12.5,8L18.9,25H5L12.5,8z"/>
</svg>
