<?xml version="1.0" encoding="utf-8"?>
<!-- Generator: Adobe Illustrator 22.0.1, SVG Export Plug-In . SVG Version: 6.00 Build 0)  -->
<svg version="1.1" id="lni_lni-diamond" xmlns="http://www.w3.org/2000/svg" xmlns:xlink="http://www.w3.org/1999/xlink" x="0px"
	 y="0px" viewBox="0 0 64 64" style="enable-background:new 0 0 64 64;" xml:space="preserve">
<g>
	<path d="M32,62.8c-1.2,0-2.3-0.6-3-1.5L4.6,27.9c-0.8-1.1-1-2.6-0.4-3.8l9.1-20.6c0.6-1.4,1.9-2.2,3.4-2.2h30.6
		c1.5,0,2.8,0.9,3.4,2.2l9.1,20.6c0.5,1.3,0.4,2.7-0.4,3.8L35,61.2C34.3,62.2,33.2,62.7,32,62.8L32,62.8z M16.7,4.8
		c-0.1,0-0.2,0.1-0.2,0.2L7.4,25.5c0,0.1,0,0.2,0,0.3l24.4,33.3c0,0,0.1,0.1,0.2,0.1c0.1,0,0.2-0.1,0.2-0.1l24.4-33.3
		c0.1-0.1,0.1-0.2,0-0.3L47.5,4.9c0-0.1-0.1-0.2-0.2-0.2H16.7z"/>
</g>
</svg>
