<?xml version="1.0" encoding="utf-8"?>
<!-- Generator: Adobe Illustrator 22.0.1, SVG Export Plug-In . SVG Version: 6.00 Build 0)  -->
<svg version="1.1" id="lni_lni-dollar" xmlns="http://www.w3.org/2000/svg" xmlns:xlink="http://www.w3.org/1999/xlink" x="0px"
	 y="0px" viewBox="0 0 64 64" style="enable-background:new 0 0 64 64;" xml:space="preserve">
<path d="M39.7,30.3H24.3c-5.4,0-9.9-4.2-9.9-9.4s4.4-9.4,9.9-9.4h22.9c1,0,1.8-0.8,1.8-1.8S48.1,8,47.1,8H35.8V3
	c0-1-0.8-1.8-1.8-1.8S32.3,2,32.3,3v5h-8.1c-7.4,0-13.4,5.8-13.4,12.9c0,7.1,6,12.9,13.4,12.9h15.5c5.4,0,9.9,4.2,9.9,9.4
	s-4.4,9.4-9.9,9.4H13.6c-1,0-1.8,0.8-1.8,1.8s0.8,1.8,1.8,1.8h18.7v5c0,1,0.8,1.8,1.8,1.8s1.8-0.8,1.8-1.8v-5h3.9
	c7.4,0,13.4-5.8,13.4-12.9S47.1,30.3,39.7,30.3z"/>
</svg>
