<?xml version="1.0" encoding="utf-8"?>
<!-- Generator: Adobe Illustrator 22.0.1, SVG Export Plug-In . SVG Version: 6.00 Build 0)  -->
<svg version="1.1" id="lni_lni-euro" xmlns="http://www.w3.org/2000/svg" xmlns:xlink="http://www.w3.org/1999/xlink" x="0px"
	 y="0px" viewBox="0 0 64 64" style="enable-background:new 0 0 64 64;" xml:space="preserve">
<path d="M49.8,59.3c-11.4,0-21.4-7.4-25.4-17.6h16.2c1,0,1.8-0.8,1.8-1.8s-0.8-1.8-1.8-1.8H23.3c-0.5-2-0.7-4-0.7-6.2
	c0-1.2,0.1-2.4,0.2-3.5h17.8c1,0,1.8-0.8,1.8-1.8S41.5,25,40.6,25H23.5C26.7,13.5,37.4,4.8,49.8,4.8c1,0,1.8-0.8,1.8-1.8
	s-0.8-1.8-1.8-1.8C35.5,1.3,23.2,11.6,19.9,25h-5.7c-1,0-1.8,0.8-1.8,1.8s0.8,1.8,1.8,1.8h5.1C19.1,29.6,19,30.8,19,32
	c0,2.1,0.2,4.2,0.7,6.2h-5.5c-1,0-1.8,0.8-1.8,1.8s0.8,1.8,1.8,1.8h6.5c4.2,12.1,15.8,21.1,29.1,21.1c1,0,1.8-0.8,1.8-1.8
	S50.8,59.3,49.8,59.3z"/>
</svg>
