<?xml version="1.0" encoding="utf-8"?>
<!-- Generator: Adobe Illustrator 22.0.1, SVG Export Plug-In . SVG Version: 6.00 Build 0)  -->
<svg version="1.1" id="lni_lni-money-location" xmlns="http://www.w3.org/2000/svg" xmlns:xlink="http://www.w3.org/1999/xlink"
	 x="0px" y="0px" viewBox="0 0 64 64" style="enable-background:new 0 0 64 64;" xml:space="preserve">
<g>
	<path d="M32,0.9C17.7,0.9,6.2,11.9,6.2,25.3c0,10.7,15.7,28.5,22.5,35.6c0.9,0.9,2.1,1.5,3.3,1.5c0,0,0,0,0,0
		c1.3,0,2.5-0.5,3.3-1.5c6.8-7.1,22.5-24.9,22.5-35.6C57.8,11.9,46.3,0.9,32,0.9z M32.8,58.6c-0.2,0.2-0.5,0.4-0.8,0.4
		c-0.3,0-0.6-0.1-0.8-0.4C26.1,53.2,9.7,35.1,9.7,25.3c0-11.5,10-20.9,22.3-20.9c12.3,0,22.3,9.4,22.3,20.9
		C54.3,35.1,37.9,53.2,32.8,58.6z"/>
	<path d="M34.7,25.4h-5.3c-1.2,0-2.1-1-2.1-2.1s0.9-2.1,2.1-2.1h8.4c1,0,1.8-0.8,1.8-1.8s-0.8-1.8-1.8-1.8h-4v-1.1
		c0-1-0.8-1.8-1.8-1.8c-1,0-1.8,0.8-1.8,1.8v1.1h-0.9c-3.1,0-5.6,2.5-5.6,5.6s2.5,5.6,5.6,5.6h5.3c1.2,0,2.1,1,2.1,2.1
		c0,1.2-0.9,2.1-2.1,2.1h-8.4c-1,0-1.8,0.8-1.8,1.8s0.8,1.8,1.8,1.8h4v1.1c0,1,0.8,1.8,1.8,1.8c1,0,1.8-0.8,1.8-1.8v-1.1h0.9
		c3.1,0,5.6-2.5,5.6-5.6C40.3,27.9,37.8,25.4,34.7,25.4z"/>
</g>
</svg>
