<?xml version="1.0" encoding="utf-8"?>
<!-- Generator: Adobe Illustrator 22.0.1, SVG Export Plug-In . SVG Version: 6.00 Build 0)  -->
<svg version="1.1" id="lni_lni-money-protection" xmlns="http://www.w3.org/2000/svg" xmlns:xlink="http://www.w3.org/1999/xlink"
	 x="0px" y="0px" viewBox="0 0 64 64" style="enable-background:new 0 0 64 64;" xml:space="preserve">
<g>
	<path d="M54.3,7.2L33.2,1.4c-0.8-0.2-1.5-0.2-2.3,0L9.7,7.2c-1.9,0.5-3.2,2.3-3.2,4.3v15.4c0,15.8,9.4,29.7,23.8,35.6
		c0.5,0.2,1.1,0.3,1.7,0.3s1.1-0.1,1.7-0.3c14.5-5.9,23.8-19.9,23.8-35.7V11.4C57.5,9.5,56.2,7.7,54.3,7.2z M54,26.7
		c0,14.2-8.7,27.2-21.6,32.4c-0.2,0.1-0.5,0.1-0.7,0C18.5,53.9,10,41.2,10,26.8V11.4c0-0.4,0.3-0.8,0.7-0.9l21.1-5.8
		c0.1,0,0.2,0,0.2,0s0.2,0,0.2,0l21.1,5.8c0.4,0.1,0.7,0.5,0.7,0.9V26.7z"/>
	<path d="M35.6,27.6h-7.3c-1.9,0-3.5-1.6-3.5-3.6s1.6-3.6,3.5-3.6h11.6c1,0,1.8-0.8,1.8-1.8s-0.8-1.8-1.8-1.8h-6.2v-2.2
		c0-1-0.8-1.8-1.8-1.8s-1.8,0.8-1.8,1.8v2.2h-1.9c-3.9,0-7,3.2-7,7.1s3.2,7.1,7,7.1h7.3c1.9,0,3.5,1.6,3.5,3.6c0,2-1.6,3.6-3.5,3.6
		H24.1c-1,0-1.8,0.8-1.8,1.8s0.8,1.8,1.8,1.8h6.2v2.2c0,1,0.8,1.8,1.8,1.8s1.8-0.8,1.8-1.8v-2.2h1.9c3.9,0,7-3.2,7-7.1
		C42.7,30.8,39.5,27.6,35.6,27.6z"/>
</g>
</svg>
