<?xml version="1.0" encoding="utf-8"?>
<!-- Generator: Adobe Illustrator 22.0.1, SVG Export Plug-In . SVG Version: 6.00 Build 0)  -->
<svg version="1.1" id="lni_lni-pound" xmlns="http://www.w3.org/2000/svg" xmlns:xlink="http://www.w3.org/1999/xlink" x="0px"
	 y="0px" viewBox="0 0 64 64" style="enable-background:new 0 0 64 64;" xml:space="preserve">
<path d="M59.7,59.3H20.5c4-3.1,6.6-8,6.6-13.4v-9.6h27.3c1,0,1.8-0.8,1.8-1.8s-0.8-1.8-1.8-1.8H27.2V20.5c0-8.7,7-15.7,15.6-15.7
	c4,0,7.9,1.5,10.8,4.3c0.7,0.7,1.8,0.6,2.5,0c0.7-0.7,0.6-1.8,0-2.5c-3.6-3.4-8.3-5.3-13.2-5.3c-10.5,0-19.1,8.6-19.1,19.2v12.2H6.9
	c-1,0-1.8,0.8-1.8,1.8s0.8,1.8,1.8,1.8h16.7v9.6c0,7.4-6,13.4-13.3,13.4H9.6H4.3c-1,0-1.8,0.8-1.8,1.8s0.8,1.8,1.8,1.8h5.3h0.8h49.4
	c1,0,1.8-0.8,1.8-1.8S60.7,59.3,59.7,59.3z"/>
</svg>
