<?xml version="1.0" encoding="utf-8"?>
<!-- Generator: Adobe Illustrator 22.0.1, SVG Export Plug-In . SVG Version: 6.00 Build 0)  -->
<svg version="1.1" id="lni_lni-rupee" xmlns="http://www.w3.org/2000/svg" xmlns:xlink="http://www.w3.org/1999/xlink" x="0px"
	 y="0px" viewBox="0 0 64 64" style="enable-background:new 0 0 64 64;" xml:space="preserve">
<path d="M53.1,17.1H38.9c-0.4-4.7-2.3-9.3-5.6-12.3h19.7c1,0,1.8-0.8,1.8-1.8s-0.8-1.8-1.8-1.8H10.9C9.9,1.3,9.2,2,9.2,3
	s0.8,1.8,1.8,1.8h13.2c6.9,0,10.7,5.9,11.3,12.3H10.9c-1,0-1.8,0.8-1.8,1.8s0.8,1.8,1.8,1.8h24.4c-1.6,6.3-11.6,11.2-18.4,11.2
	c-0.7,0-1.3,0.4-1.6,1c-0.3,0.6-0.2,1.3,0.2,1.9l23,27.5c0.3,0.4,0.8,0.6,1.3,0.6c0.4,0,0.8-0.1,1.1-0.4c0.7-0.6,0.8-1.7,0.2-2.5
	L20.4,34.9c7.9-1.3,17.2-6.9,18.5-14.4h14.2c1,0,1.8-0.8,1.8-1.8S54.1,17.1,53.1,17.1z"/>
</svg>
