<?xml version="1.0" encoding="utf-8"?>
<!-- Generator: Adobe Illustrator 22.0.1, SVG Export Plug-In . SVG Version: 6.00 Build 0)  -->
<svg version="1.1" id="lni_lni-yen" xmlns="http://www.w3.org/2000/svg" xmlns:xlink="http://www.w3.org/1999/xlink" x="0px"
	 y="0px" viewBox="0 0 64 64" style="enable-background:new 0 0 64 64;" xml:space="preserve">
<path d="M49.3,3.9c0.5-0.8,0.2-1.9-0.6-2.4c-0.8-0.5-1.9-0.2-2.4,0.6L32,26L17.7,2.1c-0.5-0.8-1.6-1.1-2.4-0.6
	c-0.8,0.5-1.1,1.6-0.6,2.4l15.6,25.9v3H18.8c-1,0-1.8,0.8-1.8,1.8s0.8,1.8,1.8,1.8h11.4v7H18.8c-1,0-1.8,0.8-1.8,1.8
	s0.8,1.8,1.8,1.8h11.4V61c0,1,0.8,1.8,1.8,1.8c1,0,1.8-0.8,1.8-1.8V46.9h11.4c1,0,1.8-0.8,1.8-1.8s-0.8-1.8-1.8-1.8H33.8v-7h11.4
	c1,0,1.8-0.8,1.8-1.8s-0.8-1.8-1.8-1.8H33.8v-3L49.3,3.9z"/>
</svg>
