<?xml version="1.0" encoding="utf-8"?>
<!-- Generator: Adobe Illustrator 22.0.1, SVG Export Plug-In . SVG Version: 6.00 Build 0)  -->
<svg version="1.1" id="lni_lni-bug" xmlns="http://www.w3.org/2000/svg" xmlns:xlink="http://www.w3.org/1999/xlink" x="0px"
	 y="0px" viewBox="0 0 64 64" style="enable-background:new 0 0 64 64;" xml:space="preserve">
<path d="M58.7,39.4h-9.9c-0.1-2.8-0.5-5.5-1.3-7.9l7.7-6.8c0.7-0.6,0.8-1.7,0.2-2.5c-0.6-0.7-1.7-0.8-2.5-0.2l-6.8,6
	c-1.6-3.4-3.9-6.1-6.5-8c1.2-0.3,2.4-1,3.3-1.9c1.2-1.3,1.8-3.1,1.6-5c-0.6-6.7-6-11.8-12.6-11.8c-6.6,0-12,5.1-12.7,11.8
	c-0.2,1.8,0.4,3.6,1.6,5c0.9,1,2.1,1.7,3.3,2c-2.6,1.8-4.8,4.5-6.4,7.8L11.1,22c-0.7-0.6-1.8-0.6-2.5,0.2C8,22.9,8,24,8.8,24.6
	l7.5,6.6c-0.8,2.5-1.3,5.3-1.3,8.1H5.3c-1,0-1.8,0.8-1.8,1.8s0.8,1.8,1.8,1.8h9.7c0.2,2.4,0.7,4.7,1.5,6.8l-7.8,6.8
	C8,57.2,8,58.3,8.6,59c0.3,0.4,0.8,0.6,1.3,0.6c0.4,0,0.8-0.1,1.2-0.4l6.9-6.1c3.1,5.8,8.1,9.7,13.9,9.7c5.8,0,10.9-3.9,14-9.8
	l7.1,6.3c0.3,0.3,0.7,0.4,1.2,0.4c0.5,0,1-0.2,1.3-0.6c0.6-0.7,0.6-1.8-0.2-2.5l-8-7c0.7-2.1,1.2-4.3,1.4-6.6h10
	c1,0,1.8-0.8,1.8-1.8S59.6,39.4,58.7,39.4z M22.7,13.4c0.5-4.9,4.5-8.7,9.3-8.7c4.7,0,8.7,3.7,9.1,8.7c0.1,0.8-0.2,1.7-0.7,2.2
	c-0.6,0.6-1.4,1-2.1,1H25.5c-0.8,0-1.5-0.3-2.1-1C22.8,15.1,22.6,14.3,22.7,13.4z M31.9,59.3c-7.4,0-13.4-8.6-13.4-19.1
	S24.5,21,31.9,21c5.2,0,9.7,4.3,12,10.5c0,0,0,0,0,0.1c0.9,2.6,1.5,5.5,1.5,8.6c0,0.2,0,0.4,0,0.6c0,0.1-0.1,0.3-0.1,0.5
	c0,0.1,0,0.2,0,0.4C44.8,51.4,38.9,59.3,31.9,59.3z"/>
</svg>
