<?xml version="1.0" encoding="utf-8"?>
<!-- Generator: Adobe Illustrator 22.0.1, SVG Export Plug-In . SVG Version: 6.00 Build 0)  -->
<svg version="1.1" id="lni_lni-flower" xmlns="http://www.w3.org/2000/svg" xmlns:xlink="http://www.w3.org/1999/xlink" x="0px"
	 y="0px" viewBox="0 0 64 64" style="enable-background:new 0 0 64 64;" xml:space="preserve">
<path d="M50.2,21c-2.1,0-5.2,0.8-9.8,2.6c1.8-4.5,2.6-7.7,2.6-9.8c0-6.9-5-12.5-11-12.5S21,6.9,21,13.8c0,2.1,0.8,5.2,2.6,9.8
	C19,21.8,15.9,21,13.8,21c-6.9,0-12.5,5-12.5,11s5.6,11,12.5,11c2.1,0,5.2-0.8,9.8-2.6C21.8,45,21,48.1,21,50.2
	c0,6.9,5,12.5,11,12.5s11-5.6,11-12.5c0-2.1-0.8-5.2-2.6-9.8c4.5,1.8,7.7,2.6,9.8,2.6c6.9,0,12.5-5,12.5-11S57.1,21,50.2,21z M26,32
	c0-3.3,2.7-6,6-6c3.3,0,6,2.7,6,6c0,3.3-2.7,6-6,6C28.7,38,26,35.3,26,32z M32,4.8c4.2,0,7.5,4.1,7.5,9c0,1.8-1,5.1-2.9,9.9
	c-1.4-0.8-2.9-1.2-4.6-1.2c-1.7,0-3.3,0.4-4.6,1.2c-1.9-4.8-2.9-8.1-2.9-9.9C24.5,8.8,27.8,4.8,32,4.8z M4.8,32c0-4.2,4.1-7.5,9-7.5
	c1.8,0,5.1,1,9.9,2.9c-0.8,1.4-1.2,2.9-1.2,4.6c0,1.7,0.4,3.3,1.2,4.6c-4.8,1.9-8.1,2.9-9.9,2.9C8.8,39.5,4.8,36.2,4.8,32z M32,59.3
	c-4.2,0-7.5-4.1-7.5-9c0-1.8,1-5.1,2.9-9.9c1.4,0.8,2.9,1.2,4.6,1.2c1.7,0,3.3-0.4,4.6-1.2c1.9,4.8,2.9,8.1,2.9,9.9
	C39.5,55.2,36.2,59.3,32,59.3z M50.2,39.5c-1.8,0-5.1-1-9.9-2.9c0.8-1.4,1.2-2.9,1.2-4.6c0-1.7-0.4-3.3-1.2-4.6
	c4.8-1.9,8.1-2.9,9.9-2.9c5,0,9,3.4,9,7.5S55.2,39.5,50.2,39.5z"/>
</svg>
