<?xml version="1.0" encoding="utf-8"?>
<!-- Generator: Adobe Illustrator 22.0.1, SVG Export Plug-In . SVG Version: 6.00 Build 0)  -->
<svg version="1.1" id="lni_lni-island" xmlns="http://www.w3.org/2000/svg" xmlns:xlink="http://www.w3.org/1999/xlink" x="0px"
	 y="0px" viewBox="0 0 64 64" style="enable-background:new 0 0 64 64;" xml:space="preserve">
<g>
	<path d="M53.1,21.9c5.3,0,9.7-4.3,9.7-9.7c0-5.3-4.3-9.7-9.7-9.7s-9.7,4.3-9.7,9.7C43.4,17.6,47.8,21.9,53.1,21.9z M53.1,6.1
		c3.4,0,6.2,2.8,6.2,6.2s-2.8,6.2-6.2,6.2s-6.2-2.8-6.2-6.2S49.7,6.1,53.1,6.1z"/>
	<path d="M61,57.9c-1,0-1.4-0.4-2.3-1.4c-1-1.1-2.3-2.6-4.9-2.6c-2.6,0-3.9,1.5-4.9,2.6c-0.9,1-1.3,1.4-2.3,1.4
		c-1,0-1.4-0.4-2.3-1.4c-1-1.1-2.3-2.6-4.9-2.6c-2.6,0-3.9,1.5-4.9,2.6c-0.9,1-1.3,1.4-2.3,1.4s-1.4-0.4-2.3-1.4
		c-1-1.1-2.3-2.6-4.9-2.6c-2.6,0-3.9,1.5-4.9,2.6c-0.7,0.8-1.1,1.2-1.8,1.3c-0.5-1.2-4.1-9.6-2.9-16.2c0.3-1.4,0.9-3,1.5-4.7
		c0.6-1.7,1.2-3.4,1.7-5.2c0.2-0.2,0.3-0.4,0.3-0.7c0-0.2,0.1-0.4,0.2-0.6c2.1,1,5.1,3.8,5.9,6.8c0.2,0.8,0.9,1.3,1.7,1.3
		c0.1,0,0.3,0,0.5-0.1c0.9-0.3,1.5-1.2,1.2-2.1c-1-3.7-4.4-7.4-7.7-9c2.7-3.5,8.1-5.3,13.8-4.3c1,0.2,1.9-0.5,2-1.4s-0.5-1.9-1.4-2
		c-6.6-1.2-12.9,0.9-16.5,4.9c-0.6-2.8-1.8-5.4-3.1-7.4c-1.1-1.7-2.9-3.7-5.3-4.1c-1-0.2-1.9,0.5-2,1.4c-0.2,1,0.5,1.9,1.4,2
		c0.7,0.1,1.8,0.9,3,2.6c1,1.5,2,3.7,2.5,5.9C11,23,6,23,2.1,25.5c-0.8,0.5-1.1,1.6-0.5,2.4c0.5,0.8,1.6,1.1,2.4,0.5
		c3.6-2.3,8.4-1.6,11.1,1.4c0,0.3-0.1,0.5-0.1,0.8c0,0.1,0,0.2,0,0.3c-0.4,1.6-1,3.3-1.6,4.9c-0.7,1.8-1.3,3.5-1.6,5.3
		c-0.9,4.7,0.3,10,1.4,13.7c-0.8-0.5-1.7-0.8-2.9-0.8c-2.6,0-3.9,1.5-4.9,2.6c-0.9,1-1.3,1.4-2.3,1.4c-1,0-1.8,0.8-1.8,1.8
		S2,61.4,3,61.4c2.6,0,3.9-1.5,4.9-2.6c0.9-1,1.3-1.4,2.3-1.4c1,0,1.5,0.5,2.3,1.4c0.8,0.9,2,2.1,3.9,2.5c0.2,0.1,0.4,0.1,0.5,0.1
		c0.1,0,0.1,0,0.2,0c0.1,0,0.2,0,0.3,0c2.6,0,3.9-1.5,4.9-2.6c0.9-1,1.3-1.4,2.3-1.4c1,0,1.4,0.4,2.3,1.4c1,1.1,2.3,2.6,4.9,2.6
		c2.6,0,3.9-1.5,4.9-2.6c0.9-1,1.3-1.4,2.3-1.4c1,0,1.4,0.4,2.3,1.4c1,1.1,2.3,2.6,4.9,2.6c2.6,0,3.9-1.5,4.9-2.6
		c0.9-1,1.3-1.4,2.3-1.4s1.4,0.4,2.3,1.4c1,1.1,2.3,2.6,4.9,2.6c1,0,1.8-0.8,1.8-1.8S62,57.9,61,57.9z"/>
</g>
</svg>
