<?xml version="1.0" encoding="utf-8"?>
<!-- Generator: Adobe Illustrator 22.0.1, SVG Export Plug-In . SVG Version: 6.00 Build 0)  -->
<svg version="1.1" id="lni_lni-leaf" xmlns="http://www.w3.org/2000/svg" xmlns:xlink="http://www.w3.org/1999/xlink" x="0px"
	 y="0px" viewBox="0 0 64 64" style="enable-background:new 0 0 64 64;" xml:space="preserve">
<path d="M62.2,59.6L48.4,45.8c3.2-3.8,4.9-8.4,4.9-13.4c0-7.2-3.6-14.7-10.1-21.2C26.3-5.6,5.4,4.4,5.2,4.5L4.6,4.8L4.4,5.3
	c-0.1,0.2-10.2,21,6.8,37.9c6.7,6.6,14.3,10,21.4,10c4.9,0,9.5-1.6,13.4-4.9l13.8,13.8c0.3,0.3,0.8,0.5,1.2,0.5
	c0.4,0,0.9-0.2,1.2-0.5C62.9,61.4,62.9,60.3,62.2,59.6z M13.6,40.7C-0.3,26.9,5.8,10.6,7.3,7.4c3.2-1.4,19.7-7.5,33.5,6.3
	c5.8,5.8,9,12.4,9,18.7c0,4.1-1.3,7.8-3.9,10.9l-8.2-8.2V21.9c0-1-0.8-1.8-1.8-1.8s-1.8,0.8-1.8,1.8v9.9l-9.5-9.5
	c-0.7-0.7-1.8-0.7-2.5,0c-0.7,0.7-0.7,1.8,0,2.5l7,7h-9.9c-1,0-1.8,0.8-1.8,1.8c0,1,0.8,1.8,1.8,1.8h13.4l10.7,10.6
	C35.4,52.4,23.4,50.5,13.6,40.7z"/>
</svg>
