<?xml version="1.0" encoding="utf-8"?>
<!-- Generator: Adobe Illustrator 22.0.1, SVG Export Plug-In . SVG Version: 6.00 Build 0)  -->
<svg version="1.1" id="lni_lni-mashroom" xmlns="http://www.w3.org/2000/svg" xmlns:xlink="http://www.w3.org/1999/xlink" x="0px"
	 y="0px" viewBox="0 0 64 64" style="enable-background:new 0 0 64 64;" xml:space="preserve">
<g>
	<path d="M54.5,14.8C50.1,6.4,41.5,1.3,32,1.3S13.9,6.4,9.5,14.8c-1.8,3.5-2.8,7-2.9,10.8c0,0,0,0,0,0.1v0.2c0,0.3,0.1,0.5,0.2,0.7
		C9,31.5,15.3,35.3,23.2,37l-1.7,16.2c-0.3,2.4,0.5,4.9,2.2,6.7c1.6,1.8,4,2.9,6.4,2.9H34c2.5,0,4.8-1,6.5-2.9
		c1.6-1.8,2.4-4.3,2.2-6.7l-1.7-16.2c7.9-1.7,14.2-5.4,16.4-10.3c0.1-0.2,0.2-0.5,0.2-0.8C57.3,21.9,56.3,18.2,54.5,14.8z
		 M39.1,53.5c0.2,1.5-0.3,2.9-1.3,4s-2.4,1.7-3.9,1.7h-3.9c-1.5,0-2.8-0.6-3.8-1.7c-1-1.1-1.4-2.5-1.3-4l1.7-16
		c1.7,0.2,3.5,0.3,5.3,0.3c1.8,0,3.7-0.1,5.4-0.3L39.1,53.5z M32,34.4c-10.2,0-19.3-3.7-21.9-8.9c0.1-3.1,0.9-6.1,2.5-9.1
		C16.4,9.2,23.8,4.8,32,4.8c8.2,0,15.6,4.5,19.4,11.7c1.5,2.8,2.3,5.9,2.5,9.1C51.3,30.7,42.1,34.4,32,34.4z"/>
	<path d="M21.5,21.4c-1.5,0-2.6,1.2-2.6,2.6s1.2,2.6,2.6,2.6c1.5,0,2.6-1.2,2.6-2.6S23,21.4,21.5,21.4z"/>
	<circle cx="42.6" cy="24.1" r="2.6"/>
	<circle cx="32.1" cy="13.5" r="2.6"/>
</g>
</svg>
