<?xml version="1.0" encoding="utf-8"?>
<!-- Generator: Adobe Illustrator 22.0.1, SVG Export Plug-In . SVG Version: 6.00 Build 0)  -->
<svg version="1.1" id="lni_lni-sprout" xmlns="http://www.w3.org/2000/svg" xmlns:xlink="http://www.w3.org/1999/xlink" x="0px"
	 y="0px" viewBox="0 0 64 64" style="enable-background:new 0 0 64 64;" xml:space="preserve">
<path d="M62.6,14.6c-0.2-2.2-1.9-3.9-4-4c-4.8-0.4-13.9-0.1-20,6.2c-1.9,2-3.4,4.5-4.6,7.1c-0.3-4.7-1.7-10.7-6-15.1
	C21.8,2.4,11.4,1.3,5.7,1.3c0,0,0,0-0.1,0C3.4,1.3,1.5,3,1.3,5.3c-0.4,5.6-0.3,16,5.9,22.3c4.9,5.1,12.7,6.1,18.2,6.1
	c1.9,0,3.6-0.1,4.8-0.3V61c0,1,0.8,1.8,1.8,1.8s1.8-0.8,1.8-1.8V44c0.5,0,1,0,1.6,0c5.5,0,15.5-0.9,21.4-7
	C63.2,30.5,63,19.1,62.6,14.6z M9.8,25.1C4.3,19.6,4.5,9.6,4.8,5.6c0-0.5,0.4-0.8,0.9-0.8c0,0,0,0,0,0C9.8,4.8,20,5.6,25.5,11.2
	c5.7,5.8,5.3,15.3,4.9,18.7C26.7,30.3,15.5,31.1,9.8,25.1z M54.2,34.7L54.2,34.7c-5.8,5.9-16.9,6-20.4,5.9
	c0.2-3.6,1.4-15.3,7.3-21.3c5.4-5.5,13.9-5.5,17.2-5.2c0.4,0,0.7,0.4,0.8,0.8C59.5,19,59.7,29.1,54.2,34.7z"/>
</svg>
