<?xml version="1.0" encoding="utf-8"?>
<!-- Generator: Adobe Illustrator 22.0.1, SVG Export Plug-In . SVG Version: 6.00 Build 0)  -->
<svg version="1.1" id="lni_lni-trees" xmlns="http://www.w3.org/2000/svg" xmlns:xlink="http://www.w3.org/1999/xlink" x="0px"
	 y="0px" viewBox="0 0 64 64" style="enable-background:new 0 0 64 64;" xml:space="preserve">
<g>
	<path d="M13.5,14.4c-7.4,0-12.3,10.2-12.3,19.7c0,9.3,4.5,16.7,10.6,17.9v9c0,1,0.8,1.8,1.8,1.8s1.8-0.8,1.8-1.8v-9.1
		c6-1.3,10.5-8.7,10.5-17.9C25.8,24.6,20.8,14.4,13.5,14.4z M15.3,48.3v-5.8c0-1-0.8-1.8-1.8-1.8s-1.8,0.8-1.8,1.8v5.8
		C7.8,47,4.7,41,4.7,34.1c0-8.3,4.3-16.2,8.8-16.2c4.5,0,8.8,7.9,8.8,16.2C22.3,40.9,19.2,46.9,15.3,48.3z"/>
	<path d="M62.8,26.4c0-11.9-6.1-25.1-15-25.1s-15,13.3-15,25.1c0,12,5.7,21.6,13.2,22.9V61c0,1,0.8,1.8,1.8,1.8s1.8-0.8,1.8-1.8
		V49.3C57.1,48.1,62.8,38.5,62.8,26.4z M49.6,45.7v-8.5c0-1-0.8-1.8-1.8-1.8s-1.8,0.8-1.8,1.8v8.5c-5.4-1.5-9.7-9.7-9.7-19.3
		c0-11.1,5.6-21.6,11.5-21.6s11.5,10.5,11.5,21.6C59.3,36,55,44.3,49.6,45.7z"/>
</g>
</svg>
