<?xml version="1.0" encoding="utf-8"?>
<!-- Generator: Adobe Illustrator 22.0.1, SVG Export Plug-In . SVG Version: 6.00 Build 0)  -->
<svg version="1.1" id="lni_lni-tree" xmlns="http://www.w3.org/2000/svg" xmlns:xlink="http://www.w3.org/1999/xlink" x="0px"
	 y="0px" viewBox="0 0 64 64" style="enable-background:new 0 0 64 64;" xml:space="preserve">
<path d="M46.9,25.6c0-11.5-6.1-24.3-14.9-24.3c-8.8,0-14.9,12.8-14.9,24.3c0,11.6,5.6,20.9,13.1,22.2V61c0,1,0.8,1.8,1.8,1.8
	s1.8-0.8,1.8-1.8V47.7C41.2,46.5,46.9,37.2,46.9,25.6z M33.7,44.1v-6.9c0-1-0.8-1.8-1.8-1.8s-1.8,0.8-1.8,1.8v6.9
	c-5.4-1.5-9.6-9.4-9.6-18.6c0-10.7,5.5-20.8,11.4-20.8c5.8,0,11.4,10.1,11.4,20.8C43.4,34.8,39.1,42.7,33.7,44.1z"/>
</svg>
