<?xml version="1.0" encoding="utf-8"?>
<!-- Generator: Adobe Illustrator 22.0.1, SVG Export Plug-In . SVG Version: 6.00 Build 0)  -->
<svg version="1.1" id="lni_lni-buger" xmlns="http://www.w3.org/2000/svg" xmlns:xlink="http://www.w3.org/1999/xlink" x="0px"
	 y="0px" viewBox="0 0 64 64" style="enable-background:new 0 0 64 64;" xml:space="preserve">
<path d="M57.1,23.1C56.3,13.9,48.5,6.5,39,6.5H25c-4.9,0-9.4,1.9-12.9,5.3c-3.1,3.1-4.9,7-5.2,11.3c-3.3,1.5-5.6,4.7-5.6,8.4v0.8
	c0,3.7,2.3,7,5.6,8.4c0.8,9.3,8.6,16.7,18.1,16.7h14c4.9,0,9.4-1.9,12.9-5.3c3.1-3,4.9-7,5.3-11.3c3.3-1.5,5.6-4.7,5.6-8.4v-0.7
	C62.8,27.9,60.4,24.6,57.1,23.1z M14.6,14.3C17.3,11.5,21,10,25,10h14c7.3,0,13.4,5.4,14.5,12.3c0,0-0.1,0-0.1,0H10.8
	c-0.1,0-0.2,0-0.3,0C11,19.3,12.4,16.5,14.6,14.3z M49.4,49.7C46.7,52.5,43,54,39,54H25c-7.3,0-13.4-5.4-14.5-12.3
	c0.1,0,0.2,0,0.3,0h42.4c0.1,0,0.2,0,0.3,0C53.1,44.7,51.7,47.5,49.4,49.7z M59.3,32.4c0,3.2-2.7,5.8-6,5.8H10.8c-3.3,0-6-2.6-6-5.8
	v-0.8c0-3.2,2.7-5.8,6-5.8h42.6c3.2,0,5.8,2.6,5.8,5.8V32.4z"/>
</svg>
