<?xml version="1.0" encoding="utf-8"?>
<!-- Generator: Adobe Illustrator 22.0.1, SVG Export Plug-In . SVG Version: 6.00 Build 0)  -->
<svg version="1.1" id="lni_lni-chef-hat" xmlns="http://www.w3.org/2000/svg" xmlns:xlink="http://www.w3.org/1999/xlink" x="0px"
	 y="0px" viewBox="0 0 64 64" style="enable-background:new 0 0 64 64;" xml:space="preserve">
<path d="M47.4,12.5C45.3,5.8,39.1,1.3,32,1.3c-7.1,0-13.3,4.5-15.4,11.2C8.7,14.1,3,21,3,29.1v0.1C3,35.4,7.7,40.6,13.8,41.4
	c0,3.3,0.2,10.8,0.2,15.5c0,3.2,2.7,5.8,5.9,5.8h24.1c3.2,0,5.8-2.6,5.9-5.8l0.3-15.6C56.4,40.6,61,35.3,61,29.1
	C61,21,55.3,14.1,47.4,12.5z M44.1,59.3H19.9c-1.3,0-2.4-1.1-2.4-2.3c0-1.4,0-3.1-0.1-4.9h29.1l-0.1,4.9
	C46.4,58.2,45.4,59.3,44.1,59.3z M49.1,38c-1.3,0.1-2.2,1.1-2.3,2.3l-0.2,8.2H17.4c-0.1-3.6-0.1-6.9-0.1-8.2c0-1.2-1-2.2-2.2-2.3
	c-4.8-0.3-8.6-4.1-8.6-8.8v-0.1c0-6.4,4.6-12,10.9-13.2c1.2-0.2,2.1-1.1,2.5-2.2c1.7-5.3,6.5-8.9,12.1-8.9c5.6,0,10.5,3.6,12.1,8.9
	c0.4,1.1,1.3,2,2.5,2.2c6.3,1.2,10.9,6.8,10.9,13.2C57.5,33.8,53.8,37.8,49.1,38z"/>
</svg>
