<?xml version="1.0" encoding="utf-8"?>
<!-- Generator: Adobe Illustrator 22.0.1, SVG Export Plug-In . SVG Version: 6.00 Build 0)  -->
<svg version="1.1" id="lni_lni-coffee-cup" xmlns="http://www.w3.org/2000/svg" xmlns:xlink="http://www.w3.org/1999/xlink" x="0px"
	 y="0px" viewBox="0 0 64 64" style="enable-background:new 0 0 64 64;" xml:space="preserve">
<g>
	<path d="M55,26.1c-1.6,0-3.2,0.5-4.4,1.4v-3.9c0-1.4-1-2.4-2.4-2.4h-43c-1.4,0-2.4,1-2.4,2.4v13.1c0,11,8.4,20.1,19.1,21.2H3
		c-1,0-1.8,0.8-1.8,1.8S2,61.4,3,61.4h47.4c1,0,1.8-0.8,1.8-1.8s-0.8-1.8-1.8-1.8H31.5c8.4-0.9,15.4-6.7,18-14.5
		c1.4,1.4,3.4,2.3,5.5,2.3c2.2,0,4.2-0.9,5.7-2.4c1.4-1.5,2.1-3.4,2-5.3v-4.3C62.7,29.5,59.3,26.1,55,26.1z M47.1,36.7
		c0,9.8-8,17.8-17.9,17.8h-5.1c-9.8,0-17.8-8-17.8-17.8V24.6h40.8V36.7z M58.2,41c-0.8,0.8-1.9,1.3-3.1,1.3c-2.3,0-4.2-1.9-4.2-4.2
		v-4.3c0-2.3,1.9-4.2,4.2-4.2c2.3,0,4.2,1.9,4.2,4.2l0,4.3C59.3,39.2,58.9,40.2,58.2,41z"/>
	<path d="M13.1,15.3c1,0,1.8-0.8,1.8-1.8V4.4c0-1-0.8-1.8-1.8-1.8s-1.8,0.8-1.8,1.8v9.2C11.4,14.5,12.2,15.3,13.1,15.3z"/>
	<path d="M26.7,15.3c1,0,1.8-0.8,1.8-1.8V4.4c0-1-0.8-1.8-1.8-1.8S25,3.4,25,4.4v9.2C25,14.5,25.7,15.3,26.7,15.3z"/>
	<path d="M40.3,15.3c1,0,1.8-0.8,1.8-1.8V4.4c0-1-0.8-1.8-1.8-1.8s-1.8,0.8-1.8,1.8v9.2C38.5,14.5,39.3,15.3,40.3,15.3z"/>
</g>
</svg>
