<?xml version="1.0" encoding="utf-8"?>
<!-- Generator: Adobe Illustrator 22.0.1, SVG Export Plug-In . SVG Version: 6.00 Build 0)  -->
<svg version="1.1" id="lni_lni-dinner" xmlns="http://www.w3.org/2000/svg" xmlns:xlink="http://www.w3.org/1999/xlink" x="0px"
	 y="0px" viewBox="0 0 64 64" style="enable-background:new 0 0 64 64;" xml:space="preserve">
<g>
	<path d="M46.7,1.3h-3.3c-1.8,0-3.2,1.4-3.2,3.2v53.7c0,2.5,2.1,4.6,4.6,4.6h2.9c2.5,0,4.6-2.1,4.6-4.6V36.9h2.1
		c1.8,0,3.2-1.4,3.2-3.2V12.2C57.5,6.1,52.6,1.3,46.7,1.3z M47.7,59.3h-2.9c-0.6,0-1.1-0.5-1.1-1.1V36.9h5.1v21.2
		C48.8,58.7,48.3,59.3,47.7,59.3z M54.1,33.4h-3.6h-1.8h-5.1V4.8h3c4.1,0,7.4,3.3,7.4,7.4V33.4z"/>
	<path d="M26.4,1.5c-1,0-1.8,0.8-1.8,1.8v15.2H19V3.2c0-1-0.8-1.8-1.8-1.8s-1.8,0.8-1.8,1.8v15.2H9.9V3.2c0-1-0.8-1.8-1.8-1.8
		S6.4,2.3,6.4,3.2v25.5c0,1.5,1.1,2.6,2.6,2.6h2.3v26.8c0,2.5,2.1,4.6,4.6,4.6h2.8c2.5,0,4.6-2.1,4.6-4.6V31.4h2.3
		c1.5,0,2.6-1.1,2.6-2.6V3.2C28.1,2.3,27.4,1.5,26.4,1.5z M19.8,58.2c0,0.6-0.5,1.1-1.1,1.1h-2.8c-0.6,0-1.1-0.5-1.1-1.1V31.4h5
		V58.2z M9.9,27.9v-6h14.8v6H9.9z"/>
</g>
</svg>
