<?xml version="1.0" encoding="utf-8"?>
<!-- Generator: Adobe Illustrator 22.0.1, SVG Export Plug-In . SVG Version: 6.00 Build 0)  -->
<svg version="1.1" id="lni_lni-fresh-juice" xmlns="http://www.w3.org/2000/svg" xmlns:xlink="http://www.w3.org/1999/xlink"
	 x="0px" y="0px" viewBox="0 0 64 64" style="enable-background:new 0 0 64 64;" xml:space="preserve">
<g>
	<path d="M56.7,33c-1.9-0.3-3.8,0.1-5.4,1.3c-0.5,0.4-1,0.6-1.5,0.8c0.7-2.2,3-5.3,4.7-7.2c0.7-0.7,0.6-1.8-0.1-2.5
		c-0.7-0.7-1.8-0.6-2.5,0.1c-0.9,1-5,5.6-5.7,9.6c-0.6-0.2-1.2-0.5-1.8-0.9c-1.7-1.1-3.6-1.6-5.3-1.2c-4,0.7-6.6,4.4-6,8.4
		c1.5,9.8,4.3,13.6,6.5,15.1c1,0.7,2.1,1.1,3.4,1.1c0.3,0,0.7,0,1.1-0.1l0.1,0c1-0.2,1.7-0.6,2.3-1.2c0.8-0.8,2.1-0.8,2.9,0
		c0.3,0.3,1.1,1,2.4,1.2c1.8,0.2,3.2-0.1,4.5-1c2.1-1.5,4.9-5.4,6.4-15l0,0C63.3,37.4,60.6,33.7,56.7,33z M59.2,40.8
		c-1.5,9.5-4.2,12.2-5,12.7c-0.5,0.3-1,0.5-2,0.4c-0.2,0-0.2,0-0.4-0.2c-1.1-1-2.5-1.6-3.9-1.6c-1.4,0-2.8,0.6-3.9,1.6
		c-0.1,0.1-0.1,0.1-0.5,0.2c-0.9,0.1-1.4-0.1-1.9-0.4c-0.8-0.6-3.6-3.1-5-12.7c-0.3-2.1,1-4,3.2-4.4c0.2,0,0.4,0,0.5,0
		c1,0,1.8,0.4,2.2,0.7c1.7,1.2,3.5,1.8,5.5,1.8l0.5,0c1.9-0.1,3.6-0.7,5.1-1.8c0.8-0.6,1.7-0.8,2.7-0.6
		C58.1,36.8,59.5,38.8,59.2,40.8z"/>
	<path d="M29.4,6.5h-8.7c-2.4,0-4.6,1.7-5.1,4.1L14.1,17h-8c-1.4,0-2.7,0.6-3.6,1.6c-0.9,1-1.4,2.3-1.3,3.7l2.6,30.8
		c0.2,2.5,2.3,4.4,4.8,4.4h14.2c2.5,0,4.6-1.9,4.8-4.4l2.6-30.8c0.1-1.3-0.3-2.7-1.3-3.7c-0.9-1-2.2-1.6-3.6-1.6h-7.8l1.3-5.7
		c0.2-0.8,0.9-1.3,1.7-1.3h8.7c1,0,1.8-0.8,1.8-1.8S30.4,6.5,29.4,6.5z M22.9,54H8.7c-0.7,0-1.3-0.5-1.3-1.2l-1.9-23h20.7l-1.9,23
		C24.2,53.4,23.6,54,22.9,54z M26.5,21c0.3,0.3,0.4,0.6,0.3,1l-0.4,4.3H5.1L4.8,22c0-0.4,0.1-0.7,0.3-1c0.3-0.3,0.6-0.4,1-0.4h19.4
		C25.9,20.5,26.2,20.7,26.5,21z"/>
</g>
</svg>
