<?xml version="1.0" encoding="utf-8"?>
<!-- Generator: Adobe Illustrator 22.0.1, SVG Export Plug-In . SVG Version: 6.00 Build 0)  -->
<svg version="1.1" id="lni_lni-juice" xmlns="http://www.w3.org/2000/svg" xmlns:xlink="http://www.w3.org/1999/xlink" x="0px"
	 y="0px" viewBox="0 0 64 64" style="enable-background:new 0 0 64 64;" xml:space="preserve">
<path d="M51.2,16c-0.9-1-2.1-1.5-3.4-1.5H34.4l3.9-9.7l9.5,0c0,0,0,0,0,0c1,0,1.7-0.8,1.8-1.7c0-1-0.8-1.8-1.7-1.8l-9.5,0
	c0,0,0,0,0,0c-1.4,0-2.6,0.9-3.1,2.1l-4.4,11.1H16.2c-1.3,0-2.5,0.6-3.4,1.5c-0.9,1-1.3,2.3-1.1,3.6l4.1,36.7
	c0.4,3.7,3.6,6.6,7.3,6.6h17.7c3.8,0,6.9-2.8,7.3-6.6l4.1-36.7C52.4,18.2,52,16.9,51.2,16z M15.4,18.3c0.1-0.1,0.4-0.4,0.8-0.4h31.5
	c0.4,0,0.7,0.2,0.8,0.4c0.1,0.1,0.3,0.4,0.3,0.8l-1.4,12.4l-1.7-0.9c-2.9-1.5-6.3-1.6-9.3-0.3l-1.2,0.6c-1.9,0.9-4.1,0.8-6-0.1
	l-0.6-0.3c-3-1.5-6.6-1.4-9.6,0.2L16.6,32l-1.4-12.8C15.1,18.7,15.3,18.4,15.4,18.3z M44.7,55.8c-0.2,2-1.9,3.4-3.9,3.4H23.2
	c-2,0-3.6-1.5-3.9-3.4L17,35.7l3.6-1.8c2-1.1,4.4-1.1,6.4-0.1l0.6,0.3c2.8,1.4,6.1,1.4,8.9,0.1l1.2-0.6c2-0.9,4.3-0.8,6.2,0.2
	l2.9,1.5L44.7,55.8z"/>
</svg>
