<?xml version="1.0" encoding="utf-8"?>
<!-- Generator: Adobe Illustrator 22.0.1, SVG Export Plug-In . SVG Version: 6.00 Build 0)  -->
<svg version="1.1" id="lni_lni-pizza" xmlns="http://www.w3.org/2000/svg" xmlns:xlink="http://www.w3.org/1999/xlink" x="0px"
	 y="0px" viewBox="0 0 64 64" style="enable-background:new 0 0 64 64;" xml:space="preserve">
<path d="M62.5,36.6c-2.2-7-7.2-14.6-13.9-21.3C42,8.6,34.4,3.7,27.4,1.5c-2.5-0.8-5.3,0.5-6.2,3L1.6,56c-0.7,1.9-0.3,3.9,1.1,5.3
	c1,1,2.2,1.5,3.5,1.5c0.6,0,1.2-0.1,1.8-0.3l30.1-11.5c0,0,0,0,0,0l0,0c0.1,0,0.1,0,0.2-0.1l3.6-1.4c0,0,0,0,0,0l17.5-6.7
	C62,41.9,63.3,39.1,62.5,36.6z M6.8,59.1c-0.8,0.3-1.4-0.2-1.6-0.3c-0.2-0.2-0.7-0.7-0.3-1.6l4.2-11c1,2.2,3.1,3.7,5.7,3.7
	c3.4,0,6.2-2.8,6.2-6.2c0-3.4-2.8-6.2-6.2-6.2c-0.9,0-1.8,0.2-2.6,0.6L20,17.5c1.3,0.8,2.6,1.6,3.9,2.6c-1.6,1.1-2.6,3-2.6,5
	c0,3.4,2.8,6.2,6.2,6.2c2.6,0,4.8-1.6,5.7-3.8C38,32,42.7,37.4,46.7,44l-2.4,0.9c0,0,0,0,0,0c0-3.4-2.8-6.2-6.2-6.2
	s-6.2,2.8-6.2,6.2c0,1.6,0.6,3,1.6,4.1L6.8,59.1z M12,43.7c0-1.5,1.2-2.7,2.7-2.7s2.7,1.2,2.7,2.7c0,1.5-1.2,2.7-2.7,2.7
	S12,45.2,12,43.7z M30.2,24.9c0,0.1,0,0.1,0,0.2c0,1.5-1.2,2.7-2.7,2.7c-1.5,0-2.7-1.2-2.7-2.7c0-1.4,1-2.5,2.4-2.7
	C28.2,23.2,29.2,24,30.2,24.9z M37.4,47.5c-1.2-0.3-2.1-1.4-2.1-2.6c0-1.5,1.2-2.7,2.7-2.7s2.7,1.2,2.7,2.7c0,0.6-0.2,1.1-0.5,1.5
	L37.4,47.5z M58.3,39.5L50,42.7c-4.9-8.3-11-14.9-16.9-20c-0.1,0-0.1-0.1-0.2-0.1c-1.4-1.2-2.8-2.3-4.2-3.3c0,0-0.1-0.1-0.1-0.1
	c-2.6-1.9-5.1-3.6-7.4-5l3.2-8.5c0.2-0.6,0.8-1,1.4-1c0.2,0,0.3,0,0.5,0.1c6.4,2,13.6,6.8,19.8,13c6.2,6.2,11,13.5,13,19.9
	C59.4,38.4,59,39.2,58.3,39.5z"/>
</svg>
