<?xml version="1.0" encoding="utf-8"?>
<!-- Generator: Adobe Illustrator 22.0.1, SVG Export Plug-In . SVG Version: 6.00 Build 0)  -->
<svg version="1.1" id="lni_lni-restaurant" xmlns="http://www.w3.org/2000/svg" xmlns:xlink="http://www.w3.org/1999/xlink" x="0px"
	 y="0px" viewBox="0 0 64 64" style="enable-background:new 0 0 64 64;" xml:space="preserve">
<g>
	<path d="M59.9,18.1L51.7,3.6c-0.8-1.4-2.3-2.3-3.9-2.3H16.2c-1.6,0-3.1,0.9-3.9,2.3L4.1,18.1c0,0,0,0,0,0c0,0.1-0.1,0.1-0.1,0.2
		c-0.1,0.2-0.1,0.4-0.1,0.6v39.3c0,2.5,2,4.5,4.5,4.5h7.8h10.5h28.8c2.5,0,4.5-2,4.5-4.5V19C60.1,18.7,60,18.4,59.9,18.1z M17,20.6
		c-0.2,2.5-2.3,4.4-4.8,4.4c-2.5,0-4.6-1.9-4.8-4.4H17z M30.2,20.6C30,23.1,27.9,25,25.4,25c-2.5,0-4.6-1.9-4.8-4.4H30.2z
		 M43.4,20.6c-0.2,2.5-2.3,4.4-4.8,4.4s-4.6-1.9-4.8-4.4H43.4z M56.5,20.6c-0.2,2.5-2.3,4.4-4.8,4.4c-2.5,0-4.6-1.9-4.8-4.4H56.5z
		 M15.4,5.3c0.2-0.3,0.5-0.5,0.9-0.5h31.5c0.4,0,0.7,0.2,0.9,0.5l6.7,11.9h-10c0,0,0,0,0,0h-0.2c0,0,0,0,0,0H31.9c0,0,0,0,0,0H19
		c0,0,0,0,0,0h-0.2c0,0,0,0,0,0h-10L15.4,5.3z M18,59.3V42.7c0-0.6,0.5-1,1-1h5c0.6,0,1,0.5,1,1v16.5H18z M55.6,59.3H28.5V42.7
		c0-2.5-2-4.5-4.5-4.5h-5c-2.5,0-4.5,2-4.5,4.5v16.5h-6c-0.6,0-1-0.5-1-1V27c1.4,1,3,1.6,4.8,1.6c2.7,0,5.1-1.3,6.6-3.2
		c1.5,2,3.9,3.2,6.6,3.2c2.7,0,5.1-1.3,6.6-3.2c1.5,2,3.9,3.2,6.6,3.2c2.7,0,5.1-1.3,6.6-3.2c1.5,2,3.9,3.2,6.6,3.2
		c1.8,0,3.5-0.6,4.8-1.6v31.3C56.6,58.8,56.1,59.3,55.6,59.3z"/>
	<path d="M46.4,38.2h-5.1c-1.7,0-3.1,1.4-3.1,3.1v5.1c0,1.7,1.4,3.1,3.1,3.1h5.1c1.7,0,3.1-1.4,3.1-3.1v-5.1
		C49.5,39.6,48.1,38.2,46.4,38.2z M46,46.1h-4.4v-4.4H46V46.1z"/>
</g>
</svg>
