<?xml version="1.0" encoding="utf-8"?>
<!-- Generator: Adobe Illustrator 22.0.1, SVG Export Plug-In . SVG Version: 6.00 Build 0)  -->
<svg version="1.1" id="lni_lni-service" xmlns="http://www.w3.org/2000/svg" xmlns:xlink="http://www.w3.org/1999/xlink" x="0px"
	 y="0px" viewBox="0 0 64 64" style="enable-background:new 0 0 64 64;" xml:space="preserve">
<path d="M59.6,40.5h-2c-1.4-13.1-11.4-23.3-23.8-24.2v-3.7h1.7c1,0,1.8-0.8,1.8-1.8s-0.8-1.8-1.8-1.8h-6.9c-1,0-1.8,0.8-1.8,1.8
	s0.8,1.8,1.8,1.8h1.7v3.7C17.9,17.2,7.8,27.4,6.4,40.5h-2c-1.7,0-3.1,1.4-3.1,3.1v5.2c0,3.3,2.7,5.9,5.9,5.9h49.6
	c3.3,0,5.9-2.7,5.9-5.9v-5.2C62.8,42,61.3,40.5,59.6,40.5z M32,19.8c11.3,0,20.6,9,22.1,20.8H9.9C11.4,28.7,20.7,19.8,32,19.8z
	 M59.3,48.9c0,1.3-1.1,2.4-2.4,2.4H7.2c-1.3,0-2.4-1.1-2.4-2.4V44h54.5V48.9z"/>
</svg>
